<svg width="360" height="300" viewBox="0 0 360 300" fill="none" xmlns="http://www.w3.org/2000/svg">
<path d="M193.805 168.6C212.948 175.576 240.33 189.34 253.017 192.612C271.884 197.478 313.871 194.8 316.405 213.6C317.83 224.177 310.105 230.3 295.205 234.2C283.071 237.375 269.514 237.721 266.405 244.2C262.805 251.7 275.205 256.4 273.205 266C271.041 276.384 247.019 281.87 221.605 279.2C194.005 276.3 171.087 268.553 169.837 253.699C169.105 245 180.198 230.847 161.305 228.8C150.859 227.668 139.205 225.6 130.676 212.904C124.418 203.591 125.681 188.558 133.059 179.148C145.405 163.4 170.205 160 193.805 168.6Z" fill="url(#paint0_linear)"/>
<path d="M316.402 213.6C314.241 197.56 283.362 197.155 262.624 194.359L298.616 233.223C311.268 229.295 317.714 223.336 316.402 213.6Z" fill="url(#paint1_linear)"/>
<path d="M304.749 230.934L265.184 194.688C261.292 194.211 257.683 193.679 254.584 192.987H254.583L290.963 235.198C292.382 234.894 293.801 234.566 295.201 234.2C298.817 233.253 302.006 232.175 304.749 230.934Z" fill="#33CAFF"/>
<path d="M286.872 213.8H275.049L284.772 224.533H298.633L286.872 213.8Z" fill="url(#paint2_linear)"/>
<path d="M274.323 213H285.994L276.094 203.965H266.138L274.323 213Z" fill="url(#paint3_linear)"/>
<path d="M285.85 225.733L293.83 234.543C294.287 234.432 294.742 234.319 295.196 234.2C299.076 233.185 302.464 232.017 305.337 230.66L299.938 225.733H285.85Z" fill="url(#paint4_linear)"/>
<path d="M265.405 203.165H275.209L266.034 194.791C262.625 194.384 259.417 193.942 256.556 193.396L265.405 203.165Z" fill="url(#paint5_linear)"/>
<path opacity="0.4" d="M258.195 242.199C245.469 244.973 227.614 243.885 221.195 243.399C214.776 242.913 193.695 240.499 192.195 248.799C191.019 255.306 200.195 261.099 214.995 261.399C232.653 261.757 254.748 254.233 270.889 256.732C268.067 252.41 264.167 248.841 266.395 244.199C267.06 242.812 268.208 241.708 269.714 240.795C266.558 240.795 262.764 241.203 258.195 242.199Z" fill="url(#paint6_radial)"/>
<path opacity="0.4" d="M174.186 235.007C174.828 235.157 175.36 235.487 175.685 235.936C176.009 236.384 176.087 236.899 175.903 237.383L175.262 239.081L177.569 239.621L178.211 237.923C178.544 237.041 178.431 236.111 177.905 235.277C177.989 235.209 178.075 235.142 178.159 235.073C178.539 234.757 178.908 234.431 179.267 234.097C179.985 233.428 180.663 232.721 181.295 231.968C182.55 230.461 183.646 228.765 184.27 226.783C184.575 225.806 184.779 224.672 184.632 223.456C184.495 222.243 183.94 220.919 182.958 219.86C182.593 219.459 182.183 219.102 181.742 218.787C184.147 215.391 185.917 212.841 186.129 212.401C186.996 210.601 184.796 210.001 184.796 210.001H172.929L148.433 226.362C152.729 227.741 157.109 228.347 161.296 228.801C166.915 229.409 169.882 231.09 171.296 233.378C173.635 230.131 176.437 226.232 178.977 222.673C178.997 222.689 179.019 222.703 179.038 222.718C179.382 223.011 179.63 223.387 179.764 223.906C179.895 224.429 179.89 225.051 179.752 225.757C179.484 227.154 178.797 228.587 177.884 229.936C177.426 230.613 176.912 231.272 176.354 231.907C176.075 232.224 175.785 232.535 175.487 232.838L175.033 233.284C175.024 233.292 175.015 233.301 175.006 233.309C174.952 233.295 174.899 233.278 174.845 233.265C173.629 232.981 172.392 233.076 171.339 233.453C171.675 234.013 171.921 234.608 172.09 235.232C172.683 234.934 173.445 234.834 174.186 235.007Z" fill="url(#paint7_radial)"/>
<path d="M65.8695 24.2668C78.1911 15.9224 104.028 10.9264 124.203 15.4C147.203 20.5 158.703 32.1 182.203 30.4C201.834 28.98 238.802 29.6 252.602 31.4C266.402 33.2 293.336 35.6 293.402 58.8C293.448 74.9332 279.076 77.7936 272.002 81.4C263.837 85.5628 254.269 88.1 254.269 97.8C254.269 105.6 262.854 109.014 268.002 113C274.202 117.8 282.3 124.265 278.802 135.8C276.201 144.376 267.274 151.273 257.997 151.938C254.078 152.218 240.143 154.172 224.175 147.391C214.935 143.467 206.935 135.067 204.102 127.4C198.477 112.178 197.826 114.55 190.002 115.8C170.647 118.892 159.602 127.9 148.802 141.2C137.993 154.512 124.872 166.688 108.202 166.2C87.7023 165.6 88.4295 146.886 79.6023 136.2C68.2023 122.4 42.8859 110.633 39.4692 76.6668C37.2028 54.1332 44.8027 38.5332 65.8695 24.2668Z" fill="url(#paint8_linear)"/>
<path d="M161.834 43.2009C169.061 43.2009 174.98 37.6163 175.522 30.5273C165.435 30.1725 157.501 27.2912 149.249 23.9655C148.512 25.6503 148.1 27.51 148.1 29.4669C148.1 37.0519 154.248 43.2009 161.834 43.2009Z" fill="url(#paint9_radial)"/>
<path d="M161.836 38.4004C166.537 38.4004 170.387 34.7683 170.741 30.1577C164.552 29.4197 159.11 27.7464 153.727 25.7176C153.199 26.858 152.902 28.1272 152.902 29.4665C152.902 34.4006 156.902 38.4004 161.836 38.4004Z" fill="url(#paint10_linear)"/>
<path d="M158.836 30.1999C159.999 30.1999 160.959 29.3187 161.087 28.1891C160.953 28.1511 160.821 28.1099 160.689 28.0711C160.617 29.0351 159.818 29.7999 158.836 29.7999C157.807 29.7999 156.969 28.9627 156.969 27.933C156.969 27.583 157.072 27.2594 157.24 26.979C157.109 26.9346 156.979 26.8902 156.848 26.8454C156.671 27.1686 156.569 27.539 156.569 27.933C156.569 29.1831 157.586 30.1999 158.836 30.1999Z" fill="#84DFFF"/>
<path d="M165.378 35.5567C164.527 35.5567 163.804 35.1919 163.394 34.5558C162.672 33.4358 163.173 31.8242 164.509 30.9629C165.049 30.6149 165.653 30.4309 166.257 30.4309C167.108 30.4309 167.832 30.7957 168.241 31.4321C168.963 32.5522 168.463 34.1638 167.126 35.0247C166.586 35.3731 165.981 35.5567 165.378 35.5567ZM166.257 30.8309C165.73 30.8309 165.201 30.9929 164.725 31.2989C163.574 32.0406 163.127 33.4042 163.73 34.3386C164.065 34.8582 164.665 35.1563 165.377 35.1563C165.904 35.1563 166.434 34.9943 166.909 34.6882C168.06 33.9466 168.507 32.583 167.904 31.6485C167.57 31.1289 166.97 30.8309 166.257 30.8309Z" fill="#A5E8FF"/>
<path d="M155.934 36.2316L155.698 35.9083C156.188 35.5503 156.469 35.0023 156.469 34.4039C156.469 33.3747 155.631 32.537 154.602 32.537C154.25 32.537 153.903 32.6398 153.599 32.8342L153.384 32.4974C153.752 32.2618 154.173 32.137 154.602 32.137C155.852 32.137 156.869 33.1539 156.869 34.4039C156.869 35.1315 156.528 35.7975 155.934 36.2316Z" fill="#85DFFF"/>
<path d="M74.203 22.7997H68.237C67.4026 23.2757 66.6102 23.7649 65.8694 24.2665C50.3538 34.7741 42.1506 46.0085 39.8066 60.1996H74.203V22.7997Z" fill="url(#paint11_linear)"/>
<path d="M278.796 125.443V135.801C280.016 131.779 279.823 128.376 278.796 125.443Z" fill="url(#paint12_linear)"/>
<path d="M80.6025 33.3998V17.6714C74.7785 19.4298 69.6773 21.6878 65.8693 24.2666C58.8585 29.0146 53.3469 33.9122 49.1865 39.1618L76.2025 37.7998C78.6325 37.7998 80.6025 35.8298 80.6025 33.3998Z" fill="url(#paint13_linear)"/>
<path d="M76.9314 31.3334V18.881C72.6324 20.4226 68.8491 22.2451 65.8642 24.2663C61.2549 27.388 57.2903 30.5733 53.9326 33.8811L74.9313 33.333C76.0362 33.3334 76.9314 32.4382 76.9314 31.3334Z" fill="#003041"/>
<path d="M268.014 113C262.865 109.014 254.28 105.6 254.28 97.7997V152.239C255.914 152.129 257.185 151.997 258.008 151.937C267.285 151.273 276.213 144.377 278.813 135.8V125.442C276.894 119.961 272.053 116.127 268.014 113Z" fill="url(#paint14_linear)"/>
<path d="M260.911 119.088V151.523C269.088 149.801 276.484 143.475 278.811 135.8C281.901 125.609 275.942 119.377 270.236 114.752L263.711 116.288C262.165 116.288 260.911 117.542 260.911 119.088Z" fill="url(#paint15_linear)"/>
<path d="M262.113 119.088C262.113 118.206 262.83 117.488 263.713 117.488H263.852L271.394 115.713C270.609 115.044 269.817 114.409 269.042 113.801L263.562 115.091C261.426 115.171 259.713 116.933 259.713 119.088V151.745C260.52 151.621 261.321 151.449 262.113 151.237V119.088V119.088Z" fill="#33CAFF"/>
<path d="M280.47 38.1872V64.0008H292.842C293.206 62.4368 293.409 60.7151 293.404 58.8006C293.374 48.2803 287.819 42.0373 280.47 38.1872Z" fill="#003C51"/>
<path d="M281.614 63.9998V38.8118C276.054 35.6202 269.292 33.9334 263.08 32.8694V63.9998H281.614Z" fill="url(#paint16_linear)"/>
<path d="M260.076 53.2674H258.876V62.4677H260.076V53.2674Z" fill="#003C51"/>
<path d="M273.007 46.6005H271.807V55.8008H273.007V46.6005Z" fill="#003C51"/>
<path d="M278.809 78.4099C285.72 75.3262 293.443 70.6352 293.409 58.8008C293.401 55.7423 292.921 53.0482 292.07 50.6666H278.809V78.4099V78.4099Z" fill="#003C51"/>
<path d="M254.28 63.0666V97.8005C254.28 88.1005 263.848 85.5633 272.014 81.4005C273.899 80.4397 276.303 79.5293 278.813 78.4089V50.6662L254.28 63.0666Z" fill="url(#paint17_linear)"/>
<path d="M254.28 65.8011L278.814 53.4006V50.6666L254.28 63.067V65.8011Z" fill="url(#paint18_linear)"/>
<path d="M254.703 55.0502C254.703 55.4919 254.753 56.6003 255.503 56.3003L275.304 46.7C275.887 46.4668 276.104 45.8916 276.104 45.4499V39.4998C276.104 39.0581 275.737 38.5665 275.304 38.6997L255.503 48.3C254.928 48.6252 254.703 49.2585 254.703 49.7001V55.0502Z" fill="url(#paint19_linear)"/>
<path d="M255.274 57.1514C255.273 57.1514 255.273 57.1514 255.274 57.1514C254.863 57.1514 253.908 56.9466 253.908 55.0505V49.7003C253.908 49.0479 254.224 48.1071 255.115 47.6039L255.159 47.5803L275.015 37.9536L275.074 37.9356C275.198 37.8972 275.326 37.878 275.454 37.878C276.325 37.878 276.909 38.7168 276.909 39.5004V45.4506C276.909 46.1226 276.575 47.0399 275.636 47.4315L255.806 57.0438C255.626 57.115 255.447 57.1514 255.274 57.1514ZM255.884 49.0071C255.609 49.1743 255.508 49.5111 255.508 49.7003V55.0505C255.508 55.1953 255.515 55.3117 255.525 55.4033L275.012 45.9574C275.301 45.8418 275.309 45.4898 275.309 45.4502V39.5892L255.884 49.0071Z" fill="url(#paint20_linear)"/>
<path d="M278.809 50.6666V53.4006H292.847C292.641 52.4458 292.381 51.535 292.07 50.6666H278.809Z" fill="url(#paint21_linear)"/>
<path d="M274.413 62.8998L268.413 65.6998C267.972 65.6998 267.613 66.0583 267.613 66.4999V83.5036C269.084 82.8208 270.571 82.136 272.013 81.4003C272.965 80.9155 274.051 80.4431 275.214 79.9507V63.6998C275.214 63.2582 274.855 62.8998 274.413 62.8998Z" fill="url(#paint22_linear)"/>
<path d="M275.214 71.7272L267.613 74.5332V75.8129L275.214 73.0064V71.7272Z" fill="url(#paint23_linear)"/>
<path d="M274.412 61.9009H274.19L268.149 64.7202C267.28 64.8478 266.611 65.5978 266.611 66.5011V83.9708C267.273 83.6604 267.942 83.3516 268.611 83.04V66.7011L274.212 64.0978V80.3799C274.85 80.1027 275.521 79.8207 276.212 79.5299V63.701C276.212 62.7085 275.404 61.9009 274.412 61.9009Z" fill="url(#paint24_linear)"/>
<path d="M246.605 47.9305C246.605 49.5113 245.324 50.7925 243.744 50.7925H193.967C192.387 50.7925 191.105 49.5113 191.105 47.9305V26.5689C191.105 24.9881 192.387 23.7069 193.967 23.7069H243.743C245.324 23.7069 246.605 24.9881 246.605 26.5689V47.9305H246.605Z" fill="url(#paint25_linear)"/>
<path d="M243.734 51.9925H193.957C191.718 51.9925 189.896 50.1701 189.896 47.9305V26.5689C189.896 24.3293 191.718 22.5069 193.957 22.5069H243.733C245.973 22.5069 247.795 24.3293 247.795 26.5689V47.9305C247.795 50.1701 245.973 51.9925 243.734 51.9925ZM193.957 24.9069C193.041 24.9069 192.296 25.6525 192.296 26.5689V47.9305C192.296 48.8469 193.041 49.5925 193.957 49.5925H243.733C244.65 49.5925 245.395 48.8469 245.395 47.9305V26.5689C245.395 25.6525 244.65 24.9069 243.733 24.9069H193.957Z" fill="url(#paint26_linear)"/>
<path d="M240.798 30.4502C240.798 30.9198 240.418 31.3002 239.948 31.3002H197.748C197.279 31.3002 196.898 30.9198 196.898 30.4502C196.898 29.9806 197.279 29.6002 197.748 29.6002H239.948C240.418 29.6002 240.798 29.9806 240.798 30.4502ZM213.882 35.5002H210.065H207.465H197.748C197.279 35.5002 196.898 35.8806 196.898 36.3502C196.898 36.8198 197.279 37.2002 197.748 37.2002H207.465H210.065H213.882C214.351 37.2002 214.732 36.8198 214.732 36.3502C214.732 35.8806 214.351 35.5002 213.882 35.5002ZM239.948 35.5002H233.732H232.998H230.015C229.545 35.5002 229.165 35.8806 229.165 36.3502C229.165 36.8198 229.545 37.2002 230.015 37.2002H232.998H233.732H239.948C240.418 37.2002 240.798 36.8198 240.798 36.3502C240.798 35.8806 240.418 35.5002 239.948 35.5002ZM224.615 35.5002H223.465H221.398H218.748C218.279 35.5002 217.898 35.8806 217.898 36.3502C217.898 36.8198 218.279 37.2002 218.748 37.2002H221.398H223.465H224.615C225.084 37.2002 225.465 36.8198 225.465 36.3502C225.465 35.8806 225.084 35.5002 224.615 35.5002ZM239.948 41.4002H238.799H236.732H234.082C233.612 41.4002 233.232 41.7806 233.232 42.2502C233.232 42.7198 233.612 43.1002 234.082 43.1002H236.732H238.799H239.948C240.418 43.1002 240.798 42.7198 240.798 42.2502C240.798 41.7806 240.418 41.4002 239.948 41.4002ZM227.898 41.4002H213.548H202.148H197.748C197.279 41.4002 196.898 41.7806 196.898 42.2502C196.898 42.7198 197.279 43.1002 197.748 43.1002H202.148H213.548H227.898C228.368 43.1002 228.748 42.7198 228.748 42.2502C228.748 41.7806 228.368 41.4002 227.898 41.4002Z" fill="#A5E8FF"/>
<path d="M223.302 55.3995C223.302 48.6615 217.84 43.1995 211.102 43.1995C204.364 43.1995 198.902 48.6615 198.902 55.3995C198.902 62.1375 204.364 67.5995 211.102 67.5995C211.308 67.5995 211.512 67.5939 211.715 67.5839L216.637 73.1995V66.2711C220.592 64.2535 223.302 60.1443 223.302 55.3995Z" fill="url(#paint27_linear)"/>
<path d="M215.901 51.6059C215.901 52.2467 215.809 52.8247 215.626 53.3403C215.442 53.8559 215.184 54.3011 214.852 54.6764C214.52 55.0516 214.121 55.352 213.657 55.5788C213.192 55.8056 212.678 55.95 212.115 56.0124L212.022 58.2977C212.014 58.4385 211.903 58.5437 211.688 58.6141C211.473 58.6845 211.163 58.7197 210.756 58.7197C210.498 58.7197 210.281 58.7137 210.106 58.7021C209.93 58.6905 209.791 58.6689 209.69 58.6377C209.588 58.6065 209.514 58.5633 209.467 58.5089C209.42 58.4545 209.392 58.3841 209.385 58.2981L209.279 55.5324C209.271 55.2824 209.283 55.0796 209.315 54.9232C209.346 54.7668 209.403 54.642 209.485 54.548C209.567 54.454 209.67 54.3895 209.795 54.3547C209.92 54.3199 210.069 54.3019 210.24 54.3019H210.404C210.818 54.3019 211.176 54.2355 211.477 54.1027C211.777 53.9699 212.025 53.7943 212.221 53.5755C212.416 53.3571 212.559 53.0991 212.648 52.8019C212.738 52.5051 212.783 52.1887 212.783 51.8527C212.783 51.4775 212.73 51.1338 212.625 50.8214C212.519 50.509 212.359 50.2394 212.144 50.013C211.929 49.7866 211.66 49.613 211.336 49.4914C211.011 49.3702 210.631 49.3098 210.193 49.3098C209.795 49.3098 209.443 49.349 209.138 49.427C208.834 49.505 208.572 49.591 208.353 49.685C208.134 49.779 207.953 49.865 207.808 49.943C207.664 50.021 207.552 50.0602 207.474 50.0602C207.42 50.0602 207.369 50.0426 207.322 50.0074C207.275 49.9722 207.236 49.9078 207.205 49.8142C207.174 49.7206 207.148 49.5878 207.129 49.4158C207.109 49.2442 207.1 49.025 207.1 48.7594C207.1 48.4858 207.111 48.2866 207.135 48.1617C207.158 48.0369 207.209 47.9353 207.287 47.8569C207.365 47.7789 207.514 47.6869 207.732 47.5817C207.951 47.4765 208.213 47.3785 208.518 47.2889C208.822 47.1993 209.162 47.1229 209.537 47.0605C209.913 46.9981 210.303 46.9669 210.709 46.9669C211.631 46.9669 212.42 47.0941 213.077 47.3477C213.733 47.6017 214.27 47.9437 214.688 48.373C215.106 48.8026 215.413 49.295 215.608 49.8494C215.803 50.4026 215.901 50.9886 215.901 51.6059ZM212.432 61.649C212.432 61.9694 212.407 62.239 212.356 62.4574C212.305 62.6762 212.215 62.8518 212.086 62.9846C211.957 63.1178 211.785 63.213 211.571 63.2718C211.356 63.3306 211.092 63.3598 210.779 63.3598C210.451 63.3598 210.182 63.3306 209.971 63.2718C209.76 63.213 209.59 63.1178 209.461 62.9846C209.332 62.8518 209.242 62.6762 209.192 62.4574C209.141 62.239 209.116 61.9694 209.116 61.649C209.116 61.321 209.141 61.0454 209.192 60.823C209.242 60.6005 209.332 60.4205 209.461 60.2837C209.59 60.1473 209.76 60.0493 209.971 59.9909C210.182 59.9325 210.451 59.9029 210.779 59.9029C211.092 59.9029 211.355 59.9321 211.571 59.9909C211.786 60.0497 211.957 60.1473 212.086 60.2837C212.215 60.4205 212.305 60.6001 212.356 60.823C212.407 61.0458 212.432 61.321 212.432 61.649Z" fill="#A5E8FF"/>
<path d="M199.467 107.2C197.267 102.533 196.6 102.066 194.666 100.2C192.733 98.3327 191.326 96.8899 190.933 97.0663C190.412 97.2995 190.533 98.6664 190.966 99.8332C191.4 101 192.133 101.6 192.133 101.6C192.133 101.6 190.833 101.467 188.066 100.233C185.299 98.9996 183.033 97.0663 182.566 97.5331C182.099 97.9999 183.033 99.6 183.033 99.6C183.033 99.6 182.287 99.1248 182.099 99.6668C182.008 99.9284 182.435 100.832 182.799 101.4C183.131 101.918 184.033 102.833 184.033 102.833C184.033 102.833 183.833 103.233 184.366 104.1C184.899 104.967 187.399 107.5 190 108.725C191.948 109.644 193.966 109.801 193.966 109.801C193.966 109.801 193.802 111.994 193.877 115.603C195.697 115.356 198.706 114.706 201.439 113.163C200.798 110.763 200.115 108.575 199.467 107.2Z" fill="url(#paint28_linear)"/>
<path d="M183.117 99.5404C183.278 99.7441 183.489 99.9261 183.694 100.106C183.902 100.284 184.116 100.456 184.334 100.624C184.77 100.958 185.218 101.282 185.678 101.567C185.773 101.624 185.803 101.747 185.746 101.841C185.688 101.936 185.565 101.966 185.471 101.909C185.467 101.907 185.462 101.903 185.459 101.901C184.996 101.575 184.565 101.223 184.143 100.856C183.932 100.673 183.726 100.486 183.524 100.291C183.325 100.094 183.123 99.9009 182.953 99.6597C182.921 99.6137 182.932 99.5509 182.978 99.5185C183.022 99.4876 183.082 99.4964 183.115 99.538L183.117 99.5404ZM183.976 102.75C184.03 102.706 184.128 102.638 184.222 102.615C184.315 102.587 184.414 102.578 184.507 102.588C184.695 102.604 184.861 102.668 185.016 102.738C185.325 102.887 185.607 103.046 185.893 103.236C186.169 103.428 186.425 103.638 186.685 103.826C186.941 104.011 187.219 104.195 187.47 104.237L187.479 104.238C187.589 104.256 187.663 104.359 187.645 104.468C187.627 104.577 187.524 104.651 187.415 104.633C187.41 104.632 187.405 104.631 187.401 104.63C187.002 104.535 186.737 104.309 186.472 104.105C186.211 103.895 185.968 103.675 185.715 103.481C185.465 103.295 185.18 103.115 184.905 102.966C184.628 102.822 184.327 102.725 184.094 102.917C184.051 102.952 183.986 102.946 183.951 102.903C183.915 102.859 183.921 102.795 183.965 102.759C183.965 102.759 183.965 102.759 183.965 102.759L183.976 102.75ZM192.158 101.53C192.934 101.713 193.678 102.072 194.351 102.503L194.355 102.505C194.448 102.565 194.475 102.689 194.415 102.782C194.355 102.875 194.232 102.903 194.138 102.843C194.132 102.839 194.127 102.835 194.121 102.83C193.514 102.343 192.854 101.932 192.114 101.669C192.075 101.656 192.055 101.614 192.069 101.576C192.082 101.54 192.119 101.521 192.155 101.529L192.158 101.53Z" fill="#03BDFF"/>
<path d="M215.775 114.491C215.274 112.801 213.307 112.601 213.307 112.601C212.34 113.801 204.273 125.868 204.273 125.868C204.273 125.868 202.98 118.905 201.446 113.163C198.713 114.706 195.703 115.355 193.884 115.603C193.944 118.508 194.159 122.329 194.74 126.668C195.957 135.751 197.706 138.845 199.807 139.268C202.207 139.751 207.741 137.268 212.341 134.135C216.941 131.002 216.276 116.181 215.775 114.491Z" fill="url(#paint29_linear)"/>
<path d="M201.298 135.404C200.982 135.404 200.723 135.323 200.532 135.149C197.305 132.206 196.479 115.761 196.446 115.063C196.44 114.952 196.525 114.859 196.636 114.853C196.758 114.847 196.84 114.933 196.845 115.044C196.853 115.213 197.695 132.021 200.801 134.854C202.36 136.279 211.062 128.978 216.528 123.724C216.607 123.647 216.735 123.649 216.811 123.729C216.887 123.809 216.885 123.936 216.805 124.012C215.502 125.265 204.842 135.404 201.298 135.404Z" fill="#33CAFF"/>
<path d="M199.594 119.83L199.322 118.439C199.221 117.928 198.725 117.594 198.213 117.694C198.213 117.694 195.844 118.43 193.99 118.702C194.047 119.785 194.125 120.939 194.232 122.165C195.97 122.071 198.848 120.939 198.848 120.939C199.361 120.839 199.695 120.343 199.594 119.83Z" fill="url(#paint30_linear)"/>
<path d="M194.237 122.364C194.134 122.364 194.046 122.286 194.038 122.182C193.938 121.045 193.856 119.878 193.795 118.713C193.79 118.61 193.864 118.52 193.966 118.504C195.782 118.237 198.135 117.51 198.158 117.503C198.253 117.483 198.327 117.476 198.4 117.476C198.945 117.476 199.417 117.865 199.522 118.401L199.795 119.792C199.854 120.092 199.792 120.398 199.621 120.651C199.451 120.905 199.192 121.077 198.891 121.136C198.807 121.172 195.997 122.27 194.248 122.364C194.244 122.364 194.24 122.364 194.237 122.364ZM194.204 118.872C194.26 119.906 194.332 120.939 194.419 121.95C196.118 121.793 198.753 120.764 198.78 120.753C199.01 120.705 199.178 120.593 199.289 120.428C199.4 120.262 199.441 120.064 199.402 119.868L199.129 118.477C199.051 118.082 198.663 117.808 198.255 117.89C198.253 117.892 196.022 118.582 194.204 118.872Z" fill="#33CAFF"/>
<path d="M242.669 105.523C241.292 104.151 238.992 102.601 234.642 101.351C230.292 100.1 217.691 101.301 216.241 104.751C214.791 108.201 220.808 113.228 225.9 114.415C230.991 115.601 243.459 114.001 244.942 109.001C245.306 107.772 242.669 105.523 242.669 105.523Z" fill="url(#paint31_linear)"/>
<path d="M235.595 99.1339C234.945 101.301 236.728 110.201 237.461 112.734C235.345 114.351 232.368 115.044 228.594 114.801C223.944 114.501 221.994 112.668 221.994 112.668C221.994 112.668 224.644 109.551 225.261 103.334C225.807 97.8262 235.595 99.1339 235.595 99.1339Z" fill="url(#paint32_linear)"/>
<path d="M237.414 96.0485C239.456 93.2756 241.734 88.6598 238.125 83.6333C236.092 80.8 231.99 79.5707 229.742 79.7999C224.247 80.36 223.292 83.3 223.292 83.3C220.758 86.0669 216.892 98.8006 222.191 102.901C226.751 106.428 232.508 102.225 234.599 99.6802C234.996 100.005 235.503 100.2 236.055 100.2C237.325 100.2 238.354 99.1702 238.354 97.9001C238.354 97.1393 237.983 96.4673 237.414 96.0485Z" fill="url(#paint33_radial)"/>
<path d="M236.33 85.9672C234.849 85.9996 230.438 87.9148 229.672 86.5756C228.913 85.2503 231.875 83.7247 231.322 82.7755C230.646 81.617 228.342 82.8587 226.446 83.7255C224.096 84.8007 222.435 84.7439 220.146 82.3502C217.971 80.075 217.879 77.3001 219.096 76.4C220.52 75.3472 222.129 75.6668 223.071 76.2248C224.024 76.7897 225.282 78.4029 226.371 77.6249C227.363 76.9165 226.159 75.0348 227.571 74.3748C228.98 73.7164 231.413 74.6916 232.663 76.3664C233.913 78.0413 233.944 78.6421 235.922 78.9249C238.547 79.3001 243.712 80.759 243.997 87.5668C244.23 93.1338 240.576 95.2947 239.247 96.1311C237.918 96.9675 239.45 91.1685 239.097 88.8669C238.922 87.7256 237.864 85.9336 236.33 85.9672Z" fill="url(#paint34_linear)"/>
<path d="M226.323 90.2005C225.931 90.0045 223.723 91.2673 222.257 92.4338C220.941 93.481 219.387 94.0538 219.572 94.7607C219.756 95.4675 222.323 96.2675 222.323 96.2675C222.323 96.2675 222.83 94.8643 224.09 93.3674C225.423 91.7838 226.724 90.4005 226.323 90.2005Z" fill="url(#paint35_linear)"/>
<path d="M223.2 100.441C223.077 100.441 222.943 100.428 222.799 100.397C221.453 100.11 220.911 98.3835 221.009 97.577C221.023 97.4674 221.123 97.3874 221.232 97.4026C221.342 97.4158 221.42 97.5158 221.407 97.6254C221.333 98.2275 221.747 99.7631 222.883 100.006C223.791 100.198 224.009 99.5515 224.017 99.5239C224.051 99.4187 224.161 99.3587 224.269 99.3943C224.374 99.4279 224.432 99.5403 224.399 99.6455C224.302 99.9483 223.936 100.441 223.2 100.441Z" fill="#00A8E3"/>
<path d="M228.812 94.5597C228.447 94.9837 227.806 95.0305 227.383 94.6645C226.959 94.2981 226.912 93.6581 227.278 93.2345L228.903 91.3528C229.269 90.9288 229.909 90.882 230.332 91.248C230.757 91.6144 230.804 92.2544 230.437 92.678L228.812 94.5597Z" fill="#006487"/>
<path d="M228.193 93.8348C228.058 93.9908 227.823 94.008 227.667 93.8736C227.511 93.7391 227.494 93.5039 227.629 93.3479L228.226 92.6563C228.361 92.5007 228.595 92.4831 228.751 92.6179C228.907 92.7523 228.924 92.9879 228.789 93.1435L228.193 93.8348Z" fill="#00AFEC"/>
<path d="M223.166 90.5256C222.808 90.9408 222.181 90.9864 221.767 90.6284C221.352 90.2699 221.306 89.6431 221.664 89.2283L223.255 87.3863C223.613 86.971 224.24 86.925 224.655 87.2834C225.07 87.6419 225.116 88.2687 224.758 88.6835L223.166 90.5256Z" fill="#006487"/>
<path d="M222.55 89.8166C222.419 89.969 222.188 89.9858 222.035 89.8546C221.883 89.7226 221.866 89.4925 221.998 89.3397L222.583 88.6625C222.715 88.5101 222.944 88.4933 223.097 88.6249C223.25 88.7569 223.267 88.9873 223.135 89.1397L222.55 89.8166Z" fill="#00AFEC"/>
<path d="M242.663 90.5672C242.447 85.3255 236.33 85.9671 236.33 85.9671C236.33 85.9671 237.347 86.6755 237.697 88.9672C238.115 91.7013 237.325 94.4113 236.665 95.6842C237.296 95.8562 237.818 96.289 238.109 96.861C239.421 96.113 242.8 93.8613 242.663 90.5672Z" fill="url(#paint36_linear)"/>
<path d="M244.78 227.569C244.749 221.808 244.735 215.741 244.735 212.733C244.735 206.133 245.402 184.6 244.802 178.533C244.202 172.467 242.802 160.667 242.802 160.667C242.802 160.667 231.413 162.053 224.395 161.513C216.869 160.934 213.165 158.906 213.165 158.906C213.071 160.609 212.385 177.556 213.246 187.509C214.379 200.603 216.871 218.794 218.062 227.05C219.677 227.638 223.135 228.196 226.531 227.349C226.784 218.434 227.203 206.409 227.335 202.2C227.535 195.8 228.469 184.6 228.469 184.6C228.469 184.6 230.868 200.8 232.202 208.733C233.017 213.58 234.204 221.261 235.142 227.585C237.277 227.964 241.109 228.093 244.78 227.569Z" fill="url(#paint37_linear)"/>
<path d="M211.579 157.657C213.025 159.115 218.107 163.254 236.507 160.754C235.873 154.354 233.93 140.933 234.463 135.8C234.997 130.667 236.787 114.025 236.787 114.025C236.787 114.025 230.73 115.467 226.063 114.467C221.397 113.467 219.33 111.6 219.33 111.6C219.33 111.6 215.497 120.2 213.097 136.8C210.697 153.4 211.579 157.657 211.579 157.657Z" fill="url(#paint38_linear)"/>
<path d="M223.903 161.694C223.798 161.694 223.711 161.612 223.704 161.506C223.301 155.148 225.291 120.104 225.871 114.446C225.882 114.336 225.98 114.256 226.09 114.267C226.2 114.279 226.28 114.377 226.269 114.487C225.69 120.139 223.701 155.136 224.103 161.481C224.11 161.591 224.027 161.686 223.916 161.693C223.911 161.694 223.907 161.694 223.903 161.694Z" fill="#A2E7FF"/>
<path d="M228.694 186.365C228.596 186.365 228.511 186.294 228.497 186.195C228.314 184.977 228.065 183.159 227.824 181.401C227.481 178.896 227.092 176.056 227.007 175.82C226.884 175.501 224.74 173.554 223.818 172.805C223.732 172.736 223.719 172.61 223.789 172.524C223.859 172.438 223.984 172.425 224.07 172.495C224.522 172.862 227.188 175.165 227.381 175.68C227.475 175.931 227.761 177.997 228.22 181.347C228.461 183.104 228.71 184.92 228.892 186.136C228.908 186.245 228.833 186.347 228.724 186.363C228.714 186.364 228.704 186.365 228.694 186.365Z" fill="#006487"/>
<path d="M212.293 156.954C213.642 158.27 215.567 159.031 217.538 159.52C219.525 160.004 221.609 160.214 223.7 160.286C227.892 160.414 232.13 159.998 236.328 159.366L236.704 162.141C232.376 162.652 227.996 162.95 223.582 162.677C221.378 162.532 219.162 162.244 216.981 161.64C215.891 161.336 214.811 160.95 213.771 160.428C212.736 159.909 211.72 159.233 210.883 158.358L212.293 156.954Z" fill="url(#paint39_linear)"/>
<path d="M221.883 111.509C221.89 111.52 222.055 111.65 222.211 111.745C222.373 111.847 222.554 111.947 222.74 112.043C223.114 112.234 223.515 112.404 223.923 112.555C224.742 112.855 225.599 113.075 226.466 113.217C228.201 113.501 229.98 113.465 231.694 113.121L232.18 115.879C230.127 116.201 228.02 116.153 225.995 115.732C224.983 115.521 223.99 115.223 223.029 114.823C222.548 114.622 222.076 114.398 221.608 114.134C221.375 114.001 221.143 113.859 220.907 113.697C220.669 113.523 220.438 113.375 220.13 113.025L221.883 111.509Z" fill="url(#paint40_linear)"/>
<path d="M227.015 162.981C225.838 162.981 224.676 162.946 223.562 162.877C220.992 162.707 218.882 162.376 216.92 161.833C215.701 161.492 214.639 161.091 213.674 160.607C212.496 160.016 211.506 159.306 210.731 158.497C210.656 158.418 210.657 158.294 210.735 158.217L212.144 156.813C212.221 156.736 212.346 156.735 212.425 156.812C213.569 157.928 215.254 158.751 217.578 159.326C219.348 159.757 221.35 160.006 223.699 160.086C224.209 160.102 224.722 160.11 225.234 160.11C228.511 160.11 232.024 159.811 236.29 159.169C236.343 159.161 236.397 159.175 236.44 159.207C236.482 159.239 236.511 159.287 236.518 159.34L236.894 162.114C236.902 162.168 236.887 162.222 236.854 162.264C236.821 162.306 236.772 162.334 236.719 162.34C233.02 162.777 229.936 162.981 227.015 162.981ZM211.157 158.36C211.879 159.079 212.785 159.714 213.853 160.249C214.794 160.722 215.833 161.114 217.027 161.448C218.961 161.983 221.046 162.31 223.587 162.478C224.692 162.546 225.846 162.581 227.015 162.581C229.866 162.581 232.876 162.385 236.47 161.966L236.148 159.594C231.952 160.218 228.479 160.509 225.234 160.509C224.717 160.509 224.201 160.501 223.685 160.486C221.308 160.404 219.279 160.152 217.482 159.714C215.181 159.144 213.479 158.331 212.288 157.233L211.157 158.36ZM229.48 116.288C228.289 116.288 227.101 116.167 225.948 115.928C224.9 115.71 223.89 115.4 222.946 115.007C222.418 114.786 221.946 114.557 221.504 114.308C221.245 114.161 221.011 114.015 220.788 113.861L220.696 113.795C220.481 113.64 220.259 113.48 219.974 113.156C219.938 113.116 219.921 113.064 219.924 113.01C219.928 112.957 219.953 112.908 219.993 112.873L221.746 111.357C221.789 111.32 221.846 111.304 221.902 111.31C221.958 111.317 222.009 111.348 222.041 111.395L222.042 111.394C222.05 111.394 222.183 111.496 222.309 111.573C222.465 111.671 222.638 111.768 222.825 111.864C223.172 112.041 223.563 112.21 223.986 112.366C224.776 112.656 225.618 112.876 226.492 113.019C228.185 113.296 229.954 113.264 231.649 112.925C231.701 112.915 231.756 112.926 231.801 112.956C231.846 112.987 231.876 113.034 231.885 113.087L232.371 115.844C232.38 115.897 232.368 115.952 232.337 115.995C232.306 116.039 232.258 116.068 232.205 116.077C231.306 116.217 230.39 116.288 229.48 116.288ZM220.411 113.04C220.602 113.235 220.762 113.35 220.929 113.47L221.019 113.535C221.228 113.679 221.452 113.819 221.701 113.96C222.129 114.201 222.587 114.423 223.1 114.638C224.02 115.021 225.006 115.323 226.03 115.536C227.95 115.935 229.977 115.994 231.941 115.712L231.526 113.356C229.847 113.668 228.1 113.688 226.427 113.414C225.528 113.267 224.66 113.041 223.848 112.742C223.409 112.58 223.004 112.405 222.643 112.22C222.445 112.12 222.262 112.016 222.098 111.914C222.064 111.893 221.97 111.832 221.882 111.768L220.411 113.04Z" fill="#A2E7FF"/>
<path d="M218.058 227.05C218.145 227.654 218.225 228.208 218.298 228.7C219.162 234.586 219.557 237.179 219.265 238.067C217.423 243.651 208.687 244.901 208.397 245.867C208.147 246.701 208.571 247.611 209.047 247.951C210.697 249.126 222.397 248.328 223.932 248.068C225.798 247.751 226.898 247.001 226.932 246.401C226.958 245.935 226.398 241.334 226.332 237.2C226.309 235.786 226.395 231.989 226.527 227.349C223.132 228.196 219.673 227.638 218.058 227.05Z" fill="url(#paint41_linear)"/>
<path d="M237.796 245.4C238.263 246.867 239.163 247.001 240.763 247.767C242.363 248.533 249.264 251.7 251.964 251.467C254.664 251.233 254.73 250.467 254.697 249.8C254.664 249.133 253.031 247.367 250.697 245.6C248.363 243.833 245.13 241.667 244.963 241.167C244.872 240.894 244.812 234.45 244.774 227.569C241.103 228.093 237.271 227.964 235.136 227.585C235.733 231.612 236.229 235.091 236.463 236.933C237.063 241.667 237.33 243.933 237.796 245.4Z" fill="url(#paint42_linear)"/>
<path d="M240.762 247.766C242.362 248.532 249.262 251.699 251.962 251.466C254.663 251.233 254.729 250.466 254.696 249.799C254.689 249.662 254.61 249.475 254.476 249.254C253.891 249.676 252.735 250.2 250.762 249.933C246.271 249.324 238.324 245.351 237.502 244.253C237.594 244.688 237.689 245.066 237.795 245.399C238.261 246.866 239.162 247 240.762 247.766Z" fill="url(#paint43_linear)"/>
<path d="M209.047 247.951C210.697 249.126 222.397 248.328 223.932 248.067C225.798 247.751 226.898 247.001 226.932 246.401C226.939 246.269 226.9 245.809 226.838 245.123C225.778 245.607 223.614 246.391 219.998 246.851C213.898 247.626 209.072 246.701 208.397 245.867C208.147 246.701 208.571 247.611 209.047 247.951Z" fill="url(#paint44_linear)"/>
<path d="M244.826 234.233C244.819 233.436 244.812 232.595 244.806 231.725H241.878C240.451 231.725 239.286 232.832 239.187 234.233H244.826Z" fill="url(#paint45_linear)"/>
<path d="M244.865 237.601C244.856 236.898 244.846 236.114 244.838 235.267H239.178V237.601H244.865Z" fill="url(#paint46_linear)"/>
<path d="M244.881 238.632H239.178C239.183 240.12 240.39 241.324 241.879 241.324H245.076C245.024 241.262 244.983 241.206 244.969 241.166C244.936 241.066 244.907 240.124 244.881 238.632Z" fill="url(#paint47_linear)"/>
<path d="M222.378 234.15V233.236C222.378 232.013 221.387 231.023 220.165 231.023H218.646C218.824 232.243 218.971 233.275 219.085 234.15H222.378Z" fill="url(#paint48_linear)"/>
<path d="M219.215 235.2C219.391 236.726 219.42 237.618 219.272 238.067C219.178 238.353 219.061 238.625 218.933 238.889H220.165C221.387 238.889 222.378 237.898 222.378 236.675V235.2H219.215Z" fill="url(#paint49_linear)"/>
<path d="M219.401 113.533C218.129 117.464 216.106 127.54 215.134 138.2C214.096 149.602 213.501 155.633 213.401 170.733C213.266 191.142 215.621 204.595 215.401 205.066C215.051 205.816 207.401 203.6 204.401 202C201.401 200.4 199.201 198.4 199.201 198.4C199.201 198.4 203.201 171.6 205.801 156C208.401 140.4 212.401 125.6 212.701 121.5C213.001 117.4 213.301 112.6 213.301 112.6C213.301 112.6 214.501 111.2 216.701 111.5C218.901 111.8 219.401 113.533 219.401 113.533Z" fill="url(#paint50_linear)"/>
<path d="M211.109 139.604L211.036 140.987C211.009 141.65 211.088 142.218 212.122 142.934L214.489 144.655C214.634 143.303 214.782 141.904 214.928 140.417L212.357 138.454C211.588 138.1 211.136 138.942 211.109 139.604Z" fill="url(#paint51_linear)"/>
<path d="M214.162 126.22C213.2 125.851 212.941 126.709 212.914 127.371L212.842 128.754C212.815 129.416 213.11 129.833 213.992 130.417L215.856 131.708C216.032 130.355 216.22 129.033 216.417 127.754L214.162 126.22Z" fill="url(#paint52_linear)"/>
<path d="M216.248 104.75C216.148 108.65 221.949 109 222.599 109.867C223.542 111.125 220.065 118.133 218.999 118C217.932 117.867 216.076 114.732 215.248 113.85C214.473 113.025 213.698 112.15 213.748 111.65C213.798 111.15 215.386 105.866 216.248 104.75Z" fill="url(#paint53_linear)"/>
<path d="M218.058 117.6C218.01 117.6 217.961 117.583 217.922 117.547C217.841 117.473 217.836 117.346 217.911 117.265C219.683 115.338 221.695 111.812 221.249 110.98C221.13 110.76 220.52 110.446 219.873 110.114C218.108 109.208 215.442 107.839 215.67 105.191C215.68 105.081 215.781 104.999 215.886 105.009C215.996 105.018 216.078 105.115 216.068 105.225C215.863 107.605 218.386 108.901 220.056 109.758C220.85 110.166 221.423 110.46 221.601 110.791C222.242 111.986 219.767 115.837 218.205 117.535C218.166 117.578 218.112 117.6 218.058 117.6Z" fill="#33CAFF"/>
<path d="M234.538 118.251C234.038 120.201 231.449 139.705 230.921 159.734C230.394 179.734 230.841 206.943 231.588 208.001C232.388 209.134 239.821 206.767 244.655 205.201C249.238 203.715 253.188 201.334 253.188 201.334C253.188 201.334 252.655 178.134 252.655 169.067C252.655 160.001 249.488 119.001 249.488 119.001C249.488 119.001 246.644 115.411 241.788 114.701C236.932 113.99 234.538 118.251 234.538 118.251Z" fill="url(#paint54_linear)"/>
<path d="M237.09 127.935L229.04 131.085C227.957 131.518 227.864 132.087 227.89 132.749L227.963 134.132C227.99 134.794 228.39 135.435 229.211 135.282L236.613 132.098C236.765 130.647 236.924 129.257 237.09 127.935Z" fill="url(#paint55_linear)"/>
<path d="M235.813 141.199L229.028 143.294C227.944 143.726 227.851 144.295 227.878 144.958L227.951 146.34C227.977 147.002 228.378 147.643 229.198 147.491L235.532 145.294C235.62 143.905 235.714 142.538 235.813 141.199Z" fill="url(#paint56_linear)"/>
<path d="M228.773 135.484C228.687 135.484 228.608 135.429 228.581 135.343C228.535 135.195 228.509 135.036 228.502 134.873L228.429 133.492C228.402 132.818 228.478 132.122 229.705 131.632L236.836 128.842C236.939 128.801 237.055 128.852 237.095 128.955C237.135 129.058 237.084 129.174 236.982 129.214L229.852 132.005C228.865 132.398 228.805 132.882 228.829 133.474L228.901 134.854C228.907 134.986 228.927 135.11 228.963 135.225C228.996 135.331 228.937 135.443 228.831 135.475C228.812 135.481 228.792 135.484 228.773 135.484ZM228.759 147.694C228.673 147.694 228.594 147.639 228.567 147.553C228.521 147.404 228.495 147.246 228.488 147.082L228.415 145.702C228.388 145.028 228.464 144.331 229.691 143.842L235.756 141.968C235.862 141.936 235.974 141.994 236.006 142.1C236.039 142.206 235.98 142.318 235.874 142.35L229.824 144.218C228.851 144.607 228.791 145.091 228.815 145.683L228.887 147.063C228.893 147.195 228.913 147.319 228.949 147.434C228.982 147.54 228.923 147.652 228.818 147.684C228.798 147.691 228.778 147.694 228.759 147.694Z" fill="#33CAFF"/>
<path d="M235.794 208.011C235.696 208.011 235.61 207.938 235.596 207.838C232.951 188.551 234.542 130.795 239.002 116.64C239.034 116.535 239.147 116.476 239.252 116.509C239.358 116.542 239.416 116.655 239.383 116.76C234.934 130.88 233.352 188.527 235.992 207.783C236.008 207.893 235.931 207.994 235.822 208.008C235.812 208.01 235.803 208.011 235.794 208.011Z" fill="#33CAFF"/>
<path d="M247.518 204.339C247.425 204.339 247.341 204.273 247.322 204.177C244.661 190.38 246.733 152.522 247.414 140.082L247.528 137.99C247.534 137.88 247.632 137.794 247.738 137.801C247.848 137.807 247.933 137.901 247.927 138.011L247.814 140.103C247.133 152.531 245.062 190.352 247.715 204.101C247.736 204.21 247.665 204.314 247.557 204.336C247.544 204.338 247.531 204.339 247.518 204.339Z" fill="#00A8E3"/>
<path d="M252.429 162.202C248.536 163.386 242.533 165.267 240.081 166.333C239.314 166.667 238.797 167.254 238.797 167.917V174.134C238.797 174.797 239.284 175.151 239.947 175.151L252.665 169.591C252.665 169.412 252.664 169.236 252.664 169.067C252.664 167.555 252.576 165.152 252.429 162.202Z" fill="url(#paint57_linear)"/>
<path d="M240.131 175.273C240.063 175.273 239.997 175.238 239.959 175.175C239.854 174.998 239.799 174.792 239.795 174.561L239.684 168.345C239.671 167.621 240.184 166.952 241.056 166.554C243.018 165.658 247.3 164.187 250.548 163.111C250.652 163.076 250.766 163.133 250.801 163.238C250.835 163.342 250.778 163.456 250.674 163.49C246.031 165.03 242.763 166.215 241.223 166.918C240.5 167.247 240.075 167.779 240.084 168.339L240.196 174.554C240.199 174.715 240.235 174.855 240.304 174.972C240.361 175.066 240.329 175.189 240.234 175.246C240.201 175.264 240.166 175.273 240.131 175.273Z" fill="#00A8E3"/>
<path d="M242.828 174.09C242.718 174.09 242.628 174 242.628 173.89V169.467C242.628 168.686 243.279 168.09 243.924 167.846L244.276 167.71C245.083 167.398 246.301 166.925 247.16 166.851C247.531 166.82 247.852 166.916 248.088 167.133C248.329 167.354 248.461 167.689 248.461 168.077V171.514C248.461 171.625 248.372 171.714 248.261 171.714C248.151 171.714 248.061 171.625 248.061 171.514V168.077C248.061 167.799 247.977 167.574 247.818 167.428C247.667 167.288 247.449 167.228 247.195 167.25C246.392 167.319 245.206 167.779 244.421 168.083L244.065 168.22C243.549 168.415 243.028 168.877 243.028 169.467V173.89C243.028 174 242.938 174.09 242.828 174.09Z" fill="#33CAFF"/>
<path d="M229.588 111C230.413 110.175 233.798 110.526 237.455 109.933C241.572 109.267 243.389 108.65 243.656 107.733C243.99 106.584 242.389 105.266 242.389 105.266C242.389 105.266 246.056 107.4 245.989 108.333C245.922 109.267 243.656 115.4 243.656 115.4C243.656 115.4 239.322 117.467 236.255 118.8C233.188 120.134 230.189 122.134 229.255 121.667C228.321 121.201 228.455 112.133 229.588 111Z" fill="url(#paint58_linear)"/>
<path d="M230.086 121.656C229.839 120.507 229.79 119.356 229.758 118.206C229.737 117.056 229.761 115.905 229.87 114.757C229.927 114.182 229.999 113.609 230.125 113.037C230.19 112.751 230.265 112.466 230.387 112.183C230.451 112.041 230.521 111.899 230.647 111.764C230.771 111.637 230.925 111.552 231.064 111.491C231.639 111.255 232.214 111.188 232.787 111.112C233.361 111.044 233.932 110.999 234.503 110.956C235.645 110.871 236.784 110.798 237.912 110.66C239.038 110.519 240.16 110.303 241.254 110.004C241.799 109.852 242.339 109.676 242.854 109.451C243.36 109.224 243.881 108.956 244.207 108.545C244.536 108.138 244.379 107.543 244.115 107.07C243.849 106.584 243.485 106.138 243.089 105.734C243.074 105.72 243.073 105.697 243.087 105.682C243.099 105.668 243.122 105.667 243.137 105.678C243.587 106.04 243.993 106.459 244.305 106.961C244.459 107.212 244.581 107.491 244.63 107.797C244.68 108.098 244.625 108.455 244.424 108.706C244.032 109.2 243.492 109.464 242.968 109.709C242.437 109.946 241.888 110.129 241.334 110.289C240.223 110.601 239.095 110.827 237.953 110.979C236.812 111.127 235.669 111.209 234.53 111.302C233.961 111.349 233.393 111.399 232.831 111.469C232.275 111.545 231.701 111.626 231.216 111.832C230.964 111.938 230.84 112.075 230.735 112.334C230.632 112.577 230.561 112.848 230.502 113.119C230.386 113.666 230.319 114.229 230.267 114.793C230.171 115.922 230.138 117.061 230.16 118.198C230.19 119.33 230.241 120.478 230.475 121.568L230.477 121.572C230.5 121.68 230.431 121.786 230.323 121.809C230.215 121.833 230.109 121.764 230.086 121.656Z" fill="#33CAFF"/>
<path d="M238.893 117.935C238.873 117.935 238.852 117.932 238.832 117.926C238.726 117.892 238.669 117.779 238.703 117.674C239.274 115.915 240.916 110.273 240.932 110.216C240.963 110.11 241.073 110.048 241.18 110.08C241.287 110.111 241.348 110.222 241.317 110.328C241.3 110.385 239.656 116.033 239.084 117.797C239.056 117.882 238.978 117.935 238.893 117.935Z" fill="#33CAFF"/>
<path d="M260.095 172.631C260.09 172.219 259.909 157.675 258.596 149C257.113 139.212 252.329 120.6 249.495 119C248.054 118.187 243.02 122.667 242.929 132.933C242.862 140.533 245.457 146.601 247.129 153.467C248.695 159.898 251.499 170.22 251.929 173.067C251.943 173.161 251.956 173.247 251.97 173.337C253.858 172.668 257.501 172.438 260.095 172.631Z" fill="url(#paint59_linear)"/>
<path d="M256.458 161.697L256.921 166.059L259.925 165.901L259.769 162.299C259.769 162.3 258.879 161.661 256.458 161.697Z" fill="url(#paint60_linear)"/>
<path d="M256.914 166.259C256.812 166.259 256.726 166.183 256.715 166.08L256.252 161.719C256.246 161.663 256.264 161.607 256.301 161.565C256.339 161.523 256.392 161.499 256.448 161.498L256.646 161.496C258.957 161.496 259.842 162.111 259.878 162.138C259.928 162.173 259.959 162.23 259.962 162.292L260.118 165.894C260.123 166.003 260.038 166.096 259.929 166.102L256.925 166.26C256.921 166.259 256.918 166.259 256.914 166.259ZM256.673 161.896L257.093 165.85L259.709 165.712L259.567 162.417C259.316 162.283 258.447 161.9 256.673 161.896Z" fill="#33CAFF"/>
<path d="M255.399 184.9C256.233 184.633 255.949 181.05 255.949 181.05C255.949 181.05 256.525 181.35 257.375 183.1C258.225 184.85 259.66 187.866 260.45 187.55C260.95 187.35 260.85 185.917 260.85 185.917C260.85 185.917 261.55 185.85 261.7 184.5C261.867 182.996 261.9 178.75 261.2 176.05C260.5 173.349 260.099 172.649 260.099 172.649C260.099 172.649 260.1 172.636 260.099 172.63C257.505 172.437 253.862 172.667 251.974 173.337C252.433 176.396 252.486 177.073 252.76 178.65C253.161 180.957 254.627 185.147 255.399 184.9Z" fill="url(#paint61_linear)"/>
<path d="M259.794 182.153C260.167 182.72 260.415 183.338 260.608 183.969C260.797 184.6 260.915 185.252 260.958 185.907C260.963 185.969 260.916 186.023 260.853 186.028C260.793 186.032 260.74 185.986 260.733 185.927C260.662 185.292 260.519 184.666 260.309 184.065C260.098 183.468 259.829 182.882 259.465 182.381C259.4 182.292 259.419 182.167 259.508 182.101C259.598 182.036 259.722 182.056 259.788 182.145C259.79 182.147 259.792 182.15 259.794 182.153ZM256.117 178.952C256.057 179.083 256.039 179.275 256.025 179.458C256.012 179.643 256.008 179.833 256.009 180.023C256.011 180.403 256.033 180.785 256.061 181.168C256.065 181.226 256.021 181.277 255.963 181.282C255.907 181.287 255.858 181.247 255.85 181.193C255.79 180.81 255.737 180.426 255.703 180.036C255.687 179.842 255.674 179.646 255.672 179.447C255.674 179.247 255.667 179.045 255.742 178.813L255.744 178.807C255.779 178.701 255.891 178.643 255.997 178.677C256.102 178.712 256.16 178.825 256.126 178.93C256.123 178.938 256.12 178.945 256.117 178.952Z" fill="#00AEEB"/>
<path d="M257.277 172.777C257.276 172.777 257.274 172.777 257.273 172.777C257.163 172.775 257.075 172.684 257.077 172.574C257.208 164.772 252.603 129.488 245.714 121.709C245.641 121.626 245.649 121.5 245.732 121.426C245.814 121.354 245.94 121.361 246.014 121.444C252.962 129.29 257.608 164.746 257.477 172.58C257.475 172.69 257.386 172.777 257.277 172.777Z" fill="#33CAFF"/>
<path d="M126.403 44.9167L41.8313 52.2675C39.2557 59.5071 38.5485 67.5151 39.4693 76.6667C42.8861 110.633 68.2025 122.4 79.6025 136.2C79.9241 136.589 80.2317 136.99 80.5293 137.4L126.403 119.1V44.9167Z" fill="#33CAFF"/>
<path d="M123.789 48.2003L40.6603 56.1239C39.0643 62.3335 38.7083 69.1087 39.4687 76.6667C42.7295 109.081 65.9335 121.278 77.9547 134.319L123.789 117.739V48.2003Z" fill="url(#paint62_linear)"/>
<path d="M82.1961 124.178C76.5473 122.974 67.5769 117.337 66.0153 106.746C65.1761 101.055 66.0313 96.3629 66.8581 91.8249C67.6085 87.7069 68.3173 83.8169 67.7141 79.4373C66.7941 72.7617 61.5109 69.0594 58.8457 68.0342L59.5637 66.1674C62.8349 67.4258 68.6501 71.5785 69.6953 79.1641C70.3425 83.8609 69.5713 88.0917 68.8261 92.1833C68.0281 96.5617 67.2029 101.089 67.9941 106.454C69.4069 116.036 77.5109 121.134 82.6133 122.222L82.1961 124.178Z" fill="#33CAFF"/>
<path d="M139.902 47.5001C139.702 50.0001 138.733 61.5709 139.535 68.9333C141.135 83.6001 134.711 86.6657 133.79 92.0953C133.19 95.6289 136.002 98.0001 136.002 98.0001C136.002 98.0001 132.536 102.333 116.602 99.6669C100.669 97.0005 93.8691 88.6669 93.8691 88.6669C93.8691 88.6669 110.136 70.6669 112.136 58.8001C114.136 46.9333 116.117 41.2789 126.793 41.8397C137.469 42.4005 139.902 47.5001 139.902 47.5001Z" fill="url(#paint63_linear)"/>
<path d="M135.994 98.0002C135.994 98.0002 133.182 95.6291 133.782 92.0955C134.703 86.6659 141.127 83.6003 139.527 68.9335C138.724 61.5711 139.694 50.0003 139.894 47.5003C139.894 47.5003 139.573 46.8331 138.663 45.9559C138.086 50.2691 138.594 58.8863 138.594 62.4003C138.594 66.3003 139.594 74.0003 132.594 81.1003C126.228 87.5567 125.652 92.8563 126.201 100.531C134.016 100.466 135.994 98.0002 135.994 98.0002Z" fill="#01BDFF"/>
<path d="M118.552 81.5507C118.752 76.8979 122.703 76.6927 125.903 62.8927C128.003 53.8371 126.624 47.3375 123.516 41.8831C115.677 42.6255 113.911 48.2599 112.136 58.7927C110.136 70.6595 93.8691 88.6595 93.8691 88.6595C93.8691 88.6595 100.669 96.9927 116.602 99.6595C117.778 99.8563 118.878 100.011 119.922 100.136C123.802 92.4915 118.353 86.1923 118.552 81.5507Z" fill="url(#paint64_linear)"/>
<path d="M117.902 92.0517C117.127 90.0093 116.204 88.2933 115.086 87.1997C112.2 84.3781 106.425 83.9765 103.586 84.0997C103.586 84.0997 102.186 84.7997 99.0716 82.3877C95.9572 79.9757 90.786 70.4997 85.986 68.8997C81.186 67.2997 77.3572 69.8469 78.7124 78.1509C80.3192 87.9997 74.786 100.133 80.186 108.8C85.912 117.989 97.9464 117.895 100.686 116.7C101.156 114.851 103.263 109.117 104.386 107.749C105.648 105.537 111.617 93.7957 117.902 92.0517Z" fill="url(#paint65_linear)"/>
<path d="M103.606 84.0997C103.606 84.0997 102.206 84.7997 99.0915 82.3877C95.9771 79.9757 90.8059 70.4997 86.0059 68.8997C83.1835 67.9589 80.6987 68.4541 79.4043 70.7081C82.4971 78.2237 90.6643 93.2049 93.1059 94.1997C95.6527 95.2373 108.607 93.3373 116.279 88.6705C115.914 88.1037 115.523 87.6081 115.106 87.1997C112.22 84.3781 106.445 83.9765 103.606 84.0997Z" fill="url(#paint66_linear)"/>
<path d="M95.3762 94.6768C94.3197 94.6768 93.5073 94.5804 93.0289 94.3852C92.9265 94.3436 92.8773 94.2268 92.9193 94.1248C92.9609 94.0224 93.0777 93.9732 93.1797 94.0152C95.7866 95.0773 108.608 93.1052 116.177 88.5018C116.272 88.4446 116.394 88.4747 116.452 88.5687C116.509 88.6627 116.479 88.7859 116.385 88.8435C110.102 92.6648 100.201 94.6768 95.3762 94.6768Z" fill="#00BDFF"/>
<path d="M89.5818 116.264C89.539 116.264 89.4954 116.25 89.4586 116.222C89.3718 116.154 89.3562 116.028 89.4242 115.941C92.0566 112.572 92.5498 102.893 92.3378 100.417C92.1382 98.0892 92.4922 94.8296 93.733 92.796C96.1714 88.7992 99.3602 85.7296 101.547 83.7685C101.629 83.6945 101.755 83.7012 101.829 83.7836C101.903 83.866 101.896 83.9925 101.814 84.0661C99.6462 86.0104 96.4858 89.052 94.0746 93.004C92.881 94.9604 92.5426 98.1196 92.7366 100.383C92.9522 102.895 92.4386 112.733 89.7398 116.187C89.7002 116.238 89.6414 116.264 89.5818 116.264Z" fill="#00BDFF"/>
<path d="M97.2488 108.228C97.2008 108.78 96.7139 109.188 96.1619 109.14L88.0845 108.432C87.5328 108.384 87.1244 107.897 87.1728 107.346L87.304 105.847C87.352 105.295 87.8389 104.887 88.3905 104.935L96.4679 105.642C97.02 105.691 97.428 106.177 97.38 106.729L97.2488 108.228Z" fill="url(#paint67_linear)"/>
<path d="M96.2427 109.343C96.2079 109.343 96.1723 109.342 96.1367 109.339L88.0593 108.631C87.7393 108.603 87.4492 108.453 87.2424 108.206C87.0356 107.96 86.9376 107.648 86.9656 107.328L87.0968 105.829C87.1532 105.178 87.7401 104.676 88.4001 104.736L96.4775 105.443C96.7975 105.471 97.0879 105.622 97.2944 105.868C97.5012 106.115 97.5992 106.426 97.5712 106.746L97.44 108.245C97.3868 108.861 96.8603 109.343 96.2427 109.343ZM88.2945 105.131C87.8825 105.131 87.5312 105.453 87.4956 105.864L87.3644 107.363C87.3456 107.577 87.4116 107.785 87.5492 107.949C87.6873 108.114 87.8809 108.215 88.0945 108.233L96.1719 108.94C96.6155 108.978 97.0043 108.645 97.0419 108.21L97.1731 106.711C97.1919 106.497 97.126 106.289 96.9883 106.125C96.8507 105.961 96.6567 105.86 96.4431 105.841L88.3657 105.134C88.3417 105.132 88.3177 105.131 88.2945 105.131Z" fill="#00BDFF"/>
<path d="M96.7702 117.661C91.793 117.661 84.103 115.82 79.8606 109.012C76.5218 103.653 77.3262 96.6166 78.1038 89.8119C78.599 85.4787 79.111 80.9979 78.4846 77.1587C78.449 76.9407 78.597 76.7351 78.815 76.6995C79.0322 76.6639 79.2386 76.8119 79.2742 77.0299C79.9186 80.9787 79.4002 85.5155 78.8986 89.9027C78.1366 96.5714 77.3486 103.467 80.5398 108.589C86.0946 117.503 97.7618 117.546 100.54 116.333C100.741 116.245 100.979 116.337 101.067 116.54C101.155 116.743 101.063 116.979 100.86 117.067C100.072 117.411 98.6046 117.661 96.7702 117.661Z" fill="#33CAFF"/>
<path d="M104.596 107.542C105.826 108.833 109.093 120.6 110.793 128.4C112.493 136.2 117.093 143.4 123.393 142.9C129.693 142.4 137.193 131.3 143.093 123C148.993 114.7 160.043 96.4 160.043 96.4C160.043 96.4 165.022 97.0024 170.868 96.7752C177.294 96.5252 180.644 94.7496 182.794 94.1252C185.298 93.3976 187.752 93.1604 188.144 92.7C188.569 92.2 188.194 91.7 187.694 91.45C188.944 91.4 192.103 89.8468 192.194 89C192.269 88.3 191.096 88.564 191.096 88.564C191.096 88.564 192.994 87.8248 192.817 87.134C192.63 86.4032 187.594 86.7 186.144 86.7C184.694 86.7 181.45 86.5144 178.544 86.45C175.56 86.384 172.327 86.5 170.644 86.75C172.744 86.05 176.144 82.9108 175.594 81.65C175.194 80.7332 172.044 82.4 169.944 82.85C167.844 83.3 163.247 84.1736 159.327 86.1332C155.194 88.2 151.86 91.5332 146.594 98.6664C141.327 105.8 125.694 122.1 125.694 122.1C125.694 122.1 123.46 116.733 122.194 111.4C121.242 107.392 120.252 98.2268 117.909 92.0516C111.624 93.7956 105.656 105.537 104.394 107.749C104.465 107.662 104.533 107.592 104.596 107.542Z" fill="url(#paint68_linear)"/>
<path d="M149.336 100.733C145.536 105.733 143.336 111 140.403 114.867C137.47 118.733 127.614 132.218 122.662 131.585C118.603 131.067 116.403 126.267 114.737 119.6C113.294 113.829 112.049 103.118 108.699 100.56C106.558 103.705 104.983 106.733 104.403 107.75C104.475 107.663 104.543 107.592 104.606 107.543C105.837 108.833 109.103 120.6 110.803 128.4C112.503 136.2 117.103 143.4 123.403 142.9C129.703 142.4 137.203 131.3 143.103 123C149.003 114.7 160.053 96.4002 160.053 96.4002C156.736 96.267 153.136 95.7334 149.336 100.733Z" fill="url(#paint69_linear)"/>
<path d="M125.524 142.568C125.465 142.568 125.407 142.542 125.368 142.493C119.843 135.626 123.342 124.555 125.553 121.97C125.625 121.886 125.751 121.876 125.835 121.948C125.918 122.019 125.928 122.146 125.857 122.23C123.701 124.75 120.292 135.545 125.679 142.242C125.749 142.328 125.735 142.454 125.649 142.523C125.612 142.553 125.568 142.568 125.524 142.568Z" fill="#00BDFF"/>
<path d="M122.999 131.807C122.876 131.807 122.756 131.799 122.638 131.784C118.974 131.316 116.554 127.687 114.544 119.649C114.195 118.253 113.858 116.568 113.501 114.785C112.414 109.36 111.062 102.609 108.579 100.715C108.491 100.648 108.474 100.522 108.541 100.434C108.608 100.347 108.734 100.329 108.822 100.397C111.424 102.382 112.736 108.929 113.893 114.706C114.25 116.485 114.586 118.165 114.933 119.552C116.87 127.299 119.262 130.949 122.689 131.387C127.253 131.969 136.304 119.973 139.71 115.457L140.246 114.747C141.608 112.951 142.818 110.84 144.099 108.605C145.597 105.991 147.146 103.289 149.18 100.613C152.796 95.8554 156.312 96.0238 159.413 96.1714C159.631 96.1818 159.848 96.1922 160.064 96.201C160.174 96.2054 160.26 96.2986 160.255 96.409C160.25 96.5194 160.152 96.609 160.047 96.6006C159.83 96.5922 159.612 96.5814 159.393 96.571C156.243 96.4206 152.986 96.2646 149.498 100.855C147.48 103.51 145.938 106.201 144.446 108.804C143.158 111.051 141.942 113.173 140.564 114.988L140.029 115.697C136.669 120.153 127.882 131.807 122.999 131.807Z" fill="#00BDFF"/>
<path d="M187.875 91.5485C187.38 91.4217 186.864 91.4137 186.352 91.4337C185.84 91.4577 185.327 91.5053 184.817 91.5781C183.797 91.7261 182.782 91.9201 181.773 92.1445L178.741 92.8341C178.491 92.8877 178.222 92.9417 177.958 92.9609C177.685 92.9801 177.423 92.9721 177.158 92.9469C176.634 92.8897 176.111 92.7825 175.63 92.5529C175.602 92.5393 175.59 92.5049 175.603 92.4765C175.616 92.4497 175.647 92.4373 175.674 92.4469L175.676 92.4477C176.154 92.6185 176.668 92.6877 177.175 92.7137C177.428 92.7265 177.685 92.7213 177.929 92.6925C178.182 92.6645 178.419 92.5961 178.675 92.5405C179.68 92.3025 180.686 92.0361 181.704 91.8285C182.721 91.6157 183.745 91.4177 184.784 91.3097C185.815 91.2085 186.886 91.1281 187.908 91.4269C187.942 91.4365 187.961 91.4717 187.951 91.5053C187.942 91.5381 187.908 91.5569 187.875 91.5485ZM182.905 89.1456C184.372 89.1068 185.824 88.9196 187.28 88.734C188.008 88.634 188.736 88.5296 189.47 88.4528C190.203 88.3788 190.947 88.3064 191.696 88.4C191.73 88.4044 191.754 88.4356 191.75 88.47C191.746 88.5008 191.721 88.5236 191.691 88.5248H191.688C190.963 88.5588 190.241 88.6964 189.515 88.7964C188.789 88.9076 188.06 89.0108 187.328 89.098C185.866 89.2824 184.382 89.4104 182.903 89.3212C182.855 89.3188 182.817 89.2776 182.819 89.2292C182.822 89.1832 182.86 89.1476 182.905 89.1456Z" fill="#4ED1FF"/>
<path d="M104.408 107.95C104.374 107.95 104.34 107.942 104.309 107.924C104.213 107.869 104.18 107.747 104.234 107.651C104.341 107.464 104.482 107.209 104.653 106.897C106.479 103.577 112.036 93.4723 117.868 91.8522C117.974 91.823 118.085 91.885 118.114 91.9914C118.144 92.0978 118.082 92.2082 117.975 92.2378C112.305 93.8131 106.809 103.806 105.003 107.09C104.83 107.404 104.689 107.661 104.582 107.85C104.545 107.914 104.478 107.95 104.408 107.95Z" fill="#00BDFF"/>
<path d="M127.506 132.4C127.506 133.947 126.253 135.2 124.706 135.2H120.506C118.96 135.2 117.706 133.947 117.706 132.4V131.2C117.706 129.654 118.96 128.4 120.506 128.4H124.706C126.253 128.4 127.506 129.654 127.506 131.2V132.4Z" fill="url(#paint70_linear)"/>
<path d="M124.71 135.4H120.51C118.855 135.4 117.51 134.055 117.51 132.4V131.2C117.51 129.546 118.855 128.2 120.51 128.2H124.71C126.364 128.2 127.71 129.546 127.71 131.2V132.4C127.71 134.055 126.364 135.4 124.71 135.4ZM120.51 128.6C119.076 128.6 117.91 129.766 117.91 131.2V132.4C117.91 133.834 119.076 135 120.51 135H124.71C126.144 135 127.31 133.834 127.31 132.4V131.2C127.31 129.766 126.144 128.6 124.71 128.6H120.51Z" fill="#00BDFF"/>
<path d="M142.073 116.894C141.623 117.381 140.864 117.412 140.377 116.963C140.377 116.963 135.336 113.775 135.058 112.058C135.649 111.409 137.062 109.6 137.879 108.945C139.037 110.775 143.224 113.874 143.224 113.874C143.711 114.324 143.742 115.083 143.293 115.57L142.073 116.894Z" fill="url(#paint71_linear)"/>
<path d="M141.208 117.505C140.855 117.505 140.518 117.373 140.259 117.134C140.078 117.024 135.168 113.9 134.878 112.115L134.862 112.019L134.928 111.948C135.1 111.759 135.341 111.473 135.617 111.145C136.313 110.318 137.178 109.29 137.772 108.814L137.946 108.674L138.066 108.863C139.191 110.641 143.319 113.707 143.361 113.738C143.653 114.005 143.812 114.351 143.827 114.725C143.843 115.098 143.711 115.456 143.458 115.73L142.238 117.054C141.973 117.341 141.598 117.505 141.208 117.505ZM135.292 112.141C135.649 113.499 139.151 115.964 140.501 116.818C140.952 117.224 141.584 117.173 141.943 116.783L143.163 115.46C143.344 115.263 143.438 115.008 143.427 114.741C143.416 114.474 143.302 114.227 143.106 114.046C142.955 113.936 139.162 111.118 137.855 109.268C137.294 109.772 136.51 110.704 135.922 111.401C135.678 111.693 135.46 111.952 135.292 112.141Z" fill="#00BDFF"/>
<path d="M116.598 77.0012C114.598 78.868 106.131 85.3346 106.131 85.3346C106.131 85.3346 100.398 85.9347 98.131 85.4679C95.8641 85.001 109.398 68.6009 109.398 68.6009L116.598 77.0012Z" fill="url(#paint72_linear)"/>
<path d="M138.796 47.2999C139.196 51.6667 138.796 79.3999 124.696 79.8999C114.202 80.2719 108.596 72.0667 108.596 72.0667C108.596 72.0667 109.096 45.1999 111.096 43.7999C113.096 42.3999 126.296 41.1999 130.696 42.1999C135.096 43.1999 138.796 47.2999 138.796 47.2999Z" fill="url(#paint73_linear)"/>
<path d="M121.749 52.2116V57.5249C121.749 58.671 122.599 59.5834 123.799 59.5334C125.287 59.4714 125.755 58.2229 125.978 57.0993C126.17 56.1381 126.478 53.6084 126.676 51.8987C125.154 51.7319 122.822 52.0408 121.749 52.2116Z" fill="url(#paint74_linear)"/>
<path d="M125.617 54.5836L122.9 56.8337C122.9 56.8337 123.167 58.4006 124.467 58.0006C125.584 57.657 125.617 54.5836 125.617 54.5836Z" fill="#50D1FF"/>
<path d="M134.511 52.9001V58.153C134.511 59.2227 135.304 60.0743 136.424 60.0279C137.813 59.9699 138.25 58.8047 138.458 57.7558C138.637 56.8586 138.568 55.2009 138.753 53.6053C137.272 53.0501 135.622 52.8797 134.511 52.9001Z" fill="url(#paint75_linear)"/>
<path d="M138.047 55.5327L135.511 57.6327C135.511 57.6327 135.76 59.0948 136.973 58.7216C138.016 58.4008 138.047 55.5327 138.047 55.5327Z" fill="#50D1FF"/>
<path d="M131.934 52.2999C132.4 53.5 134.984 63.6003 134.551 64.3003C134.117 65.0003 129.65 65.2255 129.65 65.2255C129.65 65.2255 130.614 63.1471 131.1 60.0338C131.626 56.6753 131.934 52.2999 131.934 52.2999Z" fill="url(#paint76_linear)"/>
<path d="M122.27 69.4262C122.546 69.0762 125.596 70.0514 128.246 70.2514C129.369 70.3362 130.671 70.3766 130.671 70.3766C130.671 70.3766 129.071 74.4767 126.271 74.4019C123.295 74.3215 121.995 69.7762 122.27 69.4262Z" fill="white"/>
<path d="M118.195 46.9332C120.729 45.4664 132.862 44.6 142.195 50.4664C143.995 44.3996 140.467 28.096 120.604 27.0332C101.295 26 93.4621 38 85.4621 49.8668C79.1233 59.2689 73.6613 62.0585 70.0781 62.7585C71.4621 63.0337 73.5105 64.7713 75.3289 68.2669C77.9801 73.3629 80.7957 88.3001 84.6621 94.1337C88.2181 99.4985 92.5289 100.4 92.5289 100.4C92.5289 100.4 92.1489 97.9653 93.6545 95.7645C96.1957 92.0505 107.396 84.5341 111.825 75.4313C118.198 62.3345 115.462 54.5333 118.195 46.9332Z" fill="url(#paint77_linear)"/>
<path d="M142.196 50.4673C142.782 48.4925 142.803 45.4337 141.88 42.1689C141.666 43.0625 141.215 43.9281 140.263 44.0005C136.41 44.2929 135.8 38.4785 132.796 38.3337C130.03 38.2005 128.93 40.8669 128.196 42.5337C127.463 44.2005 125.796 45.4669 123.866 45.8773L123.865 45.8781C128.892 45.6881 136.134 46.6565 142.196 50.4673ZM116.097 44.6005C113.582 51.7153 115.098 55.6013 112.997 60.4005C109.997 67.2505 98.2437 68.4953 96.8965 73.7005C96.1633 76.5337 98.8965 76.5337 98.3965 79.5005C97.3645 85.6229 87.3829 84.9152 83.1113 91.2228C83.6101 92.3332 84.1261 93.3236 84.6629 94.1336C88.2189 99.4984 92.5297 100.4 92.5297 100.4C92.5297 100.4 92.1497 97.9652 93.6553 95.7644C96.1965 92.0504 107.397 84.5341 111.826 75.4313C118.199 62.3353 115.463 54.5341 118.196 46.9341C119.896 39.5509 123.796 35.4009 123.796 35.4009C123.796 35.4009 118.611 37.4857 116.097 44.6005Z" fill="#00BDFF"/>
<path d="M84.3953 64.7C87.4125 53.2536 94.1305 37.702 103.995 32C113.86 26.298 120.608 26.8672 128.283 28.5248L130.521 29.242C127.792 28.0448 124.516 27.2424 120.604 27.0332C101.295 26 93.4621 38 85.4621 49.8668C79.1233 59.2688 73.6613 62.0584 70.0781 62.7584C71.4621 63.0336 73.5105 64.7712 75.3289 68.2668C76.3457 70.2216 77.3873 73.6256 78.5025 77.4071C78.5025 77.4071 81.3285 76.3331 84.3953 64.7Z" fill="url(#paint78_linear)"/>
<path d="M104.67 60.4708L104.851 60.8165L105.017 61.1221C105.129 61.3201 105.253 61.5337 105.383 61.7329C105.639 62.1381 105.917 62.5341 106.216 62.9161C106.816 63.6793 107.492 64.3946 108.234 65.0414C108.976 65.6874 109.783 66.2674 110.646 66.7394C111.507 67.2063 112.434 67.5831 113.376 67.6995L113.34 68.6019C112.202 68.6171 111.119 68.3323 110.094 67.9491C109.068 67.5587 108.097 67.0451 107.179 66.445C106.262 65.8438 105.399 65.1534 104.6 64.3826C104.201 63.9966 103.821 63.5881 103.459 63.1601C103.275 62.9457 103.105 62.7313 102.928 62.4981L102.671 62.1505L102.445 61.8325L104.67 60.4708Z" fill="url(#paint79_linear)"/>
<path d="M107.749 36.4415C106.831 37.7104 105.959 38.9732 105.295 40.3105C104.616 41.6377 104.122 43.017 103.809 44.4238C103.495 45.8322 103.379 47.2679 103.377 48.7067C103.387 50.1472 103.535 51.5912 103.749 53.0341L100.064 53.4677C99.9184 51.8284 99.9332 50.1588 100.14 48.5007C100.333 46.8431 100.749 45.1966 101.383 43.6474C102.012 42.0961 102.887 40.6557 103.931 39.4016C104.459 38.778 105.024 38.1972 105.611 37.654C106.209 37.12 106.824 36.6183 107.465 36.1595L107.749 36.4415Z" fill="url(#paint80_linear)"/>
<path d="M118.355 69.4537C118.147 70.3125 117.283 70.8409 116.424 70.6337L112.536 69.6949C111.677 69.4877 111.148 68.6232 111.356 67.764L111.367 67.7152C111.575 66.8564 112.439 66.328 113.298 66.5352L117.187 67.474C118.045 67.6816 118.574 68.546 118.367 69.4049L118.355 69.4537Z" fill="url(#paint81_linear)"/>
<path d="M111.936 69.4023C111.662 68.7835 111.845 67.9419 112.436 67.4803C112.721 67.2466 113.091 67.1142 113.465 67.1022C113.648 67.093 113.853 67.1326 114.01 67.1718L114.5 67.2854C115.151 67.4463 115.801 67.6119 116.446 67.8003C116.769 67.8919 117.09 67.9915 117.411 68.0927C117.567 68.1483 117.736 68.1963 117.89 68.2619C118.052 68.3311 118.197 68.4271 118.32 68.5427C118.171 68.4615 118.016 68.4031 117.86 68.3639C117.695 68.3263 117.534 68.3115 117.365 68.2835C117.033 68.2275 116.702 68.1695 116.373 68.1039C115.714 67.9775 115.059 67.8283 114.406 67.6739L113.918 67.5511C113.75 67.5051 113.623 67.4835 113.469 67.4795C113.172 67.4703 112.875 67.5651 112.621 67.7299C112.369 67.8979 112.163 68.1475 112.048 68.4383C111.917 68.7391 111.883 69.0663 111.936 69.4023Z" fill="#00BDFF"/>
<path d="M102.807 62.7015C106.231 62.7015 109.007 59.9256 109.007 56.5013C109.007 53.077 106.231 50.3011 102.807 50.3011C99.3824 50.3011 96.6064 53.077 96.6064 56.5013C96.6064 59.9256 99.3824 62.7015 102.807 62.7015Z" fill="url(#paint82_linear)"/>
<path d="M103.699 50.3655C104.457 50.5695 105.171 50.9415 105.8 51.4263C106.423 51.9212 106.952 52.5388 107.347 53.2372C108.144 54.6368 108.324 56.3637 107.887 57.9186C107.428 59.4698 106.349 60.8254 104.939 61.5979C104.236 61.9839 103.462 62.2339 102.673 62.3303C101.883 62.4135 101.081 62.3611 100.326 62.1431C101.867 62.4123 103.481 62.1299 104.785 61.3315C106.092 60.5442 107.1 59.2718 107.503 57.8073C107.943 56.3545 107.775 54.7376 107.078 53.382C106.386 52.0192 105.159 50.9311 103.699 50.3655Z" fill="#00BDFF"/>
<path d="M101.91 59.5012C103.484 59.5012 104.76 58.2252 104.76 56.6511C104.76 55.0771 103.484 53.801 101.91 53.801C100.336 53.801 99.0596 55.0771 99.0596 56.6511C99.0596 58.2252 100.336 59.5012 101.91 59.5012Z" fill="url(#paint83_linear)"/>
<path d="M101.903 59.7011C100.221 59.7011 98.8525 58.3331 98.8525 56.651C98.8525 54.969 100.221 53.6009 101.903 53.6009C103.585 53.6009 104.953 54.969 104.953 56.651C104.953 58.3331 103.585 59.7011 101.903 59.7011ZM101.903 54.0009C100.441 54.0009 99.2526 55.1898 99.2526 56.651C99.2526 58.1123 100.441 59.3011 101.903 59.3011C103.364 59.3011 104.553 58.1123 104.553 56.651C104.553 55.1898 103.364 54.0009 101.903 54.0009Z" fill="#00BDFF"/>
<path d="M191.417 68.6784C191.417 71.1388 189.441 73.1332 187.004 73.1332H160.429C157.992 73.1332 156.017 71.1388 156.017 68.6784V58.6548C156.017 56.1944 157.992 54.2 160.429 54.2H187.004C189.441 54.2 191.417 56.1944 191.417 58.6548V68.6784Z" fill="url(#paint84_linear)"/>
<path d="M186.019 64.6673C186.019 67.0974 184.049 69.0675 181.619 69.0675H165.818C163.388 69.0675 161.418 67.0974 161.418 64.6673V62.8005C161.418 60.3704 163.388 58.4003 165.818 58.4003H181.619C184.049 58.4003 186.019 60.3704 186.019 62.8005V64.6673Z" fill="url(#paint85_linear)"/>
<path d="M181.62 58.4003H171.069C173.499 58.4003 175.469 60.3704 175.469 62.8005V64.6673C175.469 67.0974 173.499 69.0675 171.069 69.0675H181.62C184.05 69.0675 186.02 67.0974 186.02 64.6673V62.8005C186.02 60.3704 184.05 58.4003 181.62 58.4003Z" fill="url(#paint86_linear)"/>
<path d="M173.713 90.9334C178.444 90.9334 182.28 89.9387 182.28 88.7117C182.28 87.4847 178.444 86.49 173.713 86.49C168.981 86.49 165.146 87.4847 165.146 88.7117C165.146 89.9387 168.981 90.9334 173.713 90.9334Z" fill="url(#paint87_linear)"/>
<path d="M173.716 89.3667C175.963 89.3667 177.784 88.8944 177.784 88.3118C177.784 87.7293 175.963 87.257 173.716 87.257C171.47 87.257 169.648 87.7293 169.648 88.3118C169.648 88.8944 171.47 89.3667 173.716 89.3667Z" fill="#A5E8FF"/>
<path d="M162.534 73.7328H160.417C157.66 73.7328 155.417 71.49 155.417 68.7328V67.9328H156.617V68.7328C156.617 70.828 158.322 72.5328 160.417 72.5328H162.534V73.7328ZM187.017 73.7328H184.734V72.5328H187.017C189.113 72.5328 190.817 70.828 190.817 68.7328V67.9328H192.017V68.7328C192.017 71.49 189.775 73.7328 187.017 73.7328ZM156.617 59.4664H155.417V58.5996C155.417 55.8424 157.66 53.5996 160.417 53.5996H162.534V54.7996H160.417C158.322 54.7996 156.617 56.5044 156.617 58.5996V59.4664ZM192.017 59.4664H190.817V58.5996C190.817 56.5044 189.113 54.7996 187.017 54.7996H184.734V53.5996H187.017C189.775 53.5996 192.017 55.8424 192.017 58.5996V59.4664Z" fill="#A5E8FF"/>
<path d="M188.032 73.1257H159.265L169.647 88.3126H177.774L188.032 73.1257Z" fill="url(#paint88_linear)"/>
<defs>
<linearGradient id="paint0_linear" x1="221.617" y1="279.87" x2="221.617" y2="163.993" gradientUnits="userSpaceOnUse">
<stop stop-color="#002C3B"/>
<stop offset="0.282" stop-color="#004963"/>
<stop offset="0.604" stop-color="#006D94"/>
<stop offset="0.855" stop-color="#0086B5"/>
<stop offset="1" stop-color="#008FC1"/>
</linearGradient>
<linearGradient id="paint1_linear" x1="269.629" y1="183.774" x2="321.279" y2="235.424" gradientUnits="userSpaceOnUse">
<stop stop-color="#0079A3"/>
<stop offset="0.198" stop-color="#007CA8"/>
<stop offset="0.473" stop-color="#0087B7"/>
<stop offset="0.792" stop-color="#009ED5"/>
<stop offset="1" stop-color="#00AFEC"/>
</linearGradient>
<linearGradient id="paint2_linear" x1="275.049" y1="219.167" x2="298.633" y2="219.167" gradientUnits="userSpaceOnUse">
<stop stop-color="#0EC0FF"/>
<stop offset="1" stop-color="#004057"/>
</linearGradient>
<linearGradient id="paint3_linear" x1="266.138" y1="208.483" x2="285.994" y2="208.483" gradientUnits="userSpaceOnUse">
<stop stop-color="#0EC0FF"/>
<stop offset="1" stop-color="#004057"/>
</linearGradient>
<linearGradient id="paint4_linear" x1="285.85" y1="230.138" x2="308.996" y2="230.138" gradientUnits="userSpaceOnUse">
<stop stop-color="#0EC0FF"/>
<stop offset="1" stop-color="#004057"/>
</linearGradient>
<linearGradient id="paint5_linear" x1="255.594" y1="198.281" x2="275.209" y2="198.281" gradientUnits="userSpaceOnUse">
<stop stop-color="#0EC0FF"/>
<stop offset="1" stop-color="#004057"/>
</linearGradient>
<radialGradient id="paint6_radial" cx="0" cy="0" r="1" gradientUnits="userSpaceOnUse" gradientTransform="translate(232.558 248.17) scale(41.9748 17.3524)">
<stop stop-color="#003142"/>
<stop offset="0.122" stop-color="#00374A"/>
<stop offset="0.317" stop-color="#004A64"/>
<stop offset="0.56" stop-color="#00688D"/>
<stop offset="0.838" stop-color="#0092C5"/>
<stop offset="1" stop-color="#00ACE8"/>
</radialGradient>
<radialGradient id="paint7_radial" cx="0" cy="0" r="1" gradientUnits="userSpaceOnUse" gradientTransform="translate(167.082 227.11) scale(24.1304)">
<stop stop-color="#003142"/>
<stop offset="0.122" stop-color="#00374A"/>
<stop offset="0.317" stop-color="#004A64"/>
<stop offset="0.56" stop-color="#00688D"/>
<stop offset="0.838" stop-color="#0092C5"/>
<stop offset="1" stop-color="#00ACE8"/>
</radialGradient>
<linearGradient id="paint8_linear" x1="88.2299" y1="-0.413149" x2="253.335" y2="164.691" gradientUnits="userSpaceOnUse">
<stop stop-color="#002C3B"/>
<stop offset="1" stop-color="#008FC1"/>
</linearGradient>
<radialGradient id="paint9_radial" cx="0" cy="0" r="1" gradientUnits="userSpaceOnUse" gradientTransform="translate(161.811 29.4669) scale(13.7452)">
<stop stop-color="white" stop-opacity="0.25"/>
<stop offset="0.287" stop-color="#FBFEFF" stop-opacity="0.178"/>
<stop offset="0.426" stop-color="#EEFBFF" stop-opacity="0.143"/>
<stop offset="0.534" stop-color="#D8F5FF" stop-opacity="0.117"/>
<stop offset="0.626" stop-color="#BAEDFF" stop-opacity="0.094"/>
<stop offset="0.707" stop-color="#90E2FF" stop-opacity="0.073"/>
<stop offset="0.781" stop-color="#5FD5FF" stop-opacity="0.055"/>
<stop offset="0.849" stop-color="#23C6FF" stop-opacity="0.038"/>
<stop offset="0.913" stop-color="#00A4DD" stop-opacity="0.022"/>
<stop offset="0.971" stop-color="#006B91" stop-opacity="0.01"/>
<stop offset="1" stop-color="#004C67" stop-opacity="0"/>
</radialGradient>
<linearGradient id="paint10_linear" x1="154.414" y1="24.2551" x2="167.048" y2="36.8891" gradientUnits="userSpaceOnUse">
<stop stop-color="#05BEFF"/>
<stop offset="1" stop-color="#A8E8FF"/>
</linearGradient>
<linearGradient id="paint11_linear" x1="57.0046" y1="60.1996" x2="57.0046" y2="22.7997" gradientUnits="userSpaceOnUse">
<stop stop-color="#004057"/>
<stop offset="1" stop-color="#0EC0FF"/>
</linearGradient>
<linearGradient id="paint12_linear" x1="278.796" y1="130.622" x2="303.997" y2="130.622" gradientUnits="userSpaceOnUse">
<stop stop-color="#004057"/>
<stop offset="1" stop-color="#0EC0FF"/>
</linearGradient>
<linearGradient id="paint13_linear" x1="24.2025" y1="28.4166" x2="80.6025" y2="28.4166" gradientUnits="userSpaceOnUse">
<stop stop-color="#58D4FF"/>
<stop offset="1" stop-color="#27C7FF"/>
</linearGradient>
<linearGradient id="paint14_linear" x1="254.28" y1="125.019" x2="278.813" y2="125.019" gradientUnits="userSpaceOnUse">
<stop stop-color="#007AA5"/>
<stop offset="1" stop-color="#004057"/>
</linearGradient>
<linearGradient id="paint15_linear" x1="260.911" y1="133.138" x2="279.656" y2="133.138" gradientUnits="userSpaceOnUse">
<stop stop-color="#0079A3"/>
<stop offset="1" stop-color="#00AFEC"/>
</linearGradient>
<linearGradient id="paint16_linear" x1="263.08" y1="48.4346" x2="281.614" y2="48.4346" gradientUnits="userSpaceOnUse">
<stop stop-color="#00A9E4"/>
<stop offset="1" stop-color="#00516D"/>
</linearGradient>
<linearGradient id="paint17_linear" x1="254.28" y1="74.2334" x2="278.813" y2="74.2334" gradientUnits="userSpaceOnUse">
<stop stop-color="#007AA5"/>
<stop offset="1" stop-color="#004057"/>
</linearGradient>
<linearGradient id="paint18_linear" x1="254.28" y1="58.2336" x2="278.814" y2="58.2336" gradientUnits="userSpaceOnUse">
<stop stop-color="#0079A3"/>
<stop offset="0.208" stop-color="#007CA7"/>
<stop offset="0.453" stop-color="#0084B3"/>
<stop offset="0.716" stop-color="#0095CA"/>
<stop offset="0.992" stop-color="#00AEEB"/>
<stop offset="1" stop-color="#00AFEC"/>
</linearGradient>
<linearGradient id="paint19_linear" x1="254.703" y1="47.5144" x2="276.104" y2="47.5144" gradientUnits="userSpaceOnUse">
<stop stop-color="#0081AF"/>
<stop offset="1" stop-color="#00AFEC"/>
</linearGradient>
<linearGradient id="paint20_linear" x1="253.908" y1="47.5147" x2="276.909" y2="47.5147" gradientUnits="userSpaceOnUse">
<stop stop-color="#54D3FF"/>
<stop offset="1" stop-color="#58D4FF"/>
</linearGradient>
<linearGradient id="paint21_linear" x1="278.809" y1="52.0334" x2="292.847" y2="52.0334" gradientUnits="userSpaceOnUse">
<stop stop-color="#0079A3"/>
<stop offset="0.235" stop-color="#00769F"/>
<stop offset="0.512" stop-color="#006E95"/>
<stop offset="0.81" stop-color="#006183"/>
<stop offset="1" stop-color="#005775"/>
</linearGradient>
<linearGradient id="paint22_linear" x1="267.613" y1="73.2017" x2="275.214" y2="73.2017" gradientUnits="userSpaceOnUse">
<stop stop-color="#05BEFF"/>
<stop offset="1" stop-color="#A8E8FF"/>
</linearGradient>
<linearGradient id="paint23_linear" x1="271.413" y1="75.8129" x2="271.413" y2="71.7272" gradientUnits="userSpaceOnUse">
<stop stop-color="#27C7FF"/>
<stop offset="1" stop-color="#58D4FF"/>
</linearGradient>
<linearGradient id="paint24_linear" x1="271.412" y1="83.9708" x2="271.412" y2="61.9009" gradientUnits="userSpaceOnUse">
<stop stop-color="#27C7FF"/>
<stop offset="1" stop-color="#58D4FF"/>
</linearGradient>
<linearGradient id="paint25_linear" x1="199.047" y1="17.4417" x2="238.664" y2="57.0581" gradientUnits="userSpaceOnUse">
<stop stop-color="#00BDFF"/>
<stop offset="1" stop-color="#0084B2"/>
</linearGradient>
<linearGradient id="paint26_linear" x1="189.896" y1="37.2497" x2="247.795" y2="37.2497" gradientUnits="userSpaceOnUse">
<stop stop-color="#97E4FF"/>
<stop offset="1" stop-color="#A5E8FF"/>
</linearGradient>
<linearGradient id="paint27_linear" x1="202.476" y1="46.7727" x2="222.77" y2="67.0667" gradientUnits="userSpaceOnUse">
<stop stop-color="#00A9E5"/>
<stop offset="1" stop-color="#69D8FF"/>
</linearGradient>
<linearGradient id="paint28_linear" x1="183.243" y1="96.8559" x2="200.495" y2="114.107" gradientUnits="userSpaceOnUse">
<stop stop-color="#00BDFF"/>
<stop offset="0.082" stop-color="#13C2FF"/>
<stop offset="0.211" stop-color="#2DC8FF"/>
<stop offset="0.342" stop-color="#44CEFF"/>
<stop offset="0.473" stop-color="#56D3FF"/>
<stop offset="0.604" stop-color="#5FD5FF"/>
<stop offset="0.735" stop-color="#68D8FF"/>
<stop offset="0.867" stop-color="#6ED9FF"/>
<stop offset="1" stop-color="#70DAFF"/>
</linearGradient>
<linearGradient id="paint29_linear" x1="193.883" y1="125.965" x2="216.13" y2="125.965" gradientUnits="userSpaceOnUse">
<stop stop-color="#2AC8FF"/>
<stop offset="1" stop-color="#0089B9"/>
</linearGradient>
<linearGradient id="paint30_linear" x1="193.99" y1="119.921" x2="199.612" y2="119.921" gradientUnits="userSpaceOnUse">
<stop stop-color="#33CAFF"/>
<stop offset="1" stop-color="#0089B9"/>
</linearGradient>
<linearGradient id="paint31_linear" x1="216.021" y1="107.828" x2="244.977" y2="107.828" gradientUnits="userSpaceOnUse">
<stop stop-color="#002C3B"/>
<stop offset="1" stop-color="#04BEFF"/>
</linearGradient>
<linearGradient id="paint32_linear" x1="221.994" y1="106.924" x2="237.461" y2="106.924" gradientUnits="userSpaceOnUse">
<stop stop-color="#0094C8"/>
<stop offset="0.017" stop-color="#0098CD"/>
<stop offset="0.171" stop-color="#00B9FA"/>
<stop offset="0.323" stop-color="#21C5FF"/>
<stop offset="0.472" stop-color="#3BCCFF"/>
<stop offset="0.617" stop-color="#51D2FF"/>
<stop offset="0.756" stop-color="#62D6FF"/>
<stop offset="0.886" stop-color="#6CD9FF"/>
<stop offset="1" stop-color="#70DAFF"/>
</linearGradient>
<radialGradient id="paint33_radial" cx="0" cy="0" r="1" gradientUnits="userSpaceOnUse" gradientTransform="translate(233.129 93.3536) rotate(-67.8698) scale(21.5072 13.7469)">
<stop stop-color="#70DAFF"/>
<stop offset="0.133" stop-color="#6ED9FF"/>
<stop offset="0.265" stop-color="#68D8FF"/>
<stop offset="0.396" stop-color="#5FD5FF"/>
<stop offset="0.527" stop-color="#56D3FF"/>
<stop offset="0.658" stop-color="#44CEFF"/>
<stop offset="0.789" stop-color="#2DC8FF"/>
<stop offset="0.918" stop-color="#13C2FF"/>
<stop offset="1" stop-color="#00BDFF"/>
</radialGradient>
<linearGradient id="paint34_linear" x1="223.905" y1="89.2929" x2="240.775" y2="79.553" gradientUnits="userSpaceOnUse">
<stop stop-color="#33CAFF"/>
<stop offset="0.119" stop-color="#0CC0FF"/>
<stop offset="0.356" stop-color="#0092C5"/>
<stop offset="0.571" stop-color="#00688D"/>
<stop offset="0.757" stop-color="#004A64"/>
<stop offset="0.906" stop-color="#00374A"/>
<stop offset="1" stop-color="#003142"/>
</linearGradient>
<linearGradient id="paint35_linear" x1="219.556" y1="93.2238" x2="226.397" y2="93.2238" gradientUnits="userSpaceOnUse">
<stop stop-color="#57D3FF"/>
<stop offset="1" stop-color="#68D8FF"/>
</linearGradient>
<linearGradient id="paint36_linear" x1="236.33" y1="91.4016" x2="242.667" y2="91.4016" gradientUnits="userSpaceOnUse">
<stop stop-color="#00A4DE"/>
<stop offset="1" stop-color="#006D94"/>
</linearGradient>
<linearGradient id="paint37_linear" x1="228.935" y1="227.917" x2="228.935" y2="158.907" gradientUnits="userSpaceOnUse">
<stop stop-color="#002C3B"/>
<stop offset="1" stop-color="#04BEFF"/>
</linearGradient>
<linearGradient id="paint38_linear" x1="211.421" y1="136.57" x2="236.787" y2="136.57" gradientUnits="userSpaceOnUse">
<stop stop-color="#00A9E5"/>
<stop offset="1" stop-color="#69D8FF"/>
</linearGradient>
<linearGradient id="paint39_linear" x1="210.883" y1="159.867" x2="236.704" y2="159.867" gradientUnits="userSpaceOnUse">
<stop stop-color="#69D8FF"/>
<stop offset="1" stop-color="#57D3FF"/>
</linearGradient>
<linearGradient id="paint40_linear" x1="220.13" y1="113.799" x2="232.18" y2="113.799" gradientUnits="userSpaceOnUse">
<stop stop-color="#69D8FF"/>
<stop offset="1" stop-color="#57D3FF"/>
</linearGradient>
<linearGradient id="paint41_linear" x1="212.617" y1="232.491" x2="226.857" y2="246.731" gradientUnits="userSpaceOnUse">
<stop stop-color="#00A5DF"/>
<stop offset="1" stop-color="#1DC4FF"/>
</linearGradient>
<linearGradient id="paint42_linear" x1="235.136" y1="239.524" x2="254.702" y2="239.524" gradientUnits="userSpaceOnUse">
<stop stop-color="#00A5DF"/>
<stop offset="1" stop-color="#1DC4FF"/>
</linearGradient>
<linearGradient id="paint43_linear" x1="237.502" y1="247.866" x2="254.7" y2="247.866" gradientUnits="userSpaceOnUse">
<stop stop-color="#81DEFF"/>
<stop offset="1" stop-color="#57D3FF"/>
</linearGradient>
<linearGradient id="paint44_linear" x1="208.323" y1="246.849" x2="226.932" y2="246.849" gradientUnits="userSpaceOnUse">
<stop stop-color="#81DEFF"/>
<stop offset="1" stop-color="#57D3FF"/>
</linearGradient>
<linearGradient id="paint45_linear" x1="239.186" y1="232.979" x2="244.826" y2="232.979" gradientUnits="userSpaceOnUse">
<stop stop-color="#4DD1FF"/>
<stop offset="1" stop-color="#4ED1FF"/>
</linearGradient>
<linearGradient id="paint46_linear" x1="239.178" y1="236.434" x2="244.865" y2="236.434" gradientUnits="userSpaceOnUse">
<stop stop-color="#4DD1FF"/>
<stop offset="1" stop-color="#4ED1FF"/>
</linearGradient>
<linearGradient id="paint47_linear" x1="239.178" y1="239.978" x2="245.076" y2="239.978" gradientUnits="userSpaceOnUse">
<stop stop-color="#4DD1FF"/>
<stop offset="1" stop-color="#4ED1FF"/>
</linearGradient>
<linearGradient id="paint48_linear" x1="218.646" y1="232.586" x2="222.378" y2="232.586" gradientUnits="userSpaceOnUse">
<stop stop-color="#4ED1FF"/>
<stop offset="1" stop-color="#4DD1FF"/>
</linearGradient>
<linearGradient id="paint49_linear" x1="218.933" y1="237.045" x2="222.379" y2="237.045" gradientUnits="userSpaceOnUse">
<stop stop-color="#4ED1FF"/>
<stop offset="1" stop-color="#4DD1FF"/>
</linearGradient>
<linearGradient id="paint50_linear" x1="199.201" y1="158.338" x2="219.401" y2="158.338" gradientUnits="userSpaceOnUse">
<stop stop-color="#0089B9"/>
<stop offset="1" stop-color="#002C3B"/>
</linearGradient>
<linearGradient id="paint51_linear" x1="211.032" y1="141.512" x2="214.928" y2="141.512" gradientUnits="userSpaceOnUse">
<stop stop-color="#2AC8FF"/>
<stop offset="1" stop-color="#0089B9"/>
</linearGradient>
<linearGradient id="paint52_linear" x1="212.84" y1="128.92" x2="216.417" y2="128.92" gradientUnits="userSpaceOnUse">
<stop stop-color="#2AC8FF"/>
<stop offset="1" stop-color="#0089B9"/>
</linearGradient>
<linearGradient id="paint53_linear" x1="213.746" y1="111.376" x2="222.759" y2="111.376" gradientUnits="userSpaceOnUse">
<stop stop-color="#2AC8FF"/>
<stop offset="1" stop-color="#0089B9"/>
</linearGradient>
<linearGradient id="paint54_linear" x1="230.691" y1="161.459" x2="253.188" y2="161.459" gradientUnits="userSpaceOnUse">
<stop stop-color="#0089B9"/>
<stop offset="1" stop-color="#002C3B"/>
</linearGradient>
<linearGradient id="paint55_linear" x1="227.886" y1="131.62" x2="237.09" y2="131.62" gradientUnits="userSpaceOnUse">
<stop stop-color="#2AC8FF"/>
<stop offset="1" stop-color="#0089B9"/>
</linearGradient>
<linearGradient id="paint56_linear" x1="227.874" y1="144.356" x2="235.813" y2="144.356" gradientUnits="userSpaceOnUse">
<stop stop-color="#2AC8FF"/>
<stop offset="1" stop-color="#0089B9"/>
</linearGradient>
<linearGradient id="paint57_linear" x1="238.797" y1="168.676" x2="252.665" y2="168.676" gradientUnits="userSpaceOnUse">
<stop stop-color="#0090C2"/>
<stop offset="1" stop-color="#006588"/>
</linearGradient>
<linearGradient id="paint58_linear" x1="228.637" y1="113.502" x2="245.99" y2="113.502" gradientUnits="userSpaceOnUse">
<stop stop-color="#0089B9"/>
<stop offset="1" stop-color="#002C3B"/>
</linearGradient>
<linearGradient id="paint59_linear" x1="242.928" y1="146.122" x2="260.095" y2="146.122" gradientUnits="userSpaceOnUse">
<stop stop-color="#2AC8FF"/>
<stop offset="1" stop-color="#0089B9"/>
</linearGradient>
<linearGradient id="paint60_linear" x1="256.458" y1="163.877" x2="259.925" y2="163.877" gradientUnits="userSpaceOnUse">
<stop stop-color="#33CAFF"/>
<stop offset="1" stop-color="#0089B9"/>
</linearGradient>
<linearGradient id="paint61_linear" x1="251.974" y1="180.068" x2="261.8" y2="180.068" gradientUnits="userSpaceOnUse">
<stop stop-color="#08BFFF"/>
<stop offset="0.265" stop-color="#38CBFF"/>
<stop offset="0.531" stop-color="#5AD4FF"/>
<stop offset="0.781" stop-color="#6BD9FF"/>
<stop offset="1" stop-color="#70DAFF"/>
</linearGradient>
<linearGradient id="paint62_linear" x1="36.8143" y1="91.2594" x2="123.789" y2="91.2594" gradientUnits="userSpaceOnUse">
<stop stop-color="#002C3B"/>
<stop offset="1" stop-color="#04BEFF"/>
</linearGradient>
<linearGradient id="paint63_linear" x1="93.8691" y1="71.1677" x2="139.902" y2="71.1677" gradientUnits="userSpaceOnUse">
<stop offset="0.218" stop-color="#0081AF"/>
<stop offset="0.399" stop-color="#0086B5"/>
<stop offset="0.634" stop-color="#0092C5"/>
<stop offset="0.898" stop-color="#00A6E0"/>
<stop offset="1" stop-color="#00AFEC"/>
</linearGradient>
<linearGradient id="paint64_linear" x1="93.8695" y1="71.0095" x2="126.908" y2="71.0095" gradientUnits="userSpaceOnUse">
<stop stop-color="#34CAFF"/>
<stop offset="1" stop-color="#54D3FF"/>
</linearGradient>
<linearGradient id="paint65_linear" x1="77.7588" y1="92.8573" x2="117.902" y2="92.8573" gradientUnits="userSpaceOnUse">
<stop stop-color="#35CAFF"/>
<stop offset="0.497" stop-color="#58D4FF"/>
<stop offset="1" stop-color="#A9E9FF"/>
</linearGradient>
<linearGradient id="paint66_linear" x1="97.8419" y1="94.4757" x2="97.8419" y2="68.4481" gradientUnits="userSpaceOnUse">
<stop stop-color="#27C7FF"/>
<stop offset="1" stop-color="#58D4FF"/>
</linearGradient>
<linearGradient id="paint67_linear" x1="87.1692" y1="107.037" x2="97.384" y2="107.037" gradientUnits="userSpaceOnUse">
<stop stop-color="#00BDFF"/>
<stop offset="1" stop-color="#56D3FF"/>
</linearGradient>
<linearGradient id="paint68_linear" x1="104.393" y1="112.152" x2="192.828" y2="112.152" gradientUnits="userSpaceOnUse">
<stop stop-color="#35CAFF"/>
<stop offset="0.497" stop-color="#58D4FF"/>
<stop offset="1" stop-color="#A9E9FF"/>
</linearGradient>
<linearGradient id="paint69_linear" x1="104.403" y1="119.621" x2="160.053" y2="119.621" gradientUnits="userSpaceOnUse">
<stop stop-color="#27C7FF"/>
<stop offset="1" stop-color="#58D4FF"/>
</linearGradient>
<linearGradient id="paint70_linear" x1="117.706" y1="131.8" x2="127.506" y2="131.8" gradientUnits="userSpaceOnUse">
<stop stop-color="#00BDFF"/>
<stop offset="1" stop-color="#56D3FF"/>
</linearGradient>
<linearGradient id="paint71_linear" x1="135.058" y1="113.113" x2="143.611" y2="113.113" gradientUnits="userSpaceOnUse">
<stop stop-color="#00BDFF"/>
<stop offset="1" stop-color="#56D3FF"/>
</linearGradient>
<linearGradient id="paint72_linear" x1="107.237" y1="85.6459" x2="107.237" y2="68.6009" gradientUnits="userSpaceOnUse">
<stop stop-color="#35CAFF"/>
<stop offset="1" stop-color="#58D4FF"/>
</linearGradient>
<linearGradient id="paint73_linear" x1="109.385" y1="45.5011" x2="136.119" y2="72.2347" gradientUnits="userSpaceOnUse">
<stop stop-color="#35CAFF"/>
<stop offset="0.497" stop-color="#58D4FF"/>
<stop offset="1" stop-color="#A9E9FF"/>
</linearGradient>
<linearGradient id="paint74_linear" x1="121.511" y1="52.4496" x2="126.59" y2="57.5285" gradientUnits="userSpaceOnUse">
<stop stop-color="#003142"/>
<stop offset="0.102" stop-color="#00374A"/>
<stop offset="0.264" stop-color="#004E69"/>
<stop offset="0.465" stop-color="#00749D"/>
<stop offset="0.699" stop-color="#00A8E3"/>
<stop offset="0.956" stop-color="#3ECDFF"/>
<stop offset="1" stop-color="#4ED1FF"/>
</linearGradient>
<linearGradient id="paint75_linear" x1="133.877" y1="53.5341" x2="138.764" y2="58.4214" gradientUnits="userSpaceOnUse">
<stop stop-color="#003142"/>
<stop offset="0.102" stop-color="#00374A"/>
<stop offset="0.264" stop-color="#004E69"/>
<stop offset="0.465" stop-color="#00749D"/>
<stop offset="0.699" stop-color="#00A8E3"/>
<stop offset="0.956" stop-color="#3ECDFF"/>
<stop offset="1" stop-color="#4ED1FF"/>
</linearGradient>
<linearGradient id="paint76_linear" x1="129.65" y1="58.7625" x2="134.599" y2="58.7625" gradientUnits="userSpaceOnUse">
<stop stop-color="#27C7FF"/>
<stop offset="1" stop-color="#58D4FF"/>
</linearGradient>
<linearGradient id="paint77_linear" x1="70.0777" y1="63.6857" x2="142.609" y2="63.6857" gradientUnits="userSpaceOnUse">
<stop stop-color="#0081AF"/>
<stop offset="1" stop-color="#00AFEC"/>
</linearGradient>
<linearGradient id="paint78_linear" x1="87.6553" y1="80.7383" x2="109.237" y2="21.444" gradientUnits="userSpaceOnUse">
<stop offset="0.267" stop-color="#0079A3"/>
<stop offset="1" stop-color="#00AFEC"/>
</linearGradient>
<linearGradient id="paint79_linear" x1="102.446" y1="64.537" x2="113.376" y2="64.537" gradientUnits="userSpaceOnUse">
<stop stop-color="#00A8E3"/>
<stop offset="1" stop-color="#00A4DD"/>
</linearGradient>
<linearGradient id="paint80_linear" x1="99.968" y1="44.8134" x2="107.749" y2="44.8134" gradientUnits="userSpaceOnUse">
<stop stop-color="#27C7FF"/>
<stop offset="1" stop-color="#58D4FF"/>
</linearGradient>
<linearGradient id="paint81_linear" x1="111.311" y1="68.5844" x2="118.412" y2="68.5844" gradientUnits="userSpaceOnUse">
<stop stop-color="#00A4DD"/>
<stop offset="1" stop-color="#00A8E3"/>
</linearGradient>
<linearGradient id="paint82_linear" x1="96.6064" y1="56.5013" x2="109.007" y2="56.5013" gradientUnits="userSpaceOnUse">
<stop stop-color="#00A9E5"/>
<stop offset="1" stop-color="#69D8FF"/>
</linearGradient>
<linearGradient id="paint83_linear" x1="99.0596" y1="56.6511" x2="104.76" y2="56.6511" gradientUnits="userSpaceOnUse">
<stop stop-color="#00A8E3"/>
<stop offset="1" stop-color="#00A4DD"/>
</linearGradient>
<linearGradient id="paint84_linear" x1="173.717" y1="73.1332" x2="173.717" y2="54.2" gradientUnits="userSpaceOnUse">
<stop stop-color="#00BDFF" stop-opacity="0.25"/>
<stop offset="0.085" stop-color="#08BFFF" stop-opacity="0.271"/>
<stop offset="0.225" stop-color="#1DC4FF" stop-opacity="0.306"/>
<stop offset="0.401" stop-color="#40CDFF" stop-opacity="0.35"/>
<stop offset="0.607" stop-color="#71DAFF" stop-opacity="0.402"/>
<stop offset="0.835" stop-color="#A3E7FF" stop-opacity="0.459"/>
<stop offset="1" stop-color="#A5E8FF" stop-opacity="0.5"/>
</linearGradient>
<linearGradient id="paint85_linear" x1="173.719" y1="69.0675" x2="173.719" y2="58.4003" gradientUnits="userSpaceOnUse">
<stop stop-color="#A6E8FF"/>
<stop offset="1" stop-color="#F7FDFF"/>
</linearGradient>
<linearGradient id="paint86_linear" x1="178.545" y1="69.0675" x2="178.545" y2="58.4003" gradientUnits="userSpaceOnUse">
<stop stop-color="#5AD4FF"/>
<stop offset="1" stop-color="#00AFEC"/>
</linearGradient>
<linearGradient id="paint87_linear" x1="173.713" y1="90.9334" x2="173.713" y2="86.49" gradientUnits="userSpaceOnUse">
<stop stop-color="#69D8FF"/>
<stop offset="1" stop-color="#00A9E5"/>
</linearGradient>
<linearGradient id="paint88_linear" x1="173.648" y1="88.3126" x2="173.648" y2="73.1257" gradientUnits="userSpaceOnUse">
<stop stop-color="#00BDFF" stop-opacity="0.25"/>
<stop offset="0.085" stop-color="#08BFFF" stop-opacity="0.271"/>
<stop offset="0.225" stop-color="#1DC4FF" stop-opacity="0.306"/>
<stop offset="0.401" stop-color="#40CDFF" stop-opacity="0.35"/>
<stop offset="0.607" stop-color="#71DAFF" stop-opacity="0.402"/>
<stop offset="0.835" stop-color="#A3E7FF" stop-opacity="0.459"/>
<stop offset="1" stop-color="#A5E8FF" stop-opacity="0.5"/>
</linearGradient>
</defs>
</svg>
