<svg width="1097" height="1000" viewBox="0 0 1097 1000" fill="none" xmlns="http://www.w3.org/2000/svg">
<ellipse cx="559.097" cy="912.256" rx="537.432" ry="87.7439" fill="#A7E0F4"/>
<path d="M988.83 83.3945L901.387 95.7949L876.372 170.838L901.387 195.853L976.43 170.838L988.83 83.3945Z" fill="#F7F7F7"/>
<path d="M882.531 189.632C879.111 186.211 879.111 180.653 882.531 177.232L919.946 139.817C923.367 136.396 928.926 136.396 932.346 139.817C935.767 143.238 935.767 148.797 932.346 152.217L894.932 189.632C891.511 193.053 885.952 193.053 882.531 189.632Z" fill="#D3D3D3"/>
<path d="M944.983 152.227C938.141 159.068 926.81 159.068 919.968 152.227C913.127 145.385 913.127 134.054 919.968 127.212C926.81 120.371 938.141 120.371 944.983 127.212C951.824 134.054 951.824 145.172 944.983 152.227Z" fill="#D3D3D3"/>
<path d="M826.301 195.849V208.25L863.716 245.665H876.116L901.13 195.636L876.116 170.621L826.301 195.849Z" fill="#9C0001"/>
<path d="M737.364 100.498L745.061 114.608L795.089 127.009L806.635 114.608L796.372 76.3383L801.717 50.4687L767.082 43.4133L761.737 69.283L737.364 100.498Z" fill="#0E538C"/>
<path d="M767.11 43.4012L801.745 50.4565L808.801 15.8211L775.876 0L767.11 43.4012Z" fill="#00A5DF"/>
<path d="M714.904 384.634C695.875 380.786 683.475 361.971 687.324 342.943L737.352 100.495L806.623 114.82L756.808 357.054C752.746 376.296 734.145 388.482 714.904 384.634Z" fill="#0B4870"/>
<path d="M826.306 195.833L876.335 245.862L751.477 370.72C737.58 384.617 715.345 384.617 701.448 370.72C687.551 356.823 687.551 334.588 701.448 320.691L826.306 195.833Z" fill="#9C0001"/>
<path d="M887.886 273.232L935.777 261.473L952.881 330.103L904.99 341.862L887.886 273.232Z" fill="#0E538C"/>
<path d="M1089.95 259.542L1018.75 233.886C1006.57 229.61 993.312 228.755 980.911 231.962C971.077 234.314 961.883 239.018 954.186 245.645L935.8 261.253L952.69 329.882L976.208 335.227C986.042 337.365 996.519 337.365 1006.35 334.8C1018.97 331.593 1030.3 324.965 1039.06 315.344L1089.95 259.542Z" fill="#F7F7F7"/>
<path d="M1065.38 286.503L1036.94 268.544C1019.41 257.854 997.39 258.068 980.073 269.186C976.01 271.751 974.728 277.31 977.293 281.372C977.721 282.014 978.148 282.441 978.576 282.869C981.569 285.862 986.059 286.29 989.48 284.152C1001.02 276.669 1015.78 276.455 1027.54 283.724L1053.19 299.973L1065.38 286.503Z" fill="#D3D3D3"/>
<path d="M892.824 271.948L909.928 340.578L729.695 385.262C710.667 389.965 691.639 378.42 686.936 359.392C682.232 340.364 693.777 321.336 712.805 316.632L892.824 271.948Z" fill="#00A5DF"/>
<path d="M625.338 668.342H393.58C382.676 668.342 373.911 659.576 373.911 648.672C373.911 637.768 382.676 629.003 393.58 629.003H625.338C636.242 629.003 645.008 637.768 645.008 648.672C645.008 659.79 636.242 668.342 625.338 668.342Z" fill="#D3D3D3"/>
<path d="M461.361 895.744V915.414H660.836V895.744H461.361Z" fill="#0E538C"/>
<path d="M479.958 911.416C481.669 921.678 474.827 931.299 464.565 933.01C454.302 934.72 444.681 927.879 442.971 917.616C441.261 907.354 448.102 897.733 458.364 896.022C468.627 894.312 478.248 901.154 479.958 911.416Z" fill="#0E538C"/>
<path d="M569.953 655.499H550.284V903.719H569.953V655.499Z" fill="#0E538C"/>
<path d="M679.462 911.416C681.172 921.678 674.331 931.299 664.068 933.01C653.806 934.72 644.185 927.879 642.475 917.616C640.764 907.354 647.606 897.733 657.868 896.022C668.131 894.312 677.752 901.154 679.462 911.416Z" fill="#0E538C"/>
<path d="M686.263 668.343H467.12C452.154 668.343 441.464 653.805 445.74 639.053L550.287 278.588C553.066 268.967 561.832 262.34 571.667 262.34H790.597C805.563 262.34 816.252 276.878 811.976 291.63L707.643 652.095C704.863 661.715 696.098 668.343 686.263 668.343Z" fill="#D3D3D3"/>
<path d="M656.164 668.343H465.455C450.49 668.343 439.8 653.805 444.076 639.053L548.623 278.588C551.402 268.967 560.168 262.34 570.003 262.34H760.711C775.677 262.34 786.367 276.878 782.091 291.63L677.544 652.095C674.764 661.715 665.998 668.343 656.164 668.343Z" fill="#F2F2F2"/>
<path d="M686.043 668.342H454.285C443.381 668.342 434.615 659.576 434.615 648.672C434.615 637.768 443.381 629.003 454.285 629.003H686.043C696.947 629.003 705.712 637.768 705.712 648.672C705.712 659.79 696.947 668.342 686.043 668.342Z" fill="#D3D3D3"/>
<path d="M498.588 362.383L451.125 499L462.242 525.939L526.168 513.752L544.341 367.514L498.588 362.383Z" fill="#FFCF94"/>
<path d="M527.217 295.898C527.217 295.898 489.802 317.064 481.464 387.19L531.065 416.694L527.217 295.898Z" fill="#00A5DF"/>
<path d="M591.335 268.968L527.196 295.906L476.739 520.823L645.854 587.528L735.864 330.969C735.864 330.969 721.111 277.306 636.661 263.836L591.335 268.968Z" fill="#00A5DF"/>
<path d="M762.165 533.201C761.951 530.208 760.24 512.463 759.599 509.683L731.805 331.375C726.46 307.002 698.88 294.602 677.073 306.788C661.038 315.768 653.769 335.01 659.969 352.114L693.108 505.194L762.165 533.201Z" fill="#FFCF94"/>
<path d="M724.341 494.94L535.77 480.188L526.363 513.755L707.879 575.115C735.886 584.522 764.322 562.501 762.184 533.21C760.687 512.899 744.652 496.651 724.341 494.94Z" fill="#FFCF94"/>
<path d="M712.791 301.247C712.791 301.247 736.95 311.723 747.212 373.938L662.334 400.022C662.334 400.022 606.746 337.807 666.182 296.33L712.791 301.247Z" fill="#00A5DF"/>
<path d="M476.535 515.683C483.376 534.284 518.439 534.925 536.826 528.083C555.427 521.242 574.455 510.552 567.399 491.951C560.558 473.351 529.557 462.447 509.46 466.937C484.873 472.709 469.479 497.296 476.535 515.683Z" fill="#FFCF94"/>
<path d="M579.16 540.912L444.467 523.594L446.391 508.415L581.084 525.732C585.36 526.374 588.14 530.008 587.712 534.284C587.071 538.56 583.222 541.553 579.16 540.912Z" fill="#9C0001"/>
<path d="M462.244 525.942L283.936 503.066C273.674 501.783 265.549 493.659 264.053 483.396L245.238 354.048C243.528 342.503 253.363 332.668 264.694 334.165L428.464 355.117C435.306 355.972 440.651 361.317 441.506 368.159L462.244 525.942Z" fill="#9C0001"/>
<path d="M363.239 437.001C361.956 446.408 353.618 452.822 344.211 451.753C334.804 450.471 328.39 442.132 329.459 432.725C330.742 423.318 339.08 416.904 348.487 417.973C357.894 419.256 364.522 427.808 363.239 437.001Z" fill="white"/>
<path d="M249.079 867.598L202.685 886.84L173.394 888.978C159.925 890.047 148.807 899.668 145.814 912.923L144.531 919.123L303.17 939.007L306.377 875.081L249.079 867.598Z" fill="#9C0001"/>
<path d="M306.577 875.075L322.184 805.377L264.672 797.68L249.065 867.592L306.577 875.075Z" fill="#FFCF94"/>
<path d="M645.666 587.517C645.666 587.517 641.176 626.001 572.119 631.132H406.211L327.961 849.42L245.648 836.165L327.961 515.68L516.531 536.633L645.666 587.517Z" fill="#0B4870"/>
<path d="M116.093 742.311L66.4914 735.041L40.1942 721.786C28.2214 715.799 13.4693 718.365 4.27598 728.2L0 732.903L125.928 831.465L161.418 778.229L116.093 742.311Z" fill="#9C0001"/>
<path d="M161.85 778.226L205.037 723.28L159.712 686.934L116.097 742.308L161.85 778.226Z" fill="#FFCF94"/>
<path d="M476.795 520.809L348.943 482.539C343.598 480.829 338.253 479.119 333.122 476.981C322.004 472.705 294.21 466.932 272.617 499.857C244.823 542.189 134.075 702.111 134.075 702.111L201.636 751.926L349.157 563.783C361.557 546.679 381.44 536.631 402.393 536.631L516.561 536.417L476.795 520.809Z" fill="#0B4870"/>
<path d="M641.149 198.818C643.501 194.542 683.054 123.989 646.708 106.244C646.708 106.244 642.004 69.0425 600.313 73.1047C558.623 77.1669 569.954 89.3534 543.443 83.367C516.932 77.3807 491.917 91.0638 493.842 113.085C495.766 135.32 512.87 144.727 543.443 139.382C574.016 134.037 598.175 138.1 598.175 138.1L623.617 145.582L641.149 198.818Z" fill="#9C0001"/>
<path d="M646.314 275.15L643.107 185.568L580.892 207.59L585.809 279.426C586.878 296.103 596.285 309.144 612.961 307.861L618.093 307.434C634.769 306.365 647.383 292.04 646.314 275.15Z" fill="#FFCF94"/>
<path d="M637.76 197.974C637.76 197.974 649.519 272.803 585.593 277.079L582.813 241.589L637.76 197.974Z" fill="#FFCACA"/>
<path d="M584.944 260.417H587.082C618.938 258.92 643.525 231.982 642.029 200.126L639.035 135.131C638.608 126.793 631.552 120.592 623.428 120.806L547.529 124.441C532.777 125.082 521.446 137.696 522.087 152.448L524.653 205.898C526.15 237.327 553.088 261.913 584.944 260.417Z" fill="#FFCF94"/>
<path d="M627.683 180.446C628.11 191.136 637.304 199.474 647.993 199.046C658.683 198.619 667.022 189.425 666.594 178.735C666.166 168.045 656.973 159.707 646.283 160.135C635.379 160.562 627.041 169.542 627.683 180.446Z" fill="#FFCF94"/>
<path d="M618.257 128.284L622.106 200.976C622.533 207.604 619.754 214.231 614.409 217.866C610.988 220.218 608.209 223.425 602.222 222.57C584.905 220.004 592.815 207.176 557.752 209.1C525.682 210.811 528.034 228.77 528.034 228.77C528.034 228.77 534.234 262.764 578.277 264.26C622.319 265.971 644.341 237.963 639.21 200.976L634.934 124.222L618.257 128.284Z" fill="#9C0001"/>
<path d="M524.254 140.466C524.254 140.466 544.779 143.672 574.497 136.403C604.215 129.134 627.733 153.08 627.733 153.08C627.733 153.08 634.147 164.197 635.644 163.77C637.14 163.556 646.334 159.921 646.334 159.921L645.906 126.355L624.098 109.465L563.807 106.899L528.103 114.81L524.254 140.466Z" fill="#9C0001"/>
</svg>
