<svg width="700" height="384" viewBox="0 0 700 384" fill="none" xmlns="http://www.w3.org/2000/svg">
<path d="M92.1436 98.1731C92.1436 89.1614 92.0083 80.1498 92.1436 71.0811C92.3843 58.5047 97.7079 47.782 105.979 38.1715C110.235 33.2236 115.393 31.6551 122.792 34.6068C115.604 26.8071 113.348 19.15 117.559 10.1954C119.995 5.00515 126.401 -0.0425069 131.77 0.00026997C136.582 0.00026997 144.869 5.50424 146.387 10.1384C149.275 18.9647 148.869 27.1208 140.913 33.9223C136.402 37.7722 131.529 37.6724 125.95 36.9167C131.966 43.6612 135.409 52.8439 147.184 53.1719C152.779 53.343 158.283 55.325 163.862 56.2803C167.246 56.8507 170.404 57.7062 171.216 61.2567C172.118 65.1921 169.261 67.1884 165.952 68.6856L161.681 70.5963C168.644 70.3824 174.359 72.2361 180.374 71.9081C183.262 71.7513 184.495 70.7389 185.247 68.4432C188.751 57.6777 192.345 46.9122 195.774 36.1039C196.541 33.6656 197.127 33.1808 200.09 33.9223C215.324 37.6724 211.775 36.6457 208.466 47.6251C204.737 60.0162 200.165 72.179 196.135 84.4845C195.443 86.5663 195.187 88.035 192.555 86.3239C191.999 85.9674 191.052 86.1671 190.27 86.1385C176.389 85.7678 162.494 85.1547 148.613 85.169C143.365 85.169 141.425 83.5292 142.252 78.8237C143.244 73.2342 141.169 70.7817 134.958 71.6942C130.762 72.3359 127.349 71.5659 124.988 67.274C123.379 64.3366 120.085 62.2405 117.183 59.4315C114.446 67.3025 114.085 74.8169 114.175 82.7877C117.544 82.7877 121.559 82.7877 125.589 82.7877C136.116 82.6451 135.109 84.9836 136.266 91.9277C137.996 102.408 137.77 113.059 137.59 123.668C137.533 127.273 136.655 130.823 135.018 134.077C131.755 140.722 127.634 142.347 120.296 140.223C117.92 138.269 118.431 135.603 118.401 133.093C118.401 123.839 118.401 114.557 118.401 105.303C118.401 103.463 119.303 101.153 116.611 100.098C114.34 99.7844 112.1 99.8842 109.799 99.7844C107.829 99.7844 105.844 99.8557 103.874 99.7844C101.528 99.7844 99.1967 99.8699 96.8507 99.7844C95.031 99.7701 93.3166 99.599 92.1436 98.1731Z" fill="#0B4870"/>
<path d="M413.559 204.382C409.558 212.082 405.438 219.725 401.528 227.496C399.242 232.102 396.054 233.2 391.377 230.847C388.008 229.179 384.399 227.853 381.226 225.913C377.827 223.846 375.978 224.288 374.338 227.838C371.977 232.957 369.24 237.905 366.548 242.882C363.541 248.457 358.924 250.781 353.495 249.612C349.39 248.713 345.735 243.252 346.141 237.862C346.818 228.979 351.495 221.522 356.247 214.164C357.352 212.717 358.224 211.121 358.834 209.43C346.562 205.58 334.441 201.573 322.17 198.094C318.756 197.125 318.079 195.642 318.094 192.733C318.185 177.276 318.185 161.815 318.094 146.349C318.094 143.711 318.516 142.513 321.809 142.413C333.298 142.085 333.298 141.928 333.298 152.751C333.298 162.319 333.539 171.901 333.163 181.454C333.028 185.247 334.321 186.744 338.005 187.814C352.457 192.091 366.789 196.597 381.196 200.975C383.677 201.73 386.85 201.745 384.67 205.637C384.444 206.022 385.091 206.864 385.331 207.505C385.993 207.22 386.986 207.106 387.271 206.621C389.982 201.889 391.741 196.72 392.46 191.378C392.821 188.954 389.211 189.667 388.384 190.166C376.895 196.954 367.857 190.166 358.217 185.775C352.803 183.279 347.69 180.599 343.765 176.221C341.6 173.826 339.043 171.487 340.848 168.108C342.652 164.728 346.728 165.256 349.69 165.855C356.158 167.158 362.494 168.994 368.624 171.345C377.286 174.781 384.685 171.673 392.4 168.578C379.481 161.606 376.023 155.916 378.865 146.534C380.564 140.945 389.241 135.483 395.768 135.883C402.866 136.31 410.22 141.772 411.288 147.375C413.077 156.943 409.183 163.901 399.588 167.566C409.634 168.849 410.972 176.535 413.468 183.336C415.073 186.633 415.912 190.219 415.927 193.85C415.943 197.481 415.135 201.073 413.559 204.382V204.382Z" fill="#0B4870"/>
<path d="M37.4334 258.278C34.9119 259.466 32.0551 259.856 29.2826 259.39C27.1471 257.309 27.4178 254.642 27.4178 252.104C27.4178 204.061 27.4178 156.056 27.4178 108.089C27.4178 105.537 27.2073 102.885 29.2826 100.789L37.4334 99.6907C39.5839 101.758 39.3132 104.439 39.3132 106.977C39.3132 155.001 39.3132 203.03 39.3132 251.063C39.3132 253.587 39.5839 256.211 37.4334 258.278Z" fill="#CB4932"/>
<path d="M92.1564 98.165L96.8334 98.5215C98.9688 100.603 98.6831 103.27 98.6831 105.822C98.7433 146.118 98.7433 186.413 98.6831 226.709C98.6831 229.247 98.9538 231.928 96.8033 233.996H87.4945C85.359 231.914 85.6297 229.233 85.6297 226.695C85.6297 186.399 85.6297 146.103 85.6297 105.808C85.6297 103.255 85.359 100.589 87.4945 98.5072L92.1564 98.165Z" fill="#E98C3A"/>
<path d="M11.8238 261.609C9.38759 261.352 7.38753 263.562 4.83099 262.721C2.69553 260.639 2.98118 257.959 2.96614 255.42C2.96614 207.396 2.96614 159.391 2.96614 111.405C2.96614 108.867 2.69553 106.187 4.83099 104.105C7.26722 104.347 9.34248 102.166 11.8238 103.007C13.9743 105.089 13.7036 107.755 13.7036 110.293C13.7036 158.336 13.7036 206.365 13.7036 254.38C13.7036 256.861 13.9743 259.527 11.8238 261.609Z" fill="#C0262E"/>
<path d="M42.0761 99.5985C49.054 97.3741 49.054 97.3741 49.069 104.076C49.069 121.633 49.069 139.186 49.069 156.734C50.0751 157.869 50.6568 159.288 50.7233 160.769C51.024 169.933 51.024 179.106 50.7233 188.289C50.6545 189.77 50.0731 191.188 49.069 192.324C49.069 211.702 48.7682 231.094 49.1592 250.472C49.2796 255.905 47.6554 258.372 42.016 258.286C39.8805 256.204 40.1512 253.524 40.1512 250.986C40.1512 202.961 40.1512 154.933 40.1512 106.899C40.2114 104.375 39.9106 101.695 42.0761 99.5985Z" fill="#D05633"/>
<path d="M413.527 204.387V183.34C413.587 163.673 413.643 144.005 413.693 124.337C413.693 116.879 413.693 116.879 421.844 117.293C423.994 119.361 423.723 122.041 423.723 124.579C423.723 164.875 423.723 205.176 423.723 245.481C423.723 248.019 423.994 250.7 421.844 252.767C413.693 253.181 413.708 253.181 413.693 245.738C413.653 231.963 413.598 218.18 413.527 204.387Z" fill="#BF232E"/>
<path d="M499.859 117.287H508.01C510.161 119.369 509.89 122.036 509.89 124.574C509.89 164.869 509.89 205.17 509.89 245.475C509.89 248.013 510.161 250.68 508.01 252.761H499.859C497.724 250.68 498.01 248.013 497.995 245.475C497.995 205.179 497.995 164.879 497.995 124.574C498.01 122.036 497.724 119.369 499.859 117.287Z" fill="#EE973C"/>
<path d="M439.25 117.287H447.401C448.755 120.514 449.405 123.968 449.31 127.44C449.31 142.797 449.31 158.139 449.31 173.496C449.31 176.177 449.762 179.043 447.506 181.281C447.506 202.755 447.506 224.229 447.506 245.703C447.506 253.175 447.506 253.175 439.355 252.761C437.219 250.68 437.505 248.013 437.49 245.475C437.49 205.179 437.49 164.879 437.49 124.574C437.4 122.036 437.114 119.369 439.25 117.287Z" fill="#CA4831"/>
<path d="M513.888 117.297C519.362 116.056 521.046 117.853 521.001 123.357C520.761 164.479 520.761 205.597 521.001 246.71C521.001 252.214 519.362 254.011 513.888 252.77C511.753 250.689 512.023 248.022 512.023 245.484C512.023 205.188 512.023 164.888 512.023 124.583C512.023 122.045 511.753 119.378 513.888 117.297Z" fill="#F7A93F"/>
<path d="M499.856 117.288V252.747H492.863C490.727 250.666 491.013 247.999 491.013 245.461C490.953 205.165 490.953 164.865 491.013 124.56C491.013 122.022 490.727 119.355 492.863 117.273L499.856 117.288Z" fill="#E98D3A"/>
<path d="M421.843 252.771V117.311H428.836C430.986 119.393 430.7 122.059 430.715 124.597C430.715 164.893 430.715 205.193 430.715 245.499C430.715 248.037 430.986 250.703 428.836 252.785L421.843 252.771Z" fill="#C22E2F"/>
<path d="M96.854 233.993C96.854 188.84 96.854 143.687 96.854 98.5334H103.832C105.967 100.615 105.697 103.296 105.697 105.834C105.697 146.13 105.697 186.425 105.697 226.721C105.697 229.259 105.967 231.94 103.832 234.021L96.854 233.993Z" fill="#EE973C"/>
<path d="M109.695 98.5068H116.643C118.703 100.418 118.372 102.899 118.372 105.266C118.372 145.913 118.372 186.57 118.372 227.236C118.372 229.603 118.703 232.084 116.643 233.981H109.65C107.514 231.899 107.785 229.218 107.785 226.68C107.785 186.385 107.785 146.084 107.785 105.779C107.815 103.255 107.62 100.589 109.695 98.5068Z" fill="#F7A83F"/>
<path d="M11.7817 261.608V102.934L17.5715 102.62C19.7672 104.674 19.4815 107.354 19.4815 109.892C19.5416 157.745 19.5416 205.598 19.4815 253.452C19.4815 256.032 19.4815 258.642 17.6468 260.809C15.9474 262.691 13.7668 261.522 11.7817 261.608Z" fill="#C22F2F"/>
<path d="M29.1997 100.739V259.412C27.1995 259.483 25.5904 261.437 23.3797 260.524C21.2443 258.442 21.515 255.762 21.515 253.224C21.515 205.2 21.515 157.171 21.515 109.137C21.515 106.599 21.2443 103.918 23.3797 101.837L29.1997 100.739Z" fill="#C74131"/>
<path d="M23.4871 101.819V260.507L17.7123 260.807L17.6221 102.618C19.3365 100.721 21.502 101.933 23.4871 101.819Z" fill="#C43630"/>
<path d="M87.4922 98.523V233.982C82.1385 235.152 80.1384 233.583 80.3489 227.979C80.8001 216.088 80.4241 204.167 80.3489 192.247C79.5067 180.44 79.5067 168.592 80.3489 156.785C80.3489 139.36 80.6798 121.922 80.3489 104.512C80.2286 98.9507 82.1084 97.3252 87.4922 98.523Z" fill="#E58439"/>
<path d="M109.636 98.5068C109.636 143.67 109.636 188.823 109.636 233.967H103.816V98.5068H109.636Z" fill="#F29E3E"/>
<path d="M513.832 117.287V252.747H507.997V117.287H513.832Z" fill="#F3A03E"/>
<path d="M428.767 252.771V117.311H434.586C436.737 119.393 436.466 122.059 436.466 124.597C436.466 164.893 436.466 205.193 436.466 245.499C436.466 248.037 436.737 250.703 434.586 252.785L428.767 252.771Z" fill="#C43530"/>
<path d="M4.75222 104.039V262.727C1.54902 263.383 0 262.855 0 259.034C0.150385 208.595 0.150385 158.161 0 107.732C0 103.882 1.54902 103.383 4.75222 104.039Z" fill="#BF1F2E"/>
<path d="M42.0692 99.5942V258.296H37.4072V99.5942H42.0692Z" fill="#CD5032"/>
<path d="M233.137 273.012C235.618 274.181 238.611 274.552 240.175 277.119C240.824 278.038 241.274 279.07 241.498 280.156C242.341 292.767 242.341 305.416 241.498 318.027C241.282 318.929 240.826 319.763 240.175 320.451C239.842 321.053 239.385 321.586 238.833 322.019C238.28 322.453 237.643 322.777 236.957 322.975L240.115 324.929C241.874 327.11 241.995 329.677 241.995 332.258C241.995 344.178 241.995 356.099 241.995 368.019C242.227 370.596 241.567 373.174 240.115 375.362C237.919 376.788 236.19 378.956 233.137 378.685C230.956 376.603 231.287 373.922 231.272 371.384C231.212 341.032 231.212 310.67 231.272 280.298C231.287 277.831 230.911 275.08 233.137 273.012Z" fill="#EB913B"/>
<path d="M492.873 117.288V252.748H488.226C486.843 250.959 486.186 248.757 486.376 246.545C486.376 229.891 486.271 213.222 486.376 196.568C486.376 194.572 486.376 192.504 488.15 190.964C485.819 168.064 487.699 145.107 486.917 122.193C486.797 117.545 488.481 116.319 492.873 117.288Z" fill="#E58539"/>
<path d="M480.085 239.826C476.368 234.271 473.25 228.376 470.776 222.23C469.429 218.409 468.793 214.395 468.896 210.367C468.986 196.807 468.896 183.275 469.016 169.7C469.016 167.048 468.024 163.655 472.114 162.414C475.777 167.989 478.874 173.88 481.363 180.01C482.705 183.846 483.331 187.875 483.213 191.916C483.137 205.134 483.213 218.366 483.122 231.584C483.107 234.521 483.724 237.915 480.085 239.826Z" fill="#DC7337"/>
<path d="M381.45 376.51L378.105 366.134C376.72 363.707 377.918 357.241 378.105 354.487C378.105 329.772 378.105 305.033 378.105 280.27C378.105 277.746 377.804 275.08 379.954 273.012C382.906 273.863 385.419 275.723 387.007 278.231C388.447 280.865 389.087 283.827 388.857 286.786C388.857 312.538 388.857 338.304 388.767 364.055C388.722 366.878 385.451 374.756 381.45 376.51Z" fill="#E98C3A"/>
<path d="M228.494 380.1C226.915 381.811 224.329 380.699 222.614 381.997C222 381.404 221.529 380.691 221.236 379.908C220.942 379.124 220.833 378.29 220.915 377.462C221.11 368.137 220.283 358.797 221.366 349.472C221.817 345.608 220.644 341.843 220.659 337.979C220.78 318.017 220.659 298.054 220.75 278.092C220.75 275.24 220.193 272.16 222.599 269.736C224.81 268.866 226.434 270.734 228.434 270.834C230.314 273.201 230.329 275.953 230.329 278.719C230.329 309.908 230.329 341.083 230.329 372.243C230.314 374.953 230.495 377.762 228.494 380.1Z" fill="#E38139"/>
<path d="M434.655 252.771V117.311H439.317V252.771H434.655Z" fill="#C73F31"/>
<path d="M342.55 380.11C341.469 380.15 340.39 379.974 339.385 379.594C338.38 379.213 337.47 378.636 336.716 377.9C335.382 375.644 334.737 373.082 334.851 370.499C334.851 340.546 334.851 310.602 334.851 280.668C334.851 278.258 334.956 275.863 336.685 273.866C337.708 271.229 340.716 272.084 342.55 270.872C344.731 272.925 344.415 275.606 344.415 278.13C344.475 309.728 344.475 341.316 344.415 372.895C344.445 375.376 344.746 378.057 342.55 380.11Z" fill="#CB4B32"/>
<path d="M379.889 273.327V369.1L372.48 364.365C370.484 362.058 370.484 359.263 370.548 356.513C371.139 330.195 370.325 303.876 370.548 277.573C370.548 274.854 370.261 271.998 372.528 269.783L379.889 273.327Z" fill="#E48239"/>
<path d="M342.585 380.102V270.822C343.19 270.264 343.94 269.867 344.758 269.672C345.577 269.477 346.435 269.49 347.247 269.709C349.533 271.934 348.916 274.786 349.052 277.452C349.503 286.492 348.27 295.575 349.578 304.544C350.33 310.376 348.976 316.137 348.871 321.954C348.845 332.513 349.766 343.055 351.623 353.466C351.067 360.596 351.623 367.64 351.352 374.712C351.277 377.222 351.683 379.874 349.593 381.942L346.074 381.186C344.961 380.758 343.322 381.685 342.585 380.102Z" fill="#CE5432"/>
<path d="M336.786 273.82V377.91C334.666 376.641 332.125 375.885 330.967 373.49C329.513 370.859 328.867 367.895 329.102 364.934C329.102 338.498 329.102 312.058 329.102 285.612C328.869 282.653 329.509 279.69 330.952 277.057C332.876 275.987 334.305 274.062 336.786 273.82Z" fill="#C84231"/>
<path d="M326.233 369.095C323.182 366.275 320.799 362.873 319.24 359.114C317.285 352.897 317.33 346.523 317.375 340.121C317.435 328.229 317.435 316.347 317.375 304.474C317.262 300.451 317.893 296.441 319.24 292.624C320.459 288.403 322.878 284.581 326.233 281.574C328.413 283.613 328.142 286.279 328.142 288.803C328.203 313.157 328.203 337.507 328.142 361.852C328.142 364.347 328.413 367.013 326.233 369.095Z" fill="#C22E2F"/>
<path d="M647.803 139.388H653.638C655.773 141.47 655.503 144.136 655.503 146.675C655.563 172.255 655.563 197.831 655.503 223.402C655.503 225.94 655.773 228.606 653.638 230.688H647.803C645.667 228.606 645.968 225.926 645.953 223.387C645.953 197.816 645.953 172.25 645.953 146.689C645.953 144.151 645.667 141.47 647.803 139.388Z" fill="#C53B30"/>
<path d="M601.224 230.688H595.404C593.268 228.606 593.554 225.94 593.539 223.402C593.539 197.821 593.539 172.246 593.539 146.675C593.539 144.136 593.268 141.47 595.404 139.388H601.224C603.359 141.456 603.088 144.136 603.088 146.675C603.148 172.255 603.148 197.831 603.088 223.402C603.088 225.94 603.359 228.62 601.224 230.688Z" fill="#D86935"/>
<path d="M601.257 230.68V139.423H607.077C609.227 141.505 608.957 144.171 608.941 146.709C608.791 172.646 608.836 198.583 608.821 224.52C608.821 226.73 608.987 228.983 607.077 230.723L601.257 230.68Z" fill="#DE7737"/>
<path d="M381.463 376.512C383.192 374.587 386.876 367.91 386.876 365.828C386.946 336.626 386.977 307.428 386.967 278.236C389.493 280.246 392.2 282.114 393.719 285.037C395.659 304.458 394.155 323.95 394.606 343.399C394.711 348.361 394.606 353.38 394.606 358.285C394.7 361.232 394.077 364.159 392.786 366.841C390.681 368.965 389.854 372.074 386.921 373.514L381.463 376.512Z" fill="#ED963C"/>
<path d="M222.596 269.716C222.596 307.15 222.596 344.58 222.596 382.005H219.093C218.496 381.404 218.037 380.692 217.747 379.913C217.457 379.135 217.342 378.308 217.408 377.485C217.408 369.457 216.777 361.429 217.814 353.416C222.461 348.339 219.529 343.791 216.731 339.242C215.41 337.198 214.78 334.82 214.927 332.427C215.513 323.942 213.258 315.316 216.731 306.96C217.528 304.158 217.528 301.207 216.731 298.405C215.513 289.65 216.25 280.866 216.371 272.097C216.369 271.452 216.508 270.813 216.78 270.222C217.052 269.63 217.45 269.099 217.95 268.661C218.754 268.436 219.606 268.416 220.421 268.601C221.237 268.786 221.987 269.17 222.596 269.716V269.716Z" fill="#E07B38"/>
<path d="M447.443 181.282C447.443 159.95 447.443 138.619 447.443 117.287C451.504 122.249 453.699 128.153 456.572 133.699C458.436 152.236 457.113 170.915 457.369 189.509C457.488 190.423 457.387 191.35 457.075 192.222C456.762 193.093 456.246 193.887 455.564 194.542C451.955 190.593 451.218 185.146 447.443 181.282Z" fill="#CE5332"/>
<path d="M455.646 194.549C455.646 176.203 455.646 157.857 455.646 139.51C455.646 137.571 454.954 135.446 456.578 133.707C459.18 138.355 462.112 142.861 463.827 147.966C465.176 151.796 465.807 155.821 465.692 159.858C465.692 173.617 465.692 187.392 465.692 201.208C465.692 203.918 466.113 206.798 463.782 209.022C459.691 204.83 457.796 199.626 455.646 194.549Z" fill="#D35F34"/>
<path d="M392.818 366.841C392.818 341.175 392.818 315.475 392.818 289.743C392.818 288.132 392.352 286.392 393.78 285.037C396.322 288.787 399.044 292.466 399.796 297.015C402.661 316.145 402.661 335.562 399.796 354.692C398.156 359.112 396.367 363.39 392.818 366.841Z" fill="#F3A13E"/>
<path d="M228.531 380.102C228.531 343.666 228.531 307.234 228.531 270.807L233.193 273.017V378.691C231.88 379.697 230.216 380.201 228.531 380.102V380.102Z" fill="#E88A3A"/>
<path d="M116.644 233.994V98.5346C120.404 97.6506 120.148 99.9605 120.148 102.327C120.148 114.989 120.208 127.651 120.328 140.313C120.253 169.915 120.223 199.502 120.073 229.104C120.103 231.185 121.757 234.878 116.644 233.994Z" fill="#FAAD40"/>
<path d="M250.54 158.162C255.759 157.064 257.894 158.39 257.729 164.093C257.548 170.809 256.135 177.696 258.661 184.341C260.016 186.364 260.736 188.71 260.736 191.107C260.736 193.503 260.016 195.85 258.661 197.873C256.03 203.391 257.503 209.28 257.729 214.826C257.954 220.373 255.744 221.827 250.54 220.744C248.405 218.662 248.706 215.981 248.706 213.443C248.646 197.445 248.646 181.446 248.706 165.448C248.706 162.91 248.405 160.243 250.54 158.162Z" fill="#C94531"/>
<path d="M480.027 239.822C481.441 237.669 481.245 235.259 481.245 232.863C481.245 215.22 481.245 197.577 481.245 179.934C484.373 183.157 484.84 187.862 488.133 190.985V252.769C482.84 249.974 482.464 244.313 480.027 239.822Z" fill="#E27F38"/>
<path d="M463.755 208.901L463.861 147.901C467.064 152.464 470.342 156.998 472.087 162.331C470.056 163.871 470.838 166.038 470.823 167.949C470.748 186.015 470.823 204.081 470.748 222.133C467.812 218.034 465.461 213.584 463.755 208.901Z" fill="#D86835"/>
<path d="M326.307 369.089V281.539L330.954 277.119C330.954 309.239 330.954 341.355 330.954 373.466L326.307 369.089Z" fill="#C53930"/>
<path d="M372.884 269.712L372.07 361.69L364.357 359.467C367.766 350.101 368.792 337.382 368.868 327.475C369.207 316.615 367.684 305.774 364.357 295.378C363.861 288.491 364.116 281.589 364.131 274.702C364.131 272.549 364.131 270.311 365.906 268.599C368.432 267.772 370.448 269.94 372.884 269.712Z" fill="#E07A38"/>
<path d="M586.096 139.388H590.758C592.894 141.47 592.623 144.136 592.623 146.675C592.683 172.255 592.683 197.831 592.623 223.402C592.623 225.94 592.894 228.606 590.758 230.688C586.713 231.715 586.006 229.889 586.036 226.41C586.156 204.737 586.036 183.063 586.036 161.404C583.209 154.307 583.23 146.472 586.096 139.388V139.388Z" fill="#CC4E32"/>
<path d="M590.736 230.68V139.423H595.398V230.68H590.736Z" fill="#D15A33"/>
<path d="M643.163 230.678C639.93 231.334 638.381 230.821 638.411 226.985C638.592 199.009 638.592 171.038 638.411 143.071C638.411 139.236 639.915 138.722 643.163 139.378C645.299 141.46 645.013 144.127 645.028 146.665C645.028 172.245 645.028 197.821 645.028 223.392C645.013 225.93 645.299 228.596 643.163 230.678Z" fill="#BF1F2E"/>
<path d="M643.121 230.68V139.423H647.767V230.68H643.121Z" fill="#C12A2F"/>
<path d="M653.642 230.68V139.423H658.304C660.439 141.505 660.183 144.171 660.168 146.709C660.033 172.646 660.168 198.583 660.033 224.52C660.033 226.73 660.198 228.997 658.304 230.723L653.642 230.68Z" fill="#CB4931"/>
<path d="M607.054 230.68V139.423H612.889C615.777 146.403 615.777 154.159 612.889 161.139C609.114 161.681 610.648 164.504 610.648 166.358C610.528 186.321 610.648 206.397 610.558 226.417C610.543 228.556 611.521 231.65 607.054 230.68Z" fill="#E48239"/>
<path d="M64.2665 157.05H74.7934C77.8315 168.531 77.8315 180.546 74.7934 192.027H64.2665C61.2439 180.544 61.2439 168.533 64.2665 157.05V157.05Z" fill="#DC7336"/>
<path d="M240.213 320.452V277.119C255.988 287.998 254.364 309.558 243.221 319.097C242.443 319.903 241.363 320.389 240.213 320.452Z" fill="#F29F3D"/>
<path d="M658.278 230.68V139.423H662.925C666.264 145.298 664.429 151.514 664.279 157.617C663.121 164.451 663.121 171.416 664.279 178.25C664.414 184.367 666.279 190.612 662.925 196.487C660.865 197.799 661.842 199.809 661.827 201.478C661.707 210.033 661.737 218.588 661.827 227.144C661.812 229.354 661.918 231.607 658.278 230.68Z" fill="#CE5332"/>
<path d="M319.297 292.604V359.121C310.95 343.679 311.387 327.295 313.357 310.641C314.124 304.225 315.131 297.993 319.297 292.604Z" fill="#BF232E"/>
<path d="M240.05 375.367V324.89C242.862 325.546 244.833 327.5 247.103 328.997C248.282 331.304 248.899 333.833 248.908 336.397C248.908 345.171 248.908 353.94 248.908 362.705C248.899 365.269 248.282 367.798 247.103 370.105C245.494 372.786 242.637 373.912 240.05 375.367Z" fill="#F19C3D"/>
<path d="M159.776 158.155C160.14 158.032 160.528 157.989 160.912 158.029C161.296 158.07 161.666 158.192 161.993 158.386C162.32 158.581 162.596 158.844 162.801 159.154C163.006 159.465 163.133 159.816 163.175 160.18C164.092 164.172 164.844 168.193 165.656 172.2C168.754 186.801 167.16 201.559 167.34 216.26C167.408 217.082 167.287 217.907 166.986 218.68C166.685 219.453 166.21 220.155 165.596 220.737C162.588 221.094 162.708 219.083 161.941 217.158C160.949 214.692 161.941 211.783 159.776 209.701C157.61 207.619 157.911 205.309 157.941 202.957C158.107 190.266 157.716 177.576 157.941 164.9C157.971 162.533 157.776 160.052 159.776 158.155Z" fill="#E38038"/>
<path d="M365.926 268.616V296.164C361.505 294.325 356.151 295.893 352.091 292.713C351.444 284.643 349.79 276.515 353.159 268.602L365.926 268.616Z" fill="#D86A35"/>
<path d="M670.066 139.393C672.518 139.108 674.969 138.78 677.059 140.491C678.909 142.216 678.879 144.483 678.894 146.679C678.984 160.824 678.984 174.964 678.894 189.099C679.028 191.318 678.377 193.516 677.044 195.345L670.051 196.457C666.728 190.511 668.713 184.208 668.547 178.034C668.547 177.692 668.547 177.236 668.848 177.008C675.601 170.605 674.969 164.246 668.758 157.887C668.472 151.684 666.728 145.382 670.066 139.393Z" fill="#DC7337"/>
<path d="M553.473 230.688H549.969C547.924 228.777 548.27 226.296 548.27 223.929C548.27 198.007 548.27 172.079 548.27 146.147C548.27 143.78 547.924 141.299 549.969 139.388H553.473C555.534 141.285 555.203 143.766 555.203 146.133C555.203 172.065 555.203 198.002 555.203 223.944C555.203 226.311 555.534 228.792 553.473 230.688Z" fill="#E7893A"/>
<path d="M549.978 139.377V230.635H546.489C544.504 228.695 544.88 226.2 544.88 223.847C544.88 197.934 544.88 172.026 544.88 146.122C544.88 143.769 544.504 141.274 546.489 139.335L549.978 139.377Z" fill="#DD7537"/>
<path d="M538.317 139.388H541.806C543.821 141.327 543.445 143.823 543.445 146.175C543.445 172.079 543.445 197.992 543.445 223.915C543.445 226.254 543.821 228.749 541.806 230.688H538.317C536.332 228.735 536.708 226.239 536.708 223.901C536.708 197.978 536.708 172.065 536.708 146.161C536.708 143.808 536.332 141.327 538.317 139.388Z" fill="#C84331"/>
<path d="M553.501 230.686V139.429C558.013 138.502 556.96 141.596 556.975 143.778C556.975 161.763 556.975 179.753 556.975 197.748C556.975 207.472 556.975 217.211 556.975 226.936C557.005 229.203 557.276 231.57 553.501 230.686Z" fill="#F29F3D"/>
<path d="M216.755 306.957V339.239C213.567 336.03 208.604 337.97 205.13 335.617C202.25 328.257 202.25 320.162 205.13 312.803C209.025 310.878 214.409 311.648 216.755 306.957Z" fill="#DB7036"/>
<path d="M250.574 158.178V220.818H245.928C243.792 218.736 244.093 216.055 244.078 213.517C244.018 197.519 244.018 181.52 244.078 165.522C244.078 162.983 243.792 160.317 245.928 158.235L250.574 158.178Z" fill="#C22D2F"/>
<path d="M245.974 158.159V220.799C242.755 221.455 241.161 220.941 241.206 217.106C241.437 198.711 241.437 180.313 241.206 161.909C241.161 158.059 242.755 157.489 245.974 158.159Z" fill="#BF202E"/>
<path d="M64.2469 157.05V192.027H56.0961C53.0735 180.544 53.0735 168.533 56.0961 157.05H64.2469Z" fill="#D86835"/>
<path d="M172.494 344.858L181.818 343.76C182.565 344.36 183.057 345.196 183.202 346.113C183.969 355.819 183.969 365.567 183.202 375.273C183.082 376.202 182.579 377.048 181.803 377.625C178.254 376.1 174.72 374.546 172.449 371.309C169.584 362.699 169.6 353.459 172.494 344.858V344.858Z" fill="#C63B30"/>
<path d="M275.088 183.494C273.193 187.458 272.576 191.422 275.088 195.4C277.283 202.059 276.772 208.918 276.742 215.748C276.847 216.647 276.749 217.558 276.453 218.418C276.157 219.279 275.671 220.07 275.027 220.738H270.366C268.972 217.303 268.328 213.636 268.471 209.958C268.471 197.297 268.471 184.625 268.471 171.944C268.362 167.907 268.998 163.882 270.35 160.052C270.666 156.644 273.268 158.313 275.042 158.156C278.306 166.611 277.163 175.038 275.088 183.494Z" fill="#E27E38"/>
<path d="M690.986 187.914C689.768 190.253 687.287 191.094 685.151 192.349C683.196 190.652 683.377 188.385 683.377 186.203C683.377 173.75 683.377 161.297 683.377 148.845C683.377 146.663 683.166 144.396 685.091 142.685C687.152 143.925 689.603 144.681 690.986 146.806C692.186 148.902 692.812 151.251 692.806 153.636V181.07C692.821 183.461 692.195 185.816 690.986 187.914V187.914Z" fill="#EB913B"/>
<path d="M214.502 383.097H203.975C201.032 374.984 201.032 366.172 203.975 358.059L214.427 356.633C215.066 357.195 215.557 357.892 215.86 358.667C216.163 359.442 216.269 360.274 216.171 361.096C215.72 368.453 218.186 375.996 214.502 383.097Z" fill="#D96B35"/>
<path d="M691.021 187.918V146.81C702.842 155.365 703.143 179.891 691.021 187.918Z" fill="#F4A23E"/>
<path d="M159.778 158.162V209.708H155.116C152.485 206.143 153.327 202.293 154.109 198.457C155.974 194.251 153.567 190.259 153.207 186.195C152.936 183.143 152.364 180.106 152.274 177.026C152.199 172.62 152.274 168.214 152.274 163.822C152.274 161.798 152.274 159.759 153.973 158.119L159.778 158.162Z" fill="#DD7336"/>
<path d="M141.054 171.125C141.806 166.534 142.106 161.814 145.746 158.178C147.731 160.06 147.565 162.456 147.595 164.88C147.761 177.713 147.52 190.46 147.595 203.265C147.595 205.646 147.52 208.042 145.791 210.024C144.287 213.631 145.791 218.436 141.069 220.761C140.46 220.172 139.99 219.467 139.692 218.692C139.394 217.917 139.274 217.091 139.339 216.269C139.49 201.212 137.986 186.083 141.054 171.125Z" fill="#CC4C32"/>
<path d="M196.999 296.172C195.074 298.71 192.367 300.706 192.172 304.342C192.022 307.065 190.247 306.324 188.743 305.012C187.549 303.539 186.928 301.721 186.984 299.865C186.848 292.165 186.863 284.465 186.984 276.751C186.938 274.9 187.558 273.089 188.743 271.618C189.901 270.79 191.226 270.194 192.635 269.868C194.044 269.542 195.509 269.492 196.939 269.721C197.668 270.449 198.208 271.328 198.516 272.289C198.824 273.249 198.892 274.264 198.714 275.254C198.278 282.241 200.368 289.413 196.999 296.172Z" fill="#CE5332"/>
<path d="M197.086 382.001C194.226 382.057 191.401 381.403 188.89 380.105C185.882 367.767 185.882 354.941 188.89 342.604C191.492 347.01 192.575 352.257 197.101 355.551C200.007 364.153 200.001 373.402 197.086 382.001Z" fill="#CE5332"/>
<path d="M676.952 195.332V140.478C677.764 140.263 678.621 140.252 679.438 140.447C680.256 140.642 681.006 141.036 681.614 141.59C683.433 143.33 683.343 145.554 683.343 147.75C683.343 160.916 683.343 174.072 683.343 187.219C683.343 189.444 683.343 191.625 681.659 193.436C680.561 194.976 678.35 194.306 676.952 195.332Z" fill="#E27E38"/>
<path d="M270.395 160.062C270.395 180.291 270.395 200.52 270.395 220.748C268.106 218.311 266.493 215.37 265.703 212.193C262.824 197.878 262.824 183.176 265.703 168.86C266.632 165.66 268.227 162.669 270.395 160.062V160.062Z" fill="#DC7236"/>
<path d="M188.763 342.604V380.105C186.086 380.105 183.981 378.793 181.815 377.581V343.716C184.146 343.231 186.688 344.044 188.763 342.604Z" fill="#CA4831"/>
<path d="M56.1397 157.049V192.027L49.207 192.34V156.693L56.1397 157.049Z" fill="#D46034"/>
<path d="M74.6528 192.024V157.046L80.3674 156.804C81.8713 157.831 81.6457 159.356 81.6457 160.796V188.273C81.6457 189.699 81.8863 191.254 80.3674 192.266L74.6528 192.024Z" fill="#E17C38"/>
<path d="M247.157 370.143V329.034C259.023 339.144 257.143 361.659 247.157 370.143Z" fill="#F6A73E"/>
<path d="M172.567 344.851C172.567 353.663 172.567 362.48 172.567 371.301C164.882 365.883 161.875 357.784 158.897 349.699C158.1 347.546 159.078 345.764 161.394 345.892C165.198 346.049 168.808 344.851 172.567 344.851Z" fill="#C22C2F"/>
<path d="M141.051 171.115V220.751H135.231C131.832 215.56 133.576 209.843 133.561 204.367C133.624 200.231 134.169 196.113 135.185 192.09C136.043 184.818 138.659 178.031 141.051 171.115Z" fill="#C73E30"/>
<path d="M145.863 210.024V158.178H150.525C152.51 160.089 152.21 162.541 152.255 164.894C152.36 172.195 152.119 179.51 152.179 186.81C152.57 190.646 150.841 194.41 151.819 198.217C152.029 202.096 153.322 206.103 150.525 209.624L145.863 210.024Z" fill="#D15833"/>
<path d="M165.569 220.8V172.319C168.403 179.065 170.358 186.114 171.389 193.308C173.031 200.686 173.612 208.241 173.119 215.766C173.202 216.686 173.086 217.611 172.778 218.487C172.47 219.362 171.977 220.169 171.329 220.857L165.569 220.8Z" fill="#EA8F3B"/>
<path d="M399.735 354.691V297.013C402.743 301.163 403.134 306.125 403.81 310.773C405.991 325.645 406.216 340.489 399.735 354.691Z" fill="#F7A93F"/>
<path d="M172.447 282.646C173.951 278.368 178.462 277.313 181.771 274.918C182.339 275.418 182.787 276.029 183.085 276.708C183.384 277.387 183.525 278.118 183.5 278.853C183.801 286.144 183.801 293.435 183.5 300.726C183.516 301.462 183.373 302.193 183.081 302.874C182.789 303.556 182.353 304.174 181.801 304.69C178.989 302.822 175.154 304.918 172.492 302.48C171.53 295.901 171.515 289.229 172.447 282.646V282.646Z" fill="#C63C30"/>
<path d="M181.833 304.68C181.833 294.756 181.833 284.832 181.833 274.908C183.846 273.291 186.239 272.156 188.811 271.6V304.994L181.833 304.68Z" fill="#CA4731"/>
<path d="M535.944 230.692C533.417 231.234 533.628 229.58 533.628 228.097V141.987C533.628 140.561 533.417 138.85 535.944 139.392C537.448 141.103 537.087 143.199 537.102 145.181C537.102 171.798 537.102 198.372 537.102 224.903C537.087 226.885 537.523 228.981 535.944 230.692Z" fill="#BF1E2E"/>
<path d="M535.926 230.68V139.423H538.257V230.68H535.926Z" fill="#C22B2F"/>
<path d="M546.538 139.377V230.635H544.207C542.704 228.909 543.08 226.813 543.08 224.845C543.08 198.229 543.08 171.655 543.08 145.124C543.08 143.156 542.658 141.06 544.207 139.335L546.538 139.377Z" fill="#D66434"/>
<path d="M544.147 139.388V230.645H541.816V139.388H544.147Z" fill="#CF5432"/>
<path d="M265.693 168.881V212.242L258.7 197.898V184.366C259.467 178.577 263.558 174.114 265.693 168.881Z" fill="#D76534"/>
<path d="M210.977 218.525C209.639 217.399 207.413 218.24 206.285 216.629C205.058 214.552 204.464 212.192 204.571 209.813C204.571 194.489 204.571 179.156 204.571 163.814C204.33 161.434 204.944 159.047 206.315 157.041L209.774 155.615C213.113 162.317 212.21 169.033 209.879 175.763C206.872 183.562 206.24 191.262 211.037 198.705C213.443 205.322 213.97 211.923 210.977 218.525Z" fill="#D46034"/>
<path d="M206.278 157.05V216.638L202.789 214.428C201.435 211.983 200.841 209.224 201.075 206.471C201.075 193.287 201.075 180.097 201.075 166.903C200.844 164.15 201.439 161.392 202.789 158.946L206.278 157.05Z" fill="#CF5332"/>
<path d="M194.641 168.884C196.416 166.816 196.446 163.636 199.303 162.268C201.228 163.95 201.063 166.203 201.063 168.37C201.063 180.595 201.063 192.805 201.063 205.002C201.063 207.183 201.228 209.422 199.303 211.119C196.386 209.279 195.679 206.242 194.641 203.39C192.1 192.014 192.1 180.26 194.641 168.884V168.884Z" fill="#C4342F"/>
<path d="M217.949 268.616C217.949 276.415 217.949 284.301 217.949 292.043C218.18 294.217 217.752 296.408 216.716 298.36L210.941 293.64C208.009 285.525 208.009 276.716 210.941 268.602L217.949 268.616Z" fill="#DC7337"/>
<path d="M205.174 312.8V335.614H197.023C194.125 328.257 194.125 320.156 197.023 312.8H205.174Z" fill="#D46034"/>
<path d="M199.287 211.123V162.343L202.776 159.021V214.502L199.287 211.123Z" fill="#CA4631"/>
<path d="M353.136 268.598C353.136 277.049 353.136 285.5 353.136 293.95C353.284 296.017 352.918 298.087 352.066 299.995C351.214 301.902 349.901 303.592 348.233 304.93C346.188 300.395 347.481 295.647 347.316 291.013C347.075 283.884 347.316 276.854 347.316 269.767C348.111 269.136 349.058 268.7 350.072 268.496C351.087 268.292 352.139 268.327 353.136 268.598V268.598Z" fill="#D15A33"/>
<path d="M197.104 296.165C197.104 287.353 197.104 278.536 197.104 269.714C199.194 267.975 201.616 268.288 204.097 268.602C206.996 276.448 206.996 284.996 204.097 292.842C201.961 294.34 198.773 293.798 197.104 296.165Z" fill="#D45F34"/>
<path d="M681.638 193.446C681.638 176.164 681.638 158.882 681.638 141.6C683.142 141.016 684.014 142.185 685.127 142.698V192.362C684.36 193.845 682.796 193.075 681.638 193.446Z" fill="#E68739"/>
<path d="M272.689 380.901C268.373 381.884 266.433 380.9 266.673 376.095C267.139 369.115 267.139 362.115 266.673 355.135C266.373 350.372 268.312 349.346 272.689 350.329C273.294 350.926 273.764 351.633 274.072 352.408C274.38 353.182 274.518 354.008 274.478 354.835C274.669 362.003 274.669 369.17 274.478 376.338C274.526 377.174 274.392 378.011 274.084 378.796C273.776 379.581 273.301 380.297 272.689 380.901V380.901Z" fill="#C12A2F"/>
<path d="M284.359 380.885H278.539C277.943 380.277 277.483 379.56 277.189 378.778C276.894 377.996 276.77 377.166 276.825 376.337C276.614 369.179 276.614 362.021 276.825 354.863C276.77 354.034 276.894 353.203 277.189 352.421C277.483 351.639 277.943 350.922 278.539 350.314H284.359C284.963 350.913 285.43 351.623 285.73 352.401C286.03 353.179 286.157 354.008 286.104 354.834C286.314 362.002 286.314 369.165 286.104 376.323C286.162 377.156 286.037 377.992 285.737 378.778C285.437 379.563 284.967 380.281 284.359 380.885Z" fill="#D45F34"/>
<path d="M278.558 350.325V380.896H272.738V350.325H278.558Z" fill="#CB4931"/>
<path d="M579.129 161.103C570.978 161.502 570.978 161.502 570.978 154.102V146.387C570.978 138.987 570.978 138.987 579.129 139.386C582.017 146.366 582.017 154.123 579.129 161.103V161.103Z" fill="#C0262E"/>
<path d="M196.973 381.996V355.546L203.905 358.055V383.094L196.973 381.996Z" fill="#D35E34"/>
<path d="M204.069 292.857C204.069 284.777 204.069 276.697 204.069 268.616H211.062V293.655C208.535 294.61 206.52 291.987 204.069 292.857Z" fill="#D86B36"/>
<path d="M579.056 161.105V139.388H586.049V161.418L579.056 161.105Z" fill="#C63E30"/>
<path d="M618.657 139.376C623.95 138.235 626.492 139.747 625.725 145.336C625.273 148.587 625.273 151.881 625.725 155.132C626.492 160.721 623.95 162.261 618.657 161.092C615.799 154.107 615.799 146.361 618.657 139.376V139.376Z" fill="#F6A63E"/>
<path d="M172.513 282.638C174.318 289.139 174.318 295.972 172.513 302.472C168.949 303.556 165.881 301.246 162.452 301.431C163.971 294.088 166.482 287.515 172.513 282.638Z" fill="#C22D2F"/>
<path d="M296.06 380.885H291.413C290.888 380.347 290.483 379.713 290.225 379.022C289.966 378.33 289.859 377.596 289.909 376.864C289.789 369.355 289.789 361.845 289.909 354.335C289.859 353.603 289.966 352.869 290.225 352.178C290.483 351.487 290.888 350.853 291.413 350.314H296.06C296.617 350.829 297.054 351.449 297.342 352.135C297.629 352.82 297.761 353.555 297.729 354.292C297.859 361.821 297.859 369.35 297.729 376.879C297.765 377.62 297.634 378.361 297.347 379.051C297.059 379.742 296.62 380.367 296.06 380.885V380.885Z" fill="#EC923B"/>
<path d="M284.364 380.887V350.344H289.026C290.725 352.212 290.289 354.507 290.154 356.618C289.612 364.703 291.657 372.887 289.026 380.858L284.364 380.887Z" fill="#DD7537"/>
<path d="M196.969 312.787V335.601C192.653 336.585 190.578 335.501 191.059 330.767C191.495 326.385 191.495 321.974 191.059 317.592C190.578 312.872 192.653 311.803 196.969 312.787Z" fill="#D05633"/>
<path d="M669.978 176.591C669.978 183.188 669.978 189.799 669.978 196.425H663.016V178.017C664.971 175.921 667.211 175.079 669.978 176.591Z" fill="#D66434"/>
<path d="M214.531 383.107V356.656L217.945 353.42C220.426 355.915 219.072 358.981 219.163 361.761C219.373 368.506 219.163 375.264 219.163 382.009C217.493 381.823 216.365 383.791 214.531 383.107Z" fill="#DF7738"/>
<path d="M670.078 139.388V158.909C668.951 159.497 667.647 159.707 666.378 159.505C665.109 159.303 663.949 158.701 663.085 157.796V139.388H670.078Z" fill="#D66434"/>
<path d="M135.214 192.085V220.745L134.642 220.831C126.341 221.145 126.281 221.13 128.492 213.701C130.702 206.273 132.988 199.286 135.214 192.085Z" fill="#C12A2F"/>
<path d="M618.661 139.388V161.105H612.841V139.388H618.661Z" fill="#EC933C"/>
<path d="M171.309 220.809V193.261C175.234 201.388 176.046 210.371 179.234 218.741C179.85 220.353 178.617 221.009 176.993 220.966L171.309 220.809Z" fill="#F4A23E"/>
<path d="M296.048 380.889V350.346C298.394 349.847 299.612 350.347 299.582 352.999C299.472 361.411 299.472 369.819 299.582 378.223C299.612 380.846 298.394 381.388 296.048 380.889Z" fill="#F5A43E"/>
<path d="M194.61 168.881V203.388C191.723 201.734 191.798 198.454 191.603 196.258C191.151 187.033 189.226 177.551 194.61 168.881Z" fill="#BF232E"/>
<path d="M222.602 153.793C226.618 153.322 228.738 154.648 228.482 158.855C228.242 162.662 228.482 166.497 228.482 170.69C226.437 169.891 224.226 170.918 222.632 169.264C221.328 166.874 220.645 164.223 220.64 161.532C220.635 158.841 221.308 156.187 222.602 153.793V153.793Z" fill="#F3A13E"/>
<path d="M225.009 218.835C223.279 220.66 221.114 219.605 219.129 219.648C217.753 217.286 217.031 214.632 217.031 211.934C217.031 209.236 217.753 206.582 219.129 204.22C221.219 205.09 222.858 202.965 224.888 203.45C226.208 205.817 226.908 208.451 226.929 211.129C226.95 213.806 226.291 216.45 225.009 218.835V218.835Z" fill="#ED943C"/>
<path d="M278.539 158.149H287.306C285.246 164.893 281.607 170.754 278.614 176.885C277.223 173.94 276.498 170.752 276.485 167.525C276.472 164.298 277.171 161.104 278.539 158.149V158.149Z" fill="#F09B3D"/>
<path d="M209.811 175.774C209.811 169.054 209.776 162.338 209.706 155.626C210.849 154.044 213.045 154.842 214.398 153.744C217.406 159.605 216.894 165.479 214.398 171.354L209.811 175.774Z" fill="#DB7136"/>
<path d="M278.613 203.143C282.192 207.421 283.125 213.025 286.057 217.645C287.561 219.912 286.478 221.038 283.756 220.924C282.027 220.853 280.282 220.81 278.553 220.753C277.21 217.991 276.52 214.984 276.53 211.942C276.541 208.9 277.252 205.897 278.613 203.143V203.143Z" fill="#F09A3D"/>
<path d="M150.481 187.937V158.178H153.97C153.97 164.832 153.97 171.449 153.97 178.027C153.217 180.049 152.855 182.184 152.902 184.329C152.797 185.926 152.917 187.694 150.481 187.937Z" fill="#D66434"/>
<path d="M278.577 158.149C278.577 164.394 278.602 170.64 278.652 176.885C278.105 179.34 276.898 181.619 275.148 183.501V158.163L278.577 158.149Z" fill="#E88B3A"/>
<path d="M278.652 203.142C278.652 209.017 278.652 214.886 278.652 220.752H275.148V195.414C276.321 197.994 277.555 200.561 278.652 203.142Z" fill="#E98C3A"/>
<path d="M219.151 204.231C219.151 209.378 219.151 214.511 219.151 219.659H214.489C211.993 213.77 211.587 207.895 214.489 202.035L219.151 204.231Z" fill="#E38039"/>
<path d="M214.591 171.354C214.591 165.479 214.591 159.609 214.591 153.744H219.253C220.547 156.125 221.222 158.765 221.222 161.444C221.222 164.123 220.547 166.763 219.253 169.144L214.591 171.354Z" fill="#E37F39"/>
<path d="M289.01 380.887V350.344H291.356V380.915L289.01 380.887Z" fill="#E48339"/>
<path d="M214.525 202.017C214.525 207.892 214.525 213.767 214.525 219.641L211.021 218.529C211.021 211.922 211.047 205.316 211.097 198.709L214.525 202.017Z" fill="#DC7237"/>
<path d="M150.433 209.701V197.981C150.705 197.638 151.057 197.36 151.462 197.169C151.866 196.978 152.312 196.878 152.764 196.878C153.216 196.878 153.662 196.978 154.067 197.169C154.471 197.36 154.823 197.638 155.095 197.981V209.759L150.433 209.701Z" fill="#D76835"/>
<path d="M225.081 218.84C225.081 213.721 225.081 208.588 225.081 203.455C226.209 203.939 228.555 201.059 228.57 204.581C228.57 208.545 228.495 212.495 228.57 216.444C228.6 219.011 226.69 218.64 225.081 218.84Z" fill="#F5A63E"/>
<path d="M219.209 169.144C219.209 164.011 219.209 158.877 219.209 153.744H222.698C222.698 158.877 222.698 164.015 222.698 169.158L219.209 169.144Z" fill="#EA8F3B"/>
<path d="M356.588 358.064L359.912 357.879C364.258 358.064 364.502 358.064 365.927 361.372C368.776 367.984 368.776 375.392 365.927 382.005C363.055 384.129 359.776 383.16 356.603 383.103C353.666 374.99 353.661 366.18 356.588 358.064Z" fill="#D96C36"/>
<path d="M356.56 358.058V383.097C354.604 383.547 352.54 383.277 350.786 382.341L349.598 381.999C349.598 374.228 349.598 366.457 349.598 358.672C349.598 356.932 349.011 355.021 350.53 353.496C352.275 355.364 353.568 357.688 356.56 358.058Z" fill="#D56234"/>
<path d="M365.889 381.993C365.889 375.121 365.032 365.604 365.032 358.721C367.603 359.263 370.504 357.239 372.912 364.384C374.255 366.947 374.954 369.77 374.954 372.632C374.954 375.495 374.255 378.318 372.912 380.881C370.551 381.323 368.446 382.877 365.889 381.993Z" fill="#DF7838"/>
<path d="M372.892 380.89V364.393C378.907 366.489 379.145 362.432 381.99 376.669C379.345 378.728 376.23 380.173 372.892 380.89Z" fill="#E48239"/>
</svg>
