<svg id="SvgjsSvg1001" width="360" height="360" xmlns="http://www.w3.org/2000/svg" version="1.1" xmlns:xlink="http://www.w3.org/1999/xlink" xmlns:svgjs="http://svgjs.com/svgjs"><defs id="SvgjsDefs1002"></defs><g id="SvgjsG1008" transform="matrix(0.916700005531311,0,0,0.916700005531311,14.993999481201172,11.684614181518555)"><svg xmlns="http://www.w3.org/2000/svg" enable-background="new 0 0 500 421" viewBox="0 0 500 421" width="360" height="360"><path fill="#ffdecc" d="M476.794,250.394l-30.238,0.35l-4.544-35.109c1.345-0.455,2.38-1.616,2.616-3.085l9.447-50.029
			c0.296-2.004-1.255-3.801-3.279-3.803c-1.628-0.003-3.016,1.174-3.281,2.778l-10.096,46.525h-3.495c0,0,4.131-4.432,4.131-10.65
			c0-4.013-1.728-10.139-2.949-13.975c-0.741-2.314-0.701-4.805,0.114-7.091c1.7-4.755,4.45-12.94,4.45-16.122
			c0-2.178-1.316-5.072-2.7-7.523c2.14-0.408,2.179-1.234,2.179-1.234l0.521-12.435c-1.903-2.994-1.348-8.232-2.371-10.247
			c-1.026-2.015-3.962-4.837-9.087-4.548c-5.125,0.288-8.287,2.59-9.036,5.18c-0.749,2.591,1.552,2.696,1.552,2.696
			s0.054-0.275,0.146-0.673c-0.159,0.856-0.309,1.761-0.44,2.68l-1.813,2.718c-0.169,0.256-0.077,0.561,0.205,0.682l0.884,0.374
			c0.182,0.077,0.29,0.258,0.281,0.453c-0.111,1.888-0.046,3.449,0.315,4.138c0.624,1.186,5.73,1.718,5.73,1.718l-0.33,9.762
			c-2.629,3.492-5.996,8.199-6.681,10.272c-0.221,0.673-0.296,4.817,0.576,7.944l-0.92,2.133l-14.993-3.831
			c-0.553-0.178-1.145,0.127-1.326,0.681l-0.179,0.552l-6.096-1.358l-17.051,4.118c-0.302,0.067-0.374,0.463-0.12,0.633l0.808,0.545
			h-4.479h-5.412l-1.894-0.684c-0.216-0.077-0.361-0.283-0.361-0.515v-6.371c0-0.29,0.203-0.534,0.486-0.602
			c1.845-0.452,3.217-2.113,3.217-4.098v-9.134h-8.444v9.134c0,1.985,1.372,3.646,3.217,4.098c0.283,0.067,0.486,0.311,0.486,0.602
			v6.371c0,0.232-0.145,0.438-0.364,0.515l-1.894,0.684h-2.393v0.595h-10.553c0.031-0.041,0.059-0.086,0.059-0.14
			c0-0.106-0.066-0.198-0.166-0.235l-2.506-0.904c-0.216-0.077-0.362-0.283-0.362-0.515v-6.371c0-0.29,0.206-0.534,0.485-0.602
			c1.849-0.452,3.22-2.113,3.22-4.098v-9.134h-8.444v9.134c0,1.985,1.372,3.646,3.219,4.098c0.28,0.067,0.485,0.311,0.485,0.602
			v6.371c0,0.232-0.146,0.438-0.363,0.515l-1.894,0.684h-8.122H323.59v0.595h-2.634c-1.396,0-2.522,1.131-2.522,2.524v5.685
			l-16.817-10.745c-1.191-7.681-2.36-15.332-2.36-17.591c0-4.607-1.379-9.442-3.991-11.59c-0.326-0.27-0.709-0.554-1.13-0.846
			l1.698-6.802c0,0,10.851,5.124,8.903-3.286c-0.185-0.803-0.019-1.653-0.056-2.473c0.827-0.516,2.027-1.316,2.004-1.568
			c-0.031-0.298-1.694-2.767-2.424-3.84c-0.174-1.682-0.351-3.183-0.456-4.359c-0.061-0.681-0.481-1.237-1.05-1.513
			c0.001-0.001,0.001-0.001,0.002-0.002c0.856-1.018,1.357-2.015,1.357-2.015s-6.026-0.884-8.56-1.19
			c-2.531-0.307-5.412,0.576-5.486,1.65c0,0-1.959-0.192-2.458,2.879c-0.497,3.069,2.764,11.974,2.764,11.974l-3.932,6.095
			c0,0-5.678,5.449-5.678,11.437c0,5.987-1.307,40.219-1.232,40.988c0.027,0.259,0.531,0.482,1.34,0.667l-0.484,0.021
			c0,0-0.86,13.434,3.06,15.717h-8.479l-10.096-46.525c-0.266-1.604-1.653-2.78-3.281-2.778c-2.023,0.003-3.572,1.799-3.279,3.803
			l9.451,50.029c0.232,1.469,1.267,2.63,2.612,3.085l-4.814,37.202l-31.609,0.365l-4.863-37.567c1.345-0.455,2.38-1.616,2.613-3.085
			l9.452-50.029c0.29-2.004-1.258-3.801-3.281-3.803c-1.628-0.003-3.015,1.174-3.281,2.778l-10.096,46.525h-8.479
			c3.92-2.284,3.061-15.717,3.061-15.717l-0.484-0.021c0.807-0.185,1.312-0.408,1.339-0.667c0.074-0.768-1.23-35.001-1.23-40.988
			c0-5.988-5.678-11.437-5.678-11.437l-3.934-6.095c0,0,3.262-8.904,2.763-11.974c-0.499-3.071-2.458-2.879-2.458-2.879
			c-0.074-1.074-2.955-1.957-5.486-1.65c-2.534,0.307-8.56,1.19-8.56,1.19s0.5,0.997,1.356,2.015
			c0.001,0.001,0.001,0.001,0.003,0.002c-0.57,0.277-0.989,0.833-1.051,1.513c-0.105,1.176-0.281,2.678-0.456,4.359
			c-0.729,1.073-2.393,3.542-2.424,3.84c-0.023,0.252,1.177,1.051,2.004,1.568c-0.037,0.82-0.056,1.648-0.056,2.473
			c0.009,5.075,8.903,3.286,8.903,3.286l1.698,6.802c-0.42,0.292-0.802,0.576-1.129,0.845c-2.572,2.114-3.941,6.832-3.985,11.371
			l-5.752,14.39l-8.829-1.752c-0.604-0.12-1.188,0.271-1.308,0.873l-0.177,0.889h-0.583l-15.443-1.44l-0.269,1.44h-6.193
			l-9.522,3.571v-5.789c0-0.29,0.206-0.534,0.488-0.602c1.844-0.452,3.216-2.113,3.216-4.098v-9.134h-8.444v9.134
			c0,1.985,1.372,3.646,3.22,4.098c0.28,0.067,0.486,0.311,0.486,0.602v6.176l-2.361,0.886c-0.278,0.104-0.372,0.404-0.278,0.645
			l-0.23,0.083c-0.1,0.036-0.166,0.129-0.166,0.235c0,0.054,0.028,0.099,0.059,0.14h-10.553v-0.595h-2.392l-1.895-0.684
			c-0.219-0.077-0.363-0.283-0.363-0.515v-6.371c0-0.29,0.205-0.534,0.486-0.602c1.848-0.452,3.217-2.113,3.217-4.098v-9.134h-8.444
			v9.134c0,1.985,1.372,3.646,3.22,4.098c0.28,0.067,0.484,0.311,0.484,0.602v6.371c0,0.232-0.143,0.438-0.361,0.515l-1.894,0.684
			h-5.412h-13.355v0.595h-5.748c-1.391,0-2.522,1.131-2.522,2.524c0,1.395,1.131,2.524,2.522,2.524h2.633v11.801l-5.201-0.303
			c0.117-0.441-0.098-0.911-0.535-1.078l-18.518-11.109l-3.634-8.424c0.871-3.127,0.797-7.271,0.576-7.944
			c-0.685-2.074-4.052-6.781-6.681-10.272l-0.329-9.761c0,0,5.105-0.533,5.729-1.718c0.361-0.689,0.426-2.25,0.315-4.138
			c-0.009-0.195,0.1-0.376,0.282-0.453l0.884-0.374c0.281-0.12,0.376-0.425,0.206-0.682l-1.815-2.718
			c-0.132-0.919-0.282-1.824-0.44-2.68c0.092,0.399,0.146,0.674,0.146,0.674s2.303-0.104,1.552-2.696
			c-0.747-2.59-3.911-4.892-9.036-5.18c-5.125-0.288-8.061,2.533-9.087,4.548c-0.657,1.294-0.667,3.915-1.089,6.419
			c-1.73,0.725-2.945,2.433-2.945,4.426c0,0.939,0.28,1.809,0.746,2.549c-0.246-0.033-0.49-0.076-0.746-0.076
			c-3.142,0-5.686,2.547-5.686,5.685c0,1.433,0.548,2.727,1.422,3.726c-1.488,1.506-2.41,3.574-2.41,5.859
			c0,4.606,3.734,8.338,8.339,8.338c0.342,0,0.676-0.027,1.007-0.066c0.955,3.558,2.394,7.777,3.44,10.701
			c0.816,2.285,0.856,4.777,0.114,7.091c-1.221,3.836-2.948,9.962-2.948,13.975c0,6.217,4.134,10.65,4.134,10.65h-3.498
			l-10.096-46.525c-0.264-1.604-1.653-2.78-3.278-2.778c-2.026,0.003-3.577,1.799-3.281,3.803l9.448,50.029
			c0.234,1.468,1.27,2.629,2.615,3.085l-5.134,39.669l-39.461,0.456c-19.656,0.815-16.332,6.569,6.969,32.035
			c17.13,18.72,88.106,36.09,147.295,38.861c59.192,2.767,96.27,39.963,154.262,14.777c56.151-24.39,154.81-35.891,173.36-65.049
			C513.294,247.23,476.794,250.394,476.794,250.394z M435.897,215.85l5.911,34.948l-42.222,0.489
			c0.109-1.062,0.261-2.062,0.476-2.681c0.651-1.882,0.306-3.877,0-4.76c-0.151-0.431-0.376-0.888-0.685-1.198l6.789-26.798H435.897
			z M312.113,215.85c0.871,0,1.575-0.706,1.575-1.575v-4.681c0-0.657-0.403-1.217-0.975-1.453c1.479-0.035,2.64-0.065,3.309-0.083
			c0.376-0.01,0.694,0.266,0.74,0.637l0.651,4.65l-2.977,16.824l-3.064-14.318H312.113z M395.918,211.647c0,0,1.26-1.433,2.87-2.499
			c-0.043,0.144-0.091,0.289-0.091,0.447v4.681c0,0.869,0.705,1.575,1.573,1.575h0.742l-4.348,20.328
			c-0.246-5.94-0.477-18.239-1.323-20.962c-0.782-2.517-2.608-5.363-3.462-6.61c-0.204-0.296-0.022-0.699,0.333-0.748l2.11-0.28
			L395.918,211.647z M391.713,244.711v-5.818c0.43,1.946,0.676,3.335,0.635,3.841C392.304,243.277,392.067,243.961,391.713,244.711z
			 M397.36,250.611c0.032,0.176,0.064,0.416,0.096,0.701l-0.274,0.003L397.36,250.611z M407.836,192.408l11.9-5.385l-0.447,2.635
			L407.836,192.408z M396.393,174.882l4.302,1.385l-0.095,0.29c-0.182,0.557,0.125,1.154,0.683,1.334l13.184,3.569l-17.019,10.21
			c-0.436,0.168-0.651,0.637-0.534,1.078l-5.202,0.304v-11.801h2.634c1.394,0,2.522-1.128,2.522-2.524
			c0-1.393-1.129-2.524-2.522-2.524h-1.142C394.849,175.739,396.393,174.882,396.393,174.882z M317.36,192.608l0.407-0.789
			c0.195,0.226,0.42,0.477,0.667,0.742v1.873c-4.273-0.613-9.983-1.266-14.79-1.78c0.294-0.255,0.47-0.568,0.47-0.964
			c0-1.091-0.365-3.908-0.892-7.512L317.36,192.608z M222.976,215.85l6.327,37.407l-40.273,0.465
			c-0.095-2.648-0.704-5.029-0.704-5.029s-0.179,0.056-0.473,0.145c-0.109-0.698-0.307-1.497-0.494-2.171
			c0.189-0.036,0.381-0.07,0.566-0.109l-1.012-5.724l6.331-24.983H222.976z M181.031,178.728c0-0.267-0.052-0.519-0.129-0.761
			l14.261,1.775c1.074,0.134,2.119-0.171,2.945-0.788l2.914,0.578c0.031,0.803,0.059,1.592,0.087,2.343l0.004,0.001
			c0.143,3.857,0.246,6.939,0.246,8.127c0,0.911,0.434,1.531,1.135,1.96c-4.822,0.483-14.856,1.523-21.462,2.471V178.728z
			 M187.349,215.85h0.74l-3.064,14.318l-2.975-16.821l0.651-4.652c0.045-0.371,0.362-0.647,0.738-0.637
			c0.669,0.018,1.83,0.048,3.311,0.083c-0.572,0.236-0.977,0.797-0.977,1.453v4.681C185.774,215.145,186.48,215.85,187.349,215.85z
			 M107.749,244.709c-0.354-0.749-0.591-1.432-0.635-1.975c-0.041-0.506,0.205-1.895,0.635-3.841V244.709z M99.192,215.85
			c0.868,0,1.573-0.706,1.573-1.575v-4.681c0-0.159-0.047-0.303-0.091-0.448c1.61,1.067,2.872,2.5,2.872,2.5l1.596-4.068l2.109,0.28
			c0.354,0.049,0.536,0.452,0.333,0.748c-0.854,1.247-2.68,4.093-3.46,6.61c-0.846,2.722-1.079,15.015-1.323,20.957l-4.35-20.323
			H99.192z M103.141,254.716l-1.408,0.016c0.082-1.299,0.229-3.345,0.369-4.121L103.141,254.716z M159.085,175.609h-4.691
			l-0.106-0.039c0.307-0.044,0.616-0.088,0.923-0.132C156.773,175.215,157.846,175.415,159.085,175.609z M91.626,192.408
			l-11.453-2.75l-0.447-2.635L91.626,192.408z M63.565,215.85h29.73l6.789,26.798c-0.308,0.31-0.534,0.767-0.685,1.198
			c-0.306,0.884-0.651,2.879,0,4.76c0.468,1.344,0.64,4.47,0.7,6.145l-43.198,0.5L63.565,215.85z M270.24,252.784l6.246-36.933
			h29.733l6.332,24.986l-1.012,5.722c0.184,0.039,0.375,0.074,0.564,0.109c-0.187,0.674-0.385,1.474-0.494,2.172
			c-0.294-0.089-0.473-0.145-0.473-0.145s-0.41,1.594-0.609,3.624L270.24,252.784z" class="colorcce9ff svgShape"></path><path fill="#702e0b" fill-rule="evenodd" d="M233.24 261.954l-3.476 4.092-5.147 4.525c-.527.372-.763 2.884.151 2.78l5.114.608c1.628.193 3.404-.402 4.909-1.134 1.096-.534 2.181-1.455 3.555-2.3l.538 1.173 4.896-1.61.251-3.514c.75-3.758-.632-4.431-1.019-7.08l-8.451-.122L233.24 261.954zM258.614 260.406l-.171 9.913c0 0 2.943 4.977 4.635 5.678 1.843.768 6.552.635 7.952-.793 1.303-1.323.602-7.402.602-7.402l-3.947-8.274L258.614 260.406z" clip-rule="evenodd" class="color0b4870 svgShape"></path><path fill="#8c3a0e" d="M231.665,155.906c0,0,22.758-3.956,33.16-0.219c0.433,0.155,0.85,0.323,1.249,0.51
					c0,0,0.023,0.174,0.069,0.507c0.105,0.768,0.325,2.371,0.614,4.551c0.046,0.368,0.097,0.753,0.153,1.147
					c1.479,11.208,0.54,27.495,0.965,35.445c0.553,10.428,0.681,11.912,0.681,13.87c0.005,5.288,0.456,49.794,0.456,49.794
					s-6.634,1.688-11.492,0c0,0-1.735-44.146-2.731-47.415c-0.995-3.265-4.336-37.755-5.579-37.898
					c-1.244-0.141-5.244,36.178-5.508,40.475c-0.261,4.294,1.282,44.151-0.141,44.86c-1.418,0.708-9.777,0.782-10.202-0.637
					c0,0-0.392-40.515-0.392-44.776c0-4.259-2.726-37.445-2.605-38.869C230.363,177.251,229.974,166.828,231.665,155.906z" class="color0e538c svgShape"></path><polygon fill="#ebbaa0" points="201.019 126.757 199.534 123.016 198.644 117.986 196.56 117.986 196.041 123.016 192.696 120.959 190.541 117.986 188.237 117.986 189.796 120.737 185.634 117.986 183.034 117.986 193.364 126.757 200.576 130.622" class="colorebbaa0 svgShape"></polygon><path fill="#f2f2f2" d="M199.476,132.726l23.902,8.884c1.234,0.46,2.618-0.099,3.189-1.286l5.764-12.066l0.084-0.181
				l0.315-0.657c-0.046-1.286-0.092-2.487-0.136-3.562c-0.136-3.176-0.264-5.281-0.264-5.281c-0.279-3.78-0.479-7.315-0.596-10.631
				c-0.077,0.054-0.146,0.103-0.215,0.154l-0.01,0.003c-0.453,0.316-0.801,0.594-0.934,0.797c-0.499,0.747-8.198,18.756-9.831,22.58
				c-0.166,0.396-0.619,0.585-1.021,0.428l-17.333-6.811c-0.793-0.31-1.689,0.081-1.989,0.877l-1.822,4.773
				C198.273,131.542,198.677,132.429,199.476,132.726z" class="colorf2f2f2 svgShape"></path><path fill="#d3d3d3" d="M219.726,131.292v28.088c0,0.389-0.317,0.704-0.706,0.704h-9.649
				c-0.389,0-0.704-0.316-0.704-0.704v-31.482c0-0.974,0.988-1.637,1.889-1.269l8.318,3.396
				C219.388,130.233,219.726,130.736,219.726,131.292z" class="colord3d3d3 svgShape"></path><path fill="#ff9055" d="M189.775,100.195c0,1.243,1.006,2.252,2.252,2.252c1.241,0,2.252-1.008,2.252-2.252
				c0-1.244-1.011-2.252-2.252-2.252C190.781,97.943,189.775,98.951,189.775,100.195z" opacity=".5" class="colorffbe55 svgShape"></path><path fill="#ff9055" d="M192.028,101.119c8.799,0,15.935,7.134,15.935,15.935H176.09
				C176.09,108.254,183.226,101.119,192.028,101.119z" class="colorffbe55 svgShape"></path><polygon fill="#8c3a0e" points="195.857 115.577 218.426 115.577 216.642 117.986 195.857 117.986 167.411 117.986 165.63 115.577" class="color0e538c svgShape"></polygon><path fill="#f2f2f2" d="M260.213 100.712l1.413.536c-.325-.131-.63-.247-.919-.356C260.538 100.829 260.37 100.767 260.213 100.712zM242.036 102.732l.973 5.862 3.847 33.177 6.209-24.372 6.931-16.768c-.092-.036-.184-.067-.264-.099-.059-.019-.113-.04-.164-.059-.151-.059-.274-.104-.358-.135-.87-.315-1.477-.509-1.648-.517-.115-.01-.422.004-.862.036-.046.683-.056 1.021-.056 1.021-1.625 1.161-6.913 1.813-6.913 1.813s-2.777.671-2.862-.809c-.002-.005-.002-.005 0-.01-.02-.059-.018-.113.01-.171.067-.157.225-.621.315-1.016-.266.026-.417.04-.417.04s-.694.239-1.61.607l-.008.005c-.399.157-.834.346-1.282.549C243.324 102.139 242.699 102.426 242.036 102.732zM267.943 159.088c.187.765.317 1.234.358 1.301C268.183 159.961 268.063 159.521 267.943 159.088zM266.187 150.262c6.24-3.194 20.214-10.576 20.01-12.601-.187-1.894-11.062-30.551-12.654-31.694-.453-.324-2.337-1.076-4.53-1.912l-1.236 20.564c0 0-2.216-6.644 1.236.621 1.042 2.193 3.604 5.362 4.883 8.173.952 2.074-3.88 5.034-8.392 7.445C265.253 143.163 265.634 146.771 266.187 150.262z" class="colorf2f2f2 svgShape"></path><path fill="#f1bb9e" d="M246.868,101.873c-0.002,0.005-0.002,0.005,0,0.01c0.085,1.48,2.862,3.347,2.862,3.347
					s5.288-3.19,6.913-4.351c0,0,0.01-0.337,0.056-1.021c0.112-1.485,0.432-4.59,1.336-9.339c0.353-1.854-10.775,4.885-10.775,4.885
					s0.031,0.648,0.054,1.53c0.015,0.463,0.023,0.99,0.015,1.515c0,0.185,0,0.369-0.005,0.553c-0.01,0.491-0.033,0.963-0.072,1.359
					c-0.01,0.094-0.033,0.207-0.059,0.324c-0.09,0.396-0.248,0.859-0.315,1.016C246.866,101.733,246.861,101.792,246.868,101.873z" class="colorf1b99e svgShape"></path><path fill="#f1bb9e" d="M246.868 101.873c-.008-.081-.002-.14.01-.171C246.85 101.76 246.848 101.814 246.868 101.873zM241.402 78.344c0 0-2.447 4.533-1.236 5.238 1.003.583-1.172 5.029-1.456 5.756-.284.728 1.814 1.255 2.26 1.724.445.466 1.766 6.222 3.494 6.396 1.728.175 9.511-2.533 11.633-4.738 2.119-2.205 3.86-12.16 2.444-16.359C257.124 72.16 245.714 70.428 241.402 78.344z" class="colorf1b99e svgShape"></path><path fill="#fccbb1" d="M240.483,80.323c0,0-2.634-7.515,1.684-8.975c5.503-1.859,13.672,2.196,14.614,2.438
					c0.942,0.244,6.286,0.61,3.588,9.994c-2.316,8.058-2.641,8.397-2.641,8.397s-1.73-4.666-2.708-5.38
					c-1.533-1.11-4.888-0.843-4.888-0.843s1.6-4.245-0.898-4.847C246.735,80.507,246.428,84.105,240.483,80.323z" class="colorfcd2b1 svgShape"></path><path fill="#eeaa86" d="M252.794,83.524c0.22-0.583,0.932-3.087,3.082-1.616c2.147,1.469-1.339,6.188-1.712,6.247
					C253.787,88.218,250.941,88.423,252.794,83.524z" class="coloreea886 svgShape"></path><path fill="#a77960" d="M247.329,98.45c0,0.186-0.003,0.371-0.005,0.555c6.365-2.137,7.599-5.353,7.599-5.353
				c-1.984,1.405-7.607,3.281-7.607,3.281C247.327,97.397,247.334,97.922,247.329,98.45z" class="colora77860 svgShape"></path><path fill="#f2f2f2" d="M262.374,101.536c0.031,0.014,0.059,0.023,0.079,0.036c0.159,0.064,0.325,0.125,0.494,0.194
				c0.171,0.067,0.348,0.135,0.532,0.207c0.028,0.009,0.059,0.018,0.085,0.031c0.972,0.369,2.099,0.793,3.235,1.214L262.374,101.536
				z" class="colorf2f2f2 svgShape"></path><path fill="#ff9055" d="M230.45,161.869c0.294,0.081,1.134,0.963,3.005,1.868c0.346,0.166,0.729,0.332,1.152,0.497
				c2.933,1.135,7.742,2.062,15.497,1.072c1.646-0.207,3.43-0.504,5.354-0.899c0,0,9.564-1.949,12.469-3.743
				c0.146-0.091,0.271-0.181,0.379-0.265c0,0-0.005-0.005-0.005-0.009c-0.041-0.068-0.171-0.536-0.358-1.301
				c-0.005-0.022-0.01-0.044-0.015-0.067c-0.438-1.828-1.182-5.233-1.74-8.76c-0.553-3.491-0.934-7.099-0.683-9.403
				c0.051-0.436,0.102-0.9,0.159-1.39c0.538-4.746,1.392-11.787,1.991-14.378c0.041-0.181,0.082-0.338,0.123-0.472l1.236-20.564
				l-1.039-0.396c-0.23-0.081-0.458-0.171-0.683-0.257c-0.161-0.062-0.33-0.12-0.491-0.184c-1.136-0.422-2.263-0.845-3.235-1.214
				c-0.026-0.014-0.056-0.022-0.085-0.031c-0.184-0.072-0.361-0.14-0.532-0.207c-0.169-0.068-0.335-0.13-0.494-0.194
				c-0.02-0.013-0.049-0.022-0.079-0.036c-0.033-0.009-0.059-0.022-0.095-0.036l-0.653-0.251l-1.413-0.536l-0.217-0.081
				l-6.931,16.768l-4.197,15.78l-5.859-24.585l-0.973-5.862c-2.114,0.976-4.65,2.151-6.729,3.132
				c-0.01,0.004-0.013,0.009-0.023,0.009c-0.008,0.004-0.018,0.009-0.026,0.014c-0.015,0.004-0.023,0.013-0.036,0.018
				c-0.028,0.013-0.059,0.032-0.095,0.049c-0.338,0.184-1.121,0.612-1.945,1.098c-0.143,0.081-0.289,0.166-0.433,0.257
				c-0.174,0.107-0.353,0.216-0.52,0.319c-0.171,0.109-0.34,0.217-0.496,0.32c0.118,3.316,0.317,6.852,0.596,10.631
				c0,0,0.128,2.105,0.264,5.281c0.044,1.075,0.09,2.276,0.136,3.562l-0.315,0.657l-0.084,0.181
				c0.169,7.045,0.228,14.725-0.046,21.028c-0.504,4.111-1.147,8.453-1.804,12.394c0,0.004-0.005,0.004-0.005,0.004
				C230.473,161.747,230.457,161.806,230.45,161.869z" class="colorffbe55 svgShape"></path><path fill="#f7f7f7" d="M251.017,102.692" class="colorf7f7f7 svgShape"></path><g fill="#000000" class="color000 svgShape"><path fill="#702e0b" d="M250.72 104.674c0 0 1.651-2.326 3.263-2.185 2.309.203 1.866 5.274.448 5.469-1.656.227-3.711-1.752-3.711-1.752S251.125 105.213 250.72 104.674zM249.21 104.674c0 0-1.651-2.326-3.266-2.185-2.309.203-1.866 5.274-.45 5.469 1.658.227 3.716-1.752 3.716-1.752S248.803 105.213 249.21 104.674z" class="color0b4870 svgShape"></path><path fill="#702e0b" d="M248.563,105.372c0,0.854,0.694,1.548,1.548,1.548l0,0c0.855,0,1.549-0.694,1.549-1.548l0,0
					c0-0.856-0.694-1.548-1.549-1.548l0,0C249.256,103.824,248.563,104.517,248.563,105.372L248.563,105.372z" class="color0b4870 svgShape"></path></g></svg></g></svg>