<svg width="502" height="532" viewBox="0 0 502 532" fill="none" xmlns="http://www.w3.org/2000/svg">
<path d="M147.773 398.391L141.119 403.978L86.3999 337.671L93.5612 331.948C121.563 308.685 140.456 273.735 145.686 236.468C150.111 204.308 167.999 177.778 194.961 160.772C236.181 136.142 298.537 141.714 336.224 187.044C375.604 234.638 369.634 303.621 324.811 341.172C304.341 358.069 277.877 366.79 250.588 364.321C213.358 361.255 177.532 373.571 147.773 398.391Z" fill="#9C0001"/>
<path d="M108.377 431.793C100.845 438.159 89.6176 436.82 83.1162 428.781L51.6591 390.476C45.1576 382.437 45.9896 371.345 54.0291 364.844L71.3574 350.419L126.077 416.726L108.377 431.793Z" fill="#9C0001"/>
<path d="M416.34 133.267L403.314 117.475L366.873 147.536L379.899 163.327L416.34 133.267Z" fill="#9C0001"/>
<path d="M417.745 278.235L416.045 298.254L463.76 303.945L465.46 283.926L417.745 278.235Z" fill="#9C0001"/>
<path d="M393.131 440.609L361.734 402.548L346.348 415.241L377.745 453.301L393.131 440.609Z" fill="#9C0001"/>
<path d="M128.337 119.875L96.9395 81.8145L81.5532 94.5068L112.95 132.568L128.337 119.875Z" fill="#9C0001"/>
<path d="M265.034 40.9269L244.879 38.7193L241.352 86.3981L261.371 88.0986L265.034 40.9269Z" fill="#9C0001"/>
</svg>
