<svg width="824" height="598" viewBox="0 0 824 598" fill="none" xmlns="http://www.w3.org/2000/svg">
<path opacity="0.18" d="M131.3 126C106.96 131.16 81.6598 136.76 62.1198 152.17C45.6198 165.17 19.9098 189.17 12.1198 208.67C-20.8802 291.04 16.4298 391.27 88.8498 442.53C122.91 466.64 165.36 478.31 195.97 506.69C215.33 524.64 228.89 548.4 249.49 564.9C279.59 588.99 320.23 594.32 358.69 596.9C385.41 598.71 413.17 599.49 437.96 589.33C455.88 581.99 471.06 569.4 485.96 556.99L584.67 474.56C600.53 461.33 615.36 440.26 636.01 440.4C821.87 441.73 834.4 223 549.15 126.12C524.01 117.58 506.77 93.84 483.15 81.67C434.36 56.52 378.21 64.67 329 82.07C266.52 104.22 196.14 112.21 131.3 126Z" fill="#A7E0F4"/>
<path opacity="0.05" d="M779.07 478.86C786.85 478.99 796.87 480.93 798.07 488.61C798.72 492.61 796.43 496.5 793.95 499.73C778.44 520 752.74 530.25 727.38 533C702.02 535.75 676.46 531.9 651.14 528.78C614.553 524.26 577.82 521.26 540.94 519.78C514.72 518.72 487.14 518.06 464.56 504.7C460.37 502.23 456.25 499.14 454.24 494.7C450.24 485.87 456.56 475.12 465.24 470.83C473.92 466.54 484.12 466.96 493.8 467.48C588.86 472.6 683.85 478.86 779.07 478.86Z" fill="#000405"/>
<path d="M779.4 127.4C779.4 127.4 745.57 171.15 739.15 178.48C727.44 191.8 719.89 209.27 719.89 209.27L702.89 281.61L683.89 276.54L642.58 265.54C642.58 265.54 657.26 226 650.15 214C640.67 198 648.87 188 651.03 181.13C655.03 168.4 634.6 145.13 634.6 145.13L621.51 86.5L641.27 83.86L655.61 131.39L680.18 153.32L697.68 154.25C697.68 154.25 710.88 156.97 720.48 152.53C729.66 148.27 762.09 111.7 762.09 111.7L775.32 123.7L779.4 127.4Z" fill="#A7E0F4"/>
<path d="M617.33 201.59V462.15C617.329 465.415 616.685 468.647 615.434 471.663C614.183 474.678 612.351 477.418 610.042 479.726C607.732 482.033 604.991 483.863 601.974 485.111C598.958 486.36 595.725 487.001 592.46 487H202.77C199.505 487 196.271 486.357 193.254 485.107C190.238 483.857 187.497 482.025 185.188 479.715C182.879 477.406 181.048 474.664 179.8 471.647C178.551 468.629 177.909 465.395 177.91 462.13V201.59C177.908 198.324 178.549 195.09 179.797 192.072C181.045 189.054 182.876 186.312 185.185 184.002C187.494 181.692 190.235 179.86 193.253 178.611C196.27 177.361 199.504 176.719 202.77 176.72H592.46C595.726 176.72 598.96 177.363 601.977 178.613C604.995 179.863 607.737 181.695 610.046 184.004C612.355 186.314 614.187 189.055 615.437 192.073C616.687 195.09 617.33 198.324 617.33 201.59V201.59Z" fill="#A7E0F4"/>
<path d="M610.59 184.67H183.98L187.44 182.02C187.6 181.881 187.767 181.751 187.94 181.63L390.88 26.07L397.29 21.16L603.76 179.44L610.59 184.67Z" fill="#A7E0F4"/>
<path d="M617.33 201.59L612.14 205.34L574.35 232.71L390.88 365.6L214.43 229.71L177.91 201.59L178.38 196.76C179.27 192.232 181.411 188.043 184.56 184.67C185.444 183.708 186.408 182.821 187.44 182.02C187.6 181.881 187.767 181.751 187.94 181.63C192.223 178.435 197.426 176.712 202.77 176.72H592.46C598.639 176.723 604.596 179.026 609.171 183.179C613.746 187.333 616.612 193.04 617.21 199.19C617.291 199.987 617.331 200.788 617.33 201.59V201.59Z" fill="#A7E0F4"/>
<path opacity="0.61" d="M187.44 182C186.413 182.807 185.45 183.693 184.56 184.65H183.98L187.44 182Z" fill="url(#paint0_linear)"/>
<path opacity="0.61" d="M617.33 201.59L612.14 205.35L574.35 232.71L390.88 365.6L214.43 229.72L177.91 201.59L178.38 196.77C179.27 192.239 181.411 188.047 184.56 184.67C185.449 183.713 186.412 182.827 187.44 182.02L187.94 181.64L390.88 26.07L397.29 21.16L603.76 179.44C607.484 181.336 610.668 184.141 613.019 187.595C615.371 191.049 616.812 195.041 617.21 199.2C617.291 199.994 617.331 200.792 617.33 201.59Z" fill="url(#paint1_linear)"/>
<path d="M574.35 182.34V232.72L506.64 281.72L491.11 293L390.88 365.6L296.61 293L282.02 281.76L214.43 229.76V182.34C214.43 178.423 215.986 174.666 218.756 171.896C221.526 169.126 225.282 167.57 229.2 167.57H559.59C563.505 167.573 567.259 169.13 570.027 171.9C572.795 174.669 574.35 178.425 574.35 182.34V182.34Z" fill="white"/>
<path d="M524.73 226.51H257.73C256.24 226.51 254.81 225.918 253.756 224.864C252.702 223.81 252.11 222.381 252.11 220.89V220.89C252.11 220.152 252.256 219.421 252.538 218.739C252.821 218.057 253.235 217.438 253.756 216.916C254.278 216.394 254.898 215.98 255.58 215.698C256.262 215.415 256.992 215.27 257.73 215.27H524.73C525.468 215.27 526.199 215.415 526.881 215.698C527.563 215.98 528.182 216.394 528.704 216.916C529.226 217.438 529.64 218.057 529.923 218.739C530.205 219.421 530.35 220.152 530.35 220.89C530.35 222.381 529.758 223.81 528.704 224.864C527.65 225.918 526.221 226.51 524.73 226.51Z" fill="url(#paint2_linear)"/>
<path d="M524.73 259.76H257.73C256.24 259.76 254.81 259.168 253.756 258.114C252.702 257.06 252.11 255.631 252.11 254.14V254.14C252.11 252.649 252.702 251.22 253.756 250.166C254.81 249.112 256.24 248.52 257.73 248.52H524.73C526.221 248.52 527.65 249.112 528.704 250.166C529.758 251.22 530.35 252.649 530.35 254.14V254.14C530.35 255.631 529.758 257.06 528.704 258.114C527.65 259.168 526.221 259.76 524.73 259.76Z" fill="url(#paint3_linear)"/>
<path d="M506.64 281.76L491.11 293H296.61L282.01 281.76H506.64Z" fill="url(#paint4_linear)"/>
<path opacity="0.05" d="M390.88 365.6L228.02 487.02H557.099L390.88 365.6Z" fill="#000405"/>
<path d="M250.4 91.2C242.2 73.61 211.4 76.5 211.4 76.5C230.4 65.29 226.76 36.82 226.53 35.14C234.84 59.96 263.53 54.48 266.1 53.94C247.05 58.64 250.4 91.2 250.4 91.2Z" fill="#A7E0F4"/>
<path d="M197 127.29C191.79 116.11 172.2 117.95 172.2 117.95C184.6 110.58 181.79 91.61 181.79 91.61V91.72C187.11 107.41 205.31 103.93 206.93 103.59C194.87 106.59 197 127.29 197 127.29Z" fill="#A7E0F4"/>
<path d="M721.56 93.7C723.974 91.7591 727.029 90.7956 730.12 91C732.382 90.9081 734.596 91.6722 736.32 93.14C737.646 94.6314 738.49 96.4897 738.74 98.47C739.227 100.925 739.412 103.43 739.29 105.93C739.07 110.52 737.88 115.38 739.86 119.53C740.332 120.516 740.968 121.415 741.74 122.19C742.634 123.192 743.88 123.812 745.22 123.92C745.885 123.95 746.54 123.74 747.064 123.329C747.589 122.918 747.949 122.333 748.08 121.68C747.414 123.162 746.417 124.472 745.165 125.508C743.914 126.544 742.441 127.279 740.861 127.657C739.281 128.035 737.635 128.045 736.05 127.686C734.465 127.328 732.984 126.611 731.72 125.59L733.46 129.12C732.019 128.748 730.624 128.218 729.3 127.54C725.05 125.23 722.67 120.54 721.54 115.8C720.54 111.45 720.34 106.96 719.4 102.59C718.67 99.24 718.85 96.12 721.56 93.7Z" fill="#3F3D56"/>
<path d="M720.28 98.5C721.143 98.4721 722.004 98.6044 722.82 98.89C723.495 99.1709 724.081 99.6317 724.513 100.222C724.945 100.813 725.207 101.511 725.27 102.24C725.307 102.973 725.13 103.7 724.76 104.334C724.391 104.968 723.845 105.481 723.19 105.81C722.335 106.162 721.413 106.322 720.49 106.28C719.65 106.28 718.8 106.28 717.96 106.2C717.719 106.201 717.482 106.142 717.27 106.03C717.055 105.854 716.892 105.622 716.8 105.36C716.253 104.27 715.84 103.119 715.57 101.93C714.88 98.25 717.36 98.47 720.28 98.5Z" fill="#A7E0F4"/>
<path d="M704.01 133.61C704.01 133.61 703.85 136.5 703.65 140.26C703.48 143.43 703.27 147.26 703.1 150.44C702.808 155.819 700.497 160.89 696.63 164.64C694.37 166.95 688.98 171.26 684.87 169.73C682.87 168.99 682.8 166.47 683.22 164.96C684.145 162.207 684.661 159.333 684.75 156.43C684.815 154.08 684.604 151.73 684.12 149.43C681.54 143 704.01 133.61 704.01 133.61Z" fill="url(#paint5_linear)"/>
<path d="M704.01 133.61C704.01 133.61 703.85 136.5 703.65 140.26C702.07 143.78 700.59 146.65 699.78 148.08C698.15 150.97 691.45 155.52 684.78 156.43C684.846 154.08 684.635 151.73 684.15 149.43C681.54 143 704.01 133.61 704.01 133.61Z" fill="url(#paint6_linear)"/>
<path d="M684.44 95.32C681.495 95.499 678.618 96.2825 675.989 97.6217C673.361 98.9608 671.036 100.827 669.159 103.104C667.283 105.381 665.896 108.019 665.084 110.856C664.272 113.692 664.053 116.665 664.44 119.59C665.108 128.327 667.351 136.871 671.06 144.81C678.06 156.81 695.8 146.94 698.61 142C701.42 137.06 712.2 114.78 707.67 108.47C704.55 104.21 695.9 94.86 684.44 95.32Z" fill="url(#paint7_linear)"/>
<path d="M678.139 83.1301C685.666 80.9315 693.694 81.166 701.079 83.8001C708.349 86.5601 714.619 92.2401 717.389 99.5101C719.772 106.247 719.544 113.633 716.75 120.21C713.935 126.734 709.451 132.4 703.75 136.64C702.28 132.14 706.81 128.14 708.57 123.75C708.978 122.939 709.067 122.004 708.82 121.13C708.18 119.5 705.739 119.32 704.349 120.38C702.959 121.44 702.349 123.23 701.839 124.9C703.189 117.75 704.19 109.35 699.13 104.11C696.13 101.01 691.599 99.8501 687.279 99.8101C683.312 99.7983 679.385 100.601 675.74 102.168C672.095 103.735 668.811 106.033 666.089 108.92C664.499 110.63 662.239 112.73 660.219 111.55C659.591 111.12 659.099 110.52 658.799 109.82C652.829 98.0001 668.509 85.7701 678.139 83.1301Z" fill="#3F3D56"/>
<path d="M687.8 96.34C682.8 94.14 677.55 92.34 672.12 92.34C666.69 92.34 661.06 94.18 657.47 98.26C655.596 100.534 654.232 103.183 653.47 106.03C652.867 107.811 652.629 109.695 652.77 111.57C652.988 112.93 653.322 114.268 653.77 115.57C654.71 118.81 655.11 122.57 653.06 125.29C652.68 125.832 652.182 126.281 651.604 126.604C651.025 126.926 650.381 127.113 649.72 127.15C649.058 127.162 648.415 126.931 647.91 126.502C647.406 126.074 647.075 125.475 646.98 124.82C646.1 127.31 647.54 130.23 649.83 131.54C651.01 132.14 652.303 132.484 653.625 132.548C654.948 132.612 656.268 132.394 657.5 131.91C658.536 131.583 659.497 131.057 660.33 130.36C661.153 129.568 661.83 128.637 662.33 127.61C664.42 123.82 665.47 119.61 667.03 115.52C668.59 111.43 670.85 107.52 674.54 105.22C677.464 103.624 680.749 102.808 684.08 102.85C687.39 102.74 690.72 103.01 694.02 102.71C697.32 102.41 694.93 100.45 693.51 99.42C691.718 98.1997 689.804 97.1676 687.8 96.34V96.34Z" fill="#3F3D56"/>
<path d="M822.11 60.49C822.96 61.15 815 67.35 815 67.35C815 67.35 811.28 73.76 807.5 75.54C803.72 77.32 775.32 123.69 775.32 123.69L764.11 113.53L788.29 81C788.29 81 796.29 65.67 795.4 59C795.4 59 795.88 51.12 798.29 54.78C799.99 57.39 798.9 61.5 800.91 61.94C801.133 61.96 801.356 61.9112 801.55 61.8C803.218 60.7878 804.747 59.5643 806.1 58.16C810.1 54.35 814.88 49.05 814.88 49.05C814.88 49.05 817.5 47.94 817.17 49.05C816.84 50.16 812.03 57.65 811.76 58.05C812.21 57.64 819.59 51.05 820.76 51.56C821.93 52.07 815.04 59.66 814.64 60.1C815.07 59.8 822.94 54.32 823.53 54.81C824.64 55.74 817.53 61.91 816.94 62.38C817.39 62.14 821.3 59.85 822.11 60.49Z" fill="url(#paint8_linear)"/>
<path d="M813.67 65.24C813.073 65.4344 812.439 65.4858 811.82 65.39C809.803 65.2366 807.78 65.2032 805.76 65.29C804.4 65.35 801.59 66.29 801.52 64.18C801.52 63.62 801.66 63.07 801.63 62.51C801.63 62.27 801.57 62.03 801.53 61.79C803.197 60.7778 804.726 59.5544 806.08 58.15C806.692 58.3547 807.272 58.6478 807.8 59.02C809.133 59.88 810.446 60.73 811.74 61.57C812.44 62.03 813.14 62.49 813.81 62.99C814.106 63.1752 814.343 63.4428 814.49 63.76C814.554 64.0641 814.507 64.3813 814.356 64.6532C814.205 64.9252 813.962 65.1335 813.67 65.24V65.24Z" fill="url(#paint9_linear)"/>
<path d="M618.4 8.42001C617.32 8.54001 620.82 18 620.82 18C620.82 18 620.6 25.41 622.87 28.91C625.14 32.41 624.82 86.06 624.82 86.06L639.7 84.06L636.32 43.65C636.32 43.65 637.61 26.41 641.88 21.22C641.88 21.22 645.62 14.27 641.65 16.11C638.83 17.43 637.58 21.49 635.65 20.81C635.449 20.7104 635.284 20.5493 635.18 20.35C634.272 18.6171 633.6 16.7708 633.18 14.86C631.77 9.51001 630.53 2.49001 630.53 2.49001C630.53 2.49001 628.93 0.19001 628.67 1.30001C628.41 2.41001 628.5 11.3 628.51 11.81C628.34 11.24 625.56 1.72001 624.26 1.55001C622.96 1.38001 624.85 11.45 624.97 12.03C624.75 11.55 620.97 2.75001 620.19 2.85001C618.76 3.06001 621.6 12.08 621.81 12.75C621.53 12.31 619.42 8.32001 618.4 8.42001Z" fill="url(#paint10_linear)"/>
<path d="M623.04 16.91C623.445 17.3845 623.955 17.7578 624.53 18C626.324 18.9354 628.06 19.9773 629.73 21.12C630.86 21.89 632.73 24.19 633.92 22.41C634.24 21.95 634.39 21.41 634.71 20.94C634.855 20.7412 635.012 20.5509 635.18 20.37C634.272 18.6371 633.599 16.7908 633.18 14.88C632.551 14.7314 631.904 14.6775 631.26 14.72L626.57 14.81C625.73 14.81 624.89 14.81 624.05 14.92C623.694 14.9184 623.346 15.0228 623.05 15.22C622.845 15.4533 622.731 15.7527 622.73 16.0631C622.728 16.3736 622.838 16.6742 623.04 16.91V16.91Z" fill="url(#paint11_linear)"/>
<path d="M565.67 480.21C561.67 488.38 558.76 494.73 558.76 494.73L508.43 497.13C508.43 497.13 516.77 475.06 530.34 480.76C534.93 482.68 551.56 479.07 551.56 479.07L552.08 477.4L565.67 480.21Z" fill="url(#paint12_linear)"/>
<path d="M744.05 482.68L736.34 487L670.34 417.62L663.06 325L602.88 379.59C602.88 379.59 604.49 417.18 583.45 446.59C579.68 451.86 572.01 467.17 566.21 479.13C566.03 479.5 565.85 479.88 565.68 480.25L564.55 480.02L560.62 479.2L552.09 477.44L579.75 365.64L642.6 265.58L683.91 276.58L702.91 281.65C702.91 281.65 715.73 307.34 702.91 373.83L694.41 411.89C694.41 411.89 728.67 430.16 739.23 466.3L744.04 482.66L744.05 482.68Z" fill="#3F3D56"/>
<path d="M744.05 482.68L751.88 490.87L732.01 511.59H706.01C706.01 511.59 711.55 502.44 722.63 500.99C733.71 499.54 736.36 486.99 736.36 486.99L744.05 482.68Z" fill="url(#paint13_linear)"/>
<path opacity="0.22" d="M215.81 75.06L211.42 76.5C230.42 65.29 226.78 36.82 226.55 35.14C226.85 36.49 231.27 55.28 228.86 61.45C225.85 69.16 215.81 75.06 215.81 75.06Z" fill="white"/>
<path opacity="0.22" d="M184.41 109.44C182.09 112.65 172.87 117.6 172.24 117.93C184.64 110.56 181.83 91.59 181.83 91.59V91.7C182.32 93 186.67 106.3 184.41 109.44Z" fill="white"/>
<path opacity="0.22" d="M178.65 215.27L382.32 371.98L390.88 365.6L177.91 201.59L178.65 215.27Z" fill="white"/>
<path opacity="0.22" d="M397.62 370.97L617.33 212.83V202.04L390.88 366.04L397.62 370.97Z" fill="white"/>
<path opacity="0.22" d="M617.21 199.64L616.61 201.32L612.14 205.79C615.28 200.37 606.41 187.79 606.41 187.79L602.87 185.14L592.24 177.14L390.88 26.52L397.29 21.61L603.76 179.88C607.482 181.778 610.665 184.584 613.016 188.037C615.366 191.491 616.809 195.481 617.21 199.64Z" fill="white"/>
<path opacity="0.61" d="M779.4 127.4C779.4 127.4 745.57 171.15 739.15 178.48C727.44 191.8 719.89 209.27 719.89 209.27L702.89 281.61L683.89 276.54C683.89 276.54 701.63 210.21 708.76 196.13C715.89 182.05 775.3 123.69 775.3 123.69L779.4 127.4Z" fill="url(#paint14_linear)"/>
<path d="M744.04 482.66C743.69 481.66 732.4 450.3 715.45 437.15C698.24 423.79 688.24 405.35 688.24 405.35C684.19 369.95 683.91 276.54 683.91 276.54L702.91 281.61C702.91 281.61 715.73 307.3 702.91 373.79L694.41 411.85C694.41 411.85 728.67 430.16 739.23 466.3L744.04 482.66Z" fill="#25233A"/>
<path d="M602.88 379.57C602.88 379.57 604.49 417.16 583.45 446.57C579.68 451.84 572.01 467.15 566.21 479.11L564.55 480L560.62 479.18L593.24 376.29C593.24 376.29 632.75 329.48 639.98 325C647.21 320.52 663.06 325 663.06 325L602.88 379.57Z" fill="#25233A"/>
<defs>
<linearGradient id="paint0_linear" x1="184.14" y1="187.62" x2="187.97" y2="177.21" gradientUnits="userSpaceOnUse">
<stop offset="0.36" stop-color="#00272E"/>
<stop offset="0.75" stop-color="#3F80A1" stop-opacity="0.25"/>
<stop offset="1" stop-color="#69B9EB" stop-opacity="0"/>
</linearGradient>
<linearGradient id="paint1_linear" x1="151031" y1="119535" x2="182822" y2="9249.66" gradientUnits="userSpaceOnUse">
<stop offset="0.36" stop-color="#00272E"/>
<stop offset="0.75" stop-color="#3F80A1" stop-opacity="0.25"/>
<stop offset="1" stop-color="#69B9EB" stop-opacity="0"/>
</linearGradient>
<linearGradient id="paint2_linear" x1="392.87" y1="140.61" x2="382.75" y2="634.96" gradientUnits="userSpaceOnUse">
<stop stop-color="#68E1FD"/>
<stop offset="0.01" stop-color="#67DDF9"/>
<stop offset="0.12" stop-color="#5CB3CE"/>
<stop offset="0.24" stop-color="#538EA9"/>
<stop offset="0.37" stop-color="#4C718B"/>
<stop offset="0.5" stop-color="#465A73"/>
<stop offset="0.63" stop-color="#424A63"/>
<stop offset="0.79" stop-color="#404059"/>
<stop offset="0.99" stop-color="#3F3D56"/>
</linearGradient>
<linearGradient id="paint3_linear" x1="109845" y1="1817.85" x2="109841" y2="7376.78" gradientUnits="userSpaceOnUse">
<stop stop-color="#68E1FD"/>
<stop offset="0.01" stop-color="#67DDF9"/>
<stop offset="0.12" stop-color="#5CB3CE"/>
<stop offset="0.24" stop-color="#538EA9"/>
<stop offset="0.37" stop-color="#4C718B"/>
<stop offset="0.5" stop-color="#465A73"/>
<stop offset="0.63" stop-color="#424A63"/>
<stop offset="0.79" stop-color="#404059"/>
<stop offset="0.99" stop-color="#3F3D56"/>
</linearGradient>
<linearGradient id="paint4_linear" x1="89507.3" y1="1851.87" x2="89501.6" y2="7410.8" gradientUnits="userSpaceOnUse">
<stop stop-color="#68E1FD"/>
<stop offset="0.01" stop-color="#67DDF9"/>
<stop offset="0.12" stop-color="#5CB3CE"/>
<stop offset="0.24" stop-color="#538EA9"/>
<stop offset="0.37" stop-color="#4C718B"/>
<stop offset="0.5" stop-color="#465A73"/>
<stop offset="0.63" stop-color="#424A63"/>
<stop offset="0.79" stop-color="#404059"/>
<stop offset="0.99" stop-color="#3F3D56"/>
</linearGradient>
<linearGradient id="paint5_linear" x1="683.02" y1="151.83" x2="704.01" y2="151.83" gradientUnits="userSpaceOnUse">
<stop stop-color="#ECC4D7"/>
<stop offset="0.42" stop-color="#EFD4D1"/>
<stop offset="1" stop-color="#F2EAC9"/>
</linearGradient>
<linearGradient id="paint6_linear" x1="14622.7" y1="3309.01" x2="14510.6" y2="4414.37" gradientUnits="userSpaceOnUse">
<stop stop-color="#ECC4D7"/>
<stop offset="0.42" stop-color="#EFD4D1"/>
<stop offset="1" stop-color="#F2EAC9"/>
</linearGradient>
<linearGradient id="paint7_linear" x1="30247.6" y1="6826.96" x2="32228.9" y2="6826.96" gradientUnits="userSpaceOnUse">
<stop stop-color="#ECC4D7"/>
<stop offset="0.42" stop-color="#EFD4D1"/>
<stop offset="1" stop-color="#F2EAC9"/>
</linearGradient>
<linearGradient id="paint8_linear" x1="46276.9" y1="6443.91" x2="49822.9" y2="6443.91" gradientUnits="userSpaceOnUse">
<stop stop-color="#ECC4D7"/>
<stop offset="0.42" stop-color="#EFD4D1"/>
<stop offset="1" stop-color="#F2EAC9"/>
</linearGradient>
<linearGradient id="paint9_linear" x1="11333.9" y1="635.87" x2="11308.3" y2="286.136" gradientUnits="userSpaceOnUse">
<stop stop-color="#ECC4D7"/>
<stop offset="0.42" stop-color="#EFD4D1"/>
<stop offset="1" stop-color="#F2EAC9"/>
</linearGradient>
<linearGradient id="paint10_linear" x1="6657.17" y1="-12126.9" x2="5377.41" y2="-12924.9" gradientUnits="userSpaceOnUse">
<stop stop-color="#ECC4D7"/>
<stop offset="0.42" stop-color="#EFD4D1"/>
<stop offset="1" stop-color="#F2EAC9"/>
</linearGradient>
<linearGradient id="paint11_linear" x1="-5.18888" y1="-1796.87" x2="232.89" y2="-2114.08" gradientUnits="userSpaceOnUse">
<stop stop-color="#ECC4D7"/>
<stop offset="0.42" stop-color="#EFD4D1"/>
<stop offset="1" stop-color="#F2EAC9"/>
</linearGradient>
<linearGradient id="paint12_linear" x1="31027.1" y1="9752.68" x2="31082.2" y2="10418.4" gradientUnits="userSpaceOnUse">
<stop stop-color="#68E1FD"/>
<stop offset="0.01" stop-color="#67DDF9"/>
<stop offset="0.12" stop-color="#5CB3CE"/>
<stop offset="0.24" stop-color="#538EA9"/>
<stop offset="0.37" stop-color="#4C718B"/>
<stop offset="0.5" stop-color="#465A73"/>
<stop offset="0.63" stop-color="#424A63"/>
<stop offset="0.79" stop-color="#404059"/>
<stop offset="0.99" stop-color="#3F3D56"/>
</linearGradient>
<linearGradient id="paint13_linear" x1="33879.6" y1="14699.5" x2="34173.7" y2="15352.3" gradientUnits="userSpaceOnUse">
<stop stop-color="#68E1FD"/>
<stop offset="0.01" stop-color="#67DDF9"/>
<stop offset="0.12" stop-color="#5CB3CE"/>
<stop offset="0.24" stop-color="#538EA9"/>
<stop offset="0.37" stop-color="#4C718B"/>
<stop offset="0.5" stop-color="#465A73"/>
<stop offset="0.63" stop-color="#424A63"/>
<stop offset="0.79" stop-color="#404059"/>
<stop offset="0.99" stop-color="#3F3D56"/>
</linearGradient>
<linearGradient id="paint14_linear" x1="769.9" y1="223.33" x2="694.1" y2="179.65" gradientUnits="userSpaceOnUse">
<stop/>
<stop offset="0.98" stop-opacity="0"/>
</linearGradient>
</defs>
</svg>
