<svg width="96" height="96" viewBox="0 0 96 96" fill="none" xmlns="http://www.w3.org/2000/svg">
<path d="M48 96C74.5097 96 96 74.5097 96 48C96 21.4903 74.5097 0 48 0C21.4903 0 0 21.4903 0 48C0 74.5097 21.4903 96 48 96Z" fill="#0F0000"/>
<path d="M23.2861 34.5298C23.1043 34.9897 23 35.4871 23 36.0112V60.0775C23 60.6017 23.1043 61.099 23.2861 61.559L39.1084 48.0444L23.2861 34.5298Z" fill="#FFF8F8"/>
<path d="M47.735 55.4112L41.7853 50.3306L25.8721 63.9227C26.2331 64.0297 26.6155 64.0885 27.0112 64.0885H68.4588C68.8546 64.0885 69.237 64.0297 69.5979 63.9227L53.6847 50.3306L47.735 55.4112Z" fill="#FFF8F8"/>
<path d="M72.1831 34.5298L56.3608 48.0444L72.1831 61.559C72.365 61.1017 72.4692 60.6017 72.4692 60.0775V36.0112C72.4692 35.4871 72.365 34.9897 72.1831 34.5298Z" fill="#FFF8F8"/>
<path d="M69.5979 32.1658C69.237 32.0588 68.8546 32 68.4588 32H27.0112C26.6155 32 26.2331 32.0588 25.8721 32.1658L47.735 50.8386L69.5979 32.1658Z" fill="#FFF8F8"/>
</svg>
