<svg width="50" height="33" viewBox="0 0 50 33" fill="none" xmlns="http://www.w3.org/2000/svg">
<path d="M0.595692 3.44092C0.413858 3.90085 0.30957 4.39822 0.30957 4.92234V28.9887C0.30957 29.5128 0.413858 30.0102 0.595692 30.4701L16.418 16.9555L0.595692 3.44092Z" fill="#FFF8F8"/>
<path d="M25.0446 24.3224L19.0948 19.2417L3.18164 32.8338C3.54264 32.9408 3.92502 32.9996 4.32078 32.9996H45.7684C46.1641 32.9996 46.5465 32.9408 46.9075 32.8338L30.9943 19.2417L25.0446 24.3224Z" fill="#FFF8F8"/>
<path d="M49.4927 3.44092L33.6704 16.9555L49.4927 30.4701C49.6745 30.0128 49.7788 29.5128 49.7788 28.9887V4.92234C49.7788 4.39822 49.6745 3.90085 49.4927 3.44092Z" fill="#FFF8F8"/>
<path d="M46.9075 1.07692C46.5465 0.969962 46.1641 0.911133 45.7684 0.911133H4.32078C3.92502 0.911133 3.54264 0.969962 3.18164 1.07692L25.0446 19.7497L46.9075 1.07692Z" fill="#FFF8F8"/>
</svg>
