<svg width="451" height="300" viewBox="0 0 451 300" fill="none" xmlns="http://www.w3.org/2000/svg">
<path opacity="0.18" d="M23.6483 113.703C35.005 99.3975 49.8671 87.924 59.6657 72.5278C64.7904 64.4763 68.4628 55.4566 74.3498 47.9672C84.2542 35.4253 99.9009 28.2308 115.759 26.35C131.617 24.4693 147.748 27.5018 162.916 32.5486C168.202 34.3069 173.488 36.3323 179.019 36.9444C189.252 38.0572 199.34 34.3347 208.866 30.4231C249.529 13.6969 292.713 -7.90907 335.33 2.9134C366.429 10.8091 390.555 34.6296 413.057 57.521C426.662 71.3481 440.689 85.8541 446.826 104.261C452.341 120.792 450.888 138.726 449.38 156.086L443.071 228.683C443.02 230.354 442.683 232.005 442.075 233.563C440.561 236.84 436.911 238.498 433.495 239.683C414.098 246.294 393.092 245.754 372.605 245.142L62.3922 235.855C49.1604 235.46 19.4195 238.921 8.06843 231.048C8.06843 231.048 2.62659 209.347 1.22996 199.938C-3.26039 169.796 4.61859 137.674 23.6483 113.703Z" fill="#68E1FD"/>
<path opacity="0.21" d="M446.676 229.384C446.676 248.113 439.236 266.074 425.993 279.317C412.75 292.56 394.789 300 376.06 300H78.6787C59.9512 299.999 41.9912 292.558 28.7493 279.315C15.5075 266.072 8.06836 248.112 8.06836 229.384H446.676Z" fill="url(#paint0_linear)"/>
<path d="M393.722 139.866C392.286 137.507 390.856 134.436 392.442 132.182C393.644 130.474 396.142 130.045 397.272 128.287C391.524 127.731 388.369 121.349 387.15 115.706C385.367 107.319 385.298 98.6585 386.946 90.244C388.595 81.8295 391.927 73.8351 396.743 66.741C397.244 66.0176 397.856 65.233 398.763 65.2108C399.837 65.2108 400.538 66.2847 400.989 67.2417C405.736 76.734 409.935 86.4912 413.564 96.4652C413.892 97.3722 414.209 98.4127 413.764 99.2473C413.367 99.8381 412.804 100.297 412.145 100.566L405.885 103.843L415.495 103.487C416.134 107.889 416.78 112.334 416.44 116.769C416.235 119.423 414.771 122.773 412.111 122.372C414.287 122.445 415.127 125.193 415.378 127.38L418.716 156.314C418.827 157.288 418.894 158.395 418.221 159.096C417.637 159.703 416.708 159.775 415.867 159.814C410.125 160.07 407.293 161.072 403.854 156.476C400.137 151.551 398.106 144.251 393.722 139.866Z" fill="#68E1FD"/>
<path d="M393.722 139.866C392.286 137.507 390.856 134.436 392.442 132.182C393.644 130.474 396.142 130.045 397.272 128.287C391.524 127.731 388.369 121.349 387.15 115.706C385.367 107.319 385.298 98.6585 386.946 90.244C388.595 81.8295 391.927 73.8351 396.743 66.741C397.244 66.0176 397.856 65.233 398.763 65.2108C399.837 65.2108 400.538 66.2847 400.989 67.2417C405.736 76.734 409.935 86.4912 413.564 96.4652C413.892 97.3722 414.209 98.4127 413.764 99.2473C413.367 99.8381 412.804 100.297 412.145 100.566L405.885 103.843L415.495 103.487C416.134 107.889 416.78 112.334 416.44 116.769C416.235 119.423 414.771 122.773 412.111 122.372C414.287 122.445 415.127 125.193 415.378 127.38L418.716 156.314C418.827 157.288 418.894 158.395 418.221 159.096C417.637 159.703 416.708 159.775 415.867 159.814C410.125 160.07 407.293 161.072 403.854 156.476C400.137 151.551 398.106 144.251 393.722 139.866Z" fill="url(#paint1_linear)"/>
<path d="M443.41 60.9041C446.865 70.4579 446.926 80.8797 446.47 91.0289C446.326 94.3675 446.097 97.795 444.634 100.8C443.171 103.804 440.183 106.286 436.844 106.13L443.148 109.469C439.398 118.928 435.609 128.56 434.507 138.692C434.095 142.465 434.056 146.299 433.094 149.965C431.924 154.35 429.485 158.291 426.083 161.294C424.13 163.014 421.631 164.455 419.05 163.993C415.093 163.281 413.335 158.685 412.417 154.767C410.264 145.525 407.621 134.853 408.016 125.305C408.338 117.47 411.844 108.968 414.865 101.796C418.177 93.9325 422.322 86.4466 427.229 79.4664C428.659 77.4132 443.66 61.5996 443.41 60.9041Z" fill="#68E1FD"/>
<path d="M443.41 60.9041C446.865 70.4579 446.926 80.8797 446.47 91.0289C446.326 94.3675 446.097 97.795 444.634 100.8C443.171 103.804 440.183 106.286 436.844 106.13L443.148 109.469C439.398 118.928 435.609 128.56 434.507 138.692C434.095 142.465 434.056 146.299 433.094 149.965C431.924 154.35 429.485 158.291 426.083 161.294C424.13 163.014 421.631 164.455 419.05 163.993C415.093 163.281 413.335 158.685 412.417 154.767C410.264 145.525 407.621 134.853 408.016 125.305C408.338 117.47 411.844 108.968 414.865 101.796C418.177 93.9325 422.322 86.4466 427.229 79.4664C428.659 77.4132 443.66 61.5996 443.41 60.9041Z" fill="url(#paint2_linear)"/>
<path d="M439.949 123.491C447.388 116.14 436.716 104.661 447.099 103.421C440.071 114.549 452.591 133.212 439.982 137.017C440.333 139.766 437.323 141.552 434.975 142.993C431.98 144.839 429.384 147.264 427.339 150.125C425.293 152.987 423.839 156.228 423.062 159.658C423.802 156.32 423.34 154.383 425.02 151.056C426.478 148.179 427.246 145.403 428.314 142.226C430.681 135.16 434.665 128.745 439.949 123.491V123.491Z" fill="#68E1FD"/>
<path d="M439.949 123.491C447.388 116.14 436.716 104.661 447.099 103.421C440.071 114.549 452.591 133.212 439.982 137.017C440.333 139.766 437.323 141.552 434.975 142.993C431.98 144.839 429.384 147.264 427.339 150.125C425.293 152.987 423.839 156.228 423.062 159.658C423.802 156.32 423.34 154.383 425.02 151.056C426.478 148.179 427.246 145.403 428.314 142.226C430.681 135.16 434.665 128.745 439.949 123.491V123.491Z" fill="url(#paint3_linear)"/>
<path d="M395.786 171.699H441.017V227.309C441.017 232.031 439.142 236.56 435.802 239.899C432.463 243.238 427.934 245.114 423.212 245.114H413.608C408.886 245.114 404.357 243.238 401.017 239.899C397.678 236.56 395.802 232.031 395.802 227.309V171.699H395.786Z" fill="#68E1FD"/>
<path d="M345.04 96.7601H93.2071C73.9329 96.7601 58.3081 112.385 58.3081 131.659V220.559C58.3081 239.833 73.9329 255.458 93.2071 255.458H345.04C364.314 255.458 379.939 239.833 379.939 220.559V131.659C379.939 112.385 364.314 96.7601 345.04 96.7601Z" fill="#68E1FD"/>
<path d="M345.04 96.7601H93.2071C73.9329 96.7601 58.3081 112.385 58.3081 131.659V220.559C58.3081 239.833 73.9329 255.458 93.2071 255.458H345.04C364.314 255.458 379.939 239.833 379.939 220.559V131.659C379.939 112.385 364.314 96.7601 345.04 96.7601Z" fill="url(#paint4_linear)"/>
<path d="M329.932 108.573H104.402C86.2127 108.573 71.4673 123.318 71.4673 141.508V231.649C71.4673 249.838 86.2127 264.584 104.402 264.584H329.932C348.122 264.584 362.867 249.838 362.867 231.649V141.508C362.867 123.318 348.122 108.573 329.932 108.573Z" fill="url(#paint5_linear)"/>
<path opacity="0.19" d="M207.369 151.713C206.912 154.818 209.639 157.416 212.254 159.147C216.816 162.158 221.835 164.413 227.116 165.824C228.263 166.13 229.503 166.441 230.271 167.354C231.874 169.262 230.238 172.256 228.129 173.586C226.02 174.916 223.394 175.55 221.78 177.453C219.46 180.185 219.816 184.887 216.739 186.728C215.855 187.191 214.896 187.492 213.907 187.619L203.006 189.672C226.12 191.058 249.289 191.285 272.426 190.351C270.642 184.638 268.859 178.924 267.079 173.207C264.608 165.289 261.848 156.921 255.483 151.607C252.144 148.825 248.093 147.117 244.02 145.653C238.178 143.55 225.931 138.052 219.705 139.855C216.416 140.818 207.881 148.246 207.369 151.713Z" fill="url(#paint6_linear)"/>
<path opacity="0.19" d="M122.87 97.9842C121.99 98.7598 121.365 99.7828 121.076 100.92C120.787 102.056 120.848 103.254 121.251 104.355C121.696 105.507 122.536 106.664 122.208 107.855C121.919 108.907 120.822 109.497 119.854 110.003C107.012 116.68 98.3929 129.183 90.3025 141.191C88.2103 144.295 86.0514 147.595 85.8177 151.329C85.4727 156.837 89.3732 161.667 93.4797 165.345C97.5861 169.023 102.31 172.401 104.608 177.431C106.906 182.461 105.276 189.772 99.9453 191.197C98.8992 191.475 97.7753 191.514 96.8127 192.015C95.85 192.515 95.1434 193.728 95.6442 194.68C96.1171 195.537 97.2745 195.676 98.2594 195.704C129.95 196.709 161.649 197.212 193.358 197.212C195.545 197.212 197.809 197.184 199.757 196.143C200.617 195.721 201.308 195.018 201.716 194.151C203.023 191.041 198.933 188.17 198.733 184.798C198.499 181.253 202.333 179.039 204.509 176.229C207.697 172.111 207.291 166.085 204.954 161.428C202.617 156.771 198.75 153.115 195.088 149.409C184.862 139.045 175.897 127.508 168.38 115.039C167.573 113.698 166.75 112.173 167.084 110.637C167.417 109.102 168.753 108.044 168.87 106.553C168.894 105.581 168.584 104.63 167.991 103.86C164.162 98.2179 156.005 98.3737 149.189 98.5184C144.054 98.6233 138.918 98.3854 133.815 97.8062C130.432 97.4222 125.775 95.5081 122.87 97.9842Z" fill="url(#paint7_linear)"/>
<path opacity="0.19" d="M269.844 99.0693C274.095 98.7131 278.369 98.5629 282.642 98.6185C286.787 98.6742 299.524 96.621 304.86 96.7601C308.755 96.8658 297.771 108.935 299.852 112.251C303.191 117.57 309.662 119.846 314.876 123.379C320.963 127.522 325.519 133.552 327.84 140.54C329.649 146.037 329.994 151.902 330.244 157.683C330.417 161.667 330.522 165.824 328.848 169.44C327.073 173.269 323.322 176.563 323.712 180.764C323.862 182.377 324.63 183.857 325.003 185.438C325.375 187.018 325.209 188.921 323.918 189.889C323.324 190.276 322.658 190.538 321.959 190.657C308.126 193.895 293.698 191.77 279.532 190.707C265.766 189.672 251.944 189.644 238.134 189.594C241.34 183.782 244.086 177.729 246.346 171.488C246.903 169.913 247.459 168.272 247.359 166.603C247.209 164.316 245.868 162.301 244.655 160.354C240.298 153.382 237.032 145.47 236.954 137.251C236.87 128.471 240.777 120.197 248.216 115.411C251.332 113.408 254.042 111.149 257.002 108.968C258.671 107.722 271.897 113.258 273.45 111.845C275.002 110.431 268.27 99.2028 269.844 99.0693Z" fill="url(#paint8_linear)"/>
<path d="M197.798 159.931C197.693 160.276 197.57 160.615 197.426 160.972C194.349 168.723 182.43 179.656 182.43 179.656L182.018 190.579C170.161 197.462 114.719 191.898 114.719 191.898C114.719 191.898 112.014 183.19 111.419 182.895C110.824 182.6 99.4058 171.571 95.2827 165.801C94.7376 165.097 94.2833 164.327 93.9306 163.509C92.3559 159.258 99.9678 149.871 108.565 129.517C117.161 109.163 135.774 112.006 135.774 112.006C135.774 112.006 171.235 111.327 179.581 116.697C187.928 122.066 200.124 152.169 197.798 159.931Z" fill="#68E1FD"/>
<path opacity="0.4" d="M195.328 164.928C192.44 169.429 187.989 174.192 185.14 177.052C183.397 178.798 182.376 181.136 182.28 183.601V183.601C182.2 185.871 181.332 188.041 179.825 189.74C178.318 191.439 176.266 192.56 174.023 192.91C159.505 195.136 133.32 193.467 121.196 192.46C119.313 192.303 117.516 191.606 116.02 190.453C114.524 189.301 113.392 187.741 112.76 185.961C112.204 184.341 111.647 182.995 111.419 182.884C111.035 182.689 104.597 176.54 99.6118 171.021C98.2687 169.54 97.41 167.685 97.1504 165.703C96.8909 163.721 97.243 161.707 98.1595 159.931C100.892 154.656 104.614 147.651 108.537 138.358C116.327 119.857 132.463 120.553 135.306 120.803C135.657 120.837 135.996 120.848 136.347 120.848C141.043 120.787 171.847 120.581 179.553 125.538C185.413 129.305 193.175 145.247 196.48 157.11C196.849 158.421 196.938 159.795 196.739 161.142C196.541 162.489 196.06 163.779 195.328 164.928V164.928Z" fill="url(#paint9_linear)"/>
<path d="M256.757 108.718C262.094 107.399 267.727 108.051 272.621 110.554C282.926 115.823 300.782 125.021 305.867 128.092C313.145 132.488 323.578 159.575 323.879 163.776C324.179 167.977 324.825 173.424 317.925 174.765C311.025 176.106 281.696 183.88 281.696 183.88L276.466 174.765L244.505 175.517L241.061 159.658C241.061 159.658 210.852 140.59 210.563 136.984C210.274 133.378 207.013 126.239 221.597 119.663C231.229 115.339 247.075 111.105 256.757 108.718Z" fill="white"/>
<path opacity="0.26" d="M249.457 116.224L225.609 124.57C222.893 125.522 219.739 126.98 219.349 129.834C219.271 130.802 219.402 131.775 219.733 132.688C223.194 143.85 236.554 150.828 247.688 147.284C243.785 142.743 239.89 138.201 236.003 133.657C242.116 132.287 248.336 131.443 254.593 131.136C255.022 139.237 253.713 147.336 250.754 154.89C248.595 160.387 245.512 165.963 246.352 171.805C246.709 174.103 247.657 176.269 249.103 178.091C250.548 179.913 252.442 181.329 254.599 182.199C258.143 183.585 262.077 183.368 265.872 183.14L290.11 181.648C291.456 181.565 292.981 181.387 293.771 180.296C294.233 179.51 294.439 178.6 294.361 177.692C294.45 165.757 294.511 157.705 297.816 146.232C300.164 158.429 300.359 154.823 303.258 160.86C303.67 161.717 306.469 160.015 306.129 160.899C305.75 161.634 305.117 162.207 304.349 162.513C302.076 163.703 299.657 164.592 297.154 165.156C297.221 166.664 298.606 167.849 300.07 168.2C301.533 168.55 303.074 168.25 304.549 167.955C307.019 167.465 309.557 166.953 311.71 165.69C313.863 164.427 315.7 162.268 315.855 159.759C316.061 156.537 313.63 153.822 311.365 151.523C307.976 148.085 307.615 139.51 304.833 135.944C299.791 129.517 280.461 118.277 273.406 115.156C265.243 111.55 257.676 113.364 249.457 116.224Z" fill="#68E1FD"/>
<path d="M387.239 220.887V237.875C387.239 245.908 384.048 253.612 378.369 259.293C372.689 264.973 364.986 268.165 356.953 268.167H77.4437C69.4098 268.167 61.7049 264.975 56.0241 259.295C50.3433 253.614 47.1519 245.909 47.1519 237.875V220.887C47.1497 216.909 47.9317 212.969 49.4533 209.294C50.9749 205.618 53.2062 202.278 56.0196 199.465C58.8329 196.652 62.1732 194.421 65.8493 192.901C69.5254 191.38 73.4653 190.598 77.4437 190.601H356.953C360.931 190.599 364.87 191.381 368.545 192.902C372.221 194.423 375.56 196.654 378.373 199.467C381.186 202.28 383.417 205.619 384.938 209.295C386.459 212.97 387.241 216.91 387.239 220.887V220.887Z" fill="#68E1FD"/>
<path d="M387.239 220.887V237.875C387.239 245.908 384.048 253.612 378.369 259.293C372.689 264.973 364.986 268.165 356.953 268.167H77.4437C69.4098 268.167 61.7049 264.975 56.0241 259.295C50.3433 253.614 47.1519 245.909 47.1519 237.875V220.887C47.1497 216.909 47.9317 212.969 49.4533 209.294C50.9749 205.618 53.2062 202.278 56.0196 199.465C58.8329 196.652 62.1732 194.421 65.8493 192.901C69.5254 191.38 73.4653 190.598 77.4437 190.601H356.953C360.931 190.599 364.87 191.381 368.545 192.902C372.221 194.423 375.56 196.654 378.373 199.467C381.186 202.28 383.417 205.619 384.938 209.295C386.459 212.97 387.241 216.91 387.239 220.887V220.887Z" fill="url(#paint10_linear)"/>
<path d="M382.075 203.961C379.303 208.075 375.562 211.445 371.181 213.774C366.8 216.102 361.914 217.319 356.953 217.315H77.4436C72.4817 217.318 67.5951 216.102 63.2134 213.773C58.8318 211.444 55.0895 208.075 52.3154 203.961C55.0888 199.846 58.831 196.476 63.2128 194.148C67.5945 191.819 72.4815 190.603 77.4436 190.607H356.953C361.914 190.602 366.801 191.818 371.181 194.147C375.562 196.476 379.304 199.846 382.075 203.961Z" fill="#68E1FD"/>
<path d="M382.075 203.961C379.303 208.075 375.562 211.445 371.181 213.774C366.8 216.102 361.914 217.319 356.953 217.315H77.4436C72.4817 217.318 67.5951 216.102 63.2134 213.773C58.8318 211.444 55.0895 208.075 52.3154 203.961C55.0888 199.846 58.831 196.476 63.2128 194.148C67.5945 191.819 72.4815 190.603 77.4436 190.607H356.953C361.914 190.602 366.801 191.818 371.181 194.147C375.562 196.476 379.304 199.846 382.075 203.961Z" fill="url(#paint11_linear)"/>
<path opacity="0.19" d="M240.014 224.977C238.034 236.317 236.12 248.258 239.931 259.114C240.487 260.744 241.561 262.58 243.27 262.614C244.533 262.614 245.573 261.634 246.319 260.616C250.92 254.356 250.214 245.838 249.991 238.075C249.646 225.027 252.061 210.577 262.166 202.308C266.094 199.098 271.831 197.117 276.204 199.682C281.001 202.498 281.696 209.024 281.852 214.583C282.108 223.53 282.362 232.481 282.614 241.436C282.82 248.809 283.199 256.699 287.622 262.625C290.443 266.431 295.969 269.052 299.903 266.403C302.59 264.589 303.447 261.072 303.931 257.873C306.517 240.53 304.339 222.811 297.632 206.61C294.978 200.216 291.339 193.812 285.352 190.334C282.102 188.453 278.363 187.552 274.635 187.112C264.743 185.941 254.724 187.682 245.807 192.12C239.614 195.22 243.442 198.831 243.731 203.738C244.104 210.288 241.144 218.506 240.014 224.977Z" fill="url(#paint12_linear)"/>
<path opacity="0.19" d="M133.86 266.219C134.705 264.851 134.683 263.137 134.65 261.529C134.401 248.433 135.332 235.341 137.432 222.412C138.217 217.588 139.229 212.625 142.056 208.641C144.883 204.657 149.99 201.913 154.709 203.221C156 203.588 157.291 204.334 157.803 205.569C158.048 206.284 158.155 207.04 158.12 207.795C158.29 224.117 158.176 240.438 157.775 256.76C157.697 259.91 157.686 263.32 159.578 265.835C162.744 270.053 169.237 269.413 174.212 267.677C175.959 267.065 177.751 266.32 178.941 264.895C180.377 263.17 180.666 260.794 180.878 258.563C182.697 239.364 183.226 220.065 182.463 200.795C182.408 199.387 182.33 197.929 181.668 196.688C180.288 194.112 176.999 193.389 174.112 192.938C162.46 191.13 150.647 189.31 138.918 190.512C136.191 190.796 133.387 191.269 131.1 192.777C128.946 194.196 127.444 196.394 126.059 198.564C119.587 208.696 114.218 219.78 112.482 231.677C111.074 241.308 112.204 251.669 116.828 260.338C119.17 264.789 129.553 273.136 133.86 266.219Z" fill="url(#paint13_linear)"/>
<path d="M58.7088 170.303H50.0787C43.0321 170.303 37.3198 176.015 37.3198 183.062V191.692C37.3198 198.738 43.0321 204.451 50.0787 204.451H58.7088C65.7553 204.451 71.4676 198.738 71.4676 191.692V183.062C71.4676 176.015 65.7553 170.303 58.7088 170.303Z" fill="#68E1FD"/>
<path d="M384.257 170.303H375.627C368.58 170.303 362.868 176.015 362.868 183.062V191.692C362.868 198.738 368.58 204.451 375.627 204.451H384.257C391.303 204.451 397.015 198.738 397.015 191.692V183.062C397.015 176.015 391.303 170.303 384.257 170.303Z" fill="#68E1FD"/>
<path d="M133.932 99.3809C133.932 99.3809 134.171 123.541 147.019 125.333C159.867 127.124 165.147 112.718 166.683 101.879C168.219 91.0401 154.853 73.5015 141.405 82.5045C132.897 88.18 133.932 99.3809 133.932 99.3809Z" fill="url(#paint14_linear)"/>
<path d="M134.95 108.579C134.032 103.198 133.136 97.3666 134.822 92.1752C135.829 89.0703 137.665 85.7818 140.837 84.9862C145.077 83.9234 148.788 87.7683 152.828 89.4376C156.868 91.1068 162.026 90.7785 164.969 94.0392C166.316 95.5249 166.933 97.5169 167.506 99.4421C168.531 95.1222 167.995 90.5792 165.993 86.6165C166.785 87.3725 167.841 87.7897 168.936 87.7794C168.992 84.5021 167.267 81.4306 165.119 78.9656C160.406 73.5739 153.006 70.3188 145.956 71.5763C136.881 73.1899 135.084 80.084 131.678 87.0171C128.212 94.0837 130.092 100.494 134.95 108.579Z" fill="#3F3D56"/>
<path d="M141.533 122.734C141.533 122.734 142.089 135.788 148.961 134.731C155.833 133.673 157.135 122.734 157.135 122.734C154.818 124.257 152.106 125.069 149.334 125.069C146.561 125.069 143.849 124.257 141.533 122.734Z" fill="url(#paint15_linear)"/>
<path d="M264.925 91.3516C264.925 91.3516 265.159 115.512 278.013 117.303C290.866 119.095 296.135 104.689 297.677 93.85C299.218 83.0108 285.841 65.4723 272.393 74.4753C263.89 80.1508 264.925 91.3516 264.925 91.3516Z" fill="url(#paint16_linear)"/>
<path d="M272.526 114.705C272.526 114.705 273.083 127.759 279.955 126.701C286.827 125.644 288.123 114.705 288.123 114.705C285.807 116.228 283.096 117.04 280.325 117.04C277.553 117.04 274.842 116.228 272.526 114.705V114.705Z" fill="url(#paint17_linear)"/>
<path d="M120.511 171.427C120.511 171.427 109.505 178.154 111.413 182.884C113.322 187.613 123.493 178.961 123.938 177.564C124.384 176.168 127.817 169.808 120.511 171.427Z" fill="url(#paint18_linear)"/>
<path d="M128.985 182.31C128.985 182.31 123.343 183.601 120.511 180.931C118.546 179.177 116.317 177.744 113.906 176.685L121.696 169.452C121.696 169.452 129.175 165.412 133.203 165.045C137.232 164.677 139.018 166.714 139.018 166.714C139.018 166.714 135.44 170.993 133.203 170.303C130.966 169.613 128.195 172.412 128.195 172.412C128.195 172.412 127.082 178.093 129.024 178.532C130.966 178.972 134.961 181.37 134.961 181.37C134.961 181.37 137.46 183.69 128.985 182.31Z" fill="url(#paint19_linear)"/>
<path d="M173.11 168.2C173.11 168.2 184.116 174.932 182.202 179.656C180.288 184.38 170.127 175.761 169.682 174.342C169.237 172.924 165.804 166.586 173.11 168.2Z" fill="url(#paint20_linear)"/>
<path d="M164.635 179.1C164.635 179.1 170.272 180.391 173.11 177.72C175.075 175.966 177.304 174.532 179.715 173.469L171.925 166.235C171.925 166.235 164.446 162.196 160.418 161.828C156.389 161.461 154.603 163.498 154.603 163.498C154.603 163.498 158.181 167.777 160.418 167.087C162.655 166.397 165.426 169.196 165.426 169.196C165.426 169.196 166.538 174.877 164.596 175.316C162.654 175.756 158.659 178.154 158.659 178.154C158.659 178.154 156.161 180.469 164.635 179.1Z" fill="url(#paint21_linear)"/>
<path d="M136.018 169.463C136.018 169.463 138.105 170.843 142.874 170.303C147.642 169.763 153.841 168.634 154.62 167.715C155.357 166.981 156.205 166.369 157.135 165.901C157.135 165.901 162.699 164.293 165.481 169.19C168.263 174.086 163.211 175.828 163.211 175.828C163.211 175.828 160.774 179.923 154.636 179.801C148.499 179.679 134.939 181.387 134.939 181.387C134.939 181.387 125.48 177.453 126.47 174.765C127.461 172.078 129.158 168.622 136.018 169.463Z" fill="url(#paint22_linear)"/>
<path d="M133.147 173.881C133.147 173.881 127.878 176.385 129.809 179.528C131.739 182.672 137.71 181.059 137.71 181.059C137.71 181.059 151.509 179.556 154.636 179.801C157.763 180.046 165.314 177.347 165.676 173.881C166.037 170.414 163.912 168.094 157.151 170.659C150.391 173.224 146.435 175.11 141.421 174.331C138.689 173.869 135.913 173.718 133.147 173.881V173.881Z" fill="url(#paint23_linear)"/>
<path d="M121.68 169.463L113.89 156.704C113.89 156.704 123.716 141.819 124.662 138.792C125.608 135.766 133.198 165.056 133.198 165.056C133.198 165.056 122.848 167.498 121.68 169.463Z" fill="url(#paint24_linear)"/>
<path d="M173.11 168.2L180.9 152.937L174.184 138.575L168.953 164.727C168.953 164.727 172.331 164.855 173.11 168.2Z" fill="url(#paint25_linear)"/>
<path d="M105.599 186.383C105.599 186.383 110.606 178.31 128.968 182.31C147.331 186.311 161.67 187.135 165.693 184.264C169.715 181.392 171.913 178.048 182.196 179.656C193.23 181.387 192.429 187.324 195.111 196.727C198.11 207.155 188.651 254.362 188.651 254.362H172.247C172.247 254.362 172.62 196.933 164.046 195.258C158.565 194.185 147.52 194.073 141.533 193.973C138.005 193.912 132.93 198.859 131.667 202.153C127.984 211.779 121.546 232.556 126.07 250.845L110.083 252.264C110.083 252.264 93.2404 219.163 105.599 186.383Z" fill="#3F3D56"/>
<path d="M110.083 252.264L112.237 263.02C112.237 263.02 118.536 264.99 121.696 261.145C124.857 257.3 123.549 251.068 123.549 251.068L110.083 252.264Z" fill="url(#paint26_linear)"/>
<path d="M106.3 264.472L111.118 257.294C111.118 257.294 112.743 264.15 123.571 256.877L123.833 253.85C123.833 253.85 124.35 253.377 125.463 255.458C126.576 257.539 127.444 264.789 127.444 264.789C127.444 264.789 126.771 269.486 124.534 270.938C122.993 271.939 115.943 277.27 111.736 280.469C110.553 281.372 109.168 281.974 107.7 282.223C106.233 282.472 104.727 282.361 103.312 281.899C101.036 281.143 100.641 281.972 100.608 279.757C100.535 275.1 102.338 268.128 106.3 264.472Z" fill="#68E1FD"/>
<path d="M186.191 254.362L184.65 262.08C184.509 262.826 184.219 263.536 183.798 264.168C183.376 264.8 182.833 265.341 182.198 265.759C181.564 266.176 180.853 266.462 180.106 266.6C179.359 266.737 178.592 266.723 177.851 266.559C176.484 266.257 175.255 265.512 174.356 264.439C171.212 260.588 172.492 254.362 172.492 254.362H186.191Z" fill="url(#paint27_linear)"/>
<path d="M184.945 260.588C184.945 260.588 183.32 267.444 172.492 260.171L172.236 257.144C172.236 257.144 171.719 256.666 170.601 258.752C169.482 260.839 168.62 268.128 168.62 268.128C168.62 268.128 169.293 272.824 171.53 274.249C173.36 275.439 190.164 292.015 196.675 283.446C197.405 282.536 197.811 281.408 197.826 280.241C197.871 275.567 184.945 260.588 184.945 260.588Z" fill="#68E1FD"/>
<path d="M106.3 264.472L111.118 257.294C111.118 257.294 112.743 264.15 123.571 256.877L123.833 253.85C123.833 253.85 124.35 253.377 125.463 255.458C126.576 257.539 127.444 264.789 127.444 264.789C127.444 264.789 126.771 269.486 124.534 270.938C122.993 271.939 115.943 277.27 111.736 280.469C110.553 281.372 109.168 281.974 107.7 282.223C106.233 282.472 104.727 282.361 103.312 281.899C101.036 281.143 100.641 281.972 100.608 279.757C100.535 275.1 102.338 268.128 106.3 264.472Z" fill="url(#paint28_linear)"/>
<path d="M184.945 260.588C184.945 260.588 183.32 267.444 172.492 260.171L172.236 257.144C172.236 257.144 171.719 256.666 170.601 258.752C169.482 260.839 168.62 268.128 168.62 268.128C168.62 268.128 169.293 272.824 171.53 274.249C173.36 275.439 190.164 292.015 196.675 283.446C197.405 282.536 197.811 281.408 197.826 280.241C197.871 275.567 184.945 260.588 184.945 260.588Z" fill="url(#paint29_linear)"/>
<path d="M310.825 257.461L309.395 264.756C309.261 265.461 308.988 266.133 308.59 266.73C308.192 267.328 307.678 267.839 307.078 268.234C306.479 268.629 305.806 268.899 305.1 269.029C304.394 269.159 303.669 269.146 302.968 268.99C301.678 268.705 300.517 268.001 299.669 266.987C296.692 263.348 297.905 257.461 297.905 257.461H310.825Z" fill="url(#paint30_linear)"/>
<path d="M309.645 263.348C309.645 263.348 308.11 269.825 297.877 262.953L297.632 260.093C297.632 260.093 297.142 259.642 296.091 261.612C295.039 263.582 294.193 270.448 294.193 270.448C294.193 270.448 294.828 274.9 296.942 276.263C298.673 277.376 314.553 293.05 320.701 284.954C321.4 284.098 321.792 283.032 321.814 281.927C321.859 277.504 309.645 263.348 309.645 263.348Z" fill="#68E1FD"/>
<path d="M228.157 245.148L229.62 252.442C229.754 253.147 230.027 253.818 230.425 254.414C230.823 255.011 231.336 255.522 231.935 255.916C232.534 256.311 233.206 256.581 233.912 256.711C234.617 256.84 235.341 256.827 236.041 256.671C237.333 256.388 238.493 255.683 239.341 254.668C242.318 251.029 241.105 245.148 241.105 245.148H228.157Z" fill="url(#paint31_linear)"/>
<path d="M229.342 251.035C229.342 251.035 230.878 257.511 241.11 250.634L241.355 247.774C241.355 247.774 241.845 247.323 242.897 249.293C243.948 251.263 244.794 258.112 244.794 258.112C244.794 258.112 244.16 262.564 242.051 263.921C240.315 265.034 224.434 280.714 218.286 272.618C217.589 271.761 217.197 270.696 217.173 269.591C217.128 265.184 229.342 251.035 229.342 251.035Z" fill="#68E1FD"/>
<path d="M309.645 263.348C309.645 263.348 308.11 269.825 297.877 262.953L297.632 260.093C297.632 260.093 297.142 259.642 296.091 261.612C295.039 263.582 294.193 270.448 294.193 270.448C294.193 270.448 294.828 274.9 296.942 276.263C298.673 277.376 314.553 293.05 320.701 284.954C321.4 284.098 321.792 283.032 321.814 281.927C321.859 277.504 309.645 263.348 309.645 263.348Z" fill="url(#paint32_linear)"/>
<path d="M229.342 251.035C229.342 251.035 230.878 257.511 241.11 250.634L241.355 247.774C241.355 247.774 241.845 247.323 242.897 249.293C243.948 251.263 244.794 258.112 244.794 258.112C244.794 258.112 244.16 262.564 242.051 263.921C240.315 265.034 224.434 280.714 218.286 272.618C217.589 271.761 217.197 270.696 217.173 269.591C217.128 265.184 229.342 251.035 229.342 251.035Z" fill="url(#paint33_linear)"/>
<path d="M444.351 158.968H392.915V174.331H444.351V158.968Z" fill="#68E1FD"/>
<path d="M250.798 175.294C250.798 175.294 228.513 168.439 224.579 185.276C220.645 202.114 226.994 247.29 226.994 247.29H239.792L242.268 243.712C242.268 243.712 244.855 206.265 245.606 203.967C246.358 201.669 254.348 190.612 261.387 190.612C268.425 190.612 285.419 186.161 291.384 206.153C297.348 226.146 297.093 258.774 297.093 258.774L311.938 257.305C311.938 257.305 315.8 215.195 313.607 202.025C311.415 188.854 308.644 178.877 303.714 176.123C298.784 173.369 250.798 175.294 250.798 175.294Z" fill="#3F3D56"/>
<path d="M266.439 176.106C266.439 176.106 263.473 178.059 260.363 180.001C257.252 181.943 253.997 183.83 253.391 183.768C252.167 183.64 250.559 183.579 248.895 178.271C247.231 172.963 243.731 171.967 243.62 171.438C243.509 170.909 236.359 164.805 236.064 163.782C235.852 163.069 234.834 160.844 236.526 158.451C237.549 157.149 238.874 156.116 240.387 155.441C245.19 153.136 250.114 151.093 255.138 149.32C255.538 149.617 255.866 149.999 256.099 150.439C256.332 150.879 256.464 151.365 256.485 151.863C256.635 153.649 253.764 158.206 253.391 159.926C253.018 161.645 256.223 166.53 256.223 166.53C256.223 166.53 258.577 167.738 259.617 167.699C260.658 167.66 271.413 164.816 272.521 165.045C273.628 165.273 279.487 168.467 266.439 176.106Z" fill="url(#paint34_linear)"/>
<path d="M260.363 179.99C257.258 181.915 253.997 183.818 253.391 183.757C252.167 183.629 250.559 183.568 248.895 178.26C247.231 172.951 243.731 171.955 243.62 171.427C243.509 170.898 236.359 164.794 236.064 163.77C235.852 163.058 234.834 160.832 236.526 158.44C236.753 158.583 236.956 158.761 237.126 158.968C237.126 158.968 238.05 163.392 241.06 164.733C244.071 166.074 250.798 175.305 250.798 175.305C250.798 175.305 250.559 179.723 252.912 180.513C255.266 181.303 260.363 179.99 260.363 179.99Z" fill="url(#paint35_linear)"/>
<path d="M278.736 178.722C278.736 178.722 269.332 184.664 265.276 183.646C262.761 183.019 260.294 182.215 257.892 181.242L266.439 176.112C266.439 176.112 265.882 172.417 262.416 171.427C258.949 170.436 261.859 167.343 264.987 167.715C268.114 168.088 270.963 168.194 270.963 168.194L273.455 168.656L278.736 178.722Z" fill="url(#paint36_linear)"/>
<path d="M232.759 159.976C232.555 161.156 232.67 162.369 233.094 163.49C233.518 164.61 234.234 165.597 235.168 166.347C235.505 166.633 235.912 166.825 236.348 166.903C236.561 166.93 236.778 166.897 236.974 166.809C237.171 166.72 237.339 166.58 237.461 166.402C237.867 165.701 237.227 164.894 236.765 164.238C235.235 162.068 237.36 157.689 239.252 155.819C239.499 155.614 239.71 155.37 239.875 155.096C239.95 154.912 239.986 154.716 239.982 154.518C239.978 154.32 239.934 154.126 239.852 153.946C239.77 153.765 239.653 153.604 239.507 153.471C239.36 153.337 239.189 153.235 239.002 153.17C238.201 152.953 235.691 154.929 235.185 155.435C233.923 156.659 233.075 158.246 232.759 159.976V159.976Z" fill="url(#paint37_linear)"/>
<path d="M258.977 84.1904C259.144 82.2708 260.09 80.3455 259.534 78.4982C259.245 77.4966 258.549 76.662 258.165 75.7161C257.108 73.0063 258.722 69.9904 260.652 67.8204C264.764 63.2188 270.418 60.3587 275.82 57.3874C277.412 56.5138 279.031 55.6069 280.828 55.2953C282.626 54.9837 284.64 55.3954 285.808 56.7809C286.167 57.3421 286.604 57.8497 287.105 58.2888C288.051 58.912 289.297 58.5559 290.443 58.5225C291.42 58.5031 292.385 58.7412 293.241 59.213C294.096 59.6848 294.813 60.3736 295.318 61.2101C296.241 62.7736 296.43 64.8491 297.899 65.9285C298.812 66.6018 300.053 66.7242 300.949 67.4198C301.598 68.0146 302.104 68.749 302.429 69.5676C303.171 71.0996 303.913 72.6279 304.654 74.1525C306.58 78.1143 308.549 82.5879 307.186 86.7778C306.667 88.16 305.971 89.4692 305.116 90.6728C304.033 92.3606 302.946 94.0484 301.856 95.7362C300.587 97.706 298.706 99.9484 296.419 99.442C296.508 96.9604 296.599 94.4787 296.692 91.9971C296.692 91.3683 296.692 90.606 296.136 90.3C295.679 90.0496 295.123 90.2499 294.605 90.3C292.146 90.4001 291.517 86.9614 289.904 85.103C289.406 84.5417 288.779 84.1108 288.077 83.8479C287.375 83.5851 286.619 83.4983 285.875 83.595C284.573 83.7842 283.31 84.5354 282.019 84.2795C280.533 83.979 279.632 82.4822 278.336 81.7032C275.22 79.8392 271.453 82.5879 268.876 85.1475L266.294 87.7237C265.783 88.2356 265.232 88.8366 265.232 89.5544C265.198 94.679 258.677 87.7015 258.977 84.1904Z" fill="#3F3D56"/>
<path d="M250.497 147.862L235.568 134.135L250.497 131.069V147.862Z" fill="url(#paint38_linear)"/>
<path d="M273.456 168.656L304.855 160.838L297.794 144.206L296.786 150.772C296.357 153.56 295.207 156.188 293.45 158.396C291.694 160.603 289.391 162.314 286.771 163.359L273.456 168.656Z" fill="url(#paint39_linear)"/>
<path d="M240.504 161.127C240.61 161.313 240.772 161.461 240.966 161.55C241.127 161.584 241.294 161.573 241.449 161.518C241.604 161.463 241.741 161.366 241.845 161.239C242.913 160.209 242.83 158.518 243.164 157.071C243.516 155.521 244.4 154.143 245.662 153.176C247.064 152.102 248.917 151.551 249.93 150.105C250.263 149.582 250.532 149.022 250.731 148.435C250.803 148.252 250.853 148.007 250.692 147.879C250.631 147.844 250.562 147.823 250.492 147.818C247.398 147.445 244.26 147.718 241.277 148.619C240.164 148.958 239.013 149.431 238.339 150.388C237.666 151.345 237.616 152.72 237.822 153.922C237.925 154.557 238.229 155.142 238.69 155.591C238.883 155.78 239.034 156.008 239.135 156.259C239.236 156.509 239.283 156.779 239.274 157.049C239.343 158.489 239.765 159.89 240.504 161.127V161.127Z" fill="url(#paint40_linear)"/>
<path d="M244.237 159.113C244.058 159.145 243.896 159.238 243.777 159.376C243.659 159.513 243.591 159.688 243.586 159.87C243.591 160.052 243.645 160.23 243.743 160.384C243.841 160.538 243.979 160.662 244.143 160.743C244.307 160.821 244.485 160.865 244.667 160.872C244.849 160.88 245.03 160.851 245.2 160.788C245.295 160.759 245.38 160.707 245.45 160.638C245.553 160.513 245.603 160.353 245.59 160.193C245.592 160.013 245.553 159.835 245.477 159.672C245.401 159.509 245.289 159.366 245.15 159.252C245.005 159.146 244.829 159.088 244.649 159.088C244.469 159.088 244.294 159.146 244.148 159.252" fill="url(#paint41_linear)"/>
<path d="M245.812 155.457C245.634 155.49 245.472 155.583 245.353 155.721C245.235 155.859 245.167 156.033 245.161 156.214C245.165 156.397 245.22 156.574 245.318 156.728C245.416 156.882 245.554 157.007 245.718 157.088C246.05 157.241 246.43 157.257 246.775 157.132C246.87 157.102 246.958 157.051 247.031 156.982C247.132 156.857 247.179 156.697 247.164 156.537C247.168 156.357 247.13 156.179 247.053 156.016C246.977 155.853 246.865 155.709 246.725 155.597C246.58 155.49 246.404 155.432 246.224 155.432C246.044 155.432 245.868 155.49 245.723 155.597" fill="url(#paint42_linear)"/>
<path d="M249.123 156.353C248.944 156.385 248.781 156.478 248.663 156.616C248.544 156.754 248.477 156.928 248.472 157.11C248.476 157.293 248.53 157.47 248.628 157.624C248.726 157.778 248.865 157.903 249.028 157.984C249.361 158.137 249.741 158.153 250.085 158.028C250.18 157.999 250.266 157.948 250.336 157.878C250.437 157.753 250.487 157.593 250.475 157.433C250.477 157.253 250.438 157.075 250.362 156.912C250.286 156.75 250.174 156.606 250.035 156.492C249.89 156.386 249.715 156.328 249.534 156.328C249.354 156.328 249.179 156.386 249.034 156.492" fill="url(#paint43_linear)"/>
<path d="M248.127 159.113C247.948 159.144 247.784 159.237 247.666 159.375C247.547 159.513 247.48 159.688 247.476 159.87C247.48 160.052 247.534 160.231 247.632 160.385C247.73 160.539 247.869 160.663 248.032 160.743C248.197 160.821 248.375 160.864 248.557 160.872C248.738 160.88 248.919 160.851 249.09 160.788C249.215 160.751 249.323 160.671 249.395 160.562C249.468 160.453 249.499 160.322 249.485 160.193C249.486 160.013 249.446 159.835 249.369 159.672C249.292 159.509 249.18 159.366 249.04 159.252C248.896 159.145 248.721 159.087 248.542 159.087C248.362 159.087 248.188 159.145 248.044 159.252" fill="url(#paint44_linear)"/>
<path d="M243.347 170.275C232.052 177.164 223.427 200.801 219.12 213.303C217.451 218.128 216.232 223.681 215.053 229.384C213.172 238.498 211.397 247.991 208.175 255.48C200.268 273.842 188.444 280.386 183.693 299.994H179.914C178.87 290.927 175.811 282.209 170.962 274.477C162.454 260.566 147.102 245.047 140.803 229.406C140.214 227.951 139.701 226.465 139.268 224.955C135.439 211.473 136.313 172.373 149.456 172.373C137.832 176.824 139.29 199.638 138.995 213.125C138.899 218.728 140.039 224.283 142.334 229.395C145.494 236.757 150.485 243.456 155.298 250.99C163.355 263.615 174.706 272.257 182.647 293.373L200.786 264.789C203.29 260.844 205.794 256.877 207.558 252.548C210.34 245.626 211.914 237.263 213.556 229.395C214.157 226.485 214.769 223.647 215.453 220.971C219.788 204.033 225.38 190.924 236.954 175.211C238.729 172.762 242.484 167.382 243.347 170.275Z" fill="url(#paint45_linear)"/>
<defs>
<linearGradient id="paint0_linear" x1="227.372" y1="353.333" x2="227.372" y2="67.3752" gradientUnits="userSpaceOnUse">
<stop stop-color="#68E1FD"/>
<stop offset="0.3" stop-color="#58A0BA"/>
<stop offset="0.55" stop-color="#4C718A"/>
<stop offset="0.68" stop-color="#485F77"/>
<stop offset="0.69" stop-color="#475C74"/>
<stop offset="0.87" stop-color="#41455E"/>
<stop offset="0.99" stop-color="#3F3D56"/>
</linearGradient>
<linearGradient id="paint1_linear" x1="421.543" y1="112.691" x2="395.625" y2="112.691" gradientUnits="userSpaceOnUse">
<stop/>
<stop offset="0.99" stop-opacity="0"/>
</linearGradient>
<linearGradient id="paint2_linear" x1="31735.4" y1="25553.7" x2="29332.2" y2="25201" gradientUnits="userSpaceOnUse">
<stop/>
<stop offset="0.99" stop-opacity="0"/>
</linearGradient>
<linearGradient id="paint3_linear" x1="19676.7" y1="16796" x2="18273.5" y2="15804.2" gradientUnits="userSpaceOnUse">
<stop/>
<stop offset="0.99" stop-opacity="0"/>
</linearGradient>
<linearGradient id="paint4_linear" x1="127508" y1="83281.5" x2="127211" y2="32335.7" gradientUnits="userSpaceOnUse">
<stop/>
<stop offset="0.99" stop-opacity="0"/>
</linearGradient>
<linearGradient id="paint5_linear" x1="110923" y1="87566.5" x2="112346" y2="26935.8" gradientUnits="userSpaceOnUse">
<stop/>
<stop offset="0.99" stop-opacity="0"/>
</linearGradient>
<linearGradient id="paint6_linear" x1="203.006" y1="165.217" x2="272.426" y2="165.217" gradientUnits="userSpaceOnUse">
<stop stop-color="#183866"/>
<stop offset="1" stop-color="#1A7FC1"/>
</linearGradient>
<linearGradient id="paint7_linear" x1="18981" y1="29862.9" x2="45290.4" y2="29862.9" gradientUnits="userSpaceOnUse">
<stop stop-color="#183866"/>
<stop offset="1" stop-color="#1A7FC1"/>
</linearGradient>
<linearGradient id="paint8_linear" x1="40188.1" y1="28013.9" x2="55860.6" y2="28013.9" gradientUnits="userSpaceOnUse">
<stop stop-color="#183866"/>
<stop offset="1" stop-color="#1A7FC1"/>
</linearGradient>
<linearGradient id="paint9_linear" x1="97.0633" y1="157.366" x2="196.842" y2="157.366" gradientUnits="userSpaceOnUse">
<stop stop-color="#A8EEFD"/>
<stop offset="1" stop-color="#E7FAFF"/>
</linearGradient>
<linearGradient id="paint10_linear" x1="133463" y1="20518.2" x2="133463" y2="40406.9" gradientUnits="userSpaceOnUse">
<stop stop-color="#0E538C"/>
<stop offset="0.99" stop-color="#0E538C" stop-opacity="0"/>
</linearGradient>
<linearGradient id="paint11_linear" x1="129417" y1="9242.63" x2="129417" y2="12078" gradientUnits="userSpaceOnUse">
<stop stop-color="#0E538C"/>
<stop offset="1" stop-color="#0E538C" stop-opacity="0"/>
</linearGradient>
<linearGradient id="paint12_linear" x1="29101.1" y1="35728.1" x2="37228.9" y2="35728.1" gradientUnits="userSpaceOnUse">
<stop stop-color="#183866"/>
<stop offset="1" stop-color="#1A7FC1"/>
</linearGradient>
<linearGradient id="paint13_linear" x1="14505.4" y1="35278.3" x2="23535.6" y2="35278.3" gradientUnits="userSpaceOnUse">
<stop stop-color="#183866"/>
<stop offset="1" stop-color="#1A7FC1"/>
</linearGradient>
<linearGradient id="paint14_linear" x1="150.641" y1="86.661" x2="149.884" y2="119.19" gradientUnits="userSpaceOnUse">
<stop stop-color="#ECC4D7"/>
<stop offset="0.9999" stop-color="#EFD4D1"/>
</linearGradient>
<linearGradient id="paint15_linear" x1="4140.68" y1="3300.36" x2="4578.16" y2="3300.36" gradientUnits="userSpaceOnUse">
<stop stop-color="#ECC4D7"/>
<stop offset="0.42" stop-color="#EFD4D1"/>
<stop offset="1" stop-color="#F2EAC9"/>
</linearGradient>
<linearGradient id="paint16_linear" x1="16996.3" y1="7749.37" x2="16882.7" y2="10590.2" gradientUnits="userSpaceOnUse">
<stop stop-color="#ECC4D7"/>
<stop offset="0.42" stop-color="#EFD4D1"/>
<stop offset="1" stop-color="#F2EAC9"/>
</linearGradient>
<linearGradient id="paint17_linear" x1="7942.01" y1="3118.33" x2="8379.18" y2="3118.33" gradientUnits="userSpaceOnUse">
<stop stop-color="#ECC4D7"/>
<stop offset="0.42" stop-color="#EFD4D1"/>
<stop offset="1" stop-color="#F2EAC9"/>
</linearGradient>
<linearGradient id="paint18_linear" x1="2924.2" y1="4782.8" x2="3273.55" y2="4782.8" gradientUnits="userSpaceOnUse">
<stop stop-color="#68E1FD"/>
<stop offset="0.3" stop-color="#58A0BA"/>
<stop offset="0.55" stop-color="#4C718A"/>
<stop offset="0.68" stop-color="#485F77"/>
<stop offset="0.69" stop-color="#475C74"/>
<stop offset="0.87" stop-color="#41455E"/>
<stop offset="0.99" stop-color="#3F3D56"/>
</linearGradient>
<linearGradient id="paint19_linear" x1="5303.69" y1="6281.44" x2="6436.22" y2="6281.44" gradientUnits="userSpaceOnUse">
<stop stop-color="#ECC4D7"/>
<stop offset="0.42" stop-color="#EFD4D1"/>
<stop offset="1" stop-color="#F2EAC9"/>
</linearGradient>
<linearGradient id="paint20_linear" x1="4415.62" y1="4703.57" x2="4764.85" y2="4703.57" gradientUnits="userSpaceOnUse">
<stop stop-color="#68E1FD"/>
<stop offset="0.3" stop-color="#58A0BA"/>
<stop offset="0.55" stop-color="#4C718A"/>
<stop offset="0.68" stop-color="#485F77"/>
<stop offset="0.69" stop-color="#475C74"/>
<stop offset="0.87" stop-color="#41455E"/>
<stop offset="0.99" stop-color="#3F3D56"/>
</linearGradient>
<linearGradient id="paint21_linear" x1="7181.8" y1="6175.56" x2="8314.33" y2="6175.56" gradientUnits="userSpaceOnUse">
<stop stop-color="#ECC4D7"/>
<stop offset="0.42" stop-color="#EFD4D1"/>
<stop offset="1" stop-color="#F2EAC9"/>
</linearGradient>
<linearGradient id="paint22_linear" x1="126.381" y1="173.519" x2="166.293" y2="173.519" gradientUnits="userSpaceOnUse">
<stop stop-color="#68E1FD"/>
<stop offset="0.3" stop-color="#58A0BA"/>
<stop offset="0.55" stop-color="#4C718A"/>
<stop offset="0.68" stop-color="#485F77"/>
<stop offset="0.71" stop-color="#44516A"/>
<stop offset="0.75" stop-color="#41465E"/>
<stop offset="0.81" stop-color="#3F3F58"/>
<stop offset="0.99" stop-color="#3F3D56"/>
</linearGradient>
<linearGradient id="paint23_linear" x1="9716.44" y1="4000.14" x2="9736.14" y2="4481.48" gradientUnits="userSpaceOnUse">
<stop stop-color="#68E1FD"/>
<stop offset="0.3" stop-color="#58A0BA"/>
<stop offset="0.55" stop-color="#4C718A"/>
<stop offset="0.68" stop-color="#485F77"/>
<stop offset="0.71" stop-color="#44516A"/>
<stop offset="0.75" stop-color="#41465E"/>
<stop offset="0.81" stop-color="#3F3F58"/>
<stop offset="0.99" stop-color="#3F3D56"/>
</linearGradient>
<linearGradient id="paint24_linear" x1="4388.28" y1="13777.9" x2="4575.44" y2="8394.69" gradientUnits="userSpaceOnUse">
<stop/>
<stop offset="0.99" stop-opacity="0"/>
</linearGradient>
<linearGradient id="paint25_linear" x1="3915.48" y1="13278.3" x2="4193.22" y2="8124.72" gradientUnits="userSpaceOnUse">
<stop/>
<stop offset="0.99" stop-opacity="0"/>
</linearGradient>
<linearGradient id="paint26_linear" x1="2854.05" y1="6411.18" x2="3192.72" y2="6411.18" gradientUnits="userSpaceOnUse">
<stop stop-color="#ECC4D7"/>
<stop offset="0.42" stop-color="#EFD4D1"/>
<stop offset="1" stop-color="#F2EAC9"/>
</linearGradient>
<linearGradient id="paint27_linear" x1="4519.82" y1="6424.59" x2="4869.86" y2="6424.59" gradientUnits="userSpaceOnUse">
<stop stop-color="#ECC4D7"/>
<stop offset="0.42" stop-color="#EFD4D1"/>
<stop offset="1" stop-color="#F2EAC9"/>
</linearGradient>
<linearGradient id="paint28_linear" x1="6362.83" y1="15239.2" x2="5153.25" y2="14774.8" gradientUnits="userSpaceOnUse">
<stop/>
<stop offset="0.99" stop-opacity="0"/>
</linearGradient>
<linearGradient id="paint29_linear" x1="8995.81" y1="15390.4" x2="10579.1" y2="15069.4" gradientUnits="userSpaceOnUse">
<stop/>
<stop offset="0.99" stop-opacity="0"/>
</linearGradient>
<linearGradient id="paint30_linear" x1="7365.3" y1="6147.78" x2="7677.44" y2="6147.78" gradientUnits="userSpaceOnUse">
<stop stop-color="#ECC4D7"/>
<stop offset="0.42" stop-color="#EFD4D1"/>
<stop offset="1" stop-color="#F2EAC9"/>
</linearGradient>
<linearGradient id="paint31_linear" x1="5663.63" y1="5874.77" x2="5976.43" y2="5874.77" gradientUnits="userSpaceOnUse">
<stop stop-color="#ECC4D7"/>
<stop offset="0.42" stop-color="#EFD4D1"/>
<stop offset="1" stop-color="#F2EAC9"/>
</linearGradient>
<linearGradient id="paint32_linear" x1="14927.8" y1="14930.5" x2="16410.5" y2="14019" gradientUnits="userSpaceOnUse">
<stop/>
<stop offset="0.99" stop-opacity="0"/>
</linearGradient>
<linearGradient id="paint33_linear" x1="10893.3" y1="13586.1" x2="12611.6" y2="14211.6" gradientUnits="userSpaceOnUse">
<stop/>
<stop offset="0.99" stop-opacity="0"/>
</linearGradient>
<linearGradient id="paint34_linear" x1="16917.3" y1="11567.3" x2="19682" y2="11567.3" gradientUnits="userSpaceOnUse">
<stop stop-color="#68E1FD"/>
<stop offset="0.3" stop-color="#58A0BA"/>
<stop offset="0.55" stop-color="#4C718A"/>
<stop offset="0.68" stop-color="#485F77"/>
<stop offset="0.71" stop-color="#44516A"/>
<stop offset="0.75" stop-color="#41465E"/>
<stop offset="0.81" stop-color="#3F3F58"/>
<stop offset="0.99" stop-color="#3F3D56"/>
</linearGradient>
<linearGradient id="paint35_linear" x1="10781.8" y1="8757.21" x2="11886.7" y2="8757.21" gradientUnits="userSpaceOnUse">
<stop stop-color="#68E1FD"/>
<stop offset="0.3" stop-color="#58A0BA"/>
<stop offset="0.55" stop-color="#4C718A"/>
<stop offset="0.68" stop-color="#485F77"/>
<stop offset="0.71" stop-color="#44516A"/>
<stop offset="0.75" stop-color="#41465E"/>
<stop offset="0.81" stop-color="#3F3F58"/>
<stop offset="0.99" stop-color="#3F3D56"/>
</linearGradient>
<linearGradient id="paint36_linear" x1="9959.38" y1="5761.99" x2="10740.2" y2="5761.99" gradientUnits="userSpaceOnUse">
<stop stop-color="#ECC4D7"/>
<stop offset="0.42" stop-color="#EFD4D1"/>
<stop offset="1" stop-color="#F2EAC9"/>
</linearGradient>
<linearGradient id="paint37_linear" x1="3308.54" y1="4551.49" x2="3405.11" y2="4551.49" gradientUnits="userSpaceOnUse">
<stop stop-color="#ECC4D7"/>
<stop offset="0.42" stop-color="#EFD4D1"/>
<stop offset="1" stop-color="#F2EAC9"/>
</linearGradient>
<linearGradient id="paint38_linear" x1="240.365" y1="144.412" x2="185.896" y2="214.004" gradientUnits="userSpaceOnUse">
<stop stop-color="#68E1FD"/>
<stop offset="0.08" stop-color="#84E6FD"/>
<stop offset="0.21" stop-color="#A9EEFE"/>
<stop offset="0.35" stop-color="#C8F4FE"/>
<stop offset="0.49" stop-color="#E0F9FF"/>
<stop offset="0.64" stop-color="#F2FCFF"/>
<stop offset="0.8" stop-color="#FCFEFF"/>
<stop offset="1" stop-color="white"/>
</linearGradient>
<linearGradient id="paint39_linear" x1="16514.6" y1="7172.17" x2="16835.3" y2="11011.8" gradientUnits="userSpaceOnUse">
<stop stop-color="#68E1FD"/>
<stop offset="0.08" stop-color="#84E6FD"/>
<stop offset="0.21" stop-color="#A9EEFE"/>
<stop offset="0.35" stop-color="#C8F4FE"/>
<stop offset="0.49" stop-color="#E0F9FF"/>
<stop offset="0.64" stop-color="#F2FCFF"/>
<stop offset="0.8" stop-color="#FCFEFF"/>
<stop offset="1" stop-color="white"/>
</linearGradient>
<linearGradient id="paint40_linear" x1="5852.97" y1="4461.43" x2="6160.85" y2="4461.43" gradientUnits="userSpaceOnUse">
<stop stop-color="#ECC4D7"/>
<stop offset="0.42" stop-color="#EFD4D1"/>
<stop offset="1" stop-color="#F2EAC9"/>
</linearGradient>
<linearGradient id="paint41_linear" x1="1121.88" y1="730.454" x2="1142.04" y2="728.297" gradientUnits="userSpaceOnUse">
<stop stop-color="#68E1FD"/>
<stop offset="0.3" stop-color="#58A0BA"/>
<stop offset="0.55" stop-color="#4C718A"/>
<stop offset="0.68" stop-color="#485F77"/>
<stop offset="0.71" stop-color="#44516A"/>
<stop offset="0.75" stop-color="#41465E"/>
<stop offset="0.81" stop-color="#3F3F58"/>
<stop offset="0.99" stop-color="#3F3D56"/>
</linearGradient>
<linearGradient id="paint42_linear" x1="1129.45" y1="714.353" x2="1149.64" y2="712.192" gradientUnits="userSpaceOnUse">
<stop stop-color="#68E1FD"/>
<stop offset="0.3" stop-color="#58A0BA"/>
<stop offset="0.55" stop-color="#4C718A"/>
<stop offset="0.68" stop-color="#485F77"/>
<stop offset="0.71" stop-color="#44516A"/>
<stop offset="0.75" stop-color="#41465E"/>
<stop offset="0.81" stop-color="#3F3F58"/>
<stop offset="0.99" stop-color="#3F3D56"/>
</linearGradient>
<linearGradient id="paint43_linear" x1="1144.3" y1="718.118" x2="1164.46" y2="715.959" gradientUnits="userSpaceOnUse">
<stop stop-color="#68E1FD"/>
<stop offset="0.3" stop-color="#58A0BA"/>
<stop offset="0.55" stop-color="#4C718A"/>
<stop offset="0.68" stop-color="#485F77"/>
<stop offset="0.71" stop-color="#44516A"/>
<stop offset="0.75" stop-color="#41465E"/>
<stop offset="0.81" stop-color="#3F3F58"/>
<stop offset="0.99" stop-color="#3F3D56"/>
</linearGradient>
<linearGradient id="paint44_linear" x1="1142.9" y1="730.52" x2="1163.13" y2="728.349" gradientUnits="userSpaceOnUse">
<stop stop-color="#68E1FD"/>
<stop offset="0.3" stop-color="#58A0BA"/>
<stop offset="0.55" stop-color="#4C718A"/>
<stop offset="0.68" stop-color="#485F77"/>
<stop offset="0.71" stop-color="#44516A"/>
<stop offset="0.75" stop-color="#41465E"/>
<stop offset="0.81" stop-color="#3F3F58"/>
<stop offset="0.99" stop-color="#3F3D56"/>
</linearGradient>
<linearGradient id="paint45_linear" x1="26512.9" y1="59435" x2="46730.4" y2="59435" gradientUnits="userSpaceOnUse">
<stop stop-color="#A8EEFD"/>
<stop offset="1" stop-color="#E7FAFF"/>
</linearGradient>
</defs>
</svg>
