<svg width="107" height="132" viewBox="0 0 107 132" fill="none" xmlns="http://www.w3.org/2000/svg">
<path d="M98.9589 103.324L100.087 105.742L76.0717 116.702L74.9434 114.123C70.2692 103.969 61.4045 95.5878 50.7667 91.0748C41.5796 87.2066 35.1325 79.7924 32.2313 70.4441C28.2019 56.2605 34.8102 38.2085 51.2503 30.6332C68.4963 22.7355 88.4823 29.9885 96.0577 46.2674C99.4424 53.6816 99.926 62.224 97.0248 70.1217C93.1565 80.9206 93.9624 92.5254 98.9589 103.324Z" fill="#9C0001"/>
<path d="M105.739 117.662C107.028 120.402 105.739 123.626 102.838 124.915L88.9765 131.201C86.0753 132.491 82.8517 131.362 81.5623 128.461L78.6611 122.175L102.677 111.215L105.739 117.662Z" fill="#9C0001"/>
<path d="M41.6711 2.59543L35.9521 5.2041L41.9721 18.4017L47.6911 15.793L41.6711 2.59543Z" fill="#9C0001"/>
<path d="M84.7783 13.7001L90.5807 15.7954L96.0607 2.09532L90.2583 0L84.7783 13.7001Z" fill="#9C0001"/>
<path d="M14.8096 86.9519L1.02539 93.2395L3.56716 98.8118L17.3513 92.5242L14.8096 86.9519Z" fill="#9C0001"/>
<path d="M2.25653 40.1345L0 45.9369L13.8613 50.7722L15.9566 44.9698L2.25653 40.1345Z" fill="#9C0001"/>
</svg>
