<svg width="65" height="65" viewBox="0 0 65 65" fill="none" xmlns="http://www.w3.org/2000/svg">
<path d="M32.5 65C50.4492 65 65 50.4492 65 32.5C65 14.5507 50.4492 0 32.5 0C14.5507 0 0 14.5507 0 32.5C0 50.4492 14.5507 65 32.5 65Z" fill="#0F0000"/>
<path d="M51 15H14V51H51V15Z" fill="white"/>
<path d="M41.0491 19.5H23.9509C22.6382 19.5011 21.3796 20.0231 20.4513 20.9513C19.5231 21.8796 19.0011 23.1382 19 24.4509V41.5448C19.0011 42.8579 19.523 44.117 20.4511 45.0459C21.3792 45.9748 22.6378 46.4977 23.9509 46.5H41.0491C42.3622 46.4977 43.6208 45.9748 44.5489 45.0459C45.477 44.117 45.9989 42.8579 46 41.5448V24.4509C45.9977 23.1386 45.4754 21.8806 44.5474 20.9526C43.6194 20.0246 42.3615 19.5023 41.0491 19.5ZM32.4979 41.8857C30.74 41.8857 29.0217 41.3644 27.5601 40.3878C26.0985 39.4112 24.9593 38.0231 24.2866 36.3991C23.6139 34.775 23.4379 32.988 23.7808 31.2639C24.1238 29.5399 24.9703 27.9562 26.2132 26.7132C27.4562 25.4703 29.0399 24.6238 30.7639 24.2808C32.488 23.9379 34.275 24.1139 35.8991 24.7866C37.5231 25.4593 38.9112 26.5985 39.8878 28.0601C40.8644 29.5217 41.3857 31.24 41.3857 32.9979C41.3823 35.354 40.4448 37.6127 38.7788 39.2788C37.1127 40.9448 34.854 41.8823 32.4979 41.8857ZM41.6754 25.9464C41.2587 25.9473 40.8512 25.8244 40.5044 25.5935C40.1577 25.3625 39.8872 25.0339 39.7274 24.6491C39.5676 24.2643 39.5255 23.8408 39.6066 23.4321C39.6877 23.0234 39.8882 22.648 40.1828 22.3533C40.4774 22.0587 40.8529 21.8582 41.2616 21.7771C41.6702 21.696 42.0938 21.7381 42.4786 21.8979C42.8633 22.0577 43.192 22.3282 43.423 22.675C43.6539 23.0217 43.7768 23.4293 43.7759 23.8459C43.7748 24.4027 43.5531 24.9363 43.1594 25.33C42.7658 25.7236 42.2321 25.9453 41.6754 25.9464Z" fill="#0F0000"/>
<path d="M32.4771 27.5C31.3903 27.5045 30.3292 27.8309 29.4277 28.438C28.5263 29.0451 27.8249 29.9057 27.4121 30.9111C26.9993 31.9165 26.8937 33.0216 27.1085 34.087C27.3233 35.1524 27.8489 36.1303 28.619 36.8972C29.3891 37.6641 30.3691 38.1856 31.4354 38.396C32.5017 38.6063 33.6064 38.4961 34.61 38.0791C35.6137 37.6622 36.4713 36.9572 37.0746 36.0533C37.678 35.1493 38 34.0868 38 33C37.9939 31.5392 37.4094 30.1403 36.3743 29.1095C35.3392 28.0787 33.9379 27.5 32.4771 27.5Z" fill="#0F0000"/>
<path d="M32.5 5C27.061 5 21.7442 6.64217 17.2218 9.71885C12.6995 12.7955 9.17473 17.1685 7.09332 22.2849C5.01192 27.4012 4.46732 33.0311 5.52842 38.4625C6.58951 43.894 9.20863 48.8831 13.0546 52.799C16.9005 56.7148 21.8005 59.3816 27.135 60.462C32.4695 61.5424 37.9988 60.9879 43.0238 58.8686C48.0488 56.7494 52.3437 53.1605 55.3654 48.556C58.3871 43.9514 60 38.5379 60 33C60 25.5739 57.1027 18.452 51.9454 13.201C46.7882 7.94999 39.7935 5 32.5 5ZM49.0441 41.4183C49.042 43.6716 48.1621 45.8321 46.5976 47.4259C45.0331 49.0196 42.9116 49.9165 40.6985 49.9198H24.3056C22.0918 49.9176 19.9692 49.0212 18.4038 47.4273C16.8384 45.8335 15.9581 43.6724 15.9559 41.4183V24.7314C15.9581 22.4774 16.8384 20.3163 18.4038 18.7224C19.9692 17.1285 22.0918 16.2321 24.3056 16.2299H40.6985C42.9116 16.2332 45.0331 17.1301 46.5976 18.7239C48.1621 20.3176 49.042 22.4781 49.0441 24.7314V41.4183Z" fill="#0F0000"/>
</svg>
