<svg width="65" height="65" viewBox="0 0 65 65" fill="none" xmlns="http://www.w3.org/2000/svg">
<path d="M32.5 65C50.4492 65 65 50.4492 65 32.5C65 14.5507 50.4492 0 32.5 0C14.5507 0 0 14.5507 0 32.5C0 50.4492 14.5507 65 32.5 65Z" fill="#0F0000"/>
<path d="M46 33.5546V44H40.213V34.2559C40.213 31.8061 39.3759 30.1371 37.2859 30.1371C35.6877 30.1371 34.7363 31.264 34.3178 32.3511C34.1672 32.8265 34.1017 33.3269 34.1246 33.8272V44H28.3288C28.3288 44 28.4079 27.4944 28.3288 25.7856H34.1187V28.3671C34.107 28.3872 34.0943 28.4066 34.0807 28.4253H34.1187V28.3671C34.8886 27.1269 36.2614 25.3569 39.3378 25.3569C43.1431 25.3569 46 27.9629 46 33.5546ZM22.2755 17C20.2938 17 19 18.3596 19 20.148C19 21.9364 20.2557 23.293 22.1994 23.293H22.2374C24.2572 23.293 25.5129 21.8966 25.5129 20.148C25.5129 18.3995 24.2572 17 22.2755 17ZM19.3483 43.9939H25.1324V25.7856H19.3454L19.3483 43.9939Z" fill="white"/>
</svg>
