<svg width="531" height="154" viewBox="0 0 531 154" fill="none" xmlns="http://www.w3.org/2000/svg">
<path d="M70.3987 51.4335V75.5022H42.6603H41.7692L32.0728 85.0645V109.047H42.6603V85.0645H70.3987V109.047H80.9862V51.4335H70.3987Z" fill="white"/>
<path d="M123.682 51.558L94.9277 109.047H105.946L123.682 73.5954L131.836 89.8839H142.854L123.682 51.558Z" fill="white"/>
<path d="M147.664 99.4846H136.635L141.416 109.047H152.445L147.664 99.4846Z" fill="white"/>
<path d="M184.504 61.2736C189.764 61.2736 194.526 63.4103 197.966 66.8596L205.277 60.4592C200.065 54.969 192.677 51.558 184.504 51.558C168.628 51.558 155.76 64.4259 155.76 80.3024C155.76 96.179 168.628 109.047 184.504 109.047C188.442 109.047 192.189 108.252 195.6 106.824L185.261 99.3121C185.012 99.3217 184.763 99.3313 184.504 99.3313C173.993 99.3313 165.475 90.8133 165.475 80.3024C165.475 69.7915 173.993 61.2736 184.504 61.2736Z" fill="white"/>
<path d="M250.636 51.558H236.264L207.519 80.3024L236.264 109.047H250.636L221.891 80.3024L250.636 51.558Z" fill="white"/>
<path d="M418.312 51.558H399.13H391.426H389.558V109.047H399.13V61.1107H418.312V51.558Z" fill="white"/>
<path d="M455.077 51.558H435.559H425.978L435.559 61.1011V61.1395H455.067V61.1491C460.203 61.3215 464.323 65.5374 464.323 70.721C464.323 75.895 460.203 80.1204 455.067 80.2929V80.3024H436.469H428.9H425.978V109.047H436.469V89.836H455.067C465.645 89.836 474.211 81.2702 474.211 70.6922C474.211 60.1238 465.654 51.558 455.077 51.558Z" fill="white"/>
<path d="M530.416 82.6978L494.964 45.8091V119.587L530.416 82.6978Z" fill="white"/>
<path d="M481.923 121.963V43.4329L519.665 82.6978L481.923 121.963ZM483.84 48.1853V117.201L517.001 82.6978L483.84 48.1853Z" fill="white"/>
<path d="M296.646 51.558V86.0513L258.301 51.558V65.9302L306.209 109.047H307.176V51.558H296.646Z" fill="white"/>
<path d="M26.286 78.2808C17.8926 78.2808 11.061 71.4492 11.061 63.0558C11.061 54.6624 17.8926 47.8308 26.286 47.8308C34.6794 47.8308 41.511 54.6624 41.511 63.0558C41.511 71.4492 34.6794 78.2808 26.286 78.2808ZM26.286 48.789C18.4196 48.789 12.0192 55.1894 12.0192 63.0558C12.0192 70.9222 18.4196 77.3226 26.286 77.3226C34.1524 77.3226 40.5529 70.9222 40.5529 63.0558C40.5529 55.1894 34.1524 48.789 26.286 48.789Z" fill="white"/>
<path d="M52.4718 51.8166C51.6861 50.1302 45.851 51.0692 37.8025 53.8574C38.4732 54.691 39.0481 55.5917 39.5176 56.5594C40.5141 56.4923 41.1465 56.6456 41.3285 57.0289C41.5201 57.4313 41.1848 58.0541 40.4183 58.8302C38.4253 60.8519 33.5292 63.8988 27.5216 66.7062C22.1272 69.2357 17.164 70.9412 14.1554 71.4299C12.5266 71.6982 11.4726 71.6119 11.2331 71.0945C11.0031 70.6059 11.5493 69.7914 12.699 68.7758C12.3062 67.8656 12.0092 66.8978 11.8175 65.9014C4.06611 70.4813 -0.724634 74.563 0.0897926 76.3069C0.923382 78.089 7.40047 76.9392 16.1675 73.7773C19.9235 72.4168 24.101 70.6921 28.4318 68.6704C33.098 66.4858 37.3809 64.2246 40.9932 62.0783C48.6009 57.5559 53.2766 53.5412 52.4718 51.8166Z" fill="white"/>
<path d="M347.419 86.1376H347.409V92.6913H350.494H353.58V86.1376H353.56C355.956 85.2465 357.978 83.3302 359.233 80.8294L374.668 91.187V71.7845L368.891 61.149C369.121 58.265 369.245 55.2948 369.245 52.2766C369.245 27.8246 361.369 7.09988 350.494 0C339.619 7.09988 331.743 27.8246 331.743 52.2766C331.743 55.2948 331.868 58.2554 332.098 61.149L326.32 71.7845V91.187L341.756 80.8294C343.011 83.3302 345.023 85.2465 347.419 86.1376ZM350.485 34.388C355.189 34.388 359.012 38.2014 359.012 42.9155C359.012 47.62 355.189 51.4334 350.485 51.4334C345.78 51.4334 341.957 47.62 341.957 42.9155C341.957 38.2014 345.78 34.388 350.485 34.388Z" fill="white"/>
<path d="M412.467 130.126H408.597H396.61C397.607 128.794 398.162 127.338 398.162 125.795C398.162 120.42 391.455 115.974 382.669 115.122C382.669 115.064 382.679 115.016 382.679 114.959C382.679 108.76 374.017 103.538 362.203 101.928V94.6461L355.544 90.8326V94.6461V101.43C355.199 101.42 354.854 101.42 354.499 101.42C354.193 101.42 353.896 101.43 353.599 101.43V94.6557H350.494H347.39V101.861C346.729 101.947 346.077 102.033 345.445 102.139V94.6557V90.8326L338.786 94.6461V103.72C332.031 105.904 327.355 109.459 326.474 113.55C324.682 113.225 322.785 113.043 320.811 113.043C310.76 113.043 302.462 117.594 300.977 123.534C300.431 123.486 299.875 123.458 299.31 123.458C293.312 123.458 288.157 126.207 285.963 130.126H248.471C251.058 135.933 260.994 140.254 272.856 140.254C275.826 140.254 278.672 139.986 281.316 139.487C284.957 147.306 299.598 153.16 317.112 153.16C333.037 153.16 346.585 148.322 351.654 141.567C352.583 141.653 353.522 141.71 354.499 141.71C355.228 141.71 355.946 141.682 356.655 141.634C360.89 146.808 372.647 149.251 385.84 147.172C399.264 145.073 409.852 138.97 412.046 132.637C415.706 134.045 421.857 134.965 428.833 134.965C439.43 134.965 448.12 132.838 449.059 130.126H412.467Z" fill="white"/>
<path d="M41.1085 5.5188L34.2769 29.6258H31.5845L25.5098 9.07353L19.301 29.6354L16.6757 29.6737L9.98779 5.52838H12.5748L18.0937 26.6747L24.2642 5.52838H26.9566L32.9546 26.6747L38.5119 5.52838H41.1085V5.5188Z" fill="white"/>
<path d="M47.2124 5.5188V29.6258H44.7979V5.5188H47.2124Z" fill="white"/>
<path d="M70.8685 29.6354H68.4539L55.1069 9.35139V29.6354H52.6924V5.5188H55.1069L68.4539 25.7741V5.5188H70.8685V29.6354Z" fill="white"/>
<path d="M90.4629 5.5188V7.52133H83.775V29.6354H81.3605V7.52133H74.6343V5.5188H90.4629Z" fill="white"/>
<path d="M96.7099 7.49264V16.4992H105.851V18.5018H96.7099V27.6425H106.885V29.645H94.2954V5.49011H106.885V7.49264H96.7099Z" fill="white"/>
<path d="M124.467 29.6354L118.498 19.5653H114.052V29.6354H111.638V5.5188H118.881C121.574 5.5188 123.615 6.16076 125.004 7.45426C126.393 8.73818 127.093 10.4341 127.093 12.5229C127.093 14.2667 126.594 15.7614 125.588 16.9878C124.592 18.2143 123.107 19.0191 121.152 19.3832L127.361 29.6258H124.467V29.6354ZM114.052 17.5915H118.92C120.807 17.5915 122.225 17.1316 123.183 16.2117C124.142 15.2919 124.611 14.0655 124.611 12.5229C124.611 10.9323 124.151 9.71549 123.231 8.85316C122.311 7.99082 120.865 7.55966 118.881 7.55966H114.052V17.5915Z" fill="white"/>
<path d="M142.203 12.9732H139.405L142.404 5.5188H144.167L142.203 12.9732Z" fill="white"/>
<path d="M156.949 19.2012C159.258 16.6813 160.417 14.2189 160.417 11.8043C160.417 10.2138 160.024 8.94904 159.229 7.9909C158.434 7.03275 157.14 6.56325 155.349 6.56325C153.605 6.56325 152.254 7.1094 151.296 8.20169C150.338 9.29398 149.811 10.7504 149.696 12.5613H147.348C147.482 10.0126 148.278 8.02922 149.715 6.61116C151.152 5.1931 153.03 4.49365 155.358 4.49365C157.591 4.49365 159.392 5.11645 160.772 6.37162C162.152 7.6268 162.841 9.39937 162.841 11.6989C162.841 14.4776 161.682 17.1795 159.373 19.7857C157.064 22.3919 154.218 24.9405 150.836 27.4221H163.598V29.4534H147.147V27.7288C151.363 24.5669 154.64 21.7212 156.949 19.2012Z" fill="white"/>
<path d="M166.175 7.07118V4.90576H172.039V29.6356H169.586V7.07118H166.175Z" fill="white"/>
</svg>
