<svg width="64" height="65" viewBox="0 0 64 65" fill="none" xmlns="http://www.w3.org/2000/svg">
<path d="M32 65C49.6731 65 64 50.4492 64 32.5C64 14.5507 49.6731 0 32 0C14.3269 0 0 14.5507 0 32.5C0 50.4492 14.3269 65 32 65Z" fill="#0F0000"/>
<path d="M51 20.6592C49.6138 21.2867 48.1446 21.6971 46.641 21.877C48.2233 20.9012 49.41 19.3677 49.9818 17.5597C48.4906 18.4709 46.8598 19.1134 45.1595 19.4596C44.0141 18.2073 42.5009 17.3787 40.8536 17.102C39.2063 16.8252 37.5165 17.1156 36.0452 17.9282C34.5738 18.7409 33.4026 20.0306 32.7125 21.5984C32.0225 23.1661 31.8518 24.9246 32.227 26.6023C29.2093 26.446 26.2572 25.6366 23.5624 24.2266C20.8676 22.8167 18.4905 20.8377 16.5853 18.4183C15.6166 20.1441 15.3216 22.1858 15.7602 24.128C16.1988 26.0702 17.3381 27.7671 18.9463 28.8736C17.7408 28.8346 16.5619 28.4984 15.5081 27.8932V27.9937C15.5087 29.7987 16.1135 31.548 17.2202 32.946C18.3269 34.344 19.8676 35.3049 21.5818 35.6662C20.4648 35.9815 19.2927 36.0284 18.1554 35.8032C18.6401 37.3576 19.5831 38.7172 20.8529 39.692C22.1227 40.6669 23.6559 41.2084 25.2384 41.2409C22.0497 43.8009 18.0134 44.9654 14 44.4834C17.4705 46.7831 21.5092 48.0038 25.6339 48C39.5934 48 47.2283 36.0681 47.2283 25.7224C47.2283 25.3844 47.2283 25.0465 47.2047 24.7116C48.6905 23.6039 49.9727 22.2316 50.9911 20.6592H51Z" fill="white"/>
</svg>
