<svg width="319" height="300" viewBox="0 0 319 300" fill="none" xmlns="http://www.w3.org/2000/svg">
<path opacity="0.18" d="M132.026 3.69058C156.537 -3.61243 184.764 -0.277355 204.92 15.4889C223.243 29.8488 233.048 52.3103 248.261 69.9501C263.103 87.1779 282.918 99.584 297.594 116.958C312.271 134.331 321.126 160.208 309.408 179.696C300.819 193.976 282.411 203.027 280.728 219.601C280.226 224.81 281.517 230.034 281.507 235.267C281.456 256.513 259.788 271.822 238.864 275.509C217.939 279.196 196.347 275.193 175.251 277.614C156.667 279.743 138.902 286.8 120.338 289.241C101.774 291.682 80.6588 288.347 68.8605 273.811C59.9402 262.822 58.0968 247.693 51.0399 235.443C36.2481 209.742 -1.19616 195.236 0.029379 165.628C0.933465 144.145 22.5411 130.388 34.2691 112.387C48.7596 90.1062 49.498 63.4607 69.3477 44.7913C86.8518 28.2918 108.545 10.6822 132.026 3.69058Z" fill="#68E1FD"/>
<path opacity="0.57" d="M54.4151 166.984C47.5943 170.715 40.7785 175.522 37.8051 182.7C33.596 192.891 38.5986 204.93 46.5646 212.56C62.4464 227.768 86.681 229.135 108.67 229.175C141.78 229.238 174.873 228.286 207.949 226.317C218.055 225.714 228.311 224.986 237.844 221.56C250.903 216.864 261.647 207.462 271.953 198.17C277.072 193.559 282.34 188.667 284.726 182.207C289.488 169.329 281.135 155.195 270.934 146.009C254.685 131.493 233.608 123.558 211.822 123.753C210.877 126.767 214.177 129.278 217.035 130.599C226.156 134.808 235.941 137.711 244.414 143.116C252.887 148.52 260.145 157.24 260.276 167.285C260.456 180.716 248.347 190.972 236.357 197.024C208.557 211.058 176.467 213.624 145.326 213.825C126.536 213.961 107.309 213.248 89.7699 206.492C86.0632 205.066 82.0852 202.976 80.8747 199.189C79.9757 196.392 80.8496 193.333 82.0701 190.651C84.0336 186.429 86.8394 182.654 90.315 179.557C93.7907 176.459 97.8629 174.105 102.281 172.639C108.309 170.675 115.054 170.324 120.147 166.557C124.165 163.583 126.792 156.2 122.312 152.744C118.249 149.61 106.34 152.016 101.719 152.463C85.1344 154.07 69.0451 159.009 54.4151 166.984V166.984Z" fill="white"/>
<path d="M30.5321 10.7274L98.876 38.2819C99.904 38.6972 100.785 39.4101 101.405 40.3291C102.025 41.2482 102.356 42.3315 102.357 43.4403V160.037C102.357 160.958 102.128 161.865 101.692 162.676C101.255 163.487 100.623 164.177 99.8537 164.683C99.0843 165.19 98.2011 165.497 97.2835 165.578C96.3659 165.658 95.4426 165.51 94.5967 165.145L24.7811 135.125C23.7758 134.687 22.9224 133.962 22.3281 133.04C21.7338 132.119 21.4251 131.043 21.441 129.946L22.8926 15.8154C22.9037 14.9113 23.1352 14.0235 23.5669 13.229C23.9986 12.4346 24.6176 11.7574 25.3702 11.2562C26.1227 10.755 26.9862 10.4448 27.8857 10.3527C28.7852 10.2606 29.6935 10.3892 30.5321 10.7274Z" fill="#68E1FD"/>
<path d="M26.077 12.4853L94.3858 40.0399C95.4192 40.4499 96.3062 41.1598 96.9328 42.0782C97.5594 42.9965 97.8968 44.0814 97.9016 45.1932V161.795C97.9007 162.716 97.6713 163.622 97.234 164.432C96.7968 165.242 96.1654 165.932 95.3963 166.438C94.6273 166.944 93.7447 167.251 92.8276 167.333C91.9105 167.414 90.9876 167.266 90.1416 166.903L20.326 136.878C19.3168 136.443 18.4588 135.719 17.86 134.797C17.2612 133.876 16.9484 132.798 16.9608 131.699L18.4124 17.5683C18.4227 16.6615 18.6547 15.7709 19.0882 14.9743C19.5216 14.1776 20.1433 13.4991 20.8991 12.9979C21.655 12.4967 22.5219 12.1879 23.4244 12.0986C24.3269 12.0092 25.2376 12.142 26.077 12.4853Z" fill="#68E1FD"/>
<path d="M247.076 10.3055L314.581 37.5285C315.685 37.9726 316.631 38.7352 317.299 39.7193C317.967 40.7033 318.327 41.864 318.333 43.0535V158.726C318.336 159.72 318.092 160.699 317.623 161.575C317.154 162.451 316.474 163.197 315.645 163.745C314.816 164.293 313.864 164.626 312.874 164.714C311.884 164.803 310.888 164.644 309.975 164.251L241.049 134.582C239.961 134.114 239.036 133.334 238.39 132.341C237.745 131.348 237.408 130.186 237.422 129.002L238.864 15.7903C238.878 14.8188 239.128 13.8654 239.592 13.012C240.057 12.1586 240.722 11.4308 241.529 10.8912C242.337 10.3516 243.264 10.0164 244.23 9.91434C245.197 9.81231 246.173 9.94654 247.076 10.3055V10.3055Z" fill="#68E1FD"/>
<path d="M243.058 12.7264L310.523 39.9394C311.631 40.3854 312.58 41.1527 313.249 42.1427C313.917 43.1326 314.275 44.2999 314.275 45.4945V161.147C314.278 162.141 314.034 163.12 313.565 163.996C313.095 164.872 312.416 165.618 311.587 166.166C310.758 166.714 309.806 167.047 308.816 167.135C307.826 167.224 306.83 167.065 305.917 166.672L236.985 137.038C235.897 136.571 234.973 135.791 234.328 134.797C233.684 133.804 233.348 132.642 233.364 131.458L234.8 18.2464C234.806 17.2663 235.052 16.3025 235.516 15.4395C235.981 14.5764 236.65 13.8403 237.464 13.2956C238.279 12.7509 239.215 12.4142 240.19 12.315C241.165 12.2158 242.15 12.357 243.058 12.7264V12.7264Z" fill="#68E1FD"/>
<path d="M26.077 12.4853L94.3858 40.0399C95.4192 40.4499 96.3062 41.1598 96.9328 42.0782C97.5594 42.9965 97.8968 44.0814 97.9016 45.1932V161.795C97.9007 162.716 97.6713 163.622 97.234 164.432C96.7968 165.242 96.1654 165.932 95.3963 166.438C94.6273 166.944 93.7447 167.251 92.8276 167.333C91.9105 167.414 90.9876 167.266 90.1416 166.903L20.326 136.878C19.3168 136.443 18.4588 135.719 17.86 134.797C17.2612 133.876 16.9484 132.798 16.9608 131.699L18.4124 17.5683C18.4227 16.6615 18.6547 15.7709 19.0882 14.9743C19.5216 14.1776 20.1433 13.4991 20.8991 12.9979C21.655 12.4967 22.5219 12.1879 23.4244 12.0986C24.3269 12.0092 25.2376 12.142 26.077 12.4853Z" fill="url(#paint0_linear)"/>
<path d="M243.058 12.7264L310.523 39.9394C311.631 40.3854 312.58 41.1527 313.249 42.1427C313.917 43.1326 314.275 44.2999 314.275 45.4945V161.147C314.278 162.141 314.034 163.12 313.565 163.996C313.095 164.872 312.416 165.618 311.587 166.166C310.758 166.714 309.806 167.047 308.816 167.135C307.826 167.224 306.83 167.065 305.917 166.672L236.985 137.038C235.897 136.571 234.973 135.791 234.328 134.797C233.684 133.804 233.348 132.642 233.364 131.458L234.8 18.2464C234.806 17.2663 235.052 16.3025 235.516 15.4395C235.981 14.5764 236.65 13.8403 237.464 13.2956C238.279 12.7509 239.215 12.4142 240.19 12.315C241.165 12.2158 242.15 12.357 243.058 12.7264V12.7264Z" fill="url(#paint1_linear)"/>
<path d="M219.416 144.984L205.854 146.019L204.257 137.882C203.142 135.436 205.854 146.019 198.481 185.924L194.232 184.96L149.414 174.804L160.289 117.545L141.338 116.264L144.542 98.4539L153.97 99.2575C153.97 99.2575 170.912 97.4895 183.529 99.2575C196.146 101.026 205.046 101.473 211.028 107.63C217.01 113.788 219.416 144.984 219.416 144.984Z" fill="#68E1FD"/>
<path d="M204.257 137.882C203.142 135.436 205.855 146.019 198.481 185.924L194.232 184.96L189.772 183.955C189.772 183.955 194.478 172.905 191.836 170.896C189.194 168.887 176.2 173.754 164.558 174.809C152.915 175.864 154.397 172.614 154.397 172.614C154.397 172.614 165.045 162.93 183.072 157.682C201.098 152.433 201.952 125.396 201.952 125.396L204.257 137.882Z" fill="url(#paint2_linear)"/>
<path d="M176.497 101.904C176.497 101.904 187.868 102.377 192.108 98.9863L195.659 100.965C195.659 100.965 194.689 107.766 189.129 108.67C183.569 109.574 176.487 109.268 176.497 101.904Z" fill="#68E1FD"/>
<path d="M176.497 101.904C176.497 101.904 187.868 102.377 192.108 98.9863L195.659 100.965C195.659 100.965 194.689 107.766 189.129 108.67C183.569 109.574 176.487 109.268 176.497 101.904Z" fill="url(#paint3_linear)"/>
<path d="M166.527 159.314L154.849 155.411C154.849 155.411 153.473 156.32 155.517 157.827C156.384 158.484 157.212 159.19 157.998 159.942L166.527 159.314Z" fill="url(#paint4_linear)"/>
<path d="M177.301 97.0576C177.557 95.0485 177.657 92.8234 178.948 91.2363C179.746 90.3752 180.7 89.6745 181.761 89.1719L190.264 84.4506C191.299 83.878 192.424 83.2853 193.594 83.4461C193.879 83.4703 194.15 83.5748 194.378 83.7474C194.945 84.2145 194.855 85.0985 194.714 85.8268C193.85 90.2167 192.982 94.6065 192.108 98.9963C191.916 100.242 191.559 101.456 191.048 102.608C190.345 103.905 189.292 104.98 188.009 105.71C186.726 106.44 185.265 106.795 183.79 106.736C181.379 106.6 179.114 105.538 177.466 103.773C175.558 101.769 176.989 99.5438 177.301 97.0576Z" fill="url(#paint5_linear)"/>
<path d="M204.976 163.181C206.634 162.945 208.237 162.418 209.712 161.624C212.655 160.047 217.372 157.235 218.291 154.994C219.642 151.684 219.416 144.984 219.416 144.984L205.855 146.019C205.855 146.019 205.97 150.303 204.85 150.454C203.73 150.605 167.717 159.62 167.717 159.62C167.717 159.62 162.147 157.817 157.26 159.696C152.373 161.574 145.17 165.944 147.004 168.234C147.283 168.572 147.633 168.846 148.028 169.037C148.423 169.228 148.855 169.331 149.294 169.339C150.881 169.389 150.258 171.243 151.213 171.946C152.488 172.885 165.166 173.855 169.505 169.349C170.615 168.204 196.894 164.347 204.976 163.181Z" fill="url(#paint6_linear)"/>
<path d="M144.543 98.4489L142.292 110.93C140.124 109.374 137.846 107.976 135.477 106.746C131.489 104.677 122.171 78.6192 122.171 78.6192C122.171 78.6192 121.192 73.9632 118.264 72.381C115.336 70.7989 115.481 65.6858 115.481 64.0283C115.481 62.3758 113.974 59.8243 112.503 57.8001C111.031 55.776 112.503 54.7162 112.503 54.7162C112.503 54.7162 116.305 58.3225 116.375 57.8755C116.446 57.4285 114.477 52.4911 113.362 51.2505C112.247 50.0099 112.312 47.9556 112.915 47.6543C113.517 47.3529 119.444 55.0929 119.444 55.0929C119.259 53.1505 118.776 51.2482 118.013 49.4524C116.812 46.8255 117.114 43.8923 118.013 44.3443C118.912 44.7964 122.674 53.3852 122.674 51.7428C122.674 50.1003 119.66 41.6421 122.071 42.5412C122.97 42.8777 123.949 44.6206 124.929 47.2926C126.561 51.7679 128.179 58.8449 129.349 66.3036C131.232 78.1823 144.543 98.4489 144.543 98.4489Z" fill="url(#paint7_linear)"/>
<path d="M126.305 58.6942C126.305 58.6942 123.753 55.7408 121.87 56.1276C119.986 56.5143 122.247 59.5932 122.247 59.5932C122.247 59.5932 123.824 62.3005 123.075 64.179C122.327 66.0575 121.8 70.2665 122.021 70.4172C122.242 70.5678 120.368 72.3007 118.339 67.8656C117.675 66.395 116.702 65.0845 115.486 64.0233C115.486 62.3708 113.979 59.8193 112.508 57.7951C111.036 55.771 112.508 54.7112 112.508 54.7112C112.508 54.7112 116.31 58.3175 116.38 57.8705C116.45 57.4234 114.482 52.4861 113.366 51.2455C112.251 50.0049 112.317 47.9506 112.919 47.6493C113.522 47.3479 119.449 55.0879 119.449 55.0879C119.263 53.1455 118.781 51.2432 118.017 49.4474C116.817 46.8205 117.118 43.8873 118.017 44.3393C118.917 44.7913 122.679 53.3802 122.679 51.7377C122.679 50.0953 119.665 41.6371 122.076 42.5362C122.975 42.8727 123.954 44.6156 124.934 47.2876C124.954 47.2876 126.531 55.3842 126.305 58.6942Z" fill="url(#paint8_linear)"/>
<path d="M216.789 271.144L198.481 283.756C195.734 278.442 205.855 268.437 205.855 268.437C205.855 268.437 190.284 243.901 184.212 227.507C179.586 215.071 177.682 202.168 170.425 202.273C168.119 202.308 165.276 203.654 161.63 206.743C146.491 219.551 151.258 263.048 151.258 263.048L146.737 265.609L128.57 275.856L127.802 271.481C127.079 261.677 140.389 257.021 140.389 257.021C140.389 257.021 138.837 235.689 140.389 214.328C141.941 192.966 149.43 174.804 149.43 174.804L189.787 183.95L195.674 185.281C195.342 227.151 216.437 270.466 216.784 271.134L216.789 271.144Z" fill="#3F3D56"/>
<path d="M198.753 74.6262C198.49 76.3209 198.047 77.9827 197.432 79.5836C197.598 79.5735 197.764 79.6106 197.911 79.6906C198.058 79.7705 198.179 79.8901 198.26 80.0357C199.215 81.6279 196.985 86.9569 194.072 86.3542C192.449 89.0514 190.596 91.6833 188.079 93.5718C182.444 97.801 173.745 97.2234 168.722 92.3011C165.02 88.6797 163.438 83.3004 163.468 78.122C163.503 72.0948 165.126 62.5165 168.923 57.5691C172.72 52.6218 180.822 54.5254 185.804 56.2281C189.657 57.544 193.544 59.3472 196.04 62.5617C198.637 65.9068 199.36 70.4373 198.753 74.6262Z" fill="url(#paint9_linear)"/>
<path d="M164.558 51.0898C165.733 49.4826 165.241 47.2675 165.392 45.2836C165.573 42.9279 167.069 40.4568 169.41 40.0801C170.389 39.9193 171.389 40.1403 172.383 40.1303C174.393 40.1303 176.281 39.1257 178.175 38.4175C180.068 37.7093 182.283 37.2473 184.061 38.2166C185.161 38.8143 185.93 39.8741 186.869 40.728C188.294 41.9623 190.098 42.6714 191.982 42.7371C193.489 42.7873 195.026 42.4106 196.553 42.4005C198.08 42.3905 199.762 42.8526 200.571 44.1384C201.46 45.5096 201.103 47.3077 201.405 48.915C201.631 50.1054 202.555 50.8437 203.595 51.4766C204.634 52.1094 205.789 52.6368 206.513 53.6112C206.89 54.1877 207.136 54.8409 207.23 55.5236C207.325 56.2063 207.267 56.9015 207.06 57.5591C206.64 58.8693 205.998 60.0976 205.162 61.1905C204.659 61.9288 204.092 62.7576 204.227 63.6466C204.403 64.8319 205.669 65.4748 206.427 66.399C206.749 66.8374 206.973 67.3396 207.085 67.8719C207.196 68.4042 207.192 68.9541 207.073 69.4847C206.954 70.0154 206.723 70.5143 206.395 70.9481C206.067 71.3818 205.65 71.7403 205.172 71.9993C204.549 72.2906 203.836 72.4162 203.313 72.8632C202.083 73.928 202.6 76.1682 201.375 77.238C200.37 78.132 198.627 77.5946 197.793 76.5147C196.96 75.4348 195.036 72.6874 194.84 71.3363C194.488 69.1565 195.689 68.1821 194.187 66.5648C192.429 64.6812 189.752 64.0534 187.366 63.0991C184.418 61.8987 180.797 62.1448 177.878 60.874C175.302 59.749 171.56 58.6138 168.948 57.5691C166.336 56.5244 166.1 53.4354 164.558 51.0898Z" fill="#3F3D56"/>
<path d="M195.413 70.8742L201.942 74.9276C201.942 74.9276 200.013 80.3671 198.476 80.9548L190.47 77.5042L195.413 70.8742Z" fill="#68E1FD"/>
<path d="M195.413 70.8742L201.942 74.9276C201.942 74.9276 200.013 80.3671 198.476 80.9548L190.47 77.5042L195.413 70.8742Z" fill="url(#paint10_linear)"/>
<path d="M164.96 51.2505C164.96 51.2505 156.311 51.4012 154.196 54.4098C152.082 57.4184 150.042 67.3935 150.042 67.3935L179.586 80.3772C179.586 80.3772 183.494 82.0849 186.874 79.669C190.254 77.2531 196.091 75.2892 195.85 72.2103C195.608 69.1314 197.999 65.9821 193.187 63.5813C188.376 61.1804 168.149 57.8554 164.96 51.2505Z" fill="#68E1FD"/>
<path d="M164.96 51.2505C164.96 51.2505 156.311 51.4012 154.196 54.4098C152.082 57.4184 150.042 67.3935 150.042 67.3935L179.586 80.3772C179.586 80.3772 183.494 82.0849 186.874 79.669C190.254 77.2531 196.091 75.2892 195.85 72.2103C195.608 69.1314 197.999 65.9821 193.187 63.5813C188.376 61.1804 168.149 57.8554 164.96 51.2505Z" fill="url(#paint11_linear)"/>
<path d="M154.196 54.4098C154.196 54.4098 183.644 65.2589 184.885 66.2986C186.125 67.3383 184.207 75.0029 182.403 78.7197C180.6 82.4365 177.501 80.9598 177.501 80.9598L150.796 70.4925C150.796 70.4925 149.063 69.3674 150.796 63.5059C152.528 57.6444 153.478 55.7961 154.196 54.4098Z" fill="#68E1FD"/>
<path d="M154.196 54.4098C154.196 54.4098 183.644 65.2589 184.885 66.2986C186.125 67.3383 184.207 75.0029 182.403 78.7197C180.6 82.4365 177.501 80.9598 177.501 80.9598L150.796 70.4925C150.796 70.4925 149.063 69.3674 150.796 63.5059C152.528 57.6444 153.478 55.7961 154.196 54.4098Z" fill="url(#paint12_linear)"/>
<path d="M149.635 61.0147C149.867 60.201 151.218 59.4175 152.011 59.7138C158.415 62.1096 183.197 71.8436 185.935 71.8436C189.074 71.8436 195.869 70.4624 195.869 70.4624C196.009 71.0367 196.009 71.636 195.869 72.2103C195.613 72.8884 187.667 75.9773 184.227 75.4047C181.213 74.9025 156.496 66.4292 150.615 64.2192C149.917 63.958 149.269 62.3306 149.47 61.6074L149.635 61.0147Z" fill="#68E1FD"/>
<path d="M149.635 61.0147C149.867 60.201 151.218 59.4175 152.011 59.7138C158.415 62.1096 183.197 71.8436 185.935 71.8436C189.074 71.8436 195.869 70.4624 195.869 70.4624C196.009 71.0367 196.009 71.636 195.869 72.2103C195.613 72.8884 187.667 75.9773 184.227 75.4047C181.213 74.9025 156.496 66.4292 150.615 64.2192C149.917 63.958 149.269 62.3306 149.47 61.6074L149.635 61.0147Z" fill="url(#paint13_linear)"/>
<path d="M142.292 110.93H154.99C155.79 110.93 156.581 111.106 157.305 111.447C158.029 111.788 158.669 112.285 159.178 112.903C159.687 113.52 160.054 114.243 160.251 115.018C160.448 115.794 160.471 116.604 160.319 117.389L160.289 117.555L141.338 116.274L142.292 110.93Z" fill="url(#paint14_linear)"/>
<path d="M216.784 271.134C190.631 243.625 189.772 183.95 189.772 183.95L195.659 185.281C195.342 227.151 216.437 270.466 216.784 271.134Z" fill="#25233A"/>
<path d="M170.424 202.273C168.119 202.308 165.276 203.654 161.63 206.743C146.491 219.551 151.258 263.048 151.258 263.048L146.737 265.609C142.95 242.816 142.719 223.218 154.357 207.587C158.942 201.384 169.726 202.198 170.424 202.273Z" fill="#25233A"/>
<path opacity="0.19" d="M80.5881 266.107C78.9155 269.276 78.2977 273.179 75.5654 275.499C72.833 277.82 68.4432 277.96 66.0223 280.703C63.0086 284.128 64.9424 289.914 68.7044 292.486C72.4664 295.057 77.2932 295.309 81.8438 295.469L205.432 299.884C214.046 300.191 223.429 300.266 230.285 295.047C238.668 288.674 239.828 274.791 232.595 267.126C236.267 266.815 240.089 266.448 243.238 264.53C246.387 262.611 248.602 258.628 247.292 255.182C245.629 250.828 239.933 249.964 235.272 249.878C204.363 249.311 174.844 256.106 144.266 257.674C127.435 258.527 90.523 247.277 80.5881 266.107Z" fill="url(#paint15_linear)"/>
<path opacity="0.57" d="M114.979 120.75C117.028 128.841 126.531 132.146 134.633 134.06C154.995 138.867 171.715 137.767 192.283 133.919C201.525 132.191 215.729 131.664 226.905 134.758C227.909 135.044 230.481 126.305 229.838 125.451C229.391 124.858 220.893 123.879 220.164 123.743C213.74 122.578 197.718 123.01 191.228 123.743C175.613 125.521 157.466 105.626 151.71 120.182C150.866 122.322 113.286 114.044 114.979 120.75Z" fill="white"/>
<defs>
<linearGradient id="paint0_linear" x1="79.3578" y1="291.567" x2="56.0425" y2="75.6107" gradientUnits="userSpaceOnUse">
<stop offset="0.01"/>
<stop offset="0.99" stop-opacity="0"/>
</linearGradient>
<linearGradient id="paint1_linear" x1="55507.1" y1="74215.9" x2="42152.9" y2="9609.74" gradientUnits="userSpaceOnUse">
<stop offset="0.01"/>
<stop offset="0.99" stop-opacity="0"/>
</linearGradient>
<linearGradient id="paint2_linear" x1="219.772" y1="170.113" x2="140.132" y2="130.795" gradientUnits="userSpaceOnUse">
<stop offset="0.01"/>
<stop offset="0.15" stop-opacity="0.48"/>
<stop offset="0.99" stop-opacity="0"/>
</linearGradient>
<linearGradient id="paint3_linear" x1="10060.2" y1="2237.42" x2="8954.67" y2="1807.21" gradientUnits="userSpaceOnUse">
<stop offset="0.01"/>
<stop offset="0.99" stop-opacity="0"/>
</linearGradient>
<linearGradient id="paint4_linear" x1="160.389" y1="157.661" x2="158.812" y2="159.294" gradientUnits="userSpaceOnUse">
<stop stop-color="#ECC4D7"/>
<stop offset="0.42" stop-color="#EFD4D1"/>
<stop offset="1" stop-color="#F2EAC9"/>
</linearGradient>
<linearGradient id="paint5_linear" x1="186.352" y1="94.3051" x2="192.625" y2="102.482" gradientUnits="userSpaceOnUse">
<stop stop-color="#ECC4D7"/>
<stop offset="0.83" stop-color="#F2EAC9"/>
</linearGradient>
<linearGradient id="paint6_linear" x1="29029.8" y1="8875.38" x2="39557.3" y2="8875.38" gradientUnits="userSpaceOnUse">
<stop stop-color="#ECC4D7"/>
<stop offset="0.42" stop-color="#EFD4D1"/>
<stop offset="1" stop-color="#F2EAC9"/>
</linearGradient>
<linearGradient id="paint7_linear" x1="10827.9" y1="10378.6" x2="12956" y2="10378.6" gradientUnits="userSpaceOnUse">
<stop stop-color="#ECC4D7"/>
<stop offset="0.42" stop-color="#EFD4D1"/>
<stop offset="1" stop-color="#F2EAC9"/>
</linearGradient>
<linearGradient id="paint8_linear" x1="4855.86" y1="3198.67" x2="5273.13" y2="3198.67" gradientUnits="userSpaceOnUse">
<stop stop-color="#ECC4D7"/>
<stop offset="0.42" stop-color="#EFD4D1"/>
<stop offset="1" stop-color="#F2EAC9"/>
</linearGradient>
<linearGradient id="paint9_linear" x1="17817.5" y1="5345.49" x2="15241.2" y2="6654.46" gradientUnits="userSpaceOnUse">
<stop stop-color="#ECC4D7"/>
<stop offset="0.83" stop-color="#F2EAC9"/>
</linearGradient>
<linearGradient id="paint10_linear" x1="5930.07" y1="1495.56" x2="5865.67" y2="1642.26" gradientUnits="userSpaceOnUse">
<stop offset="0.01"/>
<stop offset="0.99" stop-opacity="0"/>
</linearGradient>
<linearGradient id="paint11_linear" x1="18586.5" y1="4173.86" x2="24495.6" y2="2571.32" gradientUnits="userSpaceOnUse">
<stop offset="0.01"/>
<stop offset="0.99" stop-opacity="0"/>
</linearGradient>
<linearGradient id="paint12_linear" x1="15329.8" y1="4246.47" x2="15723.5" y2="2852.63" gradientUnits="userSpaceOnUse">
<stop offset="0.01"/>
<stop offset="0.99" stop-opacity="0"/>
</linearGradient>
<linearGradient id="paint13_linear" x1="21099.7" y1="2052.06" x2="21072.6" y2="2390.84" gradientUnits="userSpaceOnUse">
<stop offset="0.01"/>
<stop offset="0.99" stop-opacity="0"/>
</linearGradient>
<linearGradient id="paint14_linear" x1="7986.99" y1="1775.78" x2="7962.26" y2="1499.99" gradientUnits="userSpaceOnUse">
<stop offset="0.01"/>
<stop offset="0.99" stop-opacity="0"/>
</linearGradient>
<linearGradient id="paint15_linear" x1="64.5657" y1="274.921" x2="247.693" y2="274.921" gradientUnits="userSpaceOnUse">
<stop stop-color="#183866"/>
<stop offset="1" stop-color="#1A7FC1"/>
</linearGradient>
</defs>
</svg>
