<svg width="364" height="300" viewBox="0 0 364 300" fill="none" xmlns="http://www.w3.org/2000/svg">
<g opacity="0.1">
<g opacity="0.1">
<path opacity="0.1" d="M32.5765 203.425C32.3692 202.33 32.0434 201.264 31.5992 200.257C31.3327 199.635 31.4215 198.924 31.8657 198.391L33.6723 196.17L30.9477 192.853L28.4304 194.186C27.8381 194.511 27.0977 194.452 26.535 194.067C25.617 193.445 24.6397 192.912 23.6032 192.497C22.9812 192.261 22.537 191.668 22.4778 190.987L22.2113 188.144L17.9467 187.729L17.1175 190.484C16.9102 191.135 16.3771 191.609 15.696 191.728C14.6002 191.935 13.5341 192.261 12.5272 192.705C11.9052 192.971 11.1945 192.882 10.6614 192.438L8.44028 190.632L5.1234 193.356L6.45608 195.874C6.78184 196.466 6.72261 197.206 6.33762 197.769C5.7157 198.687 5.18263 199.664 4.76802 200.701C4.5311 201.323 3.9388 201.767 3.25765 201.826L0.414617 202.093L0 206.357L2.7542 207.187C3.40573 207.394 3.87957 207.927 3.99803 208.608C4.20533 209.704 4.5311 210.77 4.97533 211.777C5.24186 212.399 5.15302 213.139 4.70879 213.643L2.90228 215.864L5.62685 219.181L8.14413 217.848C8.73643 217.522 9.47681 217.581 10.0395 217.966C10.9576 218.588 11.9349 219.121 12.9714 219.536C13.5933 219.773 14.0375 220.365 14.0967 221.046L14.3633 223.889L18.6278 224.304L19.4571 221.55C19.6644 220.898 20.1974 220.424 20.8786 220.306C21.9743 220.099 23.0405 219.773 24.0474 219.329C24.6693 219.062 25.3801 219.151 25.9131 219.595L28.1343 221.402L31.4511 218.677L30.1185 216.16C29.7927 215.568 29.8519 214.827 30.2369 214.265C30.8588 213.346 31.3919 212.369 31.8065 211.333C32.0434 210.711 32.6357 210.266 33.3169 210.207L36.1599 209.941L36.5745 205.676L33.8203 204.847C33.1984 204.64 32.695 204.077 32.5765 203.425ZM17.2359 216.871C11.2537 216.278 6.87068 210.948 7.46298 204.965C8.05528 198.983 13.386 194.6 19.3682 195.192C25.3504 195.785 29.7335 201.115 29.1412 207.098C28.5489 213.08 23.2182 217.433 17.2359 216.871Z" fill="#2A94F4"/>
<path opacity="0.1" d="M11.0743 205.291C11.4593 201.293 15.0131 198.391 19.0111 198.776C23.0092 199.161 25.9114 202.715 25.5264 206.713C25.1414 210.711 21.5876 213.613 17.5896 213.228C13.5916 212.843 10.6893 209.289 11.0743 205.291Z" fill="#2A94F4"/>
</g>
</g>
<path opacity="0.1" d="M165.165 300C239.176 300 299.173 295.147 299.173 289.161C299.173 283.175 239.176 278.322 165.165 278.322C91.1546 278.322 31.1572 283.175 31.1572 289.161C31.1572 295.147 91.1546 300 165.165 300Z" fill="#2A94F4"/>
<path opacity="0.19" d="M124.526 254.6C124.526 257.117 126.57 259.161 129.087 259.161H292.947C295.464 259.161 297.508 257.117 297.508 254.6V113.514H124.556V254.6H124.526Z" fill="#00A5DF"/>
<path d="M175.997 196.347C176.767 199.013 177.833 201.589 179.195 204.047C180.025 205.528 179.965 207.364 179.018 208.786L175.049 214.738L182.66 222.349L188.613 218.381C190.035 217.433 191.871 217.374 193.351 218.203C195.78 219.566 198.356 220.632 201.051 221.402C202.68 221.876 203.924 223.208 204.279 224.896L205.671 231.915H216.422L217.843 224.867C218.169 223.208 219.413 221.846 221.071 221.372C223.736 220.602 226.313 219.536 228.771 218.174C230.252 217.344 232.088 217.404 233.509 218.351L239.462 222.32L247.073 214.709L243.105 208.756C242.157 207.335 242.098 205.498 242.927 204.018C244.289 201.589 245.355 199.013 246.125 196.318C246.599 194.689 247.932 193.445 249.62 193.09L256.639 191.698V180.948L249.59 179.526C247.932 179.2 246.57 177.956 246.096 176.298C245.326 173.633 244.26 171.056 242.897 168.598C242.068 167.117 242.127 165.281 243.075 163.86L247.043 157.907L239.432 150.296L233.48 154.264C232.058 155.212 230.222 155.271 228.741 154.442C226.313 153.08 223.736 152.014 221.041 151.244C219.413 150.77 218.169 149.437 217.813 147.749L216.422 140.73H205.671L204.25 147.779C203.924 149.437 202.68 150.8 201.022 151.273C198.356 152.043 195.78 153.11 193.322 154.472C191.841 155.301 190.005 155.242 188.583 154.294L182.631 150.326L175.02 157.937L178.988 163.889C179.936 165.311 179.995 167.147 179.166 168.628C177.804 171.056 176.737 173.633 175.967 176.328C175.494 177.957 174.161 179.2 172.473 179.556L165.454 180.948V191.698L172.502 193.119C174.191 193.445 175.553 194.689 175.997 196.347ZM211.002 159.003C226.076 159.003 238.307 171.234 238.307 186.308C238.307 201.382 226.076 213.613 211.002 213.613C195.928 213.613 183.697 201.382 183.697 186.308C183.697 171.264 195.928 159.033 211.002 159.003Z" fill="#00A5DF"/>
<path d="M124.526 90.7404V104.393H297.478V90.7404C297.478 88.2231 295.435 86.1797 292.917 86.1797H129.057C126.54 86.1797 124.526 88.2231 124.526 90.7404ZM170.045 90.7404H179.136V99.8618H170.045V90.7404ZM151.831 90.7404H160.923V99.8618H151.831V90.7404ZM133.618 90.7404H142.71V99.8618H133.618V90.7404Z" fill="#00A5DF"/>
<path d="M229.215 186.338C229.215 196.377 221.07 204.551 211.001 204.551C200.932 204.551 192.788 196.407 192.788 186.338C192.788 176.298 200.932 168.124 211.001 168.124C221.041 168.124 229.215 176.269 229.215 186.338Z" fill="#00A5DF"/>
<path d="M215.569 8.82524C215.569 6.30796 213.526 4.26453 211.008 4.26453H47.1486C44.6313 4.26453 42.5879 6.30796 42.5879 8.82524V22.4778H215.54V8.82524H215.569ZM60.8011 17.917H51.7093V8.82524H60.8011V17.917ZM79.0143 17.917H69.9225V8.82524H79.0143V17.917ZM97.2276 17.917H88.1358V8.82524H97.2276V17.917Z" fill="#00A5DF"/>
<path opacity="0.19" d="M115.406 90.7405C115.406 83.1886 121.507 77.0879 129.059 77.0879H215.535V31.5697H42.583V172.656C42.583 175.173 44.6264 177.216 47.1437 177.216H115.406V90.7405ZM151.833 54.3436H160.925V63.4354H151.833V54.3436ZM133.62 54.3436H142.711V63.4354H133.62V54.3436ZM115.406 54.3436H124.498V63.4354H115.406V54.3436ZM97.2227 163.564H60.7962V154.472H97.2227V163.564ZM97.2227 145.351H60.7962V136.259H97.2227V145.351ZM97.2227 127.167H60.7962V118.075H97.2227V127.167ZM97.2227 108.954H60.7962V99.8619H97.2227V108.954ZM97.2227 90.7405H60.7962V81.6486H97.2227V90.7405ZM97.2227 63.4354V54.3436H106.314V63.4354H97.2227Z" fill="#00A5DF"/>
<path d="M151.035 218.648L151.213 213.85L154.619 214.886L155.27 220.869C155.27 220.869 152.012 221.076 151.035 218.648Z" fill="#FCD2B1"/>
<path d="M151.331 218.677C152.13 219.003 153.463 219.299 155.122 218.914L154.914 217.552C154.914 217.552 155.862 218.115 156.099 219.358C156.336 220.573 156.395 220.247 157.935 221.195C159.505 222.142 159.386 224.274 159.386 224.274L147.777 223.978C147.777 223.978 147.451 221.639 149.554 219.151C149.969 218.618 150.709 218.411 151.331 218.677Z" fill="#0E538C"/>
<path d="M132.584 148.134C132.584 148.134 131.074 154.028 133.206 157.73C135.339 161.431 139.189 153.228 139.189 153.228C139.189 153.228 138.507 145.35 132.584 148.134Z" fill="#00A5DF"/>
<path d="M131.518 120.178C131.518 120.178 123.699 130.81 122.396 137.236C121.064 143.662 122.485 157.7 122.485 157.7H125.684C125.684 157.7 127.372 139.783 128.438 137.236C129.504 134.63 136.434 122.606 136.434 122.606L131.518 120.178Z" fill="#FFE3CA"/>
<path d="M159.86 223.741H130.186V227.147H159.86V223.741Z" fill="#D3D3D3"/>
<path d="M155.743 247.256H123.848V250.661H155.743V247.256Z" fill="#D3D3D3"/>
<path d="M152.872 270H120.977V273.406H152.872V270Z" fill="#D3D3D3"/>
<path d="M117.777 292.626H114.224L140.403 169.487H142.387L117.777 292.626Z" fill="#D3D3D3"/>
<path d="M154.887 292.626H151.333L172.093 166.022L173.84 166.851L154.887 292.626Z" fill="#D3D3D3"/>
<path d="M147.689 292.626L166.79 169.694L140.403 169.487L114.224 292.626H110.137L136.731 166.022H172.091L152.457 292.626H147.096" fill="#F7F7F7"/>
<path d="M135.693 218.648L135.871 213.85L139.277 214.886L139.928 220.869C139.899 220.869 136.671 221.076 135.693 218.648Z" fill="#FCD2B1"/>
<path d="M169.304 110.405C169.304 110.405 177.744 109.783 178.751 105.874C179.758 101.964 179.58 91.4215 179.58 91.4215H182.512C182.512 91.4215 184.526 101.224 184.407 105.874C184.289 110.523 178.633 118.46 169.304 117.957C160.005 117.453 169.304 110.405 169.304 110.405Z" fill="#FFE3CA"/>
<path d="M141.97 109.901C141.97 109.901 137.084 110.405 135.07 112.537C134.093 113.574 128.022 121.096 128.259 122.725L135.396 127.167L141.23 119.082L141.97 109.901Z" fill="#2A94F4"/>
<path d="M134.33 146.12C134.33 146.12 132.227 152.34 134.212 159.151C136.196 165.963 136.196 179.704 136.018 183.287C135.84 186.871 132.494 197.236 135.337 215.538H136.018H139.72C139.72 215.538 142.385 196.348 143.925 188.174C145.376 180.504 147.213 161.372 147.213 161.372C147.213 161.372 152.721 179.526 151.803 184.205C150.796 189.358 150.677 215.508 150.677 215.508H155.09C155.09 215.508 160.036 193.001 160.332 186.96C160.658 180.918 159.977 147.039 159.977 147.039C159.977 147.039 145.288 137.058 134.33 146.12Z" fill="#0B4870"/>
<path d="M149.374 98.0849L144.902 111.767L152.987 113.366L154.764 99.1806L149.374 98.0849Z" fill="#FCD2B1"/>
<path d="M153.967 109.131C153.967 109.131 159.446 110.257 160.009 117.424C160.571 124.59 161.341 155.153 161.341 157.789C161.164 159.003 139.87 163.06 133.533 156.9C131.934 155.331 137.175 128.737 136.435 121.747C135.665 114.788 139.811 105.933 153.967 109.131Z" fill="#2A94F4"/>
<path d="M160.332 123.465C160.332 123.465 162.523 118.46 169.305 117.957C169.305 117.957 170.934 113.307 169.305 110.405C169.305 110.405 157.015 107.887 152.336 108.835C147.657 109.783 160.332 123.465 160.332 123.465Z" fill="#2A94F4"/>
<path d="M182.484 94.0573C182.484 94.0573 183.402 89.1412 181.773 86.3574C180.796 84.6989 179.73 83.9289 178.664 84.2251C177.953 84.4324 177.657 85.6762 177.834 86.387C178.071 87.305 178.841 89.8223 179.256 90.5331C179.256 90.5331 178.516 90.5331 177.746 88.8746C177.005 87.2458 176.443 89.6446 177.035 90.77C177.923 92.3988 180.855 96.8707 182.484 94.0573Z" fill="#FFE3CA"/>
<path d="M135.96 218.677C136.759 219.003 138.092 219.299 139.75 218.914L139.543 217.552C139.543 217.552 140.491 218.115 140.728 219.358C140.965 220.573 141.024 220.247 142.564 221.195C144.133 222.142 144.015 224.274 144.015 224.274L132.406 223.978C132.406 223.978 132.08 221.639 134.183 219.151C134.627 218.618 135.338 218.411 135.96 218.677Z" fill="#0E538C"/>
<path d="M160.834 96.0414C160.627 94.3237 164.358 93.1687 157.221 88.1342C153.578 85.5873 147.241 86.7127 145.286 90.5626C143.332 94.4126 144.368 94.7976 142.858 95.0641C141.347 95.3603 142.947 107.265 152.068 107.117C161.219 106.969 160.834 96.0414 160.834 96.0414Z" fill="#0B4870"/>
<path d="M133.087 143.988H160.866C161.991 143.988 162.909 144.817 163.028 145.913C163.502 150.089 164.005 159.566 159.119 160.247C152.84 161.135 150.826 154.353 150.826 148.045L132.584 148.134C132.584 148.134 131.962 145.114 133.087 143.988Z" fill="#00A5DF"/>
<path d="M125.475 156.041C125.475 156.041 124.942 162.349 126.985 164.067C129.029 165.814 123.372 166.584 121.98 163.386C120.588 160.188 122.484 156.041 122.484 156.041H125.475V156.041Z" fill="#FFE3CA"/>
<path d="M124.943 156.871C124.943 156.871 126.838 157.196 127.549 159.24C127.964 160.395 128.201 161.639 128.319 162.498C128.408 163.06 127.756 163.445 127.282 163.09C126.809 162.734 126.364 162.201 126.424 161.283C126.572 159.358 124.262 159.921 124.262 159.921C124.262 159.921 123.492 157.641 124.943 156.871Z" fill="#FFE3CA"/>
<path d="M155.948 148.342H154.497V144.047C154.497 143.811 154.704 143.603 154.941 143.603H155.534C155.771 143.603 155.978 143.811 155.978 144.047V148.342H155.948Z" fill="#F7F7F7"/>
<path d="M158.111 148.342H156.66V145.499C156.66 145.262 156.867 145.054 157.104 145.054H157.697C157.934 145.054 158.141 145.262 158.141 145.499V148.342H158.111Z" fill="#F7F7F7"/>
<path d="M160.866 148.342H158.853V142.152C158.853 141.826 159.119 141.56 159.445 141.56H160.274C160.6 141.56 160.866 141.826 160.866 142.152V148.342Z" fill="#F7F7F7"/>
<path opacity="0.32" d="M162.493 148.342H151.299V149.289H162.493V148.342Z" fill="#161616"/>
<path d="M59.5543 234.166C59.0212 232.804 58.3696 231.471 57.5404 230.257C57.037 229.516 57.0074 228.539 57.422 227.769L59.2581 224.452L54.9343 220.78L51.9728 223.149C51.2621 223.712 50.3144 223.83 49.4852 223.445C48.1525 222.853 46.731 222.379 45.3094 222.113C44.421 221.935 43.7102 221.283 43.4733 220.425L42.4368 216.812L36.7803 217.285L36.3361 221.046C36.2472 221.935 35.6253 222.705 34.7961 223.031C33.4338 223.564 32.1012 224.215 30.8869 225.044C30.1466 225.548 29.1693 225.578 28.3993 225.163L25.0824 223.327L21.4101 227.651L23.7793 230.612C24.342 231.323 24.4605 232.271 24.0755 233.1C23.4832 234.432 23.0093 235.854 22.7428 237.275C22.5651 238.164 21.9136 238.875 21.0548 239.112L17.4121 240.148L17.886 245.805L21.6471 246.249C22.5355 246.338 23.3055 246.96 23.6313 247.789C24.1643 249.151 24.8159 250.484 25.6451 251.698C26.1485 252.438 26.1781 253.416 25.7635 254.186L23.9274 257.503L28.2512 261.175L31.2127 258.806C31.9235 258.243 32.8711 258.124 33.7004 258.509C35.033 259.102 36.4546 259.576 37.8761 259.842C38.7645 260.02 39.4753 260.671 39.7122 261.53L40.7487 265.173L46.4052 264.699L46.8494 260.938C46.9383 260.049 47.5602 259.279 48.3894 258.954C49.7517 258.421 51.0844 257.769 52.2986 256.94C53.039 256.436 54.0162 256.407 54.7862 256.821L58.1031 258.658L61.7754 254.334L59.4062 251.372C58.8435 250.661 58.725 249.714 59.11 248.885C59.7023 247.552 60.1762 246.13 60.4427 244.709C60.6204 243.82 61.2719 243.11 62.1308 242.873L65.7734 241.836L65.2996 236.18L61.5385 235.735C60.65 235.617 59.88 234.995 59.5543 234.166ZM42.7922 255.341C34.8553 255.992 27.8958 250.099 27.2147 242.162C26.5631 234.225 32.4565 227.266 40.3934 226.584C48.3302 225.933 55.2897 231.826 55.9708 239.763C56.6224 247.7 50.729 254.659 42.7922 255.341Z" fill="#00A5DF"/>
<path d="M32.0117 241.777C31.5675 236.476 35.5063 231.826 40.7778 231.382C46.0788 230.938 50.7284 234.877 51.1726 240.148C51.6168 245.449 47.6781 250.099 42.4066 250.543C37.1055 250.987 32.4559 247.078 32.0117 241.777Z" fill="#00A5DF"/>
<path d="M105.666 195.192C104.245 193.919 102.705 192.794 101.017 191.876C99.9803 191.313 99.388 190.217 99.4176 189.062L99.5657 184.146L92.3989 182.488L90.3851 186.959C89.9112 188.026 88.8747 188.736 87.6901 188.796C85.7948 188.884 83.8994 189.21 82.0633 189.743C80.9379 190.069 79.7237 189.743 78.9241 188.884L75.5776 185.301L69.3288 189.181L71.0465 193.801C71.4611 194.896 71.2242 196.14 70.4246 196.999C69.1511 198.421 68.0258 199.96 67.1077 201.649C66.545 202.685 65.4492 203.277 64.2943 203.248L59.3782 203.1L57.7197 210.267L62.1916 212.28C63.2577 212.754 63.9685 213.791 64.0277 214.975C64.1166 216.871 64.4423 218.766 64.9458 220.602C65.2715 221.728 64.9458 222.942 64.087 223.741L60.5035 227.088L64.3831 233.337L69.003 231.589C70.0988 231.175 71.313 231.412 72.2015 232.211C73.623 233.485 75.163 234.61 76.851 235.528C77.8875 236.091 78.5095 237.187 78.4502 238.342L78.3022 243.258L85.469 244.916L87.4828 240.444C87.9566 239.378 88.9932 238.667 90.1778 238.608C92.0731 238.519 93.9685 238.193 95.8046 237.69C96.93 237.364 98.1442 237.69 98.9438 238.549L102.29 242.132L108.539 238.253L106.821 233.633C106.407 232.537 106.644 231.293 107.443 230.434C108.717 229.013 109.842 227.473 110.76 225.785C111.323 224.748 112.419 224.156 113.574 224.186L118.49 224.334L120.148 217.167L115.676 215.153C114.61 214.679 113.899 213.643 113.84 212.458C113.751 210.563 113.426 208.667 112.922 206.831C112.596 205.706 112.922 204.492 113.781 203.692L117.364 200.345L113.485 194.097L108.865 195.814C107.769 196.199 106.555 195.962 105.666 195.192ZM98.855 229.575C90.0889 235.054 78.5391 232.359 73.0603 223.593C67.5815 214.827 70.2765 203.277 79.0425 197.799C87.8086 192.32 99.3584 195.015 104.837 203.781C110.286 212.576 107.621 224.097 98.855 229.575Z" fill="#CCE9FF"/>
<path d="M78.36 220.276C74.7173 214.442 76.4942 206.742 82.358 203.1C88.2218 199.457 95.8921 201.234 99.5347 207.098C103.177 212.932 101.4 220.632 95.5367 224.274C89.7025 227.917 82.0026 226.14 78.36 220.276Z" fill="#CCE9FF"/>
<path d="M312.881 57.3347C311.726 58.8154 310.779 60.4146 310.009 62.1323C309.535 63.1688 308.528 63.8796 307.373 63.9388L302.546 64.1757L301.479 71.313L306.011 72.9418C307.077 73.3268 307.847 74.3041 307.995 75.4294C308.232 77.2952 308.676 79.1017 309.357 80.849C309.772 81.9151 309.535 83.1293 308.765 83.9882L305.537 87.542L309.831 93.3465L314.214 91.3031C315.25 90.8292 316.465 90.9477 317.383 91.6585C318.863 92.8134 320.463 93.7611 322.18 94.5311C323.217 95.005 323.928 96.0119 323.987 97.1668L324.224 101.994L331.361 103.06L332.99 98.5291C333.375 97.463 334.352 96.693 335.477 96.5449C337.343 96.308 339.15 95.8638 340.897 95.1826C341.963 94.768 343.177 95.005 344.036 95.7749L347.59 99.0326L353.395 94.7384L351.351 90.3554C350.877 89.3189 350.996 88.1047 351.707 87.1866C352.862 85.7058 353.809 84.1066 354.579 82.389C355.053 81.3524 356.06 80.6417 357.215 80.5824L362.042 80.3455L363.108 73.2083L358.577 71.5795C357.511 71.1945 356.741 70.2172 356.593 69.0918C356.356 67.2261 355.912 65.4196 355.231 63.6723C354.816 62.6061 355.053 61.3919 355.823 60.5331L359.081 56.9793L354.786 51.1748L350.403 53.2182C349.367 53.692 348.153 53.5736 347.235 52.8628C345.754 51.7078 344.155 50.7601 342.437 49.9902C341.4 49.5163 340.69 48.5094 340.631 47.3544L340.394 42.5272L333.256 41.461L331.628 45.9921C331.243 47.0583 330.265 47.8283 329.14 47.9763C327.274 48.2132 325.468 48.6575 323.72 49.3386C322.654 49.7532 321.44 49.5163 320.581 48.7463L317.027 45.4887L311.223 49.7828L313.266 54.1659C313.71 55.2024 313.592 56.4166 312.881 57.3347ZM347.027 61.3327C353.039 69.4768 351.322 80.9971 343.177 87.0089C335.033 93.0207 323.513 91.3031 317.501 83.159C311.489 75.0148 313.207 63.4946 321.351 57.4827C329.525 51.4709 341.015 53.1886 347.027 61.3327Z" fill="#00A5DF"/>
<path d="M339.535 82.0928C334.085 86.1204 326.445 84.9654 322.417 79.5163C318.389 74.0671 319.544 66.4264 324.994 62.3988C330.443 58.3712 338.083 59.5261 342.111 64.9753C346.139 70.3948 344.984 78.0651 339.535 82.0928Z" fill="#00A5DF"/>
<path d="M239.792 33.4057C239.348 35.8045 239.2 38.233 239.289 40.6614C239.348 42.1421 238.607 43.5637 237.304 44.304L231.885 47.4136L234.876 56.2981L241.095 55.4985C242.576 55.3208 244.027 55.9724 244.856 57.1866C246.248 59.2004 247.847 61.0365 249.624 62.6653C250.72 63.6723 251.164 65.2122 250.779 66.6338L249.15 72.6456L257.531 76.8213L261.381 71.8756C262.299 70.691 263.78 70.1283 265.231 70.3949C267.63 70.8391 270.058 71.0168 272.487 70.8983C273.968 70.8391 275.389 71.5795 276.13 72.8825L279.239 78.3021L288.124 75.311L287.324 69.0918C287.146 67.6111 287.798 66.1599 289.012 65.3307C291.026 63.9684 292.862 62.3396 294.491 60.5627C295.498 59.4669 297.038 59.0227 298.459 59.4077L304.501 61.0365L308.676 52.6259L303.701 48.7759C302.517 47.8578 301.954 46.3771 302.22 44.926C302.665 42.5271 302.842 40.0987 302.724 37.6703C302.665 36.1895 303.435 34.768 304.708 34.0276L310.128 30.9181L307.136 22.0336L300.917 22.8332C299.437 23.0109 297.985 22.3593 297.156 21.1451C295.794 19.1313 294.165 17.2952 292.388 15.6663C291.292 14.6594 290.848 13.1194 291.233 11.6979L292.862 5.65647L284.511 1.48075L280.661 6.42646C279.743 7.61106 278.262 8.17374 276.811 7.90721C274.412 7.46298 271.983 7.28529 269.555 7.40375C268.074 7.46298 266.653 6.72261 265.912 5.41955L262.803 0L253.918 2.99112L254.718 9.21027C254.896 10.691 254.244 12.1422 253.03 12.9714C251.016 14.3337 249.18 15.9625 247.551 17.7394C246.544 18.8351 245.004 19.2794 243.583 18.8944L237.541 17.2655L233.366 25.6762L238.311 29.5262C239.525 30.4442 240.088 31.925 239.792 33.4057ZM281.638 17.7986C293.425 23.6624 298.222 37.9664 292.388 49.7532C286.524 61.54 272.22 66.3376 260.434 60.5035C248.647 54.6397 243.849 40.3356 249.683 28.5489C255.547 16.7621 269.851 11.9645 281.638 17.7986Z" fill="#CCE9FF"/>
<path d="M285.254 46.229C281.344 54.0769 271.808 57.305 263.96 53.3958C256.112 49.4866 252.884 39.9506 256.794 32.1026C260.703 24.2546 270.239 21.0266 278.087 24.9358C285.964 28.8153 289.163 38.3514 285.254 46.229Z" fill="#CCE9FF"/>
</svg>
