<svg width="679" height="388" viewBox="0 0 679 388" fill="none" xmlns="http://www.w3.org/2000/svg">
<path opacity="0.1" d="M407.948 279.755C421.077 279.006 437.368 270.098 450.034 266.158C465.025 261.507 480.075 257.032 495.185 252.734C547.787 237.763 600.953 225.006 654.683 214.463C659.697 213.477 664.719 212.514 669.749 211.575C661.914 194.64 649.774 180.057 634.543 169.282C634.933 165.574 635.131 161.849 635.137 158.121C635.137 99.2063 588.067 51.4454 529.982 51.4454C512.099 51.4264 494.516 56.0434 478.949 64.846C437.837 37.7952 384.178 21.4233 325.469 21.4233C242.046 21.4233 168.812 54.4821 127.314 104.263L322.344 137.221L441.96 157.426C305.597 161.497 168.812 165.544 32.8403 155.988C14.8914 173.36 3.53103 196.428 0.70064 221.249C-2.12975 246.071 3.74555 271.105 17.3225 292.074V292.074C17.3225 294.208 17.4116 296.323 17.572 298.421C21.0356 299.413 24.3803 300.376 27.3805 301.006C75.546 311.184 124.02 319.701 172.804 326.559C136.855 348.731 93.0759 351.869 51.6079 361.258C71.6884 377.838 98.9575 388 129.007 388H576.434C624.883 388 664.153 354.264 664.153 312.642C671.423 300.65 676.268 287.346 678.411 273.486C588.762 282.144 497.995 274.627 407.948 279.755Z" fill="#C0C0C0"/>
<path opacity="0.1" d="M678.411 255.667C678.459 238.515 674.389 221.604 666.545 206.359C658.702 191.114 647.314 177.982 633.343 168.072C633.729 164.367 633.927 160.645 633.936 156.92C633.936 98.012 586.928 50.2752 528.975 50.2752C511.124 50.256 493.572 54.8702 478.03 63.6681C436.994 36.6089 383.428 20.2332 324.828 20.2332C229.509 20.2332 147.462 63.579 111.075 125.737C109.053 125.618 107.019 125.552 104.967 125.552C47.0075 125.552 0.00630847 173.307 0.00630847 232.215C-0.0343166 253.022 5.96539 273.392 17.2745 290.843V290.843C17.2745 343.844 67.1992 386.81 128.759 386.81H575.371C623.724 386.81 662.921 353.072 662.921 311.455C673.091 294.634 678.45 275.334 678.411 255.667V255.667Z" fill="#C0C0C0"/>
<path d="M554.047 190.523C553.201 189.873 552.211 189.439 551.16 189.257C550.054 189.002 548.924 188.843 547.8 188.665L533.236 186.565C531.766 186.292 530.266 186.212 528.776 186.328C528.028 186.39 527.299 186.599 526.633 186.944C525.967 187.29 525.376 187.764 524.895 188.34C524.461 188.875 524.223 189.543 524.22 190.233C524.301 190.927 524.527 191.596 524.883 192.197C525.024 192.478 525.145 192.769 525.244 193.067C525.383 193.736 525.557 194.397 525.764 195.049C525.829 195.19 525.912 195.321 526.013 195.439C526.016 195.472 526.016 195.506 526.013 195.54C525.853 196.356 526.368 197.208 526.137 197.995C525.936 198.669 525.279 199.077 524.865 199.639C524.589 200.038 524.436 200.509 524.426 200.994C524.415 201.479 524.547 201.956 524.806 202.367C525.25 203.053 526.054 203.52 526.285 204.307C526.587 205.342 525.77 206.342 525.043 207.141C523.704 208.611 522.467 210.171 521.34 211.809C521.023 212.211 520.819 212.691 520.748 213.199C520.683 214.228 521.671 215.133 521.499 216.157C521.363 216.961 520.576 217.452 519.896 217.932C517.382 219.588 515.365 222.25 515.164 225.261C514.518 220.47 512.533 215.959 509.437 212.246C508.591 211.229 507.663 210.205 507.314 208.916C507.183 208.401 507.16 207.851 506.982 207.354C506.391 205.786 504.51 205.112 503.687 203.668C503.096 202.651 503.096 201.343 502.362 200.45C501.629 199.557 500.475 199.355 499.842 198.492C499.526 197.907 499.257 197.297 499.038 196.669C498.772 196.158 498.399 195.71 497.943 195.356C497.856 195.286 497.765 195.221 497.671 195.161C497.769 195.073 497.848 194.965 497.902 194.845C497.956 194.725 497.984 194.595 497.985 194.463C497.985 193.771 497.298 193.315 496.701 192.972C495.932 192.534 495.181 192.061 494.447 191.57C495.247 191.197 495.941 190.63 496.464 189.919C497.121 188.86 497.392 187.606 497.233 186.37C497.193 185.372 496.82 184.416 496.174 183.654C495.802 183.258 495.334 182.974 494.944 182.601C493.932 181.613 493.589 180.152 493.169 178.803C492.613 177.028 491.744 175.165 490.123 174.224C489.342 173.769 488.431 173.556 487.668 173.077C486.905 172.597 486.266 171.692 486.532 170.823C486.709 170.231 487.26 169.823 487.632 169.32C488.077 168.67 488.248 167.87 488.107 167.095C487.967 166.32 487.526 165.631 486.881 165.179C486.443 164.901 485.905 164.658 485.816 164.149C485.474 164.06 485.163 163.877 484.92 163.619C484.678 163.362 484.512 163.041 484.444 162.694C484.311 161.998 484.311 161.284 484.444 160.588C484.598 159.487 484.749 158.391 484.899 157.299C485.16 157.407 485.439 157.463 485.721 157.463C486.004 157.463 486.283 157.407 486.544 157.299C487.056 158.129 487.65 158.906 488.318 159.618C490.12 161.745 491.523 164.18 492.459 166.806C492.797 167.752 493.14 168.811 494.015 169.314C494.317 169.486 494.66 169.574 494.956 169.758C495.321 170.012 495.634 170.333 495.879 170.704C496.589 171.645 497.298 172.58 498.002 173.52L498.038 173.662C498.057 173.745 498.089 173.825 498.133 173.899C498.263 174.046 498.445 174.139 498.641 174.159C500.818 174.662 503.261 175.123 505.148 173.934C506.852 172.869 507.598 170.763 509.041 169.355C510.064 168.356 511.514 167.581 511.804 166.173C511.458 166.066 511.119 165.942 510.786 165.8C511.082 165.504 511.378 165.161 511.78 164.77C512.364 164.198 512.891 163.57 513.353 162.895C513.853 162.062 514.25 161.173 514.537 160.245C515.676 156.995 516.82 153.743 517.968 150.489C518.512 148.951 519.056 147.401 519.742 145.904C520.452 144.283 521.292 142.727 522.067 141.136C524.067 136.997 525.61 132.653 526.67 128.18C526.857 127.57 526.92 126.928 526.853 126.293C526.687 125.269 525.912 124.465 525.173 123.737C524.429 122.932 523.582 122.23 522.653 121.649C522.186 121.359 521.667 121.164 521.124 121.077C520.582 120.99 520.028 121.011 519.494 121.14C517.979 121.584 517.027 123.134 516.678 124.69C516.329 126.246 516.459 127.849 516.311 129.422C516.098 131.7 515.317 133.901 515.128 136.184C515.028 137.504 515.128 138.841 514.968 140.16C514.677 141.886 514.076 143.546 513.194 145.058C511.275 148.665 508.678 151.867 505.545 154.488C505.184 154.79 504.811 155.08 504.456 155.405C504.456 155.151 504.498 154.891 504.533 154.636C504.276 154.703 504.024 154.792 503.782 154.903C503.812 154.604 503.782 154.302 503.693 154.015C503.22 152.601 501.114 152.24 500.735 150.803C500.672 150.447 500.639 150.087 500.635 149.726C500.511 148.466 499.653 147.401 499.357 146.177C499.085 145.047 499.292 143.81 498.765 142.763C498.317 142.108 497.788 141.512 497.192 140.988C496.481 140.176 495.969 139.21 495.695 138.166C495.618 137.876 495.547 137.575 495.465 137.285C495.554 136.628 495.481 135.96 495.252 135.338C494.713 134.001 493.323 133.144 492.82 131.789C492.43 130.736 492.601 129.422 491.862 128.606C491.469 128.216 490.988 127.926 490.46 127.76C487.753 126.706 484.911 126.035 482.018 125.766C480.397 125.618 478.611 125.536 477.451 124.394C476.097 123.069 476.032 120.684 474.446 119.661C473.05 118.756 471.074 119.424 469.992 120.696C469.829 120.883 469.679 121.081 469.542 121.288C469.345 120.495 469.302 119.671 469.418 118.862C469.418 118.661 469.459 118.454 469.477 118.271C472.148 117.398 474.421 115.603 475.89 113.207C475.89 113.207 475.89 113.207 475.89 113.242L475.961 113.426C476.132 113.857 476.404 114.272 476.807 114.319C477.074 114.316 477.333 114.222 477.54 114.053C477.897 113.805 478.226 113.519 478.522 113.201C478.672 113.035 478.814 112.864 478.948 112.686C479.221 112.317 479.455 111.92 479.646 111.503C479.94 110.875 480.139 110.207 480.238 109.521C480.344 108.835 480.356 108.131 480.474 107.445C480.585 106.913 480.729 106.39 480.906 105.877C480.965 105.705 481.024 105.534 481.078 105.362C481.131 105.191 481.208 104.96 481.267 104.77C481.637 103.554 481.836 102.291 481.859 101.02C481.859 100.807 481.859 100.594 481.859 100.381C481.837 99.5509 481.65 98.7336 481.309 97.9768C480.968 97.22 480.479 96.5389 479.871 95.9734C478.853 95.1392 477.505 94.7902 476.759 93.6602C476.274 92.903 476.168 91.9269 475.884 91.0395C475.577 89.9775 474.979 89.0227 474.157 88.2834C473.335 87.5442 472.322 87.05 471.234 86.8568C469.923 86.7131 468.607 87.0749 467.555 87.8685V87.8685L467.472 87.9336C466.885 88.3815 466.388 88.9353 466.005 89.5664C465.223 89.3511 464.507 88.9444 463.922 88.3832C463.331 87.833 462.875 87.1408 462.278 86.6084C461.719 86.097 461.034 85.7449 460.293 85.5888C459.552 85.4327 458.783 85.4784 458.066 85.721C457.327 86.0169 456.669 86.4838 456.146 87.0834C455.622 87.6829 455.248 88.398 455.055 89.17C454.729 90.3887 454.789 91.7908 454.108 92.8083C453.582 93.6011 452.718 93.9915 452.115 94.7133C451.74 95.1703 451.484 95.7129 451.369 96.2929V96.2929C451.298 96.6172 451.264 96.9487 451.269 97.2808V97.2808C451.269 97.4287 451.269 97.5766 451.304 97.7186C451.304 97.7186 451.304 97.7659 451.304 97.7896C451.325 97.9517 451.359 98.1119 451.405 98.2688V98.2688C451.573 98.8685 451.874 99.4226 452.286 99.8898C452.677 100.337 453.164 100.689 453.712 100.919C453.936 101.006 454.165 101.079 454.398 101.138L455.102 101.298L455.351 101.357C454.501 102.952 454.029 104.721 453.972 106.527C453.914 108.334 454.273 110.129 455.019 111.775C455.019 111.941 454.978 112.106 454.96 112.272C454.864 114.601 454.967 116.935 455.268 119.247C455.351 120.164 455.398 121.176 454.836 121.903C454.58 122.189 454.292 122.445 453.978 122.666C454.298 122.252 454.623 121.844 454.954 121.436C454.12 120.596 452.801 120.489 451.618 120.572C449.328 120.743 447.105 121.422 445.111 122.56C443.786 123.323 442.425 124.335 440.911 124.157C440.017 124.057 439.136 123.566 438.266 123.802C437.777 124.002 437.321 124.273 436.912 124.607C436.588 124.839 436.198 124.959 435.799 124.95C434.871 123.808 433.433 123.033 432.321 122.104C431.055 120.978 429.897 119.736 428.86 118.395C426.944 116.082 425.033 113.763 423.152 111.426C421.566 109.462 419.94 107.338 419.662 104.824C419.633 104.574 419.619 104.323 419.62 104.072C419.659 102.878 419.809 101.689 420.07 100.523C420.14 100.241 420.14 99.9466 420.07 99.665C419.892 99.0734 419.212 98.8545 418.626 98.7243C418.703 98.2688 418.756 97.8014 418.786 97.3577C419.117 92.27 418.756 87.0994 419.833 82.1181C420.241 80.2014 420.91 78.2609 422.288 76.8707C424.447 74.6876 428.062 74.1611 429.718 71.5758C431.102 69.4224 430.552 66.3757 428.813 64.4766C427.074 62.5776 424.394 61.8026 421.844 61.8973C421.129 61.8727 420.422 62.0622 419.815 62.4415C419.248 62.9456 418.823 63.5904 418.585 64.311L416.047 70.4814C415.311 72.0878 414.691 73.7446 414.19 75.439C413.48 78.0302 413.32 80.7634 412.758 83.3782C412.758 85.3897 411.462 87.8981 410.753 89.7498C409.96 91.8322 409.102 93.891 408.386 96.0148C408.209 96.5472 407.588 98.1268 407.203 99.5644C407.058 99.649 406.923 99.7503 406.801 99.8661C406.492 100.262 406.211 100.679 405.961 101.114C405.423 101.824 404.547 102.203 403.955 102.889C403.364 103.575 403.24 104.836 404.062 105.179C404.229 105.235 404.401 105.272 404.577 105.291C404.684 105.3 404.791 105.318 404.896 105.344C405.783 105.593 406.132 106.711 406.002 107.634C405.872 108.557 405.411 109.409 405.334 110.332C405.174 111.964 406.132 113.485 407.055 114.857C408.011 116.345 409.066 117.766 410.214 119.111C411.048 120.046 411.989 120.886 412.829 121.785C416.029 125.074 418.573 128.92 421.448 132.493C422.482 133.841 423.658 135.075 424.956 136.173C425.803 136.835 426.69 137.446 427.612 138.001L432.558 141.136C433.118 141.547 433.753 141.846 434.427 142.018C434.647 142.047 434.87 142.047 435.09 142.018C435.119 142.165 435.143 142.307 435.178 142.455C435.563 144.005 436.409 145.413 436.503 146.993C436.598 148.572 436.456 150.188 436.568 151.785C436.675 153.258 437 154.743 437.083 156.192C437.249 158.985 436.563 161.741 435.9 164.475C434.9 168.474 434.297 172.556 432.351 176.182C431.806 177.182 431.167 178.2 431.167 179.342C431.167 179.478 431.167 179.62 431.203 179.756L430.316 180.259C430.055 180.406 429.795 180.554 429.558 180.708C428.434 181.442 427.234 182.252 426.772 183.518C426.399 184.542 426.571 185.713 426.121 186.707C426.1 186.752 426.076 186.795 426.05 186.837C425.577 187.76 424.637 188.446 424.424 189.458C424.264 190.233 424.571 191.055 424.424 191.824C424.424 191.824 424.424 191.824 424.424 191.854C424.289 192.24 424.182 192.636 424.104 193.037C424.098 193.168 424.11 193.3 424.14 193.428C424.252 193.876 424.5 194.278 424.85 194.581C425.063 194.786 425.294 194.97 425.542 195.131C425.794 195.297 426.054 195.451 426.323 195.593L426.476 195.676C426.701 195.794 426.926 195.906 427.157 196.013L427.31 196.078C427.577 196.196 427.849 196.303 428.121 196.397L428.31 196.457C428.523 196.528 428.742 196.593 428.961 196.646L429.109 196.693L429.245 196.723L429.836 196.847L430.055 196.888C430.316 196.932 430.582 196.967 430.854 196.995H431.091C431.292 196.995 431.487 197.024 431.682 197.03H431.96C432.167 197.03 432.368 197.03 432.552 197.03H432.765C433.043 197.03 433.321 196.989 433.599 196.953H433.688C433.936 196.918 434.184 196.877 434.433 196.823L434.622 196.782C434.853 196.729 435.084 196.675 435.314 196.604L435.439 196.569C435.717 196.486 435.995 196.397 436.267 196.291C437.208 195.904 438.122 195.451 439 194.936C439.591 194.611 440.183 194.279 440.774 193.978C441.213 193.757 441.663 193.559 442.123 193.386C443.242 192.908 444.459 192.705 445.673 192.795C446.271 192.876 446.864 192.997 447.447 193.155C447.447 193.22 447.447 193.286 447.447 193.351C447.928 196.19 448.404 199.03 448.873 201.87C449.647 201.312 450.467 200.819 451.322 200.397C451.162 200.825 451.057 201.273 451.008 201.728C450.973 202.08 450.973 202.435 451.008 202.787C451.062 203.349 451.18 203.97 450.843 204.414C450.636 204.686 450.251 204.839 450.139 205.147C450.057 205.462 450.037 205.789 450.08 206.111C450.056 206.479 449.9 206.826 449.642 207.089C449.383 207.351 449.039 207.513 448.672 207.543C448.841 208.019 448.845 208.539 448.683 209.017C448.521 209.496 448.202 209.906 447.779 210.182C447.531 210.301 447.3 210.452 447.092 210.631C446.89 210.893 446.754 211.199 446.696 211.525C445.914 214.454 444.306 217.097 442.064 219.138C441.223 219.799 440.455 220.549 439.775 221.375C439.354 222.014 439.007 222.699 438.739 223.416C437.162 227.273 435.561 231.132 433.936 234.993C433.037 237.153 432.161 239.347 431.877 241.672C431.167 248.05 425.488 253.457 426.553 259.787C426.768 261.369 427.406 262.862 428.399 264.112C429.582 265.538 431.357 266.354 433.131 267.017C437.692 268.791 442.502 269.762 447.293 270.738L454.818 272.282C456.295 272.621 457.793 272.859 459.302 272.992C461.118 273.116 462.982 272.944 464.751 273.406C465.845 273.69 466.892 274.216 468.022 274.276C468.992 274.329 470.187 274.122 470.761 274.914C471.335 275.707 470.891 276.754 471.435 277.458C472.311 278.576 474.446 277.458 475.399 278.511C475.659 278.916 475.858 279.356 475.99 279.819C476.135 280.105 476.336 280.358 476.582 280.564C476.64 280.898 476.664 281.237 476.653 281.576C476.529 282.95 476.243 284.304 475.801 285.611C475.091 288.012 474.383 290.416 473.677 292.822C473.408 293.672 473.21 294.543 473.086 295.425C473.041 295.854 473.041 296.286 473.086 296.715C473.21 298.022 473.961 299.371 475.209 299.797C476.178 300.053 477.207 299.926 478.084 299.442C478.931 299 479.724 298.464 480.451 297.845C481.76 296.854 482.911 295.669 483.864 294.331C486.822 289.906 485.863 283.919 487.94 279.026C489.318 275.76 492.004 273.11 492.897 269.667C493.106 269.012 493.131 268.312 492.968 267.644C492.595 266.46 491.335 265.786 490.158 265.36H490.105C489.138 265.016 488.15 264.733 487.147 264.514C486.899 264.461 486.644 264.419 486.39 264.378C485.827 263.92 485.379 263.337 485.083 262.674C485.036 262.322 484.943 261.978 484.805 261.651C484.71 261.51 484.584 261.393 484.436 261.311C484.288 261.229 484.122 261.183 483.953 261.177C483.361 261.118 482.568 261.331 481.924 261.284C480.604 261.189 479.729 259.894 478.546 259.296C477.363 258.699 476.079 258.847 474.819 258.935C474.368 258.997 473.91 258.969 473.47 258.853C472.945 258.611 472.465 258.28 472.05 257.876C471.322 257.31 470.472 256.92 469.568 256.739C468.664 256.557 467.729 256.588 466.839 256.829C466.273 257.058 465.673 257.194 465.064 257.232C463.911 257.166 463.094 256.137 462.242 255.356C459.912 253.22 456.593 252.658 453.765 251.256C453.332 251.095 452.971 250.785 452.748 250.381C452.422 249.576 453.156 248.772 453.818 248.221L458.681 244.181C464.005 239.756 470.66 236.425 473.133 229.935C473.391 229.065 473.791 228.243 474.316 227.504C474.507 227.278 474.728 227.079 474.973 226.912C476.049 226.215 477.352 225.961 478.611 226.202C480.145 226.546 481.599 227.18 482.894 228.072C485.012 229.353 487.072 230.734 489.076 232.213C491.06 233.631 492.947 235.181 494.725 236.851C497.831 239.809 500.416 243.317 503.309 246.506C506.201 249.695 509.508 252.67 513.525 254.197C517.542 255.723 522.398 255.658 525.847 253.096C529.828 250.138 531.106 244.849 532.112 239.998C534.33 237.857 534.999 234.597 536.081 231.716C536.762 229.888 537.631 228.166 538.365 226.344C539.24 224.203 539.927 221.99 540.613 219.783C541.39 217.567 541.918 215.272 542.186 212.938C542.47 209.253 541.482 205.331 542.518 201.87C543.884 201.568 545.126 200.799 546.469 200.349C548.469 199.693 550.61 199.799 552.728 199.811H552.864C553.594 199.889 554.328 199.715 554.946 199.32C555.656 198.728 555.769 197.717 555.804 196.8C555.887 194.534 555.745 191.99 554.047 190.523ZM468.335 89.6078C467.846 89.7288 467.34 89.7648 466.839 89.7143L468.335 89.6078Z" fill="url(#paint0_linear)"/>
<path d="M470.571 126.705C469.856 127.313 469.019 127.76 468.116 128.013L463.931 129.515C461.659 130.332 459.286 131.155 456.89 130.859C455.55 130.693 449.807 129.847 448.94 128.8C447.618 127.178 452.251 124.794 453.832 123.427C454.191 123.169 454.523 122.875 454.824 122.551C455.414 121.829 455.338 120.818 455.255 119.906C454.955 117.598 454.852 115.268 454.948 112.942C454.994 112.388 455.073 111.836 455.184 111.291C455.774 108.569 458.3 109.564 460.295 110.285C462.697 111.067 465.019 112.076 467.23 113.297C467.904 113.645 468.489 114.143 468.942 114.753C469.815 116.078 469.467 117.818 469.325 119.486C469.202 120.782 469.207 122.025 470.016 122.965C470.423 123.325 470.796 123.721 471.132 124.149C471.32 124.579 471.368 125.059 471.267 125.519C471.166 125.978 470.923 126.393 470.571 126.705Z" fill="#BE6F72"/>
<path d="M412.926 84.5348C413.522 81.9029 413.652 79.1878 414.367 76.5796C414.871 74.8838 415.496 73.226 416.236 71.6188L418.862 65.5053C419.102 64.7835 419.529 64.1378 420.1 63.6339C420.712 63.2556 421.423 63.0655 422.142 63.0873C424.708 62.9922 427.405 63.7883 429.156 65.6717C430.906 67.555 431.46 70.6028 430.067 72.7595C428.4 75.3558 424.762 75.8786 422.589 78.0649C421.202 79.4611 420.529 81.4039 420.118 83.3229C419.035 88.3134 419.398 93.4882 419.064 98.5857C418.957 100.172 418.648 101.984 417.278 102.804C416.451 103.209 415.53 103.387 414.611 103.321L410.705 103.386C410.051 103.386 407.675 103.796 407.24 103.303C406.478 102.441 408.217 98.152 408.532 97.1954C409.235 95.0744 410.098 93.0069 410.914 90.9216C411.622 89.062 412.926 86.5489 412.926 84.5348Z" fill="#BE6F72"/>
<path d="M492.591 270.771C491.688 274.207 488.97 276.882 487.575 280.158C485.474 285.062 486.419 291.06 483.45 295.494C482.487 296.841 481.322 298.034 479.996 299.031C479.261 299.652 478.458 300.188 477.601 300.63C476.714 301.116 475.672 301.244 474.692 300.987C473.429 300.559 472.669 299.203 472.543 297.896C472.498 297.467 472.498 297.034 472.543 296.606C472.669 295.721 472.869 294.848 473.142 293.996C473.86 291.591 474.576 289.181 475.291 286.768C475.738 285.459 476.027 284.102 476.153 282.726C476.231 281.228 475.273 279.278 475.68 277.881C475.865 277.251 476.56 276.692 476.877 276.163C477.328 275.402 477.674 274.584 477.907 273.732C478.398 272.073 478.733 270.302 479.763 268.905C480.434 268.076 481.22 267.346 482.097 266.735C482.745 266.172 483.503 265.749 484.324 265.493C485.121 265.354 485.939 265.392 486.719 265.606C487.734 265.821 488.734 266.103 489.712 266.45H489.766C490.963 266.878 492.232 267.538 492.609 268.738C492.793 269.405 492.786 270.108 492.591 270.771V270.771Z" fill="#0F0000"/>
<path d="M555.802 197.202C555.768 198.109 555.658 199.121 554.963 199.689C554.358 200.08 553.639 200.251 552.925 200.174H552.768C550.701 200.174 548.599 200.057 546.642 200.707C545.154 201.204 543.788 202.117 542.236 202.298C540.1 202.544 538.09 201.362 536.197 200.332C534.414 199.362 532.584 198.483 530.714 197.699C529.486 197.19 526.979 196.863 526.388 195.505C526.186 194.863 526.016 194.211 525.879 193.551C525.782 193.256 525.664 192.969 525.526 192.691C525.178 192.098 524.957 191.438 524.877 190.754C524.879 190.072 525.112 189.412 525.537 188.882C526.01 188.317 526.588 187.852 527.239 187.513C527.89 187.175 528.6 186.97 529.33 186.91C530.789 186.795 532.257 186.874 533.696 187.144L547.951 189.215C549.051 189.373 550.157 189.531 551.24 189.8C552.268 189.981 553.238 190.41 554.065 191.053C555.75 192.48 555.889 194.99 555.802 197.202Z" fill="#0F0000"/>
<path d="M543.562 200.846C541.774 204.623 543.061 209.093 542.739 213.27C542.469 215.617 541.938 217.927 541.154 220.156C540.463 222.375 539.772 224.601 538.89 226.755C538.151 228.545 537.275 230.335 536.59 232.161C535.499 235.073 534.802 238.349 532.591 240.515C531.578 245.396 530.291 250.731 526.28 253.691C522.794 256.268 517.938 256.358 513.868 254.8C509.797 253.243 506.49 250.26 503.576 247.043C500.662 243.827 498.058 240.324 494.929 237.329C493.136 235.644 491.231 234.083 489.227 232.657C487.208 231.189 485.133 229.808 482.999 228.515C481.693 227.62 480.229 226.983 478.685 226.636C477.417 226.392 476.104 226.649 475.02 227.352C474.774 227.52 474.551 227.721 474.359 227.949C473.828 228.692 473.425 229.519 473.167 230.395C470.664 236.923 463.948 240.277 458.585 244.728L453.686 248.792C453.019 249.347 452.28 250.158 452.608 250.964C452.833 251.371 453.197 251.684 453.633 251.847C456.481 253.255 459.824 253.822 462.172 255.97C463.03 256.758 463.853 257.796 465.015 257.856C465.628 257.82 466.232 257.685 466.802 257.456C467.699 257.213 468.64 257.181 469.551 257.364C470.461 257.546 471.318 257.937 472.052 258.506C472.469 258.914 472.953 259.247 473.483 259.491C473.925 259.608 474.387 259.636 474.841 259.574C476.111 259.485 477.457 259.371 478.595 259.938C479.734 260.505 480.669 261.842 481.998 261.937C482.648 261.985 483.422 261.77 484.042 261.83C484.213 261.835 484.38 261.881 484.529 261.964C484.678 262.047 484.805 262.165 484.9 262.307C485.039 262.635 485.134 262.98 485.18 263.333C485.425 264.175 486.247 264.688 486.783 265.38C487.606 266.442 487.725 267.886 487.641 269.229C487.372 273.427 485.503 277.361 482.421 280.22C481.546 281.116 480.43 281.738 479.209 282.01C478.598 282.138 477.961 282.071 477.39 281.817C476.819 281.563 476.342 281.136 476.027 280.596C475.894 280.132 475.693 279.689 475.431 279.283C474.472 278.227 472.321 279.349 471.439 278.221C470.89 277.517 471.284 276.389 470.759 275.661C470.235 274.933 468.971 275.065 468 275.023C466.862 274.963 465.807 274.426 464.705 274.146C462.917 273.68 461.046 273.853 459.216 273.728C457.696 273.594 456.187 273.355 454.699 273.012L447.119 271.461C442.293 270.476 437.448 269.48 432.853 267.719C431.095 267.051 429.325 266.227 428.086 264.795C427.087 263.537 426.445 262.032 426.227 260.439C425.148 254.072 430.869 248.631 431.59 242.216C431.846 239.877 432.782 237.669 433.664 235.497C435.281 231.614 436.894 227.73 438.502 223.843C438.763 223.12 439.103 222.427 439.516 221.779C440.201 220.948 440.974 220.194 441.822 219.529C444.08 217.477 445.7 214.817 446.488 211.867C446.546 211.539 446.683 211.23 446.887 210.966C447.098 210.789 447.33 210.639 447.578 210.519C448.004 210.241 448.324 209.829 448.487 209.347C448.65 208.865 448.647 208.343 448.478 207.863C448.848 207.833 449.195 207.67 449.455 207.405C449.715 207.14 449.872 206.79 449.896 206.419C449.853 206.096 449.873 205.768 449.956 205.453C450.099 205.142 450.457 204.987 450.665 204.713C451.005 204.265 450.886 203.639 450.832 203.078C450.796 202.723 450.796 202.365 450.832 202.01C450.962 200.746 451.527 199.567 452.429 198.674C453.853 197.272 455.879 197.636 457.846 197.302C459.807 196.878 461.723 196.264 463.567 195.47C468.737 193.43 474.182 192.169 479.722 191.728C485.289 191.29 490.881 192.182 496.038 194.33C496.788 194.634 497.495 195.035 498.141 195.523C498.6 195.878 498.976 196.328 499.244 196.842C499.464 197.474 499.735 198.087 500.054 198.674C500.692 199.545 501.896 199.826 502.593 200.649C503.29 201.473 503.35 202.863 503.928 203.883C504.756 205.339 506.675 206.014 507.247 207.595C507.426 208.096 507.45 208.645 507.581 209.164C507.902 210.465 508.868 211.491 509.72 212.518C512.844 216.259 514.844 220.811 515.488 225.645C515.679 222.62 517.711 219.941 520.256 218.27C520.941 217.822 521.734 217.327 521.871 216.516C522.043 215.489 521.048 214.576 521.114 213.532C521.186 213.022 521.392 212.541 521.71 212.136C522.845 210.488 524.092 208.919 525.44 207.44C526.173 206.634 526.995 205.65 526.692 204.587C526.459 203.794 525.649 203.328 525.202 202.636C524.941 202.224 524.807 201.743 524.818 201.255C524.829 200.767 524.983 200.292 525.261 199.891C525.678 199.324 526.34 198.913 526.543 198.238C526.775 197.445 526.257 196.586 526.417 195.768C526.635 195.113 527.068 194.552 527.645 194.175C528.436 193.454 529.335 192.862 530.309 192.421C531.882 191.824 533.634 192.045 535.302 192.277C538.091 192.665 541.22 193.262 542.793 195.601C543.8 197.063 544.313 199.283 543.562 200.846Z" fill="#260404"/>
<path opacity="0.1" d="M555.802 197.938C555.768 198.909 555.658 199.994 554.963 200.602C554.359 201.021 553.64 201.204 552.926 201.122H552.77C553.007 199.818 554.471 199.072 554.726 197.75C554.77 197.344 554.736 196.932 554.626 196.541C554.517 196.149 554.334 195.787 554.09 195.475C552.851 193.664 550.86 192.661 548.881 191.927C543.29 189.851 537.3 189.366 531.486 190.517C529.905 190.796 528.367 191.309 526.914 192.04C526.433 192.367 525.969 192.722 525.525 193.106C525.178 192.471 524.957 191.764 524.877 191.031C524.879 190.301 525.112 189.593 525.537 189.026C526.009 188.42 526.587 187.922 527.237 187.56C527.888 187.197 528.598 186.978 529.327 186.914C530.786 186.791 532.253 186.875 533.691 187.164L547.938 189.383C549.038 189.552 550.143 189.721 551.225 190.01C552.253 190.203 553.222 190.663 554.049 191.351C555.75 192.88 555.889 195.569 555.802 197.938Z" fill="black"/>
<path opacity="0.1" d="M492.551 270.888C491.649 274.311 488.937 276.976 487.545 280.238C485.448 285.124 486.392 291.098 483.428 295.516C482.467 296.857 481.305 298.046 479.981 299.039C479.247 299.657 478.446 300.192 477.591 300.632C476.706 301.116 475.666 301.243 474.688 300.987C473.427 300.561 472.668 299.211 472.543 297.908C472.498 297.481 472.498 297.05 472.543 296.623L472.579 296.718C473.099 297.961 473.947 299.264 475.285 299.483C475.787 299.519 476.292 299.452 476.767 299.286C477.242 299.12 477.677 298.858 478.045 298.518C480.017 296.949 481.164 294.61 482.257 292.354C483.113 290.727 483.79 289.014 484.277 287.243C484.516 286.237 484.629 285.206 484.874 284.2C486.009 279.309 489.875 275.318 490.729 270.361C490.799 270.02 490.815 269.671 490.777 269.325C490.664 268.874 490.491 268.44 490.263 268.034C490.055 267.576 489.903 267.095 489.809 266.601C491.004 267.028 492.27 267.685 492.647 268.881C492.801 269.546 492.768 270.241 492.551 270.888Z" fill="black"/>
<path opacity="0.1" d="M484.411 262.556C483.852 264.015 482.911 265.297 481.686 266.269C479.965 267.577 477.951 268.446 475.818 268.801C474.825 269.054 473.783 269.041 472.796 268.765C471.455 268.301 470.488 267.047 469.116 266.685C468.137 266.42 467.086 266.655 466.094 266.51C464.312 266.263 462.928 264.907 461.49 263.822C457.084 260.519 451.301 259.452 446.895 256.149C446.699 256.029 446.537 255.861 446.424 255.661C446.34 255.444 446.309 255.211 446.333 254.98C446.35 252.976 446.801 251 447.657 249.187C448.358 247.922 449.192 246.736 450.147 245.649C454.093 240.827 458.057 235.969 462.783 231.9C464.765 230.194 466.928 228.603 469.43 227.831C470.82 227.403 473.564 226.999 475.256 227.723C475.006 227.893 474.78 228.095 474.585 228.325C474.047 229.076 473.639 229.912 473.376 230.797C470.832 237.397 464.022 240.785 458.583 245.281L453.615 249.386C452.939 249.947 452.189 250.766 452.522 251.58C452.75 251.992 453.119 252.308 453.561 252.472C456.45 253.895 459.84 254.467 462.221 256.637C463.091 257.433 463.925 258.482 465.103 258.542C465.726 258.506 466.338 258.369 466.916 258.138C467.826 257.893 468.779 257.861 469.703 258.045C470.627 258.229 471.495 258.624 472.24 259.199C472.663 259.611 473.154 259.947 473.691 260.193C474.14 260.312 474.608 260.341 475.068 260.278C476.356 260.187 477.721 260.073 478.876 260.646C480.03 261.218 480.979 262.568 482.326 262.665C482.997 262.713 483.783 262.484 484.411 262.556Z" fill="black"/>
<path d="M429.247 181.172C428.109 181.895 426.9 182.714 426.433 183.971C426.05 184.997 426.229 186.171 425.768 187.167C425.307 188.164 424.272 188.857 424.044 189.925C423.882 190.702 424.2 191.52 424.044 192.297C423.908 192.701 423.798 193.113 423.715 193.53C423.655 194.414 424.421 195.132 425.17 195.624C426.763 196.65 428.577 197.292 430.467 197.498C432.356 197.704 434.268 197.468 436.048 196.81C437.647 196.217 439.09 195.25 440.623 194.491C442.117 193.639 443.827 193.227 445.55 193.305C446.538 193.412 447.484 193.768 448.472 193.898C448.96 193.994 449.464 193.97 449.94 193.83C450.417 193.689 450.852 193.436 451.208 193.092C451.513 192.674 451.718 192.194 451.807 191.686C452.639 188.43 452.262 184.979 451.471 181.705C450.681 178.432 449.484 175.283 448.639 172.027C448.041 169.614 447.58 167.141 446.58 164.858C445.58 162.575 443.898 160.452 441.545 159.58C441.359 159.49 441.149 159.463 440.946 159.503C440.795 159.565 440.661 159.663 440.557 159.787C438.695 161.741 437.293 164.078 436.449 166.631C435.509 169.471 435.252 172.484 434.39 175.336C434.019 176.522 433.54 178.112 432.594 179.019C431.648 179.926 430.319 180.49 429.247 181.172Z" fill="#0F0000"/>
<path opacity="0.1" d="M451.811 191.685C451.71 192.194 451.496 192.674 451.182 193.09C450.827 193.435 450.392 193.688 449.915 193.828C449.438 193.967 448.934 193.989 448.446 193.89C447.464 193.771 446.518 193.41 445.531 193.297C443.808 193.218 442.098 193.63 440.604 194.482C439.071 195.241 437.61 196.183 436.024 196.793C433.703 197.664 431.167 197.807 428.762 197.202C427.484 196.884 426.27 196.355 425.17 195.638C424.415 195.152 423.655 194.453 423.715 193.546C423.798 193.131 423.908 192.721 424.044 192.319C424.2 191.543 423.888 190.725 424.044 189.949C424.272 188.883 425.313 188.172 425.768 187.188C426.223 186.204 426.05 185.025 426.427 184C426.894 182.738 428.109 181.926 429.247 181.197C430.384 180.468 431.737 179.911 432.647 179.028C432.765 178.891 432.871 178.744 432.964 178.59C433.621 177.588 434.102 176.485 434.389 175.325C435.269 172.469 435.509 169.465 436.443 166.62C437.29 164.071 438.694 161.739 440.556 159.788C440.655 159.661 440.788 159.563 440.939 159.504C441.141 159.463 441.351 159.488 441.537 159.575C443.884 160.452 445.567 162.573 446.572 164.854C447.578 167.136 448.003 169.595 448.632 172.013C449.47 175.266 450.673 178.424 451.464 181.689C452.254 184.954 452.643 188.426 451.811 191.685Z" fill="black"/>
<path opacity="0.1" d="M469.928 119.642C466.98 120.543 463.79 120.364 460.971 119.14C458.152 117.915 455.903 115.732 454.656 113.008C454.705 112.443 454.789 111.881 454.907 111.326C455.534 108.552 458.217 109.565 460.336 110.301C462.887 111.098 465.353 112.125 467.703 113.37C468.418 113.725 469.04 114.233 469.521 114.854C470.449 116.187 470.079 117.96 469.928 119.642Z" fill="black"/>
<path d="M465.368 119.018C471.941 119.018 477.27 113.69 477.27 107.117C477.27 100.543 471.941 95.2147 465.368 95.2147C458.795 95.2147 453.466 100.543 453.466 107.117C453.466 113.69 458.795 119.018 465.368 119.018Z" fill="#BE6F72"/>
<path opacity="0.1" d="M497.502 195.96C497.502 196.98 496.187 197.306 495.212 197.251C491.706 197.036 488.277 196.021 484.807 196.329C480.419 196.747 476.388 199.299 471.989 199.533C470.295 199.625 468.571 199.361 466.901 199.687C464.739 200.111 462.811 201.495 460.608 201.692C458.698 201.864 456.811 201.107 454.901 201.187C453.565 201.271 452.263 201.662 451.086 202.331C451.214 201.029 451.767 199.814 452.651 198.893C454.048 197.448 456.034 197.823 457.962 197.479C459.885 197.042 461.763 196.409 463.57 195.591C468.64 193.488 473.977 192.188 479.409 191.734C484.864 191.277 490.344 192.19 495.399 194.397C496.134 194.711 496.827 195.124 497.461 195.627C497.493 195.735 497.507 195.847 497.502 195.96V195.96Z" fill="black"/>
<path d="M460.506 129.431L455.788 127.66L453.796 126.917C452.984 126.572 452.13 126.342 451.256 126.232C448.973 126.055 446.824 127.595 445.607 129.561C444.389 131.526 443.929 133.869 443.539 136.153C443.003 139.276 442.549 142.412 442.176 145.559C441.775 148.402 441.57 151.269 441.564 154.14C441.698 161.446 443.224 168.652 444.902 175.763C445.724 178.916 446.344 182.119 446.76 185.353C446.9 186.687 446.964 188.026 447.104 189.366C447.255 190.871 447.5 192.358 447.744 193.851L449.148 202.331C450.895 201.074 452.882 199.971 455.031 199.906C456.935 199.835 458.822 200.555 460.721 200.39C462.905 200.207 464.839 198.879 466.994 198.472C468.66 198.159 470.378 198.407 472.073 198.324C476.453 198.1 480.478 195.645 484.846 195.25C488.312 194.931 491.754 195.922 495.226 196.129C496.193 196.188 497.503 195.875 497.503 194.89C497.503 194.205 496.827 193.751 496.239 193.408C493.466 191.717 490.827 189.809 488.347 187.702C486.052 185.86 483.722 183.972 482.144 181.481C478.34 175.492 479.645 167.389 476.401 161.068C473.762 155.934 476.401 149.207 476.401 143.417C476.401 140.531 476.401 137.61 475.731 134.807C475.312 133.239 474.791 131.701 474.17 130.204L471.904 124.391C471.857 124.221 471.765 124.068 471.636 123.948C471.484 123.842 471.303 123.786 471.118 123.789C469.757 123.706 468.415 124.142 467.355 125.011C466.29 125.89 465.608 127.153 464.56 128.068C463.412 129.077 461.933 129.962 460.506 129.431Z" fill="#E3E8F4"/>
<path d="M467.825 126.195C468.211 124.583 468.627 122.906 469.73 121.647C470.833 120.388 472.846 119.724 474.268 120.624C475.884 121.647 475.95 124.012 477.331 125.33C478.536 126.459 480.344 126.548 481.984 126.695C484.932 126.957 487.827 127.622 490.585 128.671C491.123 128.834 491.613 129.121 492.014 129.507C492.767 130.342 492.616 131.624 492.99 132.666C493.502 134.007 494.919 134.86 495.467 136.195C496.07 137.678 495.467 139.337 494.961 140.86C494.051 143.596 493.478 146.437 492.592 149.185C491.706 151.932 490.447 154.638 488.373 156.709C487.457 157.626 486.095 158.473 484.889 157.926L484.425 161.191C484.289 161.881 484.289 162.59 484.425 163.28C484.495 163.625 484.663 163.944 484.911 164.2C485.158 164.456 485.474 164.638 485.823 164.727C485.914 165.233 486.462 165.474 486.908 165.75C487.238 165.97 487.519 166.251 487.736 166.578C487.953 166.905 488.101 167.27 488.172 167.653C488.244 168.036 488.236 168.429 488.151 168.81C488.065 169.19 487.903 169.55 487.674 169.868C487.294 170.368 486.734 170.762 486.553 171.357C486.281 172.216 486.926 173.121 487.71 173.592C488.494 174.063 489.416 174.28 490.211 174.733C491.863 175.663 492.749 177.492 493.316 179.269C493.738 180.61 494.087 182.063 495.124 183.04C495.522 183.41 495.998 183.693 496.378 184.081C497.035 184.839 497.415 185.789 497.457 186.781C497.622 188.011 497.345 189.258 496.673 190.311C495.467 191.993 493.219 192.493 491.248 193.252C488.048 194.535 485.413 196.829 482.593 198.782C481.444 199.685 480.09 200.306 478.645 200.594C476.692 200.847 474.769 200.006 472.804 199.929C471.628 199.94 470.458 200.09 469.32 200.376L465.703 201.141C465.896 198.406 464.353 195.664 463.491 193.058C461.864 188.152 461.562 182.904 461.948 177.763C462.334 172.621 463.407 167.551 464.468 162.503C465.209 158.973 465.137 155.285 466.276 151.855C467.343 148.555 468.868 145.384 469.428 141.949C470.345 136.39 466.535 131.677 467.825 126.195Z" fill="#0F0000"/>
<path d="M494.638 136.544C494.966 137.162 495.196 137.828 495.321 138.519C495.596 139.59 496.111 140.581 496.824 141.412C497.422 141.952 497.953 142.564 498.405 143.236C498.952 144.293 498.744 145.582 498.999 146.737C499.296 147.995 500.158 149.089 500.282 150.384C500.286 150.755 500.32 151.125 500.383 151.49C500.77 152.961 502.885 153.313 503.354 154.784C503.669 155.738 503.128 156.778 503.229 157.781C503.303 158.091 503.321 158.412 503.283 158.729C503.148 159.087 502.913 159.396 502.606 159.616C500.639 161.538 499.278 164.016 498.696 166.733C498.124 169.436 497.823 172.192 497.799 174.957L495.476 171.815C495.23 171.433 494.915 171.103 494.549 170.842C494.252 170.66 493.907 170.569 493.604 170.386C492.725 169.876 492.38 168.794 492.042 167.821C491.101 165.129 489.692 162.634 487.883 160.455C486.938 159.318 485.839 158.176 485.631 156.699C485.568 156.02 485.604 155.336 485.738 154.669C486.332 150.688 486.968 146.609 488.863 143.078C489.748 141.425 490.895 139.929 491.744 138.252C492.315 137.14 493.117 134.246 494.638 136.544Z" fill="#0F0000"/>
<path d="M436.641 140.736C436.651 141.239 436.525 141.734 436.274 142.169C436.048 142.433 435.754 142.629 435.424 142.734C435.094 142.84 434.742 142.85 434.406 142.766C433.733 142.595 433.099 142.295 432.538 141.882C430.891 140.832 429.243 139.779 427.596 138.724C426.676 138.165 425.79 137.551 424.941 136.886C423.645 135.781 422.47 134.538 421.436 133.179C418.563 129.598 416.021 125.712 412.823 122.435C411.954 121.54 411.049 120.68 410.21 119.743C409.062 118.388 408.008 116.956 407.053 115.457C406.131 114.078 405.173 112.55 405.333 110.903C405.427 109.972 405.871 109.112 406.001 108.187C406.131 107.262 405.782 106.134 404.895 105.883C404.79 105.856 404.684 105.838 404.576 105.829C404.401 105.81 404.228 105.772 404.062 105.716C403.24 105.37 403.364 104.086 403.955 103.412C404.546 102.737 405.421 102.361 405.959 101.621C406.209 101.182 406.49 100.761 406.799 100.362C407.195 100.019 407.667 99.7791 408.176 99.6631C411.586 98.6485 415.193 98.511 418.669 99.2632C419.26 99.3945 419.934 99.6333 420.112 100.212C420.182 100.494 420.182 100.79 420.112 101.072C419.851 102.249 419.701 103.448 419.662 104.653C419.661 104.905 419.675 105.156 419.704 105.405C419.982 107.936 421.607 110.079 423.192 112.055C425.072 114.407 426.981 116.741 428.896 119.068C429.932 120.417 431.09 121.666 432.355 122.799C433.537 123.79 435.068 124.59 435.99 125.861C436.741 126.888 436.499 128.291 436.581 129.526C436.856 133.257 436.876 137.002 436.641 140.736V140.736Z" fill="#0F0000"/>
<path d="M512.134 165.622C512.719 165.045 513.247 164.411 513.71 163.73C514.209 162.886 514.607 161.984 514.896 161.045L518.334 151.166C518.88 149.605 519.425 148.037 520.113 146.518C520.824 144.878 521.666 143.299 522.442 141.713C524.44 137.541 525.984 133.161 527.048 128.651C527.236 128.031 527.298 127.38 527.232 126.735C527.066 125.696 526.29 124.885 525.549 124.147C524.803 123.331 523.954 122.62 523.023 122.033C522.556 121.738 522.035 121.541 521.492 121.452C520.948 121.364 520.393 121.385 519.858 121.516C518.34 121.967 517.386 123.54 517.036 125.12C516.686 126.699 516.817 128.315 516.668 129.924C516.455 132.23 515.673 134.458 515.483 136.771C515.382 138.11 515.483 139.461 515.323 140.794C515.031 142.545 514.429 144.228 513.544 145.761C511.618 149.413 509.016 152.655 505.88 155.31C505.02 155.953 504.247 156.706 503.58 157.55C503.022 158.395 502.645 159.348 502.471 160.349C502.077 161.873 502.248 163.49 502.951 164.895C503.917 166.565 505.773 167.297 507.545 167.67C509.94 168.174 510.492 167.345 512.134 165.622Z" fill="#BE6F72"/>
<path d="M465.861 90.0953C466.376 89.1034 467.164 88.289 468.128 87.7536C469.092 87.2182 470.188 86.9856 471.28 87.0849C472.38 87.2845 473.403 87.7958 474.234 88.5608C475.065 89.3258 475.67 90.314 475.982 91.4135C476.263 92.327 476.376 93.3387 476.867 94.1235C477.609 95.3068 478.984 95.6502 480.013 96.5085C480.628 97.0935 481.122 97.7983 481.467 98.5816C481.812 99.3649 482.001 100.211 482.023 101.07C482.08 102.825 481.81 104.575 481.227 106.226C480.98 106.931 480.78 107.652 480.629 108.385C480.51 109.096 480.498 109.819 480.39 110.531C480.257 111.453 479.946 112.339 479.475 113.136C479.003 113.933 478.381 114.625 477.644 115.172C477.435 115.347 477.173 115.444 476.903 115.448C476.436 115.393 476.149 114.835 475.976 114.332C475.025 111.518 475.252 108.078 473.499 105.834C472.702 104.929 471.739 104.193 470.664 103.67C470.226 103.38 469.732 103.19 469.216 103.112C468.458 103.154 467.729 103.427 467.123 103.897C465.86 104.765 464.46 105.4 462.984 105.773C462.247 105.952 461.481 105.96 460.741 105.796C460.001 105.633 459.306 105.302 458.707 104.829C457.881 104.13 457.277 103.081 456.362 102.536C455.447 101.99 454.49 102.02 453.587 101.646C453.011 101.396 452.499 101.013 452.089 100.529C451.68 100.044 451.383 99.4701 451.223 98.8503C451.063 98.2306 451.042 97.5815 451.164 96.9526C451.285 96.3236 451.545 95.7314 451.924 95.221C452.522 94.4852 453.407 94.0683 453.94 93.2529C454.627 92.1983 454.568 90.7513 454.897 89.4883C455.091 88.6892 455.469 87.9492 455.999 87.3297C456.528 86.7102 457.194 86.229 457.941 85.9261C458.666 85.6738 459.443 85.6255 460.193 85.7862C460.942 85.9469 461.635 86.3107 462.2 86.8396C462.798 87.3914 463.277 88.1026 463.863 88.679C464.442 89.2468 465.15 89.6566 465.924 89.8709C466.697 90.0851 467.51 90.0969 468.289 89.9052" fill="#0F0000"/>
<path opacity="0.1" d="M475.669 178.311C475.32 178.624 475.072 179.034 474.959 179.49C474.846 179.945 474.872 180.424 475.033 180.865C475.165 181.148 481.354 179.949 482.007 179.859C483.638 179.624 486.499 179.739 487.596 178.239C489.551 175.583 483.494 176.173 482.385 176.27C480.274 176.45 477.276 176.74 475.669 178.311Z" fill="black"/>
<path d="M420.055 101.128C419.794 102.321 419.644 103.536 419.606 104.758C417.833 105.128 415.989 104.522 414.286 103.917L409.399 102.211C409.101 102.016 408.743 101.945 408.396 102.011C408.049 102.078 407.74 102.277 407.531 102.568C406.745 103.403 405.663 104.988 404.576 105.926C404.401 105.907 404.228 105.869 404.061 105.811C403.24 105.46 403.364 104.159 403.955 103.476C404.546 102.792 405.421 102.411 405.959 101.66C406.209 101.215 406.489 100.788 406.798 100.383C407.194 100.036 407.667 99.7928 408.175 99.6753C411.584 98.6466 415.191 98.5072 418.666 99.2698C419.257 99.4029 419.931 99.645 420.108 100.232C420.166 100.53 420.147 100.839 420.055 101.128Z" fill="#0F0000"/>
<path opacity="0.1" d="M420.055 101.128C419.794 102.321 419.644 103.536 419.606 104.758C417.833 105.128 415.989 104.522 414.286 103.917L409.399 102.211C409.101 102.016 408.743 101.945 408.396 102.011C408.049 102.078 407.74 102.277 407.531 102.568C406.745 103.403 405.663 104.988 404.576 105.926C404.401 105.907 404.228 105.869 404.061 105.811C403.24 105.46 403.364 104.159 403.955 103.476C404.546 102.792 405.421 102.411 405.959 101.66C406.209 101.215 406.489 100.788 406.798 100.383C407.194 100.036 407.667 99.7928 408.175 99.6753C411.584 98.6466 415.191 98.5072 418.666 99.2698C419.257 99.4029 419.931 99.645 420.108 100.232C420.166 100.53 420.147 100.839 420.055 101.128Z" fill="black"/>
<path opacity="0.1" d="M464.598 213.992C465.407 214.254 466.283 214.637 466.558 215.423L460.056 213.817L456.687 212.981C456.092 212.834 453.958 212.664 453.565 212.211C453.004 211.544 454.997 212.003 455.356 212.052C456.446 212.211 457.535 212.375 458.619 212.566C460.662 212.921 462.628 213.506 464.598 213.992Z" fill="black"/>
<path opacity="0.1" d="M467.748 220.184C467.157 219.789 465.462 219.836 464.735 219.665C463.672 219.411 462.626 219.074 461.58 218.75C459.459 218.059 457.356 217.274 455.176 216.766C454.774 216.678 453.403 216.654 453.468 216.146C453.533 215.639 454.839 215.462 455.164 215.438C457.096 215.296 459.506 216.2 461.303 216.843C463.592 217.662 465.76 218.786 467.748 220.184V220.184Z" fill="black"/>
<path opacity="0.1" d="M462.988 208.282C460.867 207.704 458.943 206.384 456.76 206.13C456.19 206.151 455.631 205.98 455.171 205.644C454.914 205.391 454.735 205.07 454.656 204.718C456.118 204.643 457.817 205.262 459.146 205.846C459.877 206.16 460.581 206.536 461.249 206.969C461.734 207.264 462.462 208.114 462.988 208.282Z" fill="black"/>
<path d="M504.683 155.914C504.324 158.265 504.844 160.663 506.148 162.67C507.452 164.677 509.453 166.159 511.785 166.843C511.501 168.183 510.082 168.924 509.08 169.88C507.666 171.22 506.937 173.227 505.268 174.245C503.409 175.375 501.016 174.934 498.896 174.459C498.703 174.438 498.526 174.348 498.398 174.205C498.354 174.137 498.323 174.063 498.305 173.984C497.604 171.48 497.147 168.805 497.865 166.295C498.444 164.158 499.835 162.337 500.947 160.449C502.059 158.56 502.163 156.536 504.683 155.914Z" fill="#0F0000"/>
<path d="M451.353 121.418C449.058 121.585 446.829 122.265 444.831 123.407C443.502 124.167 442.138 125.188 440.62 125.004C439.725 124.903 438.842 124.41 437.97 124.648C437.479 124.846 437.021 125.118 436.612 125.455C436.405 125.62 436.158 125.729 435.896 125.771C435.634 125.812 435.366 125.785 435.118 125.692L434.525 133.908C434.299 137.031 434.08 140.219 434.827 143.264C435.213 144.82 436.06 146.232 436.155 147.812C436.25 149.391 436.108 151.011 436.221 152.608C436.327 154.086 436.653 155.541 436.736 157.019C436.903 159.809 436.215 162.575 435.551 165.288C434.548 169.289 433.944 173.38 431.993 177.001C431.447 178.004 430.807 179.025 430.807 180.165C430.807 180.307 430.807 180.444 430.842 180.581C430.249 180.907 429.698 181.216 429.194 181.536C428.067 182.266 426.863 183.08 426.401 184.344C426.027 185.371 426.199 186.547 425.749 187.538C425.298 188.529 424.266 189.236 424.041 190.304C423.881 191.082 424.189 191.901 424.041 192.679C423.907 193.081 423.798 193.492 423.715 193.908C423.655 194.798 424.409 195.517 425.156 196.003C426.245 196.722 427.448 197.252 428.714 197.571L432.254 183.501C435.481 177.527 438.166 171.275 440.277 164.819C440.88 162.709 441.656 160.652 442.595 158.669C443.266 157.547 443.861 156.381 444.374 155.179C444.914 153.683 444.967 152.062 445.228 150.483C445.538 148.64 446.004 146.827 446.621 145.063C447.262 143.157 448.003 141.258 448.133 139.257C448.329 136.396 447.291 133.374 448.394 130.727C448.863 129.736 449.472 128.818 450.203 128.002C451.733 126.126 453.126 124.161 454.656 122.285C453.862 121.436 452.539 121.347 451.353 121.418Z" fill="#0F0000"/>
<g opacity="0.1">
<path opacity="0.1" d="M468.296 88.4766L467.553 88.5301L467.47 88.5895C467.748 88.5781 468.025 88.5404 468.296 88.4766V88.4766Z" fill="black"/>
<path opacity="0.1" d="M481.883 100.805C481.759 101.985 481.504 103.148 481.123 104.273C480.877 104.955 480.679 105.653 480.529 106.363C480.41 107.052 480.398 107.752 480.291 108.441C480.16 109.334 479.851 110.192 479.383 110.964C478.915 111.736 478.297 112.407 477.566 112.937C477.357 113.106 477.098 113.201 476.829 113.204C476.366 113.15 476.081 112.61 475.909 112.123C474.965 109.397 475.19 106.066 473.45 103.892C472.659 103.016 471.702 102.303 470.636 101.796C470.201 101.516 469.711 101.331 469.198 101.256C468.445 101.296 467.722 101.561 467.12 102.016C465.867 102.857 464.476 103.472 463.011 103.833C462.28 104.006 461.519 104.014 460.784 103.856C460.05 103.698 459.36 103.377 458.765 102.919C457.945 102.242 457.346 101.226 456.437 100.698C455.528 100.169 454.578 100.199 453.682 99.8366C453.122 99.5974 452.622 99.2351 452.222 98.7766C451.821 98.3181 451.528 97.7751 451.366 97.1881C451.345 97.1141 451.329 97.0387 451.318 96.9625C451.17 97.6253 451.186 98.3145 451.366 98.9696C451.528 99.5566 451.821 100.1 452.222 100.558C452.622 101.017 453.122 101.379 453.682 101.618C454.578 101.98 455.588 101.986 456.437 102.479C457.286 102.972 457.945 104.023 458.765 104.7C459.36 105.159 460.05 105.479 460.784 105.637C461.519 105.796 462.28 105.788 463.011 105.615C464.476 105.253 465.867 104.638 467.12 103.797C467.722 103.343 468.445 103.078 469.198 103.037C469.711 103.113 470.201 103.297 470.636 103.578C471.689 104.095 472.631 104.813 473.409 105.692C475.149 107.865 474.923 111.197 475.867 113.922C476.039 114.415 476.325 114.95 476.788 115.003C477.073 115.005 477.349 114.903 477.566 114.718C478.3 114.187 478.92 113.514 479.389 112.739C479.858 111.963 480.167 111.102 480.297 110.205C480.404 109.516 480.416 108.815 480.535 108.127C480.685 107.417 480.883 106.719 481.129 106.036C481.707 104.437 481.975 102.742 481.918 101.042C481.907 100.971 481.895 100.888 481.883 100.805Z" fill="black"/>
</g>
<path d="M443.945 148.773L443.542 154.176C443.482 154.91 442.077 172.379 431.711 192.796C422.815 210.306 405.505 233.114 372.823 245.932C370.273 246.938 367.626 247.877 364.882 248.748L361.822 239.162C369.505 236.749 376.905 233.519 383.895 229.527C400.553 219.929 413.505 206.229 422.537 188.6C427.329 179.214 430.744 169.189 432.677 158.833H395.494V148.773H443.945Z" fill="#C0C0C0"/>
<path opacity="0.1" d="M369.543 245.926C401.843 233.108 418.96 210.306 427.748 192.796C437.995 172.379 439.39 154.922 439.443 154.176L439.841 148.773H443.945L443.546 154.176C443.493 154.91 442.098 172.379 431.851 192.796C423.058 210.306 405.947 233.108 373.646 245.926C371.126 246.932 368.507 247.873 365.791 248.748L365.393 247.488C366.807 246.979 368.191 246.458 369.543 245.926Z" fill="white"/>
<path d="M303.503 239.162L300.443 248.748C297.695 247.873 295.046 246.932 292.496 245.926C259.821 233.108 242.504 210.306 233.615 192.796C223.248 172.379 221.837 154.922 221.784 154.176L221.38 148.773H269.807V158.833H232.618C234.562 169.19 237.987 179.215 242.789 188.6C251.821 206.229 264.766 219.929 281.425 229.522C288.415 233.517 295.818 236.749 303.503 239.162V239.162Z" fill="#C0C0C0"/>
<path opacity="0.1" d="M296.909 245.926C264.12 233.108 246.743 210.306 237.823 192.796C227.421 172.379 226.004 154.922 225.951 154.176L225.546 148.773H221.38L221.785 154.176C221.839 154.91 223.255 172.379 233.657 192.796C242.584 210.306 259.954 233.108 292.744 245.926C295.303 246.932 297.961 247.873 300.718 248.748L301.123 247.488C299.691 246.979 298.286 246.458 296.909 245.926Z" fill="white"/>
<path d="M389.196 332.172V386.81H277.319V332.172L280.877 327.404C317.132 314.47 324.479 280.74 325.943 267.395C326.161 265.551 326.286 263.697 326.317 261.84H340.151C340.182 263.697 340.307 265.551 340.525 267.395C342.013 280.74 349.36 314.482 385.591 327.404L389.196 332.172Z" fill="#C0C0C0"/>
<path opacity="0.1" d="M389.196 332.061H277.319V339.202H389.196V332.061Z" fill="black"/>
<path opacity="0.1" d="M286.776 327.404C322.912 314.47 330.235 280.74 331.695 267.395C331.912 265.551 332.037 263.697 332.068 261.84H326.157C326.126 263.697 326.002 265.551 325.785 267.395C324.301 280.74 316.978 314.482 280.865 327.404L277.319 332.172V386.81H283.23V332.172L286.776 327.404Z" fill="white"/>
<path opacity="0.1" d="M259.466 148.773H270.178V158.294H260.416C260.032 155.158 259.715 151.984 259.466 148.773Z" fill="black"/>
<path opacity="0.1" d="M303.503 239.253L300.369 248.749C297.555 247.881 294.842 246.949 292.23 245.953C287.933 240.89 284.137 235.45 280.89 229.706C288.05 233.663 295.632 236.864 303.503 239.253Z" fill="black"/>
<path opacity="0.1" d="M361.822 239.248C369.693 236.858 377.274 233.659 384.436 229.706C381.186 235.451 377.388 240.892 373.093 245.959C370.48 246.955 367.768 247.885 364.957 248.749L361.822 239.248Z" fill="black"/>
<path opacity="0.1" d="M405.859 148.773C405.637 151.984 405.356 155.158 405.014 158.294H396.337V148.773H405.859Z" fill="black"/>
<path opacity="0.1" d="M340.399 267.123C335.289 268.014 330.036 268.014 324.927 267.123C325.158 265.369 325.29 263.606 325.323 261.84H340.002C340.035 263.606 340.168 265.369 340.399 267.123V267.123Z" fill="black"/>
<path d="M260.656 132.11C260.912 206.47 293.047 266.601 332.663 266.601C372.278 266.601 404.407 206.47 404.669 132.11H260.656Z" fill="#C0C0C0"/>
<path opacity="0.1" d="M273.475 132.11H260.656C260.913 206.47 293.109 266.601 332.799 266.601C334.947 266.597 337.091 266.418 339.209 266.064C302.517 260.001 273.72 202.423 273.475 132.11Z" fill="white"/>
<path d="M371.344 353.485H295.172V372.528H371.344V353.485Z" fill="#FFF5DF"/>
<path opacity="0.1" d="M298.733 356.081H371.344V353.485H295.172V372.528H298.733V356.081Z" fill="white"/>
<path d="M220.77 204.103C219.397 203.645 211.314 197.238 210.701 194.339C210.089 191.439 214.975 164.425 214.975 164.425C214.975 164.425 214.523 164.425 213.786 164.336V163.901L214.791 128.414C214.791 128.414 218.91 104.597 211.129 105.985C203.349 107.372 208.229 128.414 208.229 128.414C208.229 128.414 207.343 139.096 206.719 142.299C206.125 145.389 203.402 157.977 205.257 161.888C205.325 162.027 205.4 162.163 205.483 162.293V162.293C205.483 162.293 205.792 175.72 202.433 177.554C199.23 179.298 197.898 188.081 197.785 188.867L197.613 188.795C196.656 188.196 195.817 187.427 195.134 186.527C195.063 186.437 195.01 186.342 194.944 186.247C197.131 183.782 198.31 180.582 198.245 177.286C198.18 173.989 196.876 170.838 194.593 168.462C193.532 167.358 192.287 166.447 190.914 165.771C190.874 164.633 190.605 163.515 190.124 162.484C188.578 159.173 180.019 154.845 173.939 154.743C171.133 154.66 168.833 155.458 167.995 157.655C167.567 158.768 167.698 160.037 167.519 161.192C167.163 163.573 165.635 165.437 163.674 166.92C162.882 166.034 162.025 165.208 161.112 164.449C159.127 162.924 155.168 157.899 155.168 157.899C155.168 157.899 142.811 145.08 141.895 141.567C140.98 138.054 128.635 116.958 125.889 120.632C123.142 124.306 135.345 140.316 135.345 140.316C135.345 140.316 137.663 146.134 139.446 148.099C141.23 150.063 154.9 169.95 154.9 169.95L155.554 171.308C152.666 172.832 150.027 174.773 149.093 177.798C147.726 182.252 150.716 186.729 152.784 190.897C156.814 199.031 157.391 209.403 152.19 216.834C147.53 223.395 139.446 226.515 131.88 229.242C135.534 232.116 140.074 233.626 144.719 233.511C142.971 238.584 136.778 240.263 131.5 241.204C134.269 243.871 138.234 244.842 142.038 245.431C143.901 245.749 145.789 245.899 147.679 245.878H148.142L148.606 245.842C149.25 245.799 149.891 245.718 150.526 245.598C153.272 245.038 155.941 243.538 157.343 241.109C158.532 239.031 158.948 236.196 161.106 235.155C161.668 234.9 162.273 234.757 162.889 234.732H162.824C163.228 234.732 163.644 234.732 164.048 234.732L173.041 234.821C173.416 234.821 173.802 234.821 174.188 234.821C176.726 234.762 179.437 234.321 180.727 232.219C181.257 231.198 181.536 230.065 181.541 228.915C181.731 226.062 181.541 223.127 181.618 220.251C182.385 225.485 183.187 233.642 181.279 236.655C179.729 238.938 177.85 240.978 175.704 242.71C175.164 243.165 174.67 243.671 174.23 244.223C173.939 244.431 173.766 244.544 173.766 244.544L173.582 245.098C172.905 246.127 172.414 247.268 172.132 248.468C172.028 248.776 171.989 249.103 172.019 249.427C172.227 249.849 170.533 251.594 171.026 252.326C166.794 257.298 165.992 264.83 165.992 264.83L158.265 276.584C154.294 287.033 148.35 288.105 148.35 288.105C148.35 288.105 134.388 278.721 134.008 278.263C133.627 277.804 128.29 275.512 128.29 275.512C127.661 274.406 126.7 273.527 125.544 272.999C123.713 272.237 123.559 269.427 123.559 269.427C123.333 262.788 119.439 262.282 119.439 262.282C116.301 262.014 113.906 262.573 112.063 263.598L111.504 263.639C108.806 263.86 105.561 264.104 101.994 264.342C92.074 264.997 89.7143 271.433 89.7143 271.433C89.7143 271.433 88.4958 272.809 90.0947 274.297C91.6936 275.786 101.929 274.297 102.363 274.262C101.583 274.346 100.794 274.292 100.033 274.101C101.644 274.041 103.861 273.982 105.751 273.982H106.208C106.089 274.985 106.032 275.996 106.036 277.006C106.036 278.912 111.296 280.132 111.296 280.132L127.315 294.422C127.315 294.422 137.384 298.93 143.791 305.414C150.199 311.898 155.863 306.301 155.863 306.301C162.645 304.622 182.159 280.99 182.177 280.966C182.177 281.657 182.587 304.64 183.366 309.254C183.397 309.488 183.454 309.718 183.538 309.939C184.453 311.922 183.229 317.34 182.7 319.626C182.362 321.54 182.233 323.484 182.314 325.426C182.314 325.426 174.997 353.41 175.603 355.869C176.209 358.328 171.638 369.755 171.638 369.755V379.281L172.435 379.239C172.331 379.393 172.236 379.552 172.15 379.716L172.096 379.817C172.096 379.817 176.976 380.883 180.257 380.579C183.538 380.276 189.173 383.11 189.173 383.11C189.173 383.11 191.081 384.015 196.953 384.396C202.826 384.777 202.826 381.8 202.826 381.8C202.154 377.745 192.876 376.387 192.59 376.346C191.841 375.875 191.14 375.363 190.564 374.923L190.445 374.827C190.484 374.738 190.517 374.647 190.546 374.554C191.538 370.505 186.046 368.748 186.046 368.748V367.76C189.613 365.926 190.32 353.339 190.32 353.339C190.32 353.339 195.669 337.775 196.418 335.179C197.167 332.583 196.418 328.695 196.418 328.695L196.953 325.336C196.953 325.336 198.1 323.05 198.1 322.592C198.249 321.43 198.695 320.326 199.396 319.388C200.234 318.394 198.481 316.03 198.481 316.03L200.008 312.065V307.712L203.575 291.922C203.575 291.922 207.313 273.529 206.018 267.509C204.722 261.49 207.545 258.429 207.545 258.429C207.291 258.563 207.029 258.683 206.761 258.787C207.117 257.96 207.425 257.113 207.682 256.25L215.706 257.244V257.364H218.601C218.601 257.364 217.685 246.051 217.685 241.49C217.685 236.929 220.77 220.561 220.77 220.561C220.77 220.561 222.143 204.562 220.77 204.103ZM185.149 190.897C185.149 191.344 185.107 191.808 185.077 192.284L184.917 192.529L184.62 192.279L184.257 192.844L184.15 192.898C183.366 192.493 182.961 190.177 182.397 190.677L182.319 190.742C182.195 190.599 182.07 190.558 181.939 190.677L181.82 190.778C181.82 190.605 181.82 190.427 181.82 190.248C182.908 190.528 184.026 190.671 185.149 190.671C185.155 190.748 185.149 190.826 185.149 190.897ZM211.837 243.58H212.009L211.724 244.33C211.759 244.08 211.795 243.836 211.837 243.58V243.58ZM182.539 378.602L181.446 378.328L182.04 378.227L182.593 378.59L182.658 378.638L182.539 378.602ZM193.714 377.001C193.351 376.81 192.983 376.59 192.626 376.364C192.745 376.429 193.215 376.673 193.714 377.001V377.001Z" fill="url(#paint1_linear)"/>
<path d="M215.429 232.086L208.419 251.215H210.121L203.528 256.718L215.429 258.27V232.086Z" fill="#F86D70"/>
<path opacity="0.1" d="M215.429 232.086L208.419 251.215L206.654 250.718L203.528 256.718L215.429 258.27V232.086Z" fill="black"/>
<path d="M203.528 243.988H214.846L219 210.663H203.528V243.988Z" fill="#F86D70"/>
<path opacity="0.1" d="M203.528 243.988H214.846L219 210.663H203.528V243.988Z" fill="black"/>
<path d="M182.059 217.804L184.486 217.398L190.063 216.456C190.063 216.456 206.81 212.702 210.268 212.396C212.362 212.122 214.404 211.543 216.33 210.678C217.236 210.29 217.81 209.996 217.81 209.996L211.777 199.046L202.418 192.15C202.418 192.15 196.498 190.897 193.993 187.473C193.435 186.736 193.071 185.871 192.935 184.958C192.8 184.046 192.897 183.114 193.218 182.248C194.745 177.541 184.095 186.749 184.095 186.749C184.095 186.749 184.196 188.955 184.095 191.768C184.095 192.321 184.042 192.897 184 193.486C184 193.874 183.947 194.262 183.906 194.663C183.645 197.457 183.112 200.335 182.059 202.053C179.483 206.254 182.059 217.804 182.059 217.804Z" fill="#FBBEBE"/>
<path opacity="0.1" d="M184.485 191.62H184.712C185.122 191.62 185.452 190.732 185.85 190.691C189.052 190.378 191.976 189.693 194.006 187.377C193.471 186.651 193.122 185.8 192.992 184.9C192.862 184.001 192.954 183.083 193.261 182.23C194.728 177.587 184.496 186.664 184.496 186.664C184.496 186.664 184.604 188.846 184.485 191.62Z" fill="black"/>
<path d="M171.393 178.526C171.392 180.246 171.73 181.949 172.388 183.538C173.045 185.127 174.01 186.57 175.225 187.786C176.441 189.002 177.885 189.967 179.474 190.625C181.062 191.282 182.765 191.62 184.485 191.62C184.915 191.62 185.339 191.62 185.763 191.56C188.285 191.312 190.682 190.338 192.662 188.755C194.641 187.171 196.118 185.047 196.914 182.64C197.71 180.234 197.791 177.648 197.145 175.196C196.5 172.745 195.157 170.533 193.28 168.83C191.402 167.127 189.07 166.006 186.568 165.602C184.066 165.199 181.5 165.531 179.182 166.557C176.865 167.584 174.895 169.262 173.512 171.386C172.129 173.511 171.393 175.991 171.393 178.526Z" fill="#FBBEBE"/>
<path d="M166.796 158.811C166.372 159.915 166.502 161.151 166.331 162.321C165.702 166.543 161.449 169.073 157.602 170.843C153.755 172.613 149.414 174.709 148.191 178.79C146.85 183.202 149.779 187.627 151.814 191.766C155.779 199.831 156.343 210.118 151.226 217.494C146.679 224.027 138.756 227.127 131.297 229.847C134.887 232.699 139.348 234.198 143.914 234.088C142.203 239.118 136.115 240.787 130.927 241.713C133.65 244.362 137.55 245.324 141.285 245.906C144.008 246.334 146.802 246.613 149.52 246.061C152.238 245.508 154.814 244.018 156.214 241.606C157.39 239.546 157.79 236.736 159.914 235.697C160.872 235.316 161.905 235.164 162.931 235.252L171.755 235.347C174.502 235.347 177.754 235.133 179.172 232.763C179.695 231.751 179.969 230.627 179.972 229.485C180.354 223.641 179.243 217.464 181.625 212.131C182.342 210.522 177.737 207.974 178.219 206.269C179.878 200.408 180.295 195.793 180.278 189.694C180.278 184.972 183.319 180.904 185.831 176.919C188.342 172.934 190.442 167.903 188.46 163.627C186.225 158.858 169.437 151.927 166.796 158.811Z" fill="#0F0000"/>
<path d="M178.534 376.541L180.824 377.947L181.178 378.164L181.244 378.202L183.961 379.87L190.305 380.859L195.882 380.503C195.882 380.503 197.489 377.391 194.965 377.463C194.156 377.425 193.368 377.214 192.662 376.847L192.314 376.685C191.948 376.508 191.583 376.307 191.223 376.096C190.473 375.657 189.766 375.179 189.196 374.774C188.356 374.173 187.799 373.718 187.799 373.718L178.534 376.541Z" fill="#FBBEBE"/>
<path opacity="0.1" d="M180.914 377.404L181.266 377.661L181.331 377.707L184.032 379.685L190.34 380.859L195.885 380.437C195.885 380.437 197.483 376.744 194.973 376.83C194.169 376.785 193.385 376.534 192.683 376.098C193.125 376.481 193.494 376.896 193.53 377.245C193.631 378.188 189.428 379.883 189.428 379.883L183.502 378.149C183.502 378.149 182.494 377.832 181.117 377.437L180.986 377.397L180.914 377.404Z" fill="black"/>
<path d="M171.393 379.691C171.393 379.691 176.114 380.789 179.289 380.475C182.464 380.16 187.933 383.073 187.933 383.073C187.933 383.073 189.781 383.999 195.464 384.394C201.147 384.789 201.147 381.715 201.147 381.715C200.498 377.536 191.519 376.16 191.241 376.098C191.351 376.16 191.82 376.413 192.295 376.752C192.932 377.197 193.622 377.777 193.674 378.246C193.772 379.123 189.688 380.715 189.688 380.715L183.929 379.098C183.929 379.098 182.95 378.796 181.612 378.425H181.485C179.5 377.849 177.484 377.406 175.448 377.098C172.968 376.814 171.7 379.061 171.439 379.567C171.42 379.607 171.404 379.648 171.393 379.691V379.691Z" fill="#0F0000"/>
<path d="M95.2207 272.764L97.8226 274.899C97.8226 274.899 98.5797 274.861 99.7094 274.822H100.07C101.686 274.758 103.916 274.693 105.809 274.693C107.032 274.634 108.258 274.708 109.468 274.912C110.766 275.401 113.073 266.961 113.073 266.961L110.466 266.318L109.6 266.099L108.999 265.945L106.878 265.411L100.449 266.196L95.9298 269.309L95.2207 272.764Z" fill="#FBBEBE"/>
<path opacity="0.1" d="M95.2207 272.789L97.666 274.932C97.666 274.932 98.3776 274.894 99.4393 274.855C98.9521 274.64 98.5504 274.229 98.3098 273.7C96.7286 268.684 104.573 266.541 104.573 266.541L108.227 266.36L108.938 266.321H109.503L108.69 266.102L108.125 265.947L106.131 265.411L100.089 266.199L95.8419 269.323L95.2207 272.789Z" fill="black"/>
<path d="M90.0898 274.294C91.6398 275.734 101.792 274.294 102.217 274.258C101.447 274.345 100.667 274.291 99.9162 274.097C99.5443 274.03 99.1921 273.88 98.885 273.659C98.578 273.438 98.3239 273.15 98.1414 272.817C96.4849 268.186 104.702 266.215 104.702 266.215L108.53 266.049L109.269 266.013L118.575 265.608L119.025 263.031C119.025 263.031 116.002 263.316 111.257 263.697C108.589 263.918 105.341 264.162 101.833 264.394C92.0303 265.049 89.6994 271.448 89.6994 271.448C89.6994 271.448 88.5103 272.817 90.0898 274.294Z" fill="#0F0000"/>
<path d="M204.136 163.431C204.197 163.574 204.269 163.711 204.353 163.841L206.528 167.214L212.189 167.816L212.252 165.443L213.203 129.741C213.203 129.741 217.122 105.795 209.718 107.174C202.314 108.553 206.961 129.741 206.961 129.741C206.961 129.741 206.118 140.485 205.526 143.713C204.951 146.833 202.371 159.517 204.136 163.431Z" fill="#FBBEBE"/>
<path d="M190.436 250.925L192.13 253.558L195.919 259.45C195.919 259.45 202.792 261.74 204.553 259.994C205.516 259.042 206.558 255.718 207.289 252.921C207.887 250.658 208.288 248.748 208.288 248.748L190.436 250.925Z" fill="#FBBEBE"/>
<path opacity="0.1" d="M190.436 250.888L192.13 253.509C192.236 253.427 192.332 253.334 192.417 253.233C194.333 251.023 202.768 252.762 207.289 252.903C207.887 250.65 208.288 248.748 208.288 248.748L190.436 250.888Z" fill="black"/>
<path opacity="0.1" d="M104.742 274.697C106.018 274.638 107.296 274.711 108.557 274.912C109.91 275.394 112.316 267.072 112.316 267.072L108.695 266.209L118.548 265.777L119.024 263.031C119.024 263.031 115.823 263.335 110.8 263.741C109.762 264.346 108.835 265.13 108.062 266.057L107.912 266.247C105.813 268.854 105.037 272.216 104.742 274.697Z" fill="black"/>
<path opacity="0.1" d="M178.534 376.749L181.201 378.479C185.18 377.774 188.814 376.667 189.244 374.926C189.246 374.898 189.246 374.87 189.244 374.843C188.397 374.203 187.835 373.718 187.835 373.718L178.534 376.749Z" fill="black"/>
<path opacity="0.1" d="M171.393 379.669C174.583 379.5 177.762 379.136 180.914 378.581C179.032 378.031 177.119 377.607 175.187 377.312C172.842 377.043 171.64 379.172 171.393 379.669Z" fill="black"/>
<path d="M105.933 277.651C105.933 279.533 111.112 280.736 111.112 280.736L126.886 294.795C126.886 294.795 136.797 299.231 143.102 305.62C149.406 312.009 154.969 306.523 154.969 306.523C161.651 304.871 180.895 281.562 180.895 281.562C180.895 281.562 181.343 308.181 182.244 310.133C183.146 312.086 181.944 317.425 181.419 319.685C181.089 321.569 180.962 323.484 181.042 325.395C181.042 325.395 173.836 352.987 174.437 355.394C175.038 357.801 170.53 369.081 170.53 369.081V378.479C170.53 378.479 188.178 377.8 189.15 373.818C190.122 369.836 184.725 368.101 184.725 368.101V367.122C188.26 365.317 188.926 352.916 188.926 352.916C188.926 352.916 194.188 337.578 194.937 335.023C195.685 332.469 194.937 328.628 194.937 328.628L195.461 325.324C195.461 325.324 196.586 323.065 196.586 322.617C196.733 321.472 197.174 320.384 197.865 319.46C198.69 318.481 196.963 316.151 196.963 316.151L198.466 312.239V307.956L202.001 292.394C202.001 292.394 205.684 274.271 204.406 268.33C203.127 262.389 205.908 259.386 205.908 259.386C199.88 262.548 196.84 255.51 195.844 252.484C195.591 251.705 195.467 251.186 195.467 251.186C195.467 251.186 187.188 248.13 179.481 248.862C177.916 248.989 176.373 249.316 174.891 249.835C166.329 252.92 164.98 265.699 164.98 265.699L157.396 277.279C153.49 287.58 147.633 288.63 147.633 288.63C147.633 288.63 133.892 279.385 133.491 278.931C133.09 278.477 127.858 276.223 127.858 276.223C127.239 275.133 126.293 274.266 125.153 273.745C123.35 272.99 123.203 270.206 123.203 270.206C122.979 263.663 119.149 263.126 119.149 263.126C105.856 262.017 105.933 275.775 105.933 277.651Z" fill="#0F0000"/>
<path d="M182.104 240.417H190.436V215.423H182.104V240.417Z" fill="#F86D70"/>
<path opacity="0.1" d="M182.104 240.417H190.436V215.423H182.104V240.417Z" fill="black"/>
<path opacity="0.1" d="M203.529 163.055C203.527 163.075 203.527 163.094 203.529 163.113C203.6 163.267 203.685 163.414 203.783 163.553L206.335 167.17L212.976 167.816L213.049 165.271C210.978 165.116 206.261 164.567 203.529 163.055Z" fill="black"/>
<path d="M204.176 163.055C204.176 163.055 204.484 176.5 201.094 178.335C197.704 180.17 196.386 189.728 196.386 189.728C196.386 189.728 206.659 196.433 208.949 199.383C211.24 202.333 216.497 209.361 215.415 211.04C214.333 212.719 218.038 220.365 218.038 220.365C218.038 220.365 211.258 234.121 212.799 239.32C214.339 244.52 214.491 258.27 214.491 258.27H217.421C217.421 258.27 216.497 246.96 216.497 242.373C216.497 237.785 219.572 221.433 219.572 221.433C219.572 221.433 220.962 205.385 219.572 204.93C218.183 204.474 210.025 198.052 209.409 195.143C208.792 192.235 213.723 165.16 213.723 165.16C213.723 165.16 207.408 164.89 204.176 163.055Z" fill="#F86D70"/>
<path opacity="0.1" d="M182.104 212.5C182.385 214.393 183.072 216.203 184.116 217.804L189.809 216.833C189.809 216.833 206.903 212.961 210.432 212.645C212.57 212.362 214.654 211.765 216.62 210.873C215.265 206.053 212.621 201.698 208.976 198.281L206.806 196.261C203.61 193.28 199.905 190.902 195.869 189.239C196.123 189.452 214.058 204.829 210.13 207.845C206.202 210.861 195.628 203.518 195.628 203.518L183.603 193.141L183.168 192.765L182.473 193.851C182.826 193.997 183.171 194.164 183.506 194.349C187.604 196.608 190.646 200.404 191.966 204.908C194.437 213.252 182.104 212.5 182.104 212.5Z" fill="black"/>
<path d="M178.534 250.95C178.534 250.95 190.073 257.097 192.875 253.65C193.486 252.891 194.777 252.561 196.386 252.473C196.123 251.697 195.995 251.179 195.995 251.179C195.995 251.179 187.399 248.132 179.396 248.861C178.87 250.132 178.534 250.95 178.534 250.95Z" fill="#444053"/>
<path d="M183.759 192.702L196.173 203.295C196.173 203.295 206.666 210.543 210.621 207.552C214.576 204.561 196.407 189.239 196.407 189.239C200.42 190.88 204.107 193.213 207.298 196.13L209.459 198.118C215.142 203.343 216.424 203.343 216.617 211.021C216.665 212.914 216.015 215.631 215.515 216.12C213.673 217.912 212.385 230.922 212.668 232.445C212.951 233.967 209.236 247.109 210.44 250.764C211.644 254.418 195.39 248.936 192.639 252.441C189.888 255.946 178.534 249.701 178.534 249.701C178.534 249.701 184.825 233.717 186.36 232.654C187.895 231.591 189.737 223.369 186.36 219.566C182.983 215.762 182.682 212.108 182.682 212.108C182.682 212.108 194.963 212.86 192.5 204.65C191.808 202.271 190.606 200.067 188.977 198.19C187.348 196.312 185.33 194.805 183.061 193.771L183.759 192.702Z" fill="#E8E8F0"/>
<path opacity="0.1" d="M199.948 220.184C199.948 220.184 195.553 229.282 189.869 231.643C189.685 231.717 189.508 231.784 189.313 231.845C183.379 233.828 200.393 223.003 199.948 220.184Z" fill="black"/>
<path d="M134.758 141.279C134.758 141.279 137.024 147.018 138.84 148.979C140.655 150.939 154.11 170.568 154.11 170.568L155.249 172.937L156.228 174.957L164.848 174.051L165.442 170.58L165.109 170.177C164.243 169.141 161.882 166.357 160.298 165.143C158.334 163.638 154.401 158.657 154.401 158.657C154.401 158.657 142.156 145.97 141.248 142.499C140.341 139.028 128.09 118.215 125.373 121.816C122.656 125.417 134.758 141.279 134.758 141.279Z" fill="#FBBEBE"/>
<g opacity="0.1">
<path opacity="0.1" d="M159.711 235.326C158.675 235.236 157.633 235.386 156.664 235.765C154.527 236.804 154.123 239.613 152.935 241.674C151.546 244.085 148.897 245.575 146.171 246.127C145.63 246.232 145.083 246.308 144.532 246.353C146.268 246.522 148.02 246.446 149.734 246.127C152.46 245.575 155.109 244.085 156.498 241.674C157.686 239.613 158.09 236.804 160.227 235.765C160.789 235.512 161.394 235.371 162.009 235.349L159.711 235.326Z" fill="black"/>
<path opacity="0.1" d="M180.804 189.773C180.804 185.052 183.874 180.984 186.403 176.999C188.933 173.015 191.059 167.985 189.058 163.709C187.348 160.057 177.039 155.158 171.088 156.126C176.914 156.88 184.093 160.716 185.495 163.709C187.496 167.985 185.37 173.015 182.84 176.999C180.311 180.984 177.229 185.052 177.241 189.773C177.241 195.865 176.831 200.462 175.156 206.347C174.675 208.039 179.313 210.598 178.6 212.202C176.189 217.546 177.318 223.71 176.932 229.554C176.924 230.695 176.645 231.819 176.118 232.831C174.931 234.785 172.496 235.29 170.126 235.397H172.199C174.966 235.397 178.25 235.183 179.681 232.814C180.208 231.801 180.487 230.677 180.495 229.536C180.881 223.692 179.752 217.522 182.163 212.184C182.888 210.581 178.238 208.027 178.719 206.329C180.394 200.485 180.815 195.865 180.804 189.773Z" fill="black"/>
</g>
<path opacity="0.1" d="M154.73 172.945L155.759 174.957L164.818 174.054L165.442 170.598L165.092 170.196C164.126 170.645 156.887 173.942 154.73 172.945Z" fill="black"/>
<path opacity="0.1" d="M186.865 196.561C186.865 196.561 184.774 193.229 183.579 194.134C182.383 195.038 181.921 191.403 181.235 192.01C180.55 192.616 178.552 194.306 177.72 191.944C177.07 190.064 169.993 178.17 167.122 173.386C166.384 172.148 165.921 171.387 165.921 171.387C165.921 171.387 157.86 175.48 155.92 174.118V176.997L157.561 177.152L166.349 193.812C166.349 193.812 169.114 198.281 168.926 199.84C168.739 201.399 172.471 208.224 173.068 208.676C173.666 209.128 180.099 216.714 180.099 216.714C180.099 216.714 183.385 233.095 180.544 237.647C177.702 242.199 172.781 245.531 172.781 245.531C172.781 245.531 171.299 249.928 171.516 250.386C171.733 250.844 169.793 252.814 170.69 253.421C171.586 254.028 172.781 258.27 172.781 258.27C172.781 258.27 176.964 251.445 179.226 250.386C181.487 249.327 184.381 235.368 184.381 235.368C184.381 235.368 185.207 227.145 185.272 221.837C185.336 216.53 185.072 196.561 186.865 196.561Z" fill="black"/>
<path d="M186.865 196.551C186.865 196.551 184.699 193.22 183.458 194.124C182.217 195.028 181.73 191.394 181.024 192.001C180.319 192.608 178.244 194.297 177.374 191.936C176.693 190.056 169.343 178.167 166.368 173.385L165.121 171.387C165.121 171.387 156.75 175.479 154.73 174.117V176.995L156.44 177.15L165.565 193.803C165.565 193.803 168.443 198.27 168.242 199.828C168.041 201.387 171.893 208.209 172.544 208.661C173.195 209.113 179.844 216.696 179.844 216.696C179.844 216.696 183.257 233.07 180.313 237.62C178.757 239.905 176.865 241.953 174.697 243.698C172.876 245.167 171.595 247.175 171.047 249.42C170.941 249.726 170.904 250.05 170.937 250.371C171.163 250.823 169.149 252.798 170.08 253.405C171.01 254.011 172.264 258.27 172.264 258.27C172.264 258.27 176.608 251.448 178.956 250.389C181.304 249.331 184.316 235.377 184.316 235.377C184.316 235.377 185.168 227.158 185.241 221.852C185.314 216.547 185.04 196.551 186.865 196.551Z" fill="#F86D70"/>
<path opacity="0.1" d="M166.18 265.411C166.18 265.411 172.215 266.641 174.632 268.542C177.049 270.443 165.442 265.565 165.442 265.565L166.18 265.411Z" fill="black"/>
<path opacity="0.1" d="M180.914 280.883C180.914 280.883 187.978 286.507 186.713 291.587C185.449 296.667 182.185 309.448 182.185 309.448L180.914 280.883Z" fill="black"/>
<path opacity="0.1" d="M122.595 270.172C122.595 270.172 113.715 271.584 114.29 273.259C114.866 274.934 122.595 271.715 122.595 271.715V270.172Z" fill="black"/>
<path opacity="0.1" d="M195.157 316.239C195.157 316.239 195.755 317.027 192.265 316.239C188.775 315.451 191.351 313.018 191.351 313.018L195.157 316.239Z" fill="black"/>
<path opacity="0.1" d="M194.006 326.706C194.006 326.706 188.879 328.044 186.129 326.706C183.38 325.367 194.006 326.706 194.006 326.706Z" fill="black"/>
<path opacity="0.1" d="M184.485 368.003C184.485 368.003 183.586 367.137 179.085 368.722C174.585 370.307 172.787 370.381 171.477 369.854C170.168 369.328 184.485 368.003 184.485 368.003Z" fill="black"/>
<path opacity="0.1" d="M188.055 268.982L182.104 277.313C182.104 277.313 185.307 270.018 188.055 268.982Z" fill="black"/>
<path opacity="0.1" d="M177.343 194C177.343 194 177.096 196.839 173.405 197.947C169.715 199.054 169.012 199.951 169.012 199.951" fill="black"/>
<path opacity="0.1" d="M166.632 173.767C166.632 173.767 161.973 178.133 157.11 177.209Z" fill="black"/>
<path opacity="0.1" d="M171.393 249.871C171.393 249.871 172.792 250.557 176.153 247.558Z" fill="black"/>
<path opacity="0.1" d="M207.079 207.092C207.192 206.369 206.785 205.699 206.402 205.134L205.616 203.969C205.462 203.73 205.289 203.512 205.1 203.316C204.626 202.867 204.02 202.733 203.528 202.331" fill="black"/>
<path opacity="0.1" d="M526.327 0.0660056C526.327 0.0660056 476.669 -2.99246 482.508 32.5292C482.508 32.5292 481.328 38.8087 486.92 41.6564C486.92 41.6564 487.009 39.0254 492.016 39.9225C493.799 40.2242 495.61 40.3131 497.413 40.1874C499.849 40.0157 502.164 39.0394 504.008 37.4059V37.4059C504.008 37.4059 517.969 31.5177 523.396 8.22997C523.396 8.22997 527.412 3.14857 527.253 1.84209L518.872 5.4966C518.872 5.4966 521.738 11.6677 519.461 16.7973C519.461 16.7973 519.19 5.71937 517.58 5.96019C517.255 6.01438 513.227 8.09751 513.227 8.09751C513.227 8.09751 518.152 18.8443 514.436 26.6591C514.436 26.6591 515.846 13.4137 511.687 8.87417L505.789 12.3902C505.789 12.3902 511.546 23.4922 507.641 32.5533C507.641 32.5533 508.644 18.6577 504.544 13.2451L499.201 17.5017C499.201 17.5017 504.609 28.4472 501.312 35.9609C501.312 35.9609 500.882 19.7835 498.044 18.5614C498.044 18.5614 493.367 22.7758 492.653 24.4977C492.653 24.4977 496.358 32.4449 494.057 36.6352C494.057 36.6352 492.647 25.8583 491.491 25.7981C491.491 25.7981 486.832 32.9386 486.348 37.8394C486.348 37.8394 486.549 30.5604 490.365 25.1238C490.365 25.1238 485.858 25.9125 483.228 28.8927C483.228 28.8927 483.953 23.8475 491.515 23.4079C491.515 23.4079 495.367 17.9894 496.393 17.6583C496.393 17.6583 488.878 17.0201 484.319 19.0791C484.319 19.0791 488.33 14.3168 497.773 16.4842L503.052 12.0832C503.052 12.0832 493.155 10.7044 488.955 12.2277C488.955 12.2277 493.786 8.01322 504.474 11.0837L510.219 7.57974C510.219 7.57974 501.778 5.72539 496.753 6.37562C496.753 6.37562 502.061 3.45562 511.906 6.62246L516.034 4.73801C516.034 4.73801 509.853 3.49776 508.042 3.29908C506.231 3.1004 506.137 2.59467 506.137 2.59467C510.053 1.9281 514.074 2.38456 517.751 3.91319C517.751 3.91319 526.48 0.625923 526.327 0.0660056Z" fill="#C0C0C0"/>
<path opacity="0.1" d="M464.946 9.55175C464.946 9.55175 442.747 8.15108 445.347 24.3867C445.347 24.3867 444.827 27.2611 447.315 28.5644C447.315 28.5644 447.356 27.3464 449.599 27.7666C450.396 27.9064 451.206 27.9473 452.012 27.8884C453.102 27.8111 454.138 27.3641 454.962 26.6156V26.6156C454.962 26.6156 461.213 23.93 463.643 13.2849C463.643 13.2849 465.436 10.9585 465.366 10.3617L461.616 12.0303C461.616 12.0303 462.901 14.856 461.89 17.2006C461.89 17.2006 461.768 12.1339 461.049 12.2557C460.903 12.2557 459.098 13.23 459.098 13.23C459.098 13.23 461.306 18.1446 459.641 21.7193C459.641 21.7193 460.272 15.666 458.409 13.5893L455.768 15.1971C455.768 15.1971 458.35 20.2699 456.598 24.4111C456.598 24.4111 457.048 18.0593 455.213 15.5868L452.824 17.5539C452.824 17.5539 455.243 22.5597 453.77 25.9883C453.77 25.9883 453.578 18.5952 452.304 18.0411C452.304 18.0411 450.213 19.9654 449.892 20.7571C449.892 20.7571 451.551 24.4111 450.522 26.2989C450.522 26.2989 449.892 21.3722 449.354 21.3539C449.354 21.3539 447.274 24.6181 447.052 26.8348C447.157 24.7661 447.777 22.7614 448.852 21.019C447.648 21.2566 446.538 21.8557 445.656 22.7424C445.656 22.7424 445.983 20.4405 449.366 20.2334C449.366 20.2334 451.118 17.7609 451.551 17.6087C451.551 17.6087 448.186 17.3164 446.147 18.2603C446.147 18.2603 447.94 16.0801 452.17 17.0423L454.506 15.0326C454.506 15.0326 450.078 14.4237 448.197 15.0996C448.197 15.0996 450.359 13.1752 455.143 14.5759L457.714 12.9743C457.714 12.9743 453.94 12.1217 451.685 12.4323C451.685 12.4323 454.062 11.0925 458.467 12.5419L460.307 11.6832C460.307 11.6832 457.538 11.1108 456.726 11.0255C455.914 10.9402 455.873 10.7027 455.873 10.7027C457.627 10.3986 459.427 10.6095 461.073 11.3117C461.073 11.3117 465.016 9.80753 464.946 9.55175Z" fill="#C0C0C0"/>
<path d="M543.92 386.81C557.067 386.81 567.724 384.945 567.724 382.644C567.724 380.344 557.067 378.479 543.92 378.479C530.774 378.479 520.116 380.344 520.116 382.644C520.116 384.945 530.774 386.81 543.92 386.81Z" fill="#C0C0C0"/>
<path d="M553.418 376.063C554.533 375.201 555.345 374.038 555.744 372.727C556.048 371.408 555.453 369.847 554.116 369.335C552.622 368.793 551.024 369.778 549.815 370.769C548.607 371.76 547.215 372.895 545.636 372.681C546.45 371.98 547.059 371.091 547.404 370.101C547.749 369.111 547.818 368.053 547.604 367.03C547.535 366.607 547.346 366.208 547.057 365.878C546.225 365.037 544.725 365.394 543.728 366.057C540.569 368.165 539.689 372.238 539.67 375.896C539.355 374.577 539.622 373.2 539.616 371.863C539.61 370.527 539.215 368.983 538.006 368.275C537.26 367.894 536.422 367.708 535.576 367.733C534.161 367.681 532.575 367.82 531.609 368.805C530.394 370.026 530.716 372.077 531.761 373.413C532.806 374.749 534.404 375.608 535.874 376.535C537.05 377.2 538.053 378.108 538.808 379.191C538.899 379.342 538.972 379.502 539.026 379.669H547.932C549.924 378.707 551.769 377.494 553.418 376.063V376.063Z" fill="#C0C0C0"/>
<path d="M335.261 167.498C335.261 164.682 334.973 162.73 334.397 161.642C333.885 160.49 332.989 159.914 331.709 159.914C330.493 159.914 329.373 160.554 328.349 161.834V170.666C328.349 171.498 328.317 172.138 328.253 172.586C328.189 172.97 327.933 173.418 327.485 173.93C327.101 174.442 326.461 174.858 325.565 175.178L315.581 179.018L314.237 177.674C315.965 175.754 316.829 173.706 316.829 171.53V160.586C316.829 160.202 320.189 158.634 326.909 155.882C333.693 153.13 337.661 151.754 338.813 151.754C340.029 151.754 341.661 153.194 343.709 156.074C345.757 158.89 346.781 161.066 346.781 162.602V175.754C346.781 179.146 344.893 184.234 341.117 191.018C337.405 197.802 333.693 203.722 329.981 208.778L324.413 216.458C331.517 216.33 335.645 216.266 336.797 216.266C340.317 216.266 342.461 215.21 343.229 213.098C343.933 213.162 344.445 213.194 344.765 213.194H345.341L350.717 220.97C350.525 221.29 350.237 221.738 349.853 222.314C349.533 222.826 348.733 223.53 347.453 224.426C346.237 225.258 344.893 225.674 343.421 225.674H316.445C315.101 222.218 314.429 219.242 314.429 216.746C314.429 215.914 316.157 212.906 319.613 207.722C323.069 202.474 326.525 197.002 329.981 191.306C333.501 185.546 335.261 181.642 335.261 179.594V167.498Z" fill="white"/>
<defs>
<linearGradient id="paint0_linear" x1="479.646" y1="299.957" x2="479.646" y2="61.9564" gradientUnits="userSpaceOnUse">
<stop stop-color="#808080" stop-opacity="0.25"/>
<stop offset="0.54" stop-color="#808080" stop-opacity="0.12"/>
<stop offset="1" stop-color="#808080" stop-opacity="0.1"/>
</linearGradient>
<linearGradient id="paint1_linear" x1="23686.8" y1="149203" x2="53044.4" y2="149203" gradientUnits="userSpaceOnUse">
<stop stop-color="#808080" stop-opacity="0.25"/>
<stop offset="0.54" stop-color="#808080" stop-opacity="0.12"/>
<stop offset="1" stop-color="#808080" stop-opacity="0.1"/>
</linearGradient>
</defs>
</svg>
