<svg width="679" height="388" viewBox="0 0 679 388" fill="none" xmlns="http://www.w3.org/2000/svg">
<path opacity="0.1" d="M407.942 279.755C421.071 279.006 437.362 270.098 450.028 266.158C465.019 261.507 480.069 257.032 495.179 252.734C547.781 237.763 600.946 225.006 654.677 214.463C659.691 213.477 664.713 212.514 669.743 211.575C661.908 194.64 649.768 180.057 634.537 169.282C634.927 165.574 635.125 161.849 635.131 158.121C635.131 99.2063 588.06 51.4454 529.975 51.4454C512.093 51.4264 494.51 56.0434 478.942 64.846C437.831 37.7952 384.172 21.4233 325.463 21.4233C242.04 21.4233 168.805 54.4821 127.308 104.263L322.338 137.221L441.954 157.426C305.591 161.497 168.805 165.544 32.8342 155.988C14.8853 173.36 3.52493 196.428 0.694537 221.249C-2.13585 246.071 3.73945 271.105 17.3164 292.074V292.074C17.3164 294.208 17.4055 296.323 17.5659 298.421C21.0295 299.413 24.3742 300.376 27.3744 301.006C75.5399 311.184 124.014 319.701 172.798 326.559C136.849 348.731 93.0698 351.869 51.6018 361.258C71.6823 377.838 98.9514 388 129.001 388H576.428C624.877 388 664.147 354.264 664.147 312.642C671.417 300.65 676.262 287.346 678.405 273.486C588.756 282.144 497.989 274.627 407.942 279.755Z" fill="#FFD700"/>
<path opacity="0.1" d="M678.405 255.667C678.453 238.515 674.383 221.604 666.539 206.359C658.696 191.114 647.308 177.982 633.337 168.072C633.723 164.367 633.921 160.645 633.93 156.92C633.93 98.012 586.922 50.2752 528.968 50.2752C511.117 50.256 493.566 54.8702 478.024 63.6681C436.988 36.6089 383.422 20.2332 324.822 20.2332C229.503 20.2332 147.456 63.579 111.069 125.737C109.047 125.618 107.013 125.552 104.961 125.552C47.0014 125.552 0.00020495 173.307 0.00020495 232.215C-0.0404201 253.022 5.95929 273.392 17.2684 290.843V290.843C17.2684 343.844 67.1931 386.81 128.752 386.81H575.365C623.718 386.81 662.915 353.072 662.915 311.455C673.085 294.634 678.443 275.334 678.405 255.667V255.667Z" fill="#FFD700"/>
<path d="M554.041 190.523C553.195 189.873 552.205 189.439 551.154 189.257C550.048 189.002 548.918 188.843 547.794 188.665L533.23 186.565C531.76 186.292 530.26 186.212 528.769 186.328C528.021 186.39 527.293 186.599 526.627 186.944C525.961 187.29 525.37 187.764 524.889 188.34C524.455 188.875 524.217 189.543 524.214 190.233C524.295 190.927 524.521 191.596 524.877 192.197C525.018 192.478 525.138 192.769 525.238 193.067C525.377 193.736 525.551 194.397 525.758 195.049C525.823 195.19 525.906 195.321 526.007 195.439C526.009 195.472 526.009 195.506 526.007 195.54C525.847 196.356 526.362 197.208 526.131 197.995C525.93 198.669 525.273 199.077 524.859 199.639C524.583 200.038 524.43 200.509 524.419 200.994C524.409 201.479 524.541 201.956 524.8 202.367C525.244 203.053 526.048 203.52 526.279 204.307C526.581 205.342 525.764 206.342 525.037 207.141C523.698 208.611 522.461 210.171 521.333 211.809C521.017 212.211 520.812 212.691 520.742 213.199C520.677 214.228 521.665 215.133 521.493 216.157C521.357 216.961 520.57 217.452 519.89 217.932C517.376 219.588 515.359 222.25 515.157 225.261C514.512 220.47 512.527 215.959 509.431 212.246C508.585 211.229 507.656 210.205 507.307 208.916C507.177 208.401 507.154 207.851 506.976 207.354C506.385 205.786 504.503 205.112 503.681 203.668C503.09 202.651 503.09 201.343 502.356 200.45C501.622 199.557 500.469 199.355 499.836 198.492C499.52 197.907 499.251 197.297 499.031 196.669C498.766 196.158 498.393 195.71 497.937 195.356C497.85 195.286 497.759 195.221 497.665 195.161C497.763 195.073 497.842 194.965 497.896 194.845C497.95 194.725 497.978 194.595 497.978 194.463C497.978 193.771 497.292 193.315 496.695 192.972C495.926 192.534 495.174 192.061 494.441 191.57C495.241 191.197 495.934 190.63 496.458 189.919C497.115 188.86 497.386 187.606 497.227 186.37C497.187 185.372 496.814 184.416 496.168 183.654C495.796 183.258 495.328 182.974 494.938 182.601C493.926 181.613 493.583 180.152 493.163 178.803C492.607 177.028 491.737 175.165 490.117 174.224C489.336 173.769 488.425 173.556 487.662 173.077C486.898 172.597 486.26 171.692 486.526 170.823C486.703 170.231 487.253 169.823 487.626 169.32C488.071 168.67 488.242 167.87 488.101 167.095C487.96 166.32 487.52 165.631 486.875 165.179C486.437 164.901 485.899 164.658 485.81 164.149C485.468 164.06 485.157 163.877 484.914 163.619C484.672 163.362 484.506 163.041 484.438 162.694C484.305 161.998 484.305 161.284 484.438 160.588C484.591 159.487 484.743 158.391 484.893 157.299C485.154 157.407 485.433 157.463 485.715 157.463C485.998 157.463 486.277 157.407 486.538 157.299C487.05 158.129 487.644 158.906 488.312 159.618C490.114 161.745 491.516 164.18 492.453 166.806C492.79 167.752 493.134 168.811 494.009 169.314C494.311 169.486 494.654 169.574 494.95 169.758C495.314 170.012 495.628 170.333 495.872 170.704C496.582 171.645 497.292 172.58 497.996 173.52L498.032 173.662C498.051 173.745 498.083 173.825 498.126 173.899C498.257 174.046 498.439 174.139 498.635 174.159C500.812 174.662 503.255 175.123 505.142 173.934C506.846 172.869 507.591 170.763 509.035 169.355C510.058 168.356 511.508 167.581 511.797 166.173C511.452 166.066 511.112 165.942 510.78 165.8C511.076 165.504 511.371 165.161 511.774 164.77C512.358 164.198 512.885 163.57 513.347 162.895C513.847 162.062 514.244 161.173 514.53 160.245C515.67 156.995 516.814 153.743 517.961 150.489C518.506 148.951 519.05 147.401 519.736 145.904C520.446 144.283 521.286 142.727 522.061 141.136C524.061 136.997 525.604 132.653 526.663 128.18C526.851 127.57 526.914 126.928 526.847 126.293C526.681 125.269 525.906 124.465 525.167 123.737C524.423 122.932 523.576 122.23 522.647 121.649C522.18 121.359 521.661 121.164 521.118 121.077C520.576 120.99 520.022 121.011 519.488 121.14C517.973 121.584 517.021 123.134 516.672 124.69C516.323 126.246 516.453 127.849 516.305 129.422C516.092 131.7 515.311 133.901 515.122 136.184C515.021 137.504 515.122 138.841 514.962 140.16C514.671 141.886 514.07 143.546 513.188 145.058C511.269 148.665 508.672 151.867 505.539 154.488C505.178 154.79 504.805 155.08 504.45 155.405C504.45 155.151 504.492 154.891 504.527 154.636C504.269 154.703 504.018 154.792 503.776 154.903C503.806 154.604 503.775 154.302 503.687 154.015C503.214 152.601 501.108 152.24 500.729 150.803C500.666 150.447 500.633 150.087 500.629 149.726C500.504 148.466 499.647 147.401 499.351 146.177C499.079 145.047 499.286 143.81 498.759 142.763C498.311 142.108 497.782 141.512 497.186 140.988C496.475 140.176 495.963 139.21 495.689 138.166C495.612 137.876 495.541 137.575 495.458 137.285C495.548 136.628 495.475 135.96 495.245 135.338C494.707 134.001 493.317 133.144 492.814 131.789C492.424 130.736 492.595 129.422 491.856 128.606C491.463 128.216 490.982 127.926 490.454 127.76C487.746 126.706 484.905 126.035 482.012 125.766C480.391 125.618 478.605 125.536 477.445 124.394C476.091 123.069 476.025 120.684 474.44 119.661C473.044 118.756 471.068 119.424 469.986 120.696C469.823 120.883 469.673 121.081 469.536 121.288C469.338 120.495 469.296 119.671 469.412 118.862C469.412 118.661 469.453 118.454 469.471 118.271C472.142 117.398 474.415 115.603 475.884 113.207C475.884 113.207 475.884 113.207 475.884 113.242L475.955 113.426C476.126 113.857 476.398 114.272 476.8 114.319C477.068 114.316 477.327 114.222 477.534 114.053C477.891 113.805 478.22 113.519 478.516 113.201C478.666 113.035 478.808 112.864 478.942 112.686C479.215 112.317 479.448 111.92 479.64 111.503C479.934 110.875 480.133 110.207 480.232 109.521C480.338 108.835 480.35 108.131 480.468 107.445C480.579 106.913 480.723 106.39 480.9 105.877C480.959 105.705 481.018 105.534 481.072 105.362C481.125 105.191 481.202 104.96 481.261 104.77C481.631 103.554 481.83 102.291 481.852 101.02C481.852 100.807 481.852 100.594 481.852 100.381C481.831 99.5509 481.644 98.7336 481.303 97.9768C480.961 97.22 480.473 96.5389 479.865 95.9734C478.847 95.1392 477.498 94.7902 476.753 93.6602C476.268 92.903 476.162 91.9269 475.878 91.0395C475.571 89.9775 474.972 89.0227 474.151 88.2834C473.329 87.5442 472.316 87.05 471.228 86.8568C469.917 86.7131 468.601 87.0749 467.548 87.8685V87.8685L467.466 87.9336C466.879 88.3815 466.381 88.9353 465.998 89.5664C465.217 89.3511 464.501 88.9444 463.916 88.3832C463.325 87.833 462.869 87.1408 462.272 86.6084C461.713 86.097 461.028 85.7449 460.287 85.5888C459.546 85.4327 458.777 85.4784 458.06 85.721C457.321 86.0169 456.663 86.4838 456.139 87.0834C455.616 87.6829 455.242 88.398 455.049 89.17C454.723 90.3887 454.782 91.7908 454.102 92.8083C453.576 93.6011 452.712 93.9915 452.109 94.7133C451.734 95.1703 451.478 95.7129 451.363 96.2929V96.2929C451.291 96.6172 451.258 96.9487 451.263 97.2808V97.2808C451.263 97.4287 451.263 97.5766 451.298 97.7186C451.298 97.7186 451.298 97.7659 451.298 97.7896C451.319 97.9517 451.353 98.1119 451.399 98.2688V98.2688C451.567 98.8685 451.868 99.4226 452.28 99.8898C452.671 100.337 453.158 100.689 453.706 100.919C453.93 101.006 454.159 101.079 454.392 101.138L455.096 101.298L455.344 101.357C454.495 102.952 454.023 104.721 453.966 106.527C453.908 108.334 454.267 110.129 455.013 111.775C455.013 111.941 454.972 112.106 454.954 112.272C454.858 114.601 454.961 116.935 455.262 119.247C455.344 120.164 455.392 121.176 454.83 121.903C454.574 122.189 454.286 122.445 453.972 122.666C454.291 122.252 454.617 121.844 454.948 121.436C454.114 120.596 452.795 120.489 451.612 120.572C449.322 120.743 447.099 121.422 445.104 122.56C443.779 123.323 442.419 124.335 440.904 124.157C440.011 124.057 439.13 123.566 438.26 123.802C437.771 124.002 437.315 124.273 436.905 124.607C436.582 124.839 436.191 124.959 435.793 124.95C434.864 123.808 433.427 123.033 432.315 122.104C431.049 120.978 429.891 119.736 428.854 118.395C426.937 116.082 425.027 113.763 423.146 111.426C421.56 109.462 419.933 107.338 419.655 104.824C419.627 104.574 419.613 104.323 419.614 104.072C419.652 102.878 419.803 101.689 420.064 100.523C420.134 100.241 420.134 99.9466 420.064 99.665C419.886 99.0734 419.206 98.8545 418.62 98.7243C418.697 98.2688 418.75 97.8014 418.78 97.3577C419.111 92.27 418.75 87.0994 419.827 82.1181C420.235 80.2014 420.904 78.2609 422.282 76.8707C424.441 74.6876 428.056 74.1611 429.712 71.5758C431.096 69.4224 430.546 66.3757 428.807 64.4766C427.068 62.5776 424.388 61.8026 421.838 61.8973C421.123 61.8727 420.416 62.0622 419.809 62.4415C419.242 62.9456 418.817 63.5904 418.579 64.311L416.041 70.4814C415.305 72.0878 414.684 73.7446 414.183 75.439C413.473 78.0302 413.314 80.7634 412.752 83.3782C412.752 85.3897 411.456 87.8981 410.746 89.7498C409.954 91.8322 409.096 93.891 408.38 96.0148C408.203 96.5472 407.582 98.1268 407.197 99.5644C407.052 99.649 406.917 99.7503 406.795 99.8661C406.486 100.262 406.205 100.679 405.955 101.114C405.416 101.824 404.541 102.203 403.949 102.889C403.358 103.575 403.234 104.836 404.056 105.179C404.223 105.235 404.395 105.272 404.57 105.291C404.678 105.3 404.785 105.318 404.89 105.344C405.777 105.593 406.126 106.711 405.996 107.634C405.866 108.557 405.405 109.409 405.328 110.332C405.168 111.964 406.126 113.485 407.049 114.857C408.004 116.345 409.06 117.766 410.208 119.111C411.042 120.046 411.983 120.886 412.823 121.785C416.023 125.074 418.567 128.92 421.442 132.493C422.476 133.841 423.652 135.075 424.95 136.173C425.797 136.835 426.684 137.446 427.606 138.001L432.551 141.136C433.112 141.547 433.747 141.846 434.421 142.018C434.641 142.047 434.863 142.047 435.083 142.018C435.113 142.165 435.137 142.307 435.172 142.455C435.557 144.005 436.403 145.413 436.497 146.993C436.592 148.572 436.45 150.188 436.562 151.785C436.669 153.258 436.994 154.743 437.077 156.192C437.243 158.985 436.556 161.741 435.894 164.475C434.894 168.474 434.291 172.556 432.344 176.182C431.8 177.182 431.161 178.2 431.161 179.342C431.161 179.478 431.161 179.62 431.197 179.756L430.309 180.259C430.049 180.406 429.789 180.554 429.552 180.708C428.428 181.442 427.227 182.252 426.766 183.518C426.393 184.542 426.565 185.713 426.115 186.707C426.094 186.752 426.07 186.795 426.044 186.837C425.571 187.76 424.63 188.446 424.417 189.458C424.258 190.233 424.565 191.055 424.417 191.824C424.417 191.824 424.417 191.824 424.417 191.854C424.283 192.24 424.176 192.636 424.098 193.037C424.092 193.168 424.104 193.3 424.133 193.428C424.246 193.876 424.494 194.278 424.843 194.581C425.056 194.786 425.288 194.97 425.535 195.131C425.788 195.297 426.048 195.451 426.316 195.593L426.47 195.676C426.695 195.794 426.92 195.906 427.15 196.013L427.304 196.078C427.57 196.196 427.843 196.303 428.115 196.397L428.304 196.457C428.517 196.528 428.736 196.593 428.955 196.646L429.103 196.693L429.239 196.723L429.83 196.847L430.049 196.888C430.309 196.932 430.576 196.967 430.848 196.995H431.084C431.285 196.995 431.481 197.024 431.676 197.03H431.954C432.161 197.03 432.362 197.03 432.546 197.03H432.759C433.037 197.03 433.315 196.989 433.593 196.953H433.681C433.93 196.918 434.178 196.877 434.427 196.823L434.616 196.782C434.847 196.729 435.077 196.675 435.308 196.604L435.432 196.569C435.71 196.486 435.988 196.397 436.261 196.291C437.202 195.904 438.115 195.451 438.994 194.936C439.585 194.611 440.177 194.279 440.768 193.978C441.207 193.757 441.657 193.559 442.117 193.386C443.236 192.908 444.453 192.705 445.666 192.795C446.265 192.876 446.858 192.997 447.441 193.155C447.441 193.22 447.441 193.286 447.441 193.351C447.922 196.19 448.397 199.03 448.867 201.87C449.641 201.312 450.46 200.819 451.316 200.397C451.156 200.825 451.051 201.273 451.002 201.728C450.967 202.08 450.967 202.435 451.002 202.787C451.056 203.349 451.174 203.97 450.837 204.414C450.63 204.686 450.245 204.839 450.133 205.147C450.051 205.462 450.03 205.789 450.074 206.111C450.049 206.479 449.894 206.826 449.635 207.089C449.377 207.351 449.033 207.513 448.666 207.543C448.835 208.019 448.839 208.539 448.677 209.017C448.515 209.496 448.196 209.906 447.772 210.182C447.525 210.301 447.294 210.452 447.086 210.631C446.884 210.893 446.748 211.199 446.69 211.525C445.908 214.454 444.3 217.097 442.058 219.138C441.217 219.799 440.449 220.549 439.769 221.375C439.348 222.014 439.001 222.699 438.733 223.416C437.156 227.273 435.555 231.132 433.93 234.993C433.031 237.153 432.155 239.347 431.871 241.672C431.161 248.05 425.482 253.457 426.547 259.787C426.762 261.369 427.4 262.862 428.393 264.112C429.576 265.538 431.351 266.354 433.125 267.017C437.686 268.791 442.496 269.762 447.287 270.738L454.812 272.282C456.289 272.621 457.787 272.859 459.296 272.992C461.112 273.116 462.976 272.944 464.744 273.406C465.839 273.69 466.886 274.216 468.016 274.276C468.986 274.329 470.181 274.122 470.755 274.914C471.328 275.707 470.885 276.754 471.429 277.458C472.305 278.576 474.44 277.458 475.393 278.511C475.653 278.916 475.852 279.356 475.984 279.819C476.129 280.105 476.33 280.358 476.576 280.564C476.634 280.898 476.657 281.237 476.647 281.576C476.523 282.95 476.237 284.304 475.795 285.611C475.085 288.012 474.377 290.416 473.671 292.822C473.402 293.672 473.204 294.543 473.079 295.425C473.035 295.854 473.035 296.286 473.079 296.715C473.204 298.022 473.955 299.371 475.203 299.797C476.172 300.053 477.201 299.926 478.078 299.442C478.924 299 479.718 298.464 480.444 297.845C481.754 296.854 482.905 295.669 483.858 294.331C486.816 289.906 485.857 283.919 487.934 279.026C489.312 275.76 491.998 273.11 492.891 269.667C493.1 269.012 493.125 268.312 492.962 267.644C492.589 266.46 491.329 265.786 490.152 265.36H490.099C489.132 265.016 488.144 264.733 487.141 264.514C486.893 264.461 486.638 264.419 486.384 264.378C485.821 263.92 485.373 263.337 485.076 262.674C485.03 262.322 484.936 261.978 484.798 261.651C484.704 261.51 484.578 261.393 484.43 261.311C484.282 261.229 484.116 261.183 483.947 261.177C483.355 261.118 482.562 261.331 481.917 261.284C480.598 261.189 479.723 259.894 478.54 259.296C477.357 258.699 476.073 258.847 474.813 258.935C474.362 258.997 473.904 258.969 473.464 258.853C472.939 258.611 472.458 258.28 472.044 257.876C471.316 257.31 470.466 256.92 469.562 256.739C468.657 256.557 467.723 256.588 466.833 256.829C466.266 257.058 465.667 257.194 465.058 257.232C463.904 257.166 463.088 256.137 462.236 255.356C459.905 253.22 456.587 252.658 453.759 251.256C453.326 251.095 452.965 250.785 452.742 250.381C452.416 249.576 453.15 248.772 453.812 248.221L458.675 244.181C463.999 239.756 470.654 236.425 473.127 229.935C473.385 229.065 473.784 228.243 474.31 227.504C474.501 227.278 474.722 227.079 474.967 226.912C476.042 226.215 477.346 225.961 478.605 226.202C480.139 226.546 481.593 227.18 482.888 228.072C485.005 229.353 487.066 230.734 489.069 232.213C491.054 233.631 492.941 235.181 494.719 236.851C497.825 239.809 500.41 243.317 503.303 246.506C506.195 249.695 509.502 252.67 513.519 254.197C517.536 255.723 522.392 255.658 525.841 253.096C529.822 250.138 531.1 244.849 532.106 239.998C534.324 237.857 534.993 234.597 536.075 231.716C536.755 229.888 537.625 228.166 538.359 226.344C539.234 224.203 539.92 221.99 540.607 219.783C541.384 217.567 541.912 215.272 542.18 212.938C542.464 209.253 541.476 205.331 542.511 201.87C543.878 201.568 545.12 200.799 546.463 200.349C548.463 199.693 550.604 199.799 552.722 199.811H552.858C553.588 199.889 554.322 199.715 554.94 199.32C555.65 198.728 555.762 197.717 555.798 196.8C555.881 194.534 555.739 191.99 554.041 190.523ZM468.329 89.6078C467.84 89.7288 467.334 89.7648 466.833 89.7143L468.329 89.6078Z" fill="url(#paint0_linear)"/>
<path d="M470.565 126.705C469.85 127.313 469.013 127.76 468.11 128.013L463.925 129.515C461.653 130.332 459.28 131.155 456.884 130.859C455.544 130.693 449.801 129.847 448.934 128.8C447.612 127.178 452.245 124.794 453.826 123.427C454.185 123.169 454.517 122.875 454.818 122.551C455.408 121.829 455.331 120.818 455.249 119.906C454.949 117.598 454.846 115.268 454.942 112.942C454.988 112.388 455.067 111.836 455.178 111.291C455.768 108.569 458.294 109.564 460.289 110.285C462.691 111.067 465.013 112.076 467.224 113.297C467.898 113.645 468.483 114.143 468.936 114.753C469.809 116.078 469.461 117.818 469.319 119.486C469.196 120.782 469.201 122.025 470.01 122.965C470.417 123.325 470.79 123.721 471.126 124.149C471.314 124.579 471.362 125.059 471.261 125.519C471.16 125.978 470.917 126.393 470.565 126.705Z" fill="#BE6F72"/>
<path d="M412.92 84.5348C413.515 81.9029 413.646 79.1878 414.361 76.5796C414.865 74.8838 415.49 73.226 416.23 71.6188L418.856 65.5053C419.096 64.7835 419.523 64.1378 420.094 63.6339C420.706 63.2556 421.417 63.0655 422.136 63.0873C424.702 62.9922 427.399 63.7883 429.15 65.6717C430.9 67.555 431.454 70.6028 430.061 72.7595C428.393 75.3558 424.756 75.8786 422.583 78.0649C421.196 79.4611 420.523 81.4039 420.112 83.3229C419.028 88.3134 419.392 93.4882 419.058 98.5857C418.951 100.172 418.642 101.984 417.272 102.804C416.445 103.209 415.524 103.387 414.605 103.321L410.699 103.386C410.044 103.386 407.669 103.796 407.234 103.303C406.472 102.441 408.211 98.152 408.526 97.1954C409.229 95.0744 410.092 93.0069 410.908 90.9216C411.616 89.062 412.92 86.5489 412.92 84.5348Z" fill="#BE6F72"/>
<path d="M492.585 270.771C491.681 274.207 488.963 276.882 487.569 280.158C485.467 285.062 486.413 291.06 483.444 295.494C482.481 296.841 481.316 298.034 479.99 299.031C479.255 299.652 478.451 300.188 477.595 300.63C476.708 301.116 475.666 301.244 474.686 300.987C473.423 300.559 472.662 299.203 472.537 297.896C472.492 297.467 472.492 297.034 472.537 296.606C472.662 295.721 472.863 294.848 473.135 293.996C473.854 291.591 474.57 289.181 475.285 286.768C475.732 285.459 476.021 284.102 476.147 282.726C476.224 281.228 475.267 279.278 475.674 277.881C475.859 277.251 476.554 276.692 476.871 276.163C477.321 275.402 477.668 274.584 477.901 273.732C478.391 272.073 478.727 270.302 479.756 268.905C480.428 268.076 481.214 267.346 482.091 266.735C482.738 266.172 483.497 265.749 484.318 265.493C485.115 265.354 485.933 265.392 486.713 265.606C487.728 265.821 488.728 266.103 489.706 266.45H489.76C490.957 266.878 492.226 267.538 492.603 268.738C492.786 269.405 492.78 270.108 492.585 270.771V270.771Z" fill="#0F0000"/>
<path d="M555.796 197.202C555.762 198.109 555.652 199.121 554.957 199.689C554.352 200.08 553.633 200.251 552.919 200.174H552.762C550.695 200.174 548.593 200.057 546.636 200.707C545.148 201.204 543.782 202.117 542.23 202.298C540.093 202.544 538.084 201.362 536.191 200.332C534.408 199.362 532.578 198.483 530.708 197.699C529.48 197.19 526.973 196.863 526.382 195.505C526.18 194.863 526.01 194.211 525.873 193.551C525.776 193.256 525.658 192.969 525.52 192.691C525.172 192.098 524.951 191.438 524.871 190.754C524.873 190.072 525.106 189.412 525.531 188.882C526.004 188.317 526.582 187.852 527.233 187.513C527.884 187.175 528.594 186.97 529.324 186.91C530.783 186.795 532.251 186.874 533.69 187.144L547.945 189.215C549.045 189.373 550.151 189.531 551.234 189.8C552.262 189.981 553.232 190.41 554.059 191.053C555.744 192.48 555.883 194.99 555.796 197.202Z" fill="#0F0000"/>
<path d="M543.556 200.846C541.768 204.623 543.055 209.093 542.733 213.27C542.463 215.617 541.932 217.927 541.148 220.156C540.457 222.375 539.766 224.601 538.884 226.755C538.145 228.545 537.269 230.335 536.584 232.161C535.493 235.073 534.796 238.349 532.585 240.515C531.572 245.396 530.285 250.731 526.274 253.691C522.788 256.268 517.932 256.358 513.862 254.8C509.791 253.243 506.484 250.26 503.57 247.043C500.656 243.827 498.052 240.324 494.923 237.329C493.13 235.644 491.225 234.083 489.221 232.657C487.202 231.189 485.127 229.808 482.993 228.515C481.687 227.62 480.223 226.983 478.679 226.636C477.411 226.392 476.098 226.649 475.014 227.352C474.768 227.52 474.545 227.721 474.353 227.949C473.822 228.692 473.419 229.519 473.161 230.395C470.658 236.923 463.942 240.277 458.579 244.728L453.68 248.792C453.013 249.347 452.274 250.158 452.602 250.964C452.827 251.371 453.191 251.684 453.627 251.847C456.475 253.255 459.818 253.822 462.166 255.97C463.024 256.758 463.847 257.796 465.009 257.856C465.622 257.82 466.226 257.685 466.796 257.456C467.693 257.213 468.634 257.181 469.545 257.364C470.455 257.546 471.312 257.937 472.046 258.506C472.463 258.914 472.947 259.247 473.477 259.491C473.92 259.608 474.381 259.636 474.835 259.574C476.105 259.485 477.451 259.371 478.589 259.938C479.728 260.505 480.663 261.842 481.992 261.937C482.642 261.985 483.416 261.77 484.036 261.83C484.207 261.835 484.374 261.881 484.523 261.964C484.672 262.047 484.799 262.165 484.894 262.307C485.033 262.635 485.128 262.98 485.174 263.333C485.419 264.175 486.241 264.688 486.777 265.38C487.6 266.442 487.719 267.886 487.635 269.229C487.366 273.427 485.497 277.361 482.415 280.22C481.54 281.116 480.424 281.738 479.203 282.01C478.592 282.138 477.956 282.071 477.384 281.817C476.813 281.563 476.336 281.136 476.021 280.596C475.888 280.132 475.687 279.689 475.425 279.283C474.466 278.227 472.315 279.349 471.433 278.221C470.884 277.517 471.278 276.389 470.753 275.661C470.229 274.933 468.965 275.065 467.994 275.023C466.856 274.963 465.801 274.426 464.699 274.146C462.911 273.68 461.04 273.853 459.21 273.728C457.69 273.594 456.181 273.355 454.693 273.012L447.113 271.461C442.287 270.476 437.442 269.48 432.847 267.719C431.089 267.051 429.319 266.227 428.08 264.795C427.081 263.537 426.439 262.032 426.221 260.439C425.142 254.072 430.863 248.631 431.584 242.216C431.84 239.877 432.776 237.669 433.658 235.497C435.275 231.614 436.888 227.73 438.497 223.843C438.757 223.12 439.097 222.427 439.51 221.779C440.195 220.948 440.968 220.194 441.816 219.529C444.074 217.477 445.694 214.817 446.482 211.867C446.54 211.539 446.677 211.23 446.881 210.966C447.092 210.789 447.324 210.639 447.572 210.519C447.998 210.241 448.318 209.829 448.481 209.347C448.644 208.865 448.641 208.343 448.472 207.863C448.842 207.833 449.189 207.67 449.449 207.405C449.709 207.14 449.866 206.79 449.89 206.419C449.847 206.096 449.867 205.768 449.95 205.453C450.093 205.142 450.451 204.987 450.659 204.713C450.999 204.265 450.88 203.639 450.826 203.078C450.79 202.723 450.79 202.365 450.826 202.01C450.956 200.746 451.521 199.567 452.423 198.674C453.847 197.272 455.873 197.636 457.84 197.302C459.801 196.878 461.717 196.264 463.561 195.47C468.731 193.43 474.176 192.169 479.716 191.728C485.283 191.29 490.876 192.182 496.032 194.33C496.782 194.634 497.489 195.035 498.135 195.523C498.594 195.878 498.97 196.328 499.238 196.842C499.458 197.474 499.729 198.087 500.048 198.674C500.686 199.545 501.89 199.826 502.587 200.649C503.284 201.473 503.344 202.863 503.922 203.883C504.75 205.339 506.669 206.014 507.241 207.595C507.42 208.096 507.444 208.645 507.575 209.164C507.896 210.465 508.862 211.491 509.714 212.518C512.838 216.259 514.838 220.811 515.482 225.645C515.673 222.62 517.705 219.941 520.25 218.27C520.935 217.822 521.728 217.327 521.865 216.516C522.037 215.489 521.042 214.576 521.108 213.532C521.18 213.022 521.386 212.541 521.704 212.136C522.839 210.488 524.086 208.919 525.434 207.44C526.167 206.634 526.989 205.65 526.686 204.587C526.453 203.794 525.643 203.328 525.196 202.636C524.935 202.224 524.801 201.743 524.812 201.255C524.823 200.767 524.977 200.292 525.255 199.891C525.672 199.324 526.334 198.913 526.537 198.238C526.769 197.445 526.251 196.586 526.411 195.768C526.629 195.113 527.062 194.552 527.639 194.175C528.43 193.454 529.329 192.862 530.303 192.421C531.876 191.824 533.628 192.045 535.296 192.277C538.085 192.665 541.214 193.262 542.787 195.601C543.794 197.063 544.307 199.283 543.556 200.846Z" fill="#260404"/>
<path opacity="0.1" d="M555.796 197.938C555.762 198.909 555.652 199.994 554.957 200.602C554.353 201.021 553.634 201.204 552.92 201.122H552.764C553.001 199.818 554.465 199.072 554.72 197.75C554.764 197.344 554.73 196.932 554.62 196.541C554.511 196.149 554.328 195.787 554.084 195.475C552.845 193.664 550.854 192.661 548.875 191.927C543.284 189.851 537.294 189.366 531.48 190.517C529.899 190.796 528.361 191.309 526.908 192.04C526.427 192.367 525.963 192.722 525.519 193.106C525.172 192.471 524.951 191.764 524.871 191.031C524.873 190.301 525.106 189.593 525.531 189.026C526.003 188.42 526.581 187.922 527.231 187.56C527.882 187.197 528.592 186.978 529.321 186.914C530.78 186.791 532.247 186.875 533.685 187.164L547.932 189.383C549.032 189.552 550.137 189.721 551.219 190.01C552.247 190.203 553.216 190.663 554.043 191.351C555.744 192.88 555.883 195.569 555.796 197.938Z" fill="black"/>
<path opacity="0.1" d="M492.545 270.888C491.643 274.311 488.931 276.976 487.539 280.238C485.441 285.124 486.385 291.098 483.422 295.516C482.461 296.857 481.298 298.046 479.975 299.039C479.241 299.657 478.44 300.192 477.585 300.632C476.699 301.116 475.659 301.243 474.682 300.987C473.421 300.561 472.662 299.211 472.537 297.908C472.492 297.481 472.492 297.05 472.537 296.623L472.573 296.718C473.092 297.961 473.941 299.264 475.279 299.483C475.781 299.519 476.286 299.452 476.761 299.286C477.236 299.12 477.671 298.858 478.039 298.518C480.011 296.949 481.158 294.61 482.251 292.354C483.107 290.727 483.784 289.014 484.27 287.243C484.509 286.237 484.623 285.206 484.868 284.2C486.003 279.309 489.868 275.318 490.723 270.361C490.792 270.02 490.808 269.671 490.771 269.325C490.658 268.874 490.485 268.44 490.257 268.034C490.049 267.576 489.897 267.095 489.803 266.601C490.998 267.028 492.264 267.685 492.641 268.881C492.795 269.546 492.762 270.241 492.545 270.888Z" fill="black"/>
<path opacity="0.1" d="M484.405 262.556C483.846 264.015 482.905 265.297 481.68 266.269C479.959 267.577 477.945 268.446 475.812 268.801C474.819 269.054 473.777 269.041 472.79 268.765C471.449 268.301 470.482 267.047 469.11 266.685C468.131 266.42 467.079 266.655 466.088 266.51C464.306 266.263 462.922 264.907 461.484 263.822C457.078 260.519 451.295 259.452 446.889 256.149C446.693 256.029 446.531 255.861 446.418 255.661C446.334 255.444 446.303 255.211 446.327 254.98C446.344 252.976 446.795 251 447.651 249.187C448.352 247.922 449.186 246.736 450.141 245.649C454.087 240.827 458.051 235.969 462.777 231.9C464.759 230.194 466.922 228.603 469.424 227.831C470.814 227.403 473.558 226.999 475.25 227.723C475 227.893 474.774 228.095 474.579 228.325C474.041 229.076 473.633 229.912 473.37 230.797C470.826 237.397 464.016 240.785 458.577 245.281L453.609 249.386C452.933 249.947 452.183 250.766 452.516 251.58C452.744 251.992 453.113 252.308 453.555 252.472C456.444 253.895 459.834 254.467 462.215 256.637C463.085 257.433 463.919 258.482 465.097 258.542C465.719 258.506 466.332 258.369 466.91 258.138C467.82 257.893 468.773 257.861 469.697 258.045C470.621 258.229 471.489 258.624 472.234 259.199C472.657 259.611 473.148 259.947 473.685 260.193C474.134 260.312 474.602 260.341 475.062 260.278C476.35 260.187 477.715 260.073 478.87 260.646C480.024 261.218 480.973 262.568 482.32 262.665C482.991 262.713 483.777 262.484 484.405 262.556Z" fill="black"/>
<path d="M429.241 181.172C428.103 181.895 426.894 182.714 426.427 183.971C426.044 184.997 426.223 186.171 425.762 187.167C425.301 188.164 424.266 188.857 424.038 189.925C423.876 190.702 424.194 191.52 424.038 192.297C423.902 192.701 423.792 193.113 423.709 193.53C423.649 194.414 424.415 195.132 425.164 195.624C426.757 196.65 428.571 197.292 430.461 197.498C432.35 197.704 434.262 197.468 436.042 196.81C437.641 196.217 439.084 195.25 440.617 194.491C442.111 193.639 443.821 193.227 445.544 193.305C446.532 193.412 447.478 193.768 448.466 193.898C448.954 193.994 449.458 193.97 449.934 193.83C450.411 193.689 450.846 193.436 451.202 193.092C451.507 192.674 451.712 192.194 451.801 191.686C452.633 188.43 452.256 184.979 451.465 181.705C450.675 178.432 449.478 175.283 448.633 172.027C448.035 169.614 447.574 167.141 446.574 164.858C445.574 162.575 443.892 160.452 441.539 159.58C441.353 159.49 441.143 159.463 440.94 159.503C440.789 159.565 440.655 159.663 440.551 159.787C438.689 161.741 437.287 164.078 436.444 166.631C435.504 169.471 435.246 172.484 434.384 175.336C434.013 176.522 433.534 178.112 432.588 179.019C431.642 179.926 430.313 180.49 429.241 181.172Z" fill="#0F0000"/>
<path opacity="0.1" d="M451.805 191.685C451.704 192.194 451.49 192.674 451.176 193.09C450.821 193.435 450.386 193.688 449.909 193.828C449.432 193.967 448.928 193.989 448.44 193.89C447.458 193.771 446.513 193.41 445.525 193.297C443.802 193.218 442.092 193.63 440.598 194.482C439.065 195.241 437.604 196.183 436.018 196.793C433.697 197.664 431.161 197.807 428.756 197.202C427.478 196.884 426.264 196.355 425.164 195.638C424.409 195.152 423.649 194.453 423.709 193.546C423.793 193.131 423.902 192.721 424.038 192.319C424.194 191.543 423.882 190.725 424.038 189.949C424.266 188.883 425.307 188.172 425.762 187.188C426.217 186.204 426.044 185.025 426.421 184C426.888 182.738 428.103 181.926 429.241 181.197C430.378 180.468 431.731 179.911 432.641 179.028C432.759 178.891 432.865 178.744 432.958 178.59C433.615 177.588 434.096 176.485 434.383 175.325C435.263 172.469 435.503 169.465 436.437 166.62C437.284 164.071 438.688 161.739 440.55 159.788C440.649 159.661 440.782 159.563 440.933 159.504C441.135 159.463 441.345 159.488 441.531 159.575C443.878 160.452 445.561 162.573 446.566 164.854C447.572 167.136 447.997 169.595 448.626 172.013C449.464 175.266 450.667 178.424 451.458 181.689C452.248 184.954 452.637 188.426 451.805 191.685Z" fill="black"/>
<path opacity="0.1" d="M469.922 119.642C466.974 120.543 463.784 120.364 460.965 119.14C458.146 117.915 455.897 115.732 454.65 113.008C454.699 112.443 454.783 111.881 454.901 111.326C455.528 108.552 458.211 109.565 460.33 110.301C462.881 111.098 465.347 112.125 467.696 113.37C468.412 113.725 469.034 114.233 469.515 114.854C470.442 116.187 470.072 117.96 469.922 119.642Z" fill="black"/>
<path d="M465.362 119.018C471.935 119.018 477.264 113.69 477.264 107.117C477.264 100.543 471.935 95.2147 465.362 95.2147C458.789 95.2147 453.46 100.543 453.46 107.117C453.46 113.69 458.789 119.018 465.362 119.018Z" fill="#BE6F72"/>
<path opacity="0.1" d="M497.496 195.96C497.496 196.98 496.181 197.306 495.206 197.251C491.7 197.036 488.271 196.021 484.801 196.329C480.413 196.747 476.382 199.299 471.983 199.533C470.289 199.625 468.565 199.361 466.894 199.687C464.733 200.111 462.805 201.495 460.602 201.692C458.692 201.864 456.805 201.107 454.895 201.187C453.559 201.271 452.257 201.662 451.08 202.331C451.208 201.029 451.761 199.814 452.645 198.893C454.042 197.448 456.028 197.823 457.956 197.479C459.879 197.042 461.757 196.409 463.564 195.591C468.634 193.488 473.971 192.188 479.403 191.734C484.858 191.277 490.338 192.19 495.393 194.397C496.128 194.711 496.821 195.124 497.455 195.627C497.487 195.735 497.501 195.847 497.496 195.96V195.96Z" fill="black"/>
<path d="M460.5 129.431L455.782 127.66L453.79 126.917C452.978 126.572 452.124 126.342 451.25 126.232C448.967 126.055 446.818 127.595 445.601 129.561C444.383 131.526 443.923 133.869 443.533 136.153C442.997 139.276 442.543 142.412 442.17 145.559C441.769 148.402 441.564 151.269 441.558 154.14C441.692 161.446 443.218 168.652 444.896 175.763C445.717 178.916 446.338 182.119 446.754 185.353C446.894 186.687 446.958 188.026 447.098 189.366C447.249 190.871 447.494 192.358 447.738 193.851L449.142 202.331C450.889 201.074 452.875 199.971 455.025 199.906C456.929 199.835 458.816 200.555 460.715 200.39C462.899 200.207 464.833 198.879 466.988 198.472C468.654 198.159 470.372 198.407 472.067 198.324C476.447 198.1 480.472 195.645 484.84 195.25C488.306 194.931 491.748 195.922 495.22 196.129C496.187 196.188 497.497 195.875 497.497 194.89C497.497 194.205 496.821 193.751 496.233 193.408C493.46 191.717 490.821 189.809 488.341 187.702C486.046 185.86 483.716 183.972 482.138 181.481C478.334 175.492 479.639 167.389 476.395 161.068C473.756 155.934 476.395 149.207 476.395 143.417C476.395 140.531 476.395 137.61 475.725 134.807C475.306 133.239 474.785 131.701 474.164 130.204L471.898 124.391C471.851 124.221 471.759 124.068 471.63 123.948C471.478 123.842 471.297 123.786 471.112 123.789C469.751 123.706 468.409 124.142 467.349 125.011C466.283 125.89 465.602 127.153 464.554 128.068C463.406 129.077 461.927 129.962 460.5 129.431Z" fill="#E3E8F4"/>
<path d="M467.819 126.195C468.205 124.583 468.621 122.906 469.724 121.647C470.827 120.388 472.84 119.724 474.262 120.624C475.878 121.647 475.944 124.012 477.324 125.33C478.53 126.459 480.338 126.548 481.978 126.695C484.926 126.957 487.821 127.622 490.579 128.671C491.117 128.834 491.607 129.121 492.008 129.507C492.761 130.342 492.61 131.624 492.984 132.666C493.496 134.007 494.913 134.86 495.461 136.195C496.064 137.678 495.461 139.337 494.955 140.86C494.045 143.596 493.472 146.437 492.586 149.185C491.7 151.932 490.44 154.638 488.367 156.709C487.451 157.626 486.088 158.473 484.883 157.926L484.419 161.191C484.283 161.881 484.283 162.59 484.419 163.28C484.489 163.625 484.657 163.944 484.905 164.2C485.152 164.456 485.468 164.638 485.817 164.727C485.908 165.233 486.456 165.474 486.902 165.75C487.231 165.97 487.513 166.251 487.73 166.578C487.947 166.905 488.095 167.27 488.166 167.653C488.238 168.036 488.23 168.429 488.145 168.81C488.059 169.19 487.897 169.55 487.668 169.868C487.288 170.368 486.727 170.762 486.547 171.357C486.275 172.216 486.92 173.121 487.704 173.592C488.487 174.063 489.41 174.28 490.205 174.733C491.857 175.663 492.743 177.492 493.31 179.269C493.731 180.61 494.081 182.063 495.118 183.04C495.516 183.41 495.992 183.693 496.372 184.081C497.029 184.839 497.408 185.789 497.45 186.781C497.616 188.011 497.339 189.258 496.667 190.311C495.461 191.993 493.213 192.493 491.242 193.252C488.041 194.535 485.407 196.829 482.586 198.782C481.438 199.685 480.084 200.306 478.638 200.594C476.685 200.847 474.763 200.006 472.798 199.929C471.622 199.94 470.452 200.09 469.314 200.376L465.697 201.141C465.89 198.406 464.347 195.664 463.485 193.058C461.858 188.152 461.556 182.904 461.942 177.763C462.328 172.621 463.401 167.551 464.462 162.503C465.203 158.973 465.131 155.285 466.27 151.855C467.337 148.555 468.862 145.384 469.422 141.949C470.338 136.39 466.529 131.677 467.819 126.195Z" fill="#0F0000"/>
<path d="M494.632 136.544C494.96 137.162 495.19 137.828 495.315 138.519C495.59 139.59 496.105 140.581 496.818 141.412C497.416 141.952 497.947 142.564 498.399 143.236C498.945 144.293 498.738 145.582 498.993 146.737C499.29 147.995 500.152 149.089 500.276 150.384C500.28 150.755 500.314 151.125 500.377 151.49C500.764 152.961 502.879 153.313 503.348 154.784C503.663 155.738 503.122 156.778 503.223 157.781C503.297 158.091 503.315 158.412 503.277 158.729C503.142 159.087 502.907 159.396 502.599 159.616C500.633 161.538 499.272 164.016 498.69 166.733C498.117 169.436 497.817 172.192 497.793 174.957L495.47 171.815C495.224 171.433 494.909 171.103 494.543 170.842C494.246 170.66 493.901 170.569 493.598 170.386C492.719 169.876 492.374 168.794 492.036 167.821C491.095 165.129 489.686 162.634 487.876 160.455C486.932 159.318 485.833 158.176 485.625 156.699C485.562 156.02 485.598 155.336 485.732 154.669C486.326 150.688 486.961 146.609 488.857 143.078C489.742 141.425 490.889 139.929 491.738 138.252C492.309 137.14 493.111 134.246 494.632 136.544Z" fill="#0F0000"/>
<path d="M436.634 140.736C436.645 141.239 436.518 141.734 436.268 142.169C436.042 142.433 435.747 142.629 435.418 142.734C435.088 142.84 434.735 142.85 434.4 142.766C433.727 142.595 433.093 142.295 432.532 141.882C430.884 140.832 429.237 139.779 427.59 138.724C426.67 138.165 425.784 137.551 424.935 136.886C423.639 135.781 422.463 134.538 421.43 133.179C418.557 129.598 416.015 125.712 412.816 122.435C411.947 121.54 411.043 120.68 410.204 119.743C409.056 118.388 408.001 116.956 407.047 115.457C406.124 114.078 405.167 112.55 405.326 110.903C405.421 109.972 405.864 109.112 405.994 108.187C406.124 107.262 405.776 106.134 404.889 105.883C404.784 105.856 404.677 105.838 404.57 105.829C404.395 105.81 404.222 105.772 404.055 105.716C403.234 105.37 403.358 104.086 403.949 103.412C404.54 102.737 405.415 102.361 405.953 101.621C406.203 101.182 406.484 100.761 406.792 100.362C407.188 100.019 407.661 99.7791 408.17 99.6631C411.58 98.6485 415.187 98.511 418.663 99.2632C419.254 99.3945 419.928 99.6333 420.106 100.212C420.176 100.494 420.176 100.79 420.106 101.072C419.845 102.249 419.694 103.448 419.656 104.653C419.655 104.905 419.669 105.156 419.698 105.405C419.975 107.936 421.601 110.079 423.185 112.055C425.065 114.407 426.975 116.741 428.89 119.068C429.926 120.417 431.084 121.666 432.349 122.799C433.531 123.79 435.062 124.59 435.984 125.861C436.735 126.888 436.493 128.291 436.575 129.526C436.85 133.257 436.87 137.002 436.634 140.736V140.736Z" fill="#0F0000"/>
<path d="M512.128 165.622C512.713 165.045 513.241 164.411 513.704 163.73C514.203 162.886 514.601 161.984 514.89 161.045L518.328 151.166C518.874 149.605 519.419 148.037 520.107 146.518C520.818 144.878 521.66 143.299 522.436 141.713C524.434 137.541 525.978 133.161 527.042 128.651C527.23 128.031 527.292 127.38 527.226 126.735C527.06 125.696 526.284 124.885 525.543 124.147C524.797 123.331 523.948 122.62 523.017 122.033C522.55 121.738 522.029 121.541 521.486 121.452C520.942 121.364 520.387 121.385 519.852 121.516C518.334 121.967 517.38 123.54 517.03 125.12C516.68 126.699 516.811 128.315 516.663 129.924C516.449 132.23 515.667 134.458 515.477 136.771C515.376 138.11 515.477 139.461 515.317 140.794C515.025 142.545 514.423 144.228 513.538 145.761C511.612 149.413 509.01 152.655 505.874 155.31C505.014 155.953 504.241 156.706 503.574 157.55C503.016 158.395 502.639 159.348 502.465 160.349C502.071 161.873 502.242 163.49 502.945 164.895C503.912 166.565 505.767 167.297 507.539 167.67C509.934 168.174 510.486 167.345 512.128 165.622Z" fill="#BE6F72"/>
<path d="M465.855 90.0953C466.37 89.1034 467.158 88.289 468.122 87.7536C469.086 87.2182 470.182 86.9856 471.274 87.0849C472.374 87.2845 473.397 87.7958 474.228 88.5608C475.059 89.3258 475.664 90.314 475.976 91.4135C476.257 92.327 476.37 93.3387 476.861 94.1235C477.603 95.3068 478.978 95.6502 480.007 96.5085C480.621 97.0935 481.116 97.7983 481.461 98.5816C481.806 99.3649 481.995 100.211 482.017 101.07C482.074 102.825 481.804 104.575 481.221 106.226C480.974 106.931 480.774 107.652 480.623 108.385C480.504 109.096 480.492 109.819 480.384 110.531C480.251 111.453 479.94 112.339 479.469 113.136C478.997 113.933 478.375 114.625 477.638 115.172C477.429 115.347 477.167 115.444 476.897 115.448C476.43 115.393 476.143 114.835 475.97 114.332C475.019 111.518 475.246 108.078 473.493 105.834C472.696 104.929 471.733 104.193 470.658 103.67C470.22 103.38 469.726 103.19 469.21 103.112C468.452 103.154 467.723 103.427 467.117 103.897C465.854 104.765 464.454 105.4 462.978 105.773C462.241 105.952 461.475 105.96 460.735 105.796C459.995 105.633 459.3 105.302 458.701 104.829C457.875 104.13 457.271 103.081 456.356 102.536C455.441 101.99 454.484 102.02 453.581 101.646C453.005 101.396 452.493 101.013 452.083 100.529C451.674 100.044 451.377 99.4701 451.217 98.8503C451.057 98.2306 451.036 97.5815 451.158 96.9526C451.279 96.3236 451.539 95.7314 451.918 95.221C452.516 94.4852 453.401 94.0683 453.934 93.2529C454.621 92.1983 454.562 90.7513 454.891 89.4883C455.085 88.6892 455.463 87.9492 455.993 87.3297C456.522 86.7102 457.188 86.229 457.935 85.9261C458.66 85.6738 459.437 85.6255 460.186 85.7862C460.936 85.9469 461.629 86.3107 462.194 86.8396C462.792 87.3914 463.271 88.1026 463.857 88.679C464.436 89.2468 465.144 89.6566 465.918 89.8709C466.691 90.0851 467.504 90.0969 468.283 89.9052" fill="#0F0000"/>
<path opacity="0.1" d="M475.663 178.311C475.314 178.624 475.066 179.034 474.953 179.49C474.84 179.945 474.865 180.424 475.027 180.865C475.159 181.148 481.347 179.949 482.001 179.859C483.632 179.624 486.492 179.739 487.59 178.239C489.545 175.583 483.488 176.173 482.379 176.27C480.268 176.45 477.27 176.74 475.663 178.311Z" fill="black"/>
<path d="M420.049 101.128C419.788 102.321 419.638 103.536 419.6 104.758C417.827 105.128 415.983 104.522 414.28 103.917L409.392 102.211C409.095 102.016 408.737 101.945 408.39 102.011C408.043 102.078 407.733 102.277 407.525 102.568C406.739 103.403 405.657 104.988 404.569 105.926C404.395 105.907 404.222 105.869 404.055 105.811C403.234 105.46 403.358 104.159 403.949 103.476C404.54 102.792 405.415 102.411 405.953 101.66C406.203 101.215 406.483 100.788 406.792 100.383C407.188 100.036 407.66 99.7928 408.169 99.6753C411.578 98.6466 415.185 98.5072 418.66 99.2698C419.251 99.4029 419.925 99.645 420.102 100.232C420.16 100.53 420.141 100.839 420.049 101.128Z" fill="#0F0000"/>
<path opacity="0.1" d="M420.049 101.128C419.788 102.321 419.638 103.536 419.6 104.758C417.827 105.128 415.983 104.522 414.28 103.917L409.392 102.211C409.095 102.016 408.737 101.945 408.39 102.011C408.043 102.078 407.733 102.277 407.525 102.568C406.739 103.403 405.657 104.988 404.569 105.926C404.395 105.907 404.222 105.869 404.055 105.811C403.234 105.46 403.358 104.159 403.949 103.476C404.54 102.792 405.415 102.411 405.953 101.66C406.203 101.215 406.483 100.788 406.792 100.383C407.188 100.036 407.66 99.7928 408.169 99.6753C411.578 98.6466 415.185 98.5072 418.66 99.2698C419.251 99.4029 419.925 99.645 420.102 100.232C420.16 100.53 420.141 100.839 420.049 101.128Z" fill="black"/>
<path opacity="0.1" d="M464.592 213.992C465.401 214.254 466.277 214.637 466.552 215.423L460.05 213.817L456.681 212.981C456.086 212.834 453.952 212.664 453.559 212.211C452.998 211.544 454.991 212.003 455.35 212.052C456.44 212.211 457.529 212.375 458.613 212.566C460.656 212.921 462.622 213.506 464.592 213.992Z" fill="black"/>
<path opacity="0.1" d="M467.742 220.184C467.151 219.789 465.456 219.836 464.729 219.665C463.666 219.411 462.62 219.074 461.574 218.75C459.453 218.059 457.35 217.274 455.17 216.766C454.768 216.678 453.397 216.654 453.462 216.146C453.527 215.639 454.833 215.462 455.158 215.438C457.09 215.296 459.5 216.2 461.296 216.843C463.586 217.662 465.754 218.786 467.742 220.184V220.184Z" fill="black"/>
<path opacity="0.1" d="M462.982 208.282C460.861 207.704 458.937 206.384 456.753 206.13C456.184 206.151 455.624 205.98 455.165 205.644C454.908 205.391 454.729 205.07 454.65 204.718C456.112 204.643 457.811 205.262 459.14 205.846C459.871 206.16 460.574 206.536 461.243 206.969C461.728 207.264 462.456 208.114 462.982 208.282Z" fill="black"/>
<path d="M504.677 155.914C504.318 158.265 504.838 160.663 506.142 162.67C507.446 164.677 509.447 166.159 511.779 166.843C511.495 168.183 510.076 168.924 509.074 169.88C507.66 171.22 506.931 173.227 505.262 174.245C503.403 175.375 501.01 174.934 498.89 174.459C498.697 174.438 498.52 174.348 498.392 174.205C498.348 174.137 498.317 174.063 498.299 173.984C497.598 171.48 497.141 168.805 497.859 166.295C498.438 164.158 499.829 162.337 500.941 160.449C502.053 158.56 502.157 156.536 504.677 155.914Z" fill="#0F0000"/>
<path d="M451.347 121.418C449.052 121.585 446.823 122.265 444.825 123.407C443.496 124.167 442.132 125.188 440.614 125.004C439.719 124.903 438.836 124.41 437.964 124.648C437.473 124.846 437.015 125.118 436.606 125.455C436.399 125.62 436.152 125.729 435.89 125.771C435.628 125.812 435.36 125.785 435.112 125.692L434.519 133.908C434.293 137.031 434.074 140.219 434.821 143.264C435.207 144.82 436.055 146.232 436.149 147.812C436.244 149.391 436.102 151.011 436.215 152.608C436.321 154.086 436.647 155.541 436.73 157.019C436.897 159.809 436.209 162.575 435.545 165.288C434.542 169.289 433.938 173.38 431.987 177.001C431.441 178.004 430.801 179.025 430.801 180.165C430.801 180.307 430.801 180.444 430.836 180.581C430.243 180.907 429.692 181.216 429.188 181.536C428.061 182.266 426.857 183.08 426.395 184.344C426.021 185.371 426.193 186.547 425.743 187.538C425.292 188.529 424.26 189.236 424.035 190.304C423.875 191.082 424.183 191.901 424.035 192.679C423.901 193.081 423.792 193.492 423.709 193.908C423.649 194.798 424.403 195.517 425.15 196.003C426.239 196.722 427.442 197.252 428.708 197.571L432.248 183.501C435.475 177.527 438.16 171.275 440.271 164.819C440.874 162.709 441.65 160.652 442.589 158.669C443.26 157.547 443.855 156.381 444.368 155.179C444.908 153.683 444.961 152.062 445.222 150.483C445.532 148.64 445.998 146.827 446.615 145.063C447.256 143.157 447.997 141.258 448.127 139.257C448.323 136.396 447.285 133.374 448.388 130.727C448.857 129.736 449.466 128.818 450.197 128.002C451.727 126.126 453.12 124.161 454.65 122.285C453.856 121.436 452.533 121.347 451.347 121.418Z" fill="#0F0000"/>
<g opacity="0.1">
<path opacity="0.1" d="M468.29 88.4766L467.547 88.5301L467.464 88.5895C467.742 88.5781 468.019 88.5404 468.29 88.4766V88.4766Z" fill="black"/>
<path opacity="0.1" d="M481.877 100.805C481.753 101.985 481.498 103.148 481.117 104.273C480.871 104.955 480.673 105.653 480.523 106.363C480.404 107.052 480.392 107.752 480.285 108.441C480.154 109.334 479.845 110.192 479.377 110.964C478.908 111.736 478.291 112.407 477.56 112.937C477.351 113.106 477.092 113.201 476.823 113.204C476.36 113.15 476.075 112.61 475.903 112.123C474.959 109.397 475.184 106.066 473.444 103.892C472.653 103.016 471.696 102.303 470.63 101.796C470.195 101.516 469.705 101.331 469.192 101.256C468.439 101.296 467.716 101.561 467.114 102.016C465.861 102.857 464.47 103.472 463.005 103.833C462.274 104.006 461.513 104.014 460.778 103.856C460.044 103.698 459.354 103.377 458.759 102.919C457.939 102.242 457.34 101.226 456.431 100.698C455.522 100.169 454.572 100.199 453.676 99.8366C453.115 99.5974 452.616 99.2351 452.215 98.7766C451.815 98.3181 451.522 97.7751 451.36 97.1881C451.339 97.1141 451.323 97.0387 451.312 96.9625C451.164 97.6253 451.18 98.3145 451.36 98.9696C451.522 99.5566 451.815 100.1 452.215 100.558C452.616 101.017 453.115 101.379 453.676 101.618C454.572 101.98 455.582 101.986 456.431 102.479C457.28 102.972 457.939 104.023 458.759 104.7C459.354 105.159 460.044 105.479 460.778 105.637C461.513 105.796 462.274 105.788 463.005 105.615C464.47 105.253 465.861 104.638 467.114 103.797C467.716 103.343 468.439 103.078 469.192 103.037C469.705 103.113 470.195 103.297 470.63 103.578C471.683 104.095 472.625 104.813 473.403 105.692C475.143 107.865 474.917 111.197 475.861 113.922C476.033 114.415 476.318 114.95 476.782 115.003C477.067 115.005 477.343 114.903 477.56 114.718C478.294 114.187 478.914 113.514 479.383 112.739C479.852 111.963 480.161 111.102 480.291 110.205C480.398 109.516 480.41 108.815 480.529 108.127C480.679 107.417 480.877 106.719 481.123 106.036C481.701 104.437 481.969 102.742 481.912 101.042C481.9 100.971 481.889 100.888 481.877 100.805Z" fill="black"/>
</g>
<path d="M443.939 148.773L443.536 154.176C443.476 154.91 442.071 172.379 431.705 192.796C422.809 210.306 405.499 233.114 372.817 245.932C370.267 246.938 367.62 247.877 364.876 248.748L361.816 239.162C369.498 236.749 376.898 233.519 383.889 229.527C400.547 219.929 413.499 206.229 422.53 188.6C427.322 179.214 430.738 169.189 432.671 158.833H395.488V148.773H443.939Z" fill="#FFD700"/>
<path opacity="0.1" d="M369.537 245.926C401.837 233.108 418.954 210.306 427.742 192.796C437.989 172.379 439.384 154.922 439.437 154.176L439.835 148.773H443.939L443.54 154.176C443.487 154.91 442.092 172.379 431.845 192.796C423.052 210.306 405.941 233.108 373.64 245.926C371.12 246.932 368.501 247.873 365.785 248.748L365.387 247.488C366.801 246.979 368.185 246.458 369.537 245.926Z" fill="white"/>
<path d="M303.497 239.162L300.437 248.748C297.689 247.873 295.04 246.932 292.49 245.926C259.814 233.108 242.498 210.306 233.608 192.796C223.242 172.379 221.831 154.922 221.778 154.176L221.374 148.773H269.801V158.833H232.612C234.556 169.19 237.981 179.215 242.783 188.6C251.814 206.229 264.76 219.929 281.418 229.522C288.409 233.517 295.812 236.749 303.497 239.162V239.162Z" fill="#FFD700"/>
<path opacity="0.1" d="M296.903 245.926C264.114 233.108 246.737 210.306 237.817 192.796C227.414 172.379 225.998 154.922 225.945 154.176L225.54 148.773H221.374L221.779 154.176C221.832 154.91 223.249 172.379 233.651 192.796C242.577 210.306 259.948 233.108 292.738 245.926C295.297 246.932 297.955 247.873 300.712 248.748L301.117 247.488C299.684 246.979 298.28 246.458 296.903 245.926Z" fill="white"/>
<path d="M389.19 332.172V386.81H277.313V332.172L280.871 327.404C317.126 314.47 324.473 280.74 325.937 267.395C326.155 265.551 326.28 263.697 326.311 261.84H340.145C340.176 263.697 340.301 265.551 340.519 267.395C342.007 280.74 349.354 314.482 385.585 327.404L389.19 332.172Z" fill="#FFD700"/>
<path opacity="0.1" d="M389.19 332.061H277.313V339.202H389.19V332.061Z" fill="black"/>
<path opacity="0.1" d="M286.77 327.404C322.906 314.47 330.229 280.74 331.689 267.395C331.906 265.551 332.031 263.697 332.061 261.84H326.151C326.12 263.697 325.996 265.551 325.779 267.395C324.295 280.74 316.972 314.482 280.859 327.404L277.313 332.172V386.81H283.223V332.172L286.77 327.404Z" fill="white"/>
<path opacity="0.1" d="M259.46 148.773H270.172V158.294H260.41C260.026 155.158 259.709 151.984 259.46 148.773Z" fill="black"/>
<path opacity="0.1" d="M303.497 239.253L300.363 248.749C297.548 247.881 294.835 246.949 292.224 245.953C287.927 240.89 284.131 235.45 280.883 229.706C288.044 233.663 295.625 236.864 303.497 239.253Z" fill="black"/>
<path opacity="0.1" d="M361.816 239.248C369.687 236.858 377.268 233.659 384.43 229.706C381.18 235.451 377.382 240.892 373.086 245.959C370.474 246.955 367.762 247.885 364.951 248.749L361.816 239.248Z" fill="black"/>
<path opacity="0.1" d="M405.853 148.773C405.631 151.984 405.35 155.158 405.008 158.294H396.331V148.773H405.853Z" fill="black"/>
<path opacity="0.1" d="M340.393 267.123C335.283 268.014 330.03 268.014 324.92 267.123C325.152 265.369 325.284 263.606 325.317 261.84H339.996C340.029 263.606 340.161 265.369 340.393 267.123V267.123Z" fill="black"/>
<path d="M260.65 132.11C260.906 206.47 293.041 266.601 332.656 266.601C372.272 266.601 404.401 206.47 404.663 132.11H260.65Z" fill="#FFD700"/>
<path opacity="0.1" d="M273.469 132.11H260.65C260.907 206.47 293.103 266.601 332.793 266.601C334.941 266.597 337.085 266.418 339.203 266.064C302.511 260.001 273.714 202.423 273.469 132.11Z" fill="white"/>
<path d="M371.338 353.485H295.166V372.528H371.338V353.485Z" fill="#FFF2C9"/>
<path opacity="0.1" d="M298.727 356.081H371.338V353.485H295.166V372.528H298.727V356.081Z" fill="#260404"/>
<path d="M220.764 204.103C219.391 203.645 211.307 197.238 210.695 194.339C210.083 191.439 214.969 164.425 214.969 164.425C214.969 164.425 214.517 164.425 213.78 164.336V163.901L214.785 128.414C214.785 128.414 218.904 104.597 211.123 105.985C203.343 107.372 208.223 128.414 208.223 128.414C208.223 128.414 207.337 139.096 206.713 142.299C206.118 145.389 203.396 157.977 205.251 161.888C205.318 162.027 205.394 162.163 205.476 162.293V162.293C205.476 162.293 205.786 175.72 202.427 177.554C199.224 179.298 197.892 188.081 197.779 188.867L197.607 188.795C196.65 188.196 195.81 187.427 195.128 186.527C195.057 186.437 195.003 186.342 194.938 186.247C197.125 183.782 198.303 180.582 198.238 177.286C198.173 173.989 196.87 170.838 194.587 168.462C193.526 167.358 192.281 166.447 190.908 165.771C190.868 164.633 190.599 163.515 190.118 162.484C188.572 159.173 180.013 154.845 173.932 154.743C171.127 154.66 168.827 155.458 167.989 157.655C167.561 158.768 167.691 160.037 167.513 161.192C167.156 163.573 165.629 165.437 163.667 166.92C162.875 166.034 162.019 165.208 161.106 164.449C159.12 162.924 155.162 157.899 155.162 157.899C155.162 157.899 142.805 145.08 141.889 141.567C140.974 138.054 128.628 116.958 125.882 120.632C123.136 124.306 135.339 140.316 135.339 140.316C135.339 140.316 137.657 146.134 139.44 148.099C141.223 150.063 154.894 169.95 154.894 169.95L155.548 171.308C152.659 172.832 150.02 174.773 149.087 177.798C147.72 182.252 150.71 186.729 152.778 190.897C156.808 199.031 157.385 209.403 152.184 216.834C147.524 223.395 139.44 226.515 131.874 229.242C135.528 232.116 140.068 233.626 144.712 233.511C142.965 238.584 136.772 240.263 131.493 241.204C134.263 243.871 138.228 244.842 142.032 245.431C143.895 245.749 145.783 245.899 147.673 245.878H148.136L148.6 245.842C149.244 245.799 149.885 245.718 150.52 245.598C153.266 245.038 155.934 243.538 157.337 241.109C158.526 239.031 158.942 236.196 161.1 235.155C161.662 234.9 162.267 234.757 162.883 234.732H162.817C163.222 234.732 163.638 234.732 164.042 234.732L173.035 234.821C173.409 234.821 173.796 234.821 174.182 234.821C176.72 234.762 179.431 234.321 180.72 232.219C181.251 231.198 181.53 230.065 181.535 228.915C181.725 226.062 181.535 223.127 181.612 220.251C182.379 225.485 183.181 233.642 181.273 236.655C179.723 238.938 177.844 240.978 175.698 242.71C175.158 243.165 174.664 243.671 174.224 244.223C173.932 244.431 173.76 244.544 173.76 244.544L173.576 245.098C172.898 246.127 172.407 247.268 172.126 248.468C172.022 248.776 171.983 249.103 172.013 249.427C172.221 249.849 170.527 251.594 171.02 252.326C166.788 257.298 165.986 264.83 165.986 264.83L158.259 276.584C154.288 287.033 148.344 288.105 148.344 288.105C148.344 288.105 134.382 278.721 134.002 278.263C133.621 277.804 128.284 275.512 128.284 275.512C127.654 274.406 126.694 273.527 125.538 272.999C123.707 272.237 123.552 269.427 123.552 269.427C123.327 262.788 119.433 262.282 119.433 262.282C116.295 262.014 113.9 262.573 112.057 263.598L111.498 263.639C108.8 263.86 105.554 264.104 101.988 264.342C92.0678 264.997 89.7081 271.433 89.7081 271.433C89.7081 271.433 88.4896 272.809 90.0885 274.297C91.6874 275.786 101.923 274.297 102.357 274.262C101.577 274.346 100.788 274.292 100.027 274.101C101.637 274.041 103.854 273.982 105.745 273.982H106.202C106.083 274.985 106.026 275.996 106.03 277.006C106.03 278.912 111.29 280.132 111.29 280.132L127.309 294.422C127.309 294.422 137.378 298.93 143.785 305.414C150.193 311.898 155.857 306.301 155.857 306.301C162.639 304.622 182.153 280.99 182.171 280.966C182.171 281.657 182.581 304.64 183.359 309.254C183.39 309.488 183.448 309.718 183.532 309.939C184.447 311.922 183.223 317.34 182.694 319.626C182.356 321.54 182.227 323.484 182.307 325.426C182.307 325.426 174.99 353.41 175.597 355.869C176.203 358.328 171.632 369.755 171.632 369.755V379.281L172.429 379.239C172.325 379.393 172.23 379.552 172.143 379.716L172.09 379.817C172.09 379.817 176.97 380.883 180.251 380.579C183.532 380.276 189.167 383.11 189.167 383.11C189.167 383.11 191.075 384.015 196.947 384.396C202.82 384.777 202.82 381.8 202.82 381.8C202.148 377.745 192.87 376.387 192.584 376.346C191.835 375.875 191.134 375.363 190.557 374.923L190.439 374.827C190.477 374.738 190.511 374.647 190.54 374.554C191.532 370.505 186.04 368.748 186.04 368.748V367.76C189.606 365.926 190.314 353.339 190.314 353.339C190.314 353.339 195.663 337.775 196.412 335.179C197.161 332.583 196.412 328.695 196.412 328.695L196.947 325.336C196.947 325.336 198.094 323.05 198.094 322.592C198.243 321.43 198.689 320.326 199.39 319.388C200.228 318.394 198.475 316.03 198.475 316.03L200.002 312.065V307.712L203.568 291.922C203.568 291.922 207.307 273.529 206.011 267.509C204.716 261.49 207.539 258.429 207.539 258.429C207.284 258.563 207.023 258.683 206.754 258.787C207.111 257.96 207.419 257.113 207.676 256.25L215.7 257.244V257.364H218.595C218.595 257.364 217.679 246.051 217.679 241.49C217.679 236.929 220.764 220.561 220.764 220.561C220.764 220.561 222.137 204.562 220.764 204.103ZM185.143 190.897C185.143 191.344 185.101 191.808 185.071 192.284L184.911 192.529L184.614 192.279L184.251 192.844L184.144 192.898C183.359 192.493 182.955 190.177 182.391 190.677L182.313 190.742C182.188 190.599 182.064 190.558 181.933 190.677L181.814 190.778C181.814 190.605 181.814 190.427 181.814 190.248C182.901 190.528 184.02 190.671 185.143 190.671C185.149 190.748 185.143 190.826 185.143 190.897ZM211.83 243.58H212.003L211.718 244.33C211.753 244.08 211.789 243.836 211.83 243.58V243.58ZM182.533 378.602L181.44 378.328L182.034 378.227L182.587 378.59L182.652 378.638L182.533 378.602ZM193.708 377.001C193.345 376.81 192.977 376.59 192.62 376.364C192.739 376.429 193.208 376.673 193.708 377.001V377.001Z" fill="url(#paint1_linear)"/>
<path d="M215.423 232.086L208.413 251.215H210.115L203.521 256.718L215.423 258.27V232.086Z" fill="#F86D70"/>
<path opacity="0.1" d="M215.423 232.086L208.413 251.215L206.647 250.718L203.521 256.718L215.423 258.27V232.086Z" fill="black"/>
<path d="M203.521 243.988H214.84L218.994 210.663H203.521V243.988Z" fill="#F86D70"/>
<path opacity="0.1" d="M203.521 243.988H214.84L218.994 210.663H203.521V243.988Z" fill="black"/>
<path d="M182.053 217.804L184.48 217.398L190.056 216.456C190.056 216.456 206.804 212.702 210.262 212.396C212.356 212.122 214.398 211.543 216.324 210.678C217.229 210.29 217.804 209.996 217.804 209.996L211.771 199.046L202.412 192.15C202.412 192.15 196.492 190.897 193.987 187.473C193.429 186.736 193.065 185.871 192.929 184.958C192.794 184.046 192.891 183.114 193.212 182.248C194.739 177.541 184.089 186.749 184.089 186.749C184.089 186.749 184.19 188.955 184.089 191.768C184.089 192.321 184.036 192.897 183.994 193.486C183.994 193.874 183.941 194.262 183.9 194.663C183.639 197.457 183.106 200.335 182.053 202.053C179.477 206.254 182.053 217.804 182.053 217.804Z" fill="#FBBEBE"/>
<path opacity="0.1" d="M184.479 191.62H184.706C185.116 191.62 185.445 190.732 185.844 190.691C189.046 190.378 191.969 189.693 194 187.377C193.464 186.651 193.116 185.8 192.986 184.9C192.855 184.001 192.948 183.083 193.255 182.23C194.722 177.587 184.49 186.664 184.49 186.664C184.49 186.664 184.598 188.846 184.479 191.62Z" fill="black"/>
<path d="M171.387 178.526C171.386 180.246 171.724 181.949 172.381 183.538C173.039 185.127 174.003 186.57 175.219 187.786C176.435 189.002 177.879 189.967 179.468 190.625C181.056 191.282 182.759 191.62 184.479 191.62C184.909 191.62 185.333 191.62 185.757 191.56C188.279 191.312 190.676 190.338 192.655 188.755C194.635 187.171 196.112 185.047 196.908 182.64C197.704 180.234 197.785 177.648 197.139 175.196C196.494 172.745 195.151 170.533 193.274 168.83C191.396 167.127 189.064 166.006 186.562 165.602C184.06 165.199 181.494 165.531 179.176 166.557C176.859 167.584 174.889 169.262 173.506 171.386C172.123 173.511 171.387 175.991 171.387 178.526Z" fill="#FBBEBE"/>
<path d="M166.79 158.811C166.366 159.915 166.496 161.151 166.325 162.321C165.696 166.543 161.443 169.073 157.596 170.843C153.749 172.613 149.408 174.709 148.184 178.79C146.843 183.202 149.773 187.627 151.808 191.766C155.772 199.831 156.337 210.118 151.22 217.494C146.673 224.027 138.75 227.127 131.291 229.847C134.881 232.699 139.342 234.198 143.908 234.088C142.196 239.118 136.108 240.787 130.92 241.713C133.644 244.362 137.544 245.324 141.279 245.906C144.002 246.334 146.796 246.613 149.514 246.061C152.231 245.508 154.808 244.018 156.208 241.606C157.384 239.546 157.784 236.736 159.908 235.697C160.866 235.316 161.899 235.164 162.925 235.252L171.748 235.347C174.495 235.347 177.748 235.133 179.166 232.763C179.689 231.751 179.963 230.627 179.966 229.485C180.348 223.641 179.236 217.464 181.619 212.131C182.336 210.522 177.731 207.974 178.213 206.269C179.872 200.408 180.289 195.793 180.272 189.694C180.272 184.972 183.313 180.904 185.824 176.919C188.336 172.934 190.436 167.903 188.454 163.627C186.219 158.858 169.431 151.927 166.79 158.811Z" fill="#0F0000"/>
<path d="M178.528 376.541L180.818 377.947L181.172 378.164L181.238 378.202L183.955 379.87L190.299 380.859L195.876 380.503C195.876 380.503 197.483 377.391 194.959 377.463C194.15 377.425 193.362 377.214 192.656 376.847L192.308 376.685C191.942 376.508 191.577 376.307 191.217 376.096C190.467 375.657 189.76 375.179 189.19 374.774C188.35 374.173 187.793 373.718 187.793 373.718L178.528 376.541Z" fill="#FBBEBE"/>
<path opacity="0.1" d="M180.908 377.404L181.26 377.661L181.325 377.707L184.026 379.685L190.334 380.859L195.879 380.437C195.879 380.437 197.477 376.744 194.967 376.83C194.163 376.785 193.379 376.534 192.677 376.098C193.119 376.481 193.488 376.896 193.524 377.245C193.625 378.188 189.422 379.883 189.422 379.883L183.496 378.149C183.496 378.149 182.488 377.832 181.111 377.437L180.98 377.397L180.908 377.404Z" fill="black"/>
<path d="M171.387 379.691C171.387 379.691 176.108 380.789 179.283 380.475C182.458 380.16 187.927 383.073 187.927 383.073C187.927 383.073 189.775 383.999 195.458 384.394C201.141 384.789 201.141 381.715 201.141 381.715C200.492 377.536 191.513 376.16 191.235 376.098C191.345 376.16 191.814 376.413 192.289 376.752C192.926 377.197 193.616 377.777 193.668 378.246C193.766 379.123 189.682 380.715 189.682 380.715L183.923 379.098C183.923 379.098 182.944 378.796 181.606 378.425H181.479C179.494 377.849 177.478 377.406 175.442 377.098C172.962 376.814 171.694 379.061 171.433 379.567C171.414 379.607 171.398 379.648 171.387 379.691V379.691Z" fill="#0F0000"/>
<path d="M95.2147 272.764L97.8166 274.899C97.8166 274.899 98.5737 274.861 99.7034 274.822H100.064C101.68 274.758 103.91 274.693 105.803 274.693C107.026 274.634 108.252 274.708 109.462 274.912C110.76 275.401 113.067 266.961 113.067 266.961L110.46 266.318L109.594 266.099L108.993 265.945L106.872 265.411L100.443 266.196L95.9237 269.309L95.2147 272.764Z" fill="#FBBEBE"/>
<path opacity="0.1" d="M95.2147 272.789L97.66 274.932C97.66 274.932 98.3715 274.894 99.4332 274.855C98.9461 274.64 98.5443 274.229 98.3038 273.7C96.7225 268.684 104.567 266.541 104.567 266.541L108.221 266.36L108.932 266.321H109.497L108.684 266.102L108.119 265.947L106.125 265.411L100.083 266.199L95.8359 269.323L95.2147 272.789Z" fill="black"/>
<path d="M90.0837 274.294C91.6336 275.734 101.785 274.294 102.211 274.258C101.441 274.345 100.661 274.291 99.91 274.097C99.5382 274.03 99.1859 273.88 98.8788 273.659C98.5718 273.438 98.3178 273.15 98.1352 272.817C96.4788 268.186 104.696 266.215 104.696 266.215L108.524 266.049L109.263 266.013L118.569 265.608L119.018 263.031C119.018 263.031 115.995 263.316 111.251 263.697C108.583 263.918 105.335 264.162 101.827 264.394C92.0241 265.049 89.6932 271.448 89.6932 271.448C89.6932 271.448 88.5041 272.817 90.0837 274.294Z" fill="#0F0000"/>
<path d="M204.13 163.431C204.191 163.574 204.263 163.711 204.347 163.841L206.522 167.214L212.183 167.816L212.246 165.443L213.197 129.741C213.197 129.741 217.116 105.795 209.712 107.174C202.308 108.553 206.955 129.741 206.955 129.741C206.955 129.741 206.112 140.485 205.52 143.713C204.945 146.833 202.365 159.517 204.13 163.431Z" fill="#FBBEBE"/>
<path d="M190.43 250.925L192.124 253.558L195.914 259.45C195.914 259.45 202.786 261.74 204.547 259.994C205.51 259.042 206.552 255.718 207.283 252.921C207.881 250.658 208.282 248.748 208.282 248.748L190.43 250.925Z" fill="#FBBEBE"/>
<path opacity="0.1" d="M190.43 250.888L192.124 253.509C192.23 253.427 192.326 253.334 192.411 253.233C194.327 251.023 202.762 252.762 207.283 252.903C207.881 250.65 208.282 248.748 208.282 248.748L190.43 250.888Z" fill="black"/>
<path opacity="0.1" d="M104.736 274.697C106.012 274.638 107.29 274.711 108.551 274.912C109.904 275.394 112.309 267.072 112.309 267.072L108.689 266.209L118.542 265.777L119.018 263.031C119.018 263.031 115.817 263.335 110.794 263.741C109.755 264.346 108.829 265.13 108.056 266.057L107.906 266.247C105.807 268.854 105.031 272.216 104.736 274.697Z" fill="black"/>
<path opacity="0.1" d="M178.528 376.749L181.195 378.479C185.174 377.774 188.808 376.667 189.238 374.926C189.24 374.898 189.24 374.87 189.238 374.843C188.391 374.203 187.829 373.718 187.829 373.718L178.528 376.749Z" fill="black"/>
<path opacity="0.1" d="M171.387 379.669C174.577 379.5 177.756 379.136 180.908 378.581C179.026 378.031 177.113 377.607 175.181 377.312C172.836 377.043 171.634 379.172 171.387 379.669Z" fill="black"/>
<path d="M105.927 277.651C105.927 279.533 111.106 280.736 111.106 280.736L126.88 294.795C126.88 294.795 136.791 299.231 143.095 305.62C149.4 312.009 154.963 306.523 154.963 306.523C161.645 304.871 180.889 281.562 180.889 281.562C180.889 281.562 181.337 308.181 182.238 310.133C183.14 312.086 181.938 317.425 181.413 319.685C181.083 321.569 180.956 323.484 181.036 325.395C181.036 325.395 173.83 352.987 174.431 355.394C175.032 357.801 170.524 369.081 170.524 369.081V378.479C170.524 378.479 188.172 377.8 189.144 373.818C190.116 369.836 184.719 368.101 184.719 368.101V367.122C188.254 365.317 188.92 352.916 188.92 352.916C188.92 352.916 194.182 337.578 194.93 335.023C195.679 332.469 194.93 328.628 194.93 328.628L195.455 325.324C195.455 325.324 196.58 323.065 196.58 322.617C196.727 321.472 197.168 320.384 197.859 319.46C198.684 318.481 196.957 316.151 196.957 316.151L198.46 312.239V307.956L201.995 292.394C201.995 292.394 205.678 274.271 204.399 268.33C203.121 262.389 205.902 259.386 205.902 259.386C199.874 262.548 196.834 255.51 195.838 252.484C195.584 251.705 195.461 251.186 195.461 251.186C195.461 251.186 187.182 248.13 179.475 248.862C177.91 248.989 176.367 249.316 174.885 249.835C166.323 252.92 164.974 265.699 164.974 265.699L157.39 277.279C153.484 287.58 147.627 288.63 147.627 288.63C147.627 288.63 133.886 279.385 133.485 278.931C133.084 278.477 127.852 276.223 127.852 276.223C127.233 275.133 126.287 274.266 125.147 273.745C123.344 272.99 123.197 270.206 123.197 270.206C122.973 263.663 119.143 263.126 119.143 263.126C105.85 262.017 105.927 275.775 105.927 277.651Z" fill="#0F0000"/>
<path d="M182.098 240.417H190.43V215.423H182.098V240.417Z" fill="#F86D70"/>
<path opacity="0.1" d="M182.098 240.417H190.43V215.423H182.098V240.417Z" fill="black"/>
<path opacity="0.1" d="M203.523 163.055C203.521 163.075 203.521 163.094 203.523 163.113C203.594 163.267 203.679 163.414 203.776 163.553L206.329 167.17L212.969 167.816L213.043 165.271C210.972 165.116 206.255 164.567 203.523 163.055Z" fill="black"/>
<path d="M204.169 163.055C204.169 163.055 204.478 176.5 201.088 178.335C197.698 180.17 196.38 189.728 196.38 189.728C196.38 189.728 206.653 196.433 208.943 199.383C211.233 202.333 216.491 209.361 215.409 211.04C214.327 212.719 218.031 220.365 218.031 220.365C218.031 220.365 211.252 234.121 212.792 239.32C214.333 244.52 214.484 258.27 214.484 258.27H217.415C217.415 258.27 216.491 246.96 216.491 242.373C216.491 237.785 219.566 221.433 219.566 221.433C219.566 221.433 220.956 205.385 219.566 204.93C218.177 204.474 210.019 198.052 209.402 195.143C208.786 192.235 213.717 165.16 213.717 165.16C213.717 165.16 207.402 164.89 204.169 163.055Z" fill="#F86D70"/>
<path opacity="0.1" d="M182.098 212.5C182.379 214.393 183.066 216.203 184.11 217.804L189.802 216.833C189.802 216.833 206.897 212.961 210.426 212.645C212.564 212.362 214.648 211.765 216.613 210.873C215.259 206.053 212.615 201.698 208.97 198.281L206.8 196.261C203.604 193.28 199.899 190.902 195.863 189.239C196.117 189.452 214.051 204.829 210.124 207.845C206.196 210.861 195.621 203.518 195.621 203.518L183.597 193.141L183.162 192.765L182.467 193.851C182.82 193.997 183.165 194.164 183.5 194.349C187.598 196.608 190.64 200.404 191.96 204.908C194.431 213.252 182.098 212.5 182.098 212.5Z" fill="black"/>
<path d="M178.528 250.95C178.528 250.95 190.066 257.097 192.869 253.65C193.48 252.891 194.771 252.561 196.38 252.473C196.117 251.697 195.989 251.179 195.989 251.179C195.989 251.179 187.393 248.132 179.39 248.861C178.864 250.132 178.528 250.95 178.528 250.95Z" fill="#444053"/>
<path d="M183.753 192.702L196.167 203.295C196.167 203.295 206.66 210.543 210.615 207.552C214.57 204.561 196.401 189.239 196.401 189.239C200.414 190.88 204.101 193.213 207.292 196.13L209.453 198.118C215.136 203.343 216.418 203.343 216.611 211.021C216.659 212.914 216.009 215.631 215.509 216.12C213.667 217.912 212.379 230.922 212.662 232.445C212.945 233.967 209.23 247.109 210.434 250.764C211.638 254.418 195.384 248.936 192.633 252.441C189.882 255.946 178.528 249.701 178.528 249.701C178.528 249.701 184.819 233.717 186.354 232.654C187.889 231.591 189.731 223.369 186.354 219.566C182.977 215.762 182.676 212.108 182.676 212.108C182.676 212.108 194.957 212.86 192.494 204.65C191.802 202.271 190.6 200.067 188.971 198.19C187.342 196.312 185.324 194.805 183.055 193.771L183.753 192.702Z" fill="#E8E8F0"/>
<path opacity="0.1" d="M199.942 220.184C199.942 220.184 195.547 229.282 189.863 231.643C189.679 231.717 189.502 231.784 189.307 231.845C183.373 233.828 200.387 223.003 199.942 220.184Z" fill="black"/>
<path d="M134.752 141.279C134.752 141.279 137.018 147.018 138.834 148.979C140.649 150.939 154.104 170.568 154.104 170.568L155.243 172.937L156.222 174.957L164.842 174.051L165.435 170.58L165.103 170.177C164.237 169.141 161.876 166.357 160.292 165.143C158.328 163.638 154.395 158.657 154.395 158.657C154.395 158.657 142.15 145.97 141.242 142.499C140.335 139.028 128.084 118.215 125.367 121.816C122.65 125.417 134.752 141.279 134.752 141.279Z" fill="#FBBEBE"/>
<g opacity="0.1">
<path opacity="0.1" d="M159.705 235.326C158.669 235.236 157.627 235.386 156.658 235.765C154.521 236.804 154.117 239.613 152.929 241.674C151.539 244.085 148.891 245.575 146.165 246.127C145.623 246.232 145.076 246.308 144.526 246.353C146.262 246.522 148.013 246.446 149.728 246.127C152.454 245.575 155.102 244.085 156.492 241.674C157.68 239.613 158.084 236.804 160.221 235.765C160.783 235.512 161.388 235.371 162.003 235.349L159.705 235.326Z" fill="black"/>
<path opacity="0.1" d="M180.798 189.773C180.798 185.052 183.868 180.984 186.397 176.999C188.927 173.015 191.053 167.985 189.052 163.709C187.342 160.057 177.033 155.158 171.082 156.126C176.908 156.88 184.087 160.716 185.489 163.709C187.49 167.985 185.364 173.015 182.834 176.999C180.305 180.984 177.223 185.052 177.235 189.773C177.235 195.865 176.825 200.462 175.15 206.347C174.669 208.039 179.307 210.598 178.594 212.202C176.183 217.546 177.312 223.71 176.926 229.554C176.918 230.695 176.639 231.819 176.112 232.831C174.925 234.785 172.49 235.29 170.12 235.397H172.193C174.96 235.397 178.244 235.183 179.675 232.814C180.202 231.801 180.481 230.677 180.489 229.536C180.875 223.692 179.746 217.522 182.157 212.184C182.882 210.581 178.232 208.027 178.713 206.329C180.388 200.485 180.809 195.865 180.798 189.773Z" fill="black"/>
</g>
<path opacity="0.1" d="M154.724 172.945L155.753 174.957L164.812 174.054L165.436 170.598L165.086 170.196C164.12 170.645 156.881 173.942 154.724 172.945Z" fill="black"/>
<path opacity="0.1" d="M186.859 196.561C186.859 196.561 184.767 193.229 183.572 194.134C182.377 195.038 181.914 191.403 181.229 192.01C180.543 192.616 178.546 194.306 177.714 191.944C177.064 190.064 169.986 178.17 167.116 173.386C166.378 172.148 165.915 171.387 165.915 171.387C165.915 171.387 157.853 175.48 155.914 174.118V176.997L157.555 177.152L166.342 193.812C166.342 193.812 169.108 198.281 168.92 199.84C168.733 201.399 172.465 208.224 173.062 208.676C173.66 209.128 180.092 216.714 180.092 216.714C180.092 216.714 183.379 233.095 180.538 237.647C177.696 242.199 172.775 245.531 172.775 245.531C172.775 245.531 171.293 249.928 171.51 250.386C171.726 250.844 169.787 252.814 170.684 253.421C171.58 254.028 172.775 258.27 172.775 258.27C172.775 258.27 176.958 251.445 179.219 250.386C181.481 249.327 184.375 235.368 184.375 235.368C184.375 235.368 185.201 227.145 185.265 221.837C185.33 216.53 185.066 196.561 186.859 196.561Z" fill="black"/>
<path d="M186.859 196.551C186.859 196.551 184.693 193.22 183.452 194.124C182.211 195.028 181.724 191.394 181.018 192.001C180.313 192.608 178.238 194.297 177.368 191.936C176.687 190.056 169.337 178.167 166.362 173.385L165.115 171.387C165.115 171.387 156.744 175.479 154.724 174.117V176.995L156.433 177.15L165.559 193.803C165.559 193.803 168.437 198.27 168.236 199.828C168.035 201.387 171.886 208.209 172.537 208.661C173.188 209.113 179.838 216.696 179.838 216.696C179.838 216.696 183.251 233.07 180.307 237.62C178.751 239.905 176.859 241.953 174.691 243.698C172.87 245.167 171.589 247.175 171.041 249.42C170.935 249.726 170.898 250.05 170.931 250.371C171.156 250.823 169.143 252.798 170.073 253.405C171.004 254.011 172.258 258.27 172.258 258.27C172.258 258.27 176.601 251.448 178.95 250.389C181.298 249.331 184.31 235.377 184.31 235.377C184.31 235.377 185.161 227.158 185.234 221.852C185.307 216.547 185.034 196.551 186.859 196.551Z" fill="#F86D70"/>
<path opacity="0.1" d="M166.174 265.411C166.174 265.411 172.208 266.641 174.626 268.542C177.043 270.443 165.435 265.565 165.435 265.565L166.174 265.411Z" fill="black"/>
<path opacity="0.1" d="M180.908 280.883C180.908 280.883 187.972 286.507 186.707 291.587C185.442 296.667 182.179 309.448 182.179 309.448L180.908 280.883Z" fill="black"/>
<path opacity="0.1" d="M122.589 270.172C122.589 270.172 113.709 271.584 114.284 273.259C114.86 274.934 122.589 271.715 122.589 271.715V270.172Z" fill="black"/>
<path opacity="0.1" d="M195.151 316.239C195.151 316.239 195.749 317.027 192.259 316.239C188.769 315.451 191.345 313.018 191.345 313.018L195.151 316.239Z" fill="black"/>
<path opacity="0.1" d="M194 326.706C194 326.706 188.873 328.044 186.123 326.706C183.374 325.367 194 326.706 194 326.706Z" fill="black"/>
<path opacity="0.1" d="M184.479 368.003C184.479 368.003 183.58 367.137 179.079 368.722C174.579 370.307 172.781 370.381 171.471 369.854C170.161 369.328 184.479 368.003 184.479 368.003Z" fill="black"/>
<path opacity="0.1" d="M188.049 268.982L182.098 277.313C182.098 277.313 185.301 270.018 188.049 268.982Z" fill="black"/>
<path opacity="0.1" d="M177.337 194C177.337 194 177.09 196.839 173.399 197.947C169.709 199.054 169.006 199.951 169.006 199.951" fill="black"/>
<path opacity="0.1" d="M166.626 173.767C166.626 173.767 161.967 178.133 157.104 177.209Z" fill="black"/>
<path opacity="0.1" d="M171.387 249.871C171.387 249.871 172.786 250.557 176.147 247.558Z" fill="black"/>
<path opacity="0.1" d="M207.073 207.092C207.186 206.369 206.779 205.699 206.396 205.134L205.61 203.969C205.456 203.73 205.283 203.512 205.093 203.316C204.62 202.867 204.014 202.733 203.521 202.331" fill="black"/>
<path opacity="0.1" d="M526.321 0.0660056C526.321 0.0660056 476.663 -2.99246 482.502 32.5292C482.502 32.5292 481.322 38.8087 486.914 41.6564C486.914 41.6564 487.002 39.0254 492.01 39.9225C493.793 40.2242 495.604 40.3131 497.407 40.1874C499.843 40.0157 502.158 39.0394 504.002 37.4059V37.4059C504.002 37.4059 517.963 31.5177 523.389 8.22997C523.389 8.22997 527.406 3.14857 527.247 1.84209L518.865 5.4966C518.865 5.4966 521.732 11.6677 519.455 16.7973C519.455 16.7973 519.184 5.71937 517.574 5.96019C517.249 6.01438 513.221 8.09751 513.221 8.09751C513.221 8.09751 518.146 18.8443 514.43 26.6591C514.43 26.6591 515.84 13.4137 511.681 8.87417L505.783 12.3902C505.783 12.3902 511.54 23.4922 507.635 32.5533C507.635 32.5533 508.638 18.6577 504.538 13.2451L499.194 17.5017C499.194 17.5017 504.603 28.4472 501.306 35.9609C501.306 35.9609 500.875 19.7835 498.038 18.5614C498.038 18.5614 493.361 22.7758 492.647 24.4977C492.647 24.4977 496.351 32.4449 494.051 36.6352C494.051 36.6352 492.641 25.8583 491.485 25.7981C491.485 25.7981 486.825 32.9386 486.342 37.8394C486.342 37.8394 486.542 30.5604 490.359 25.1238C490.359 25.1238 485.852 25.9125 483.222 28.8927C483.222 28.8927 483.947 23.8475 491.509 23.4079C491.509 23.4079 495.36 17.9894 496.387 17.6583C496.387 17.6583 488.872 17.0201 484.313 19.0791C484.313 19.0791 488.324 14.3168 497.767 16.4842L503.046 12.0832C503.046 12.0832 493.149 10.7044 488.949 12.2277C488.949 12.2277 493.78 8.01322 504.467 11.0837L510.212 7.57974C510.212 7.57974 501.772 5.72539 496.747 6.37562C496.747 6.37562 502.055 3.45562 511.899 6.62246L516.028 4.73801C516.028 4.73801 509.847 3.49776 508.036 3.29908C506.225 3.1004 506.131 2.59467 506.131 2.59467C510.047 1.9281 514.068 2.38456 517.745 3.91319C517.745 3.91319 526.474 0.625923 526.321 0.0660056Z" fill="#FFD700"/>
<path opacity="0.1" d="M464.939 9.55175C464.939 9.55175 442.741 8.15108 445.341 24.3867C445.341 24.3867 444.821 27.2611 447.309 28.5644C447.309 28.5644 447.35 27.3464 449.593 27.7666C450.39 27.9064 451.2 27.9473 452.006 27.8884C453.096 27.8111 454.132 27.3641 454.956 26.6156V26.6156C454.956 26.6156 461.207 23.93 463.637 13.2849C463.637 13.2849 465.43 10.9585 465.36 10.3617L461.61 12.0303C461.61 12.0303 462.895 14.856 461.884 17.2006C461.884 17.2006 461.762 12.1339 461.043 12.2557C460.897 12.2557 459.092 13.23 459.092 13.23C459.092 13.23 461.3 18.1446 459.635 21.7193C459.635 21.7193 460.266 15.666 458.403 13.5893L455.762 15.1971C455.762 15.1971 458.344 20.2699 456.592 24.4111C456.592 24.4111 457.041 18.0593 455.207 15.5868L452.818 17.5539C452.818 17.5539 455.236 22.5597 453.764 25.9883C453.764 25.9883 453.571 18.5952 452.298 18.0411C452.298 18.0411 450.207 19.9654 449.885 20.7571C449.885 20.7571 451.544 24.4111 450.516 26.2989C450.516 26.2989 449.885 21.3722 449.348 21.3539C449.348 21.3539 447.268 24.6181 447.046 26.8348C447.15 24.7661 447.771 22.7614 448.846 21.019C447.642 21.2566 446.531 21.8557 445.65 22.7424C445.65 22.7424 445.977 20.4405 449.36 20.2334C449.36 20.2334 451.112 17.7609 451.544 17.6087C451.544 17.6087 448.18 17.3164 446.141 18.2603C446.141 18.2603 447.934 16.0801 452.164 17.0423L454.5 15.0326C454.5 15.0326 450.072 14.4237 448.191 15.0996C448.191 15.0996 450.353 13.1752 455.137 14.5759L457.707 12.9743C457.707 12.9743 453.934 12.1217 451.679 12.4323C451.679 12.4323 454.056 11.0925 458.461 12.5419L460.301 11.6832C460.301 11.6832 457.532 11.1108 456.72 11.0255C455.908 10.9402 455.867 10.7027 455.867 10.7027C457.621 10.3986 459.421 10.6095 461.066 11.3117C461.066 11.3117 465.009 9.80753 464.939 9.55175Z" fill="#FFD700"/>
<path d="M543.914 386.81C557.06 386.81 567.718 384.945 567.718 382.644C567.718 380.344 557.06 378.479 543.914 378.479C530.768 378.479 520.11 380.344 520.11 382.644C520.11 384.945 530.768 386.81 543.914 386.81Z" fill="#FFD700"/>
<path d="M553.412 376.063C554.527 375.201 555.339 374.038 555.738 372.727C556.042 371.408 555.447 369.847 554.11 369.335C552.616 368.793 551.018 369.778 549.809 370.769C548.6 371.76 547.209 372.895 545.63 372.681C546.444 371.98 547.053 371.091 547.398 370.101C547.742 369.111 547.811 368.053 547.598 367.03C547.529 366.607 547.34 366.208 547.051 365.878C546.219 365.037 544.719 365.394 543.722 366.057C540.563 368.165 539.682 372.238 539.664 375.896C539.348 374.577 539.616 373.2 539.61 371.863C539.603 370.527 539.209 368.983 538 368.275C537.254 367.894 536.416 367.708 535.57 367.733C534.154 367.681 532.569 367.82 531.603 368.805C530.388 370.026 530.71 372.077 531.755 373.413C532.8 374.749 534.397 375.608 535.867 376.535C537.044 377.2 538.046 378.108 538.802 379.191C538.893 379.342 538.966 379.502 539.02 379.669H547.926C549.918 378.707 551.763 377.494 553.412 376.063V376.063Z" fill="#FFD700"/>
<path d="M339.28 164.608V215.968C339.28 217.696 339.568 218.944 340.144 219.712C340.72 220.416 341.712 220.768 343.12 220.768V223.456C330.128 229.152 323.6 232 323.536 232L322 228.928C322.512 228.928 323.12 228.704 323.824 228.256C324.592 227.808 325.232 227.296 325.744 226.72C327.088 225.184 327.76 222.848 327.76 219.712V172.288C327.76 170.944 327.312 169.856 326.416 169.024C325.52 168.128 324.688 167.584 323.92 167.392C323.152 167.136 322.16 166.88 320.944 166.624V164.512L333.52 158.08C334.928 158.656 336.24 159.616 337.456 160.96C338.672 162.24 339.28 163.456 339.28 164.608Z" fill="white"/>
<defs>
<linearGradient id="paint0_linear" x1="479.64" y1="299.957" x2="479.64" y2="61.9564" gradientUnits="userSpaceOnUse">
<stop stop-color="#808080" stop-opacity="0.25"/>
<stop offset="0.54" stop-color="#808080" stop-opacity="0.12"/>
<stop offset="1" stop-color="#808080" stop-opacity="0.1"/>
</linearGradient>
<linearGradient id="paint1_linear" x1="23686.8" y1="149203" x2="53044.4" y2="149203" gradientUnits="userSpaceOnUse">
<stop stop-color="#808080" stop-opacity="0.25"/>
<stop offset="0.54" stop-color="#808080" stop-opacity="0.12"/>
<stop offset="1" stop-color="#808080" stop-opacity="0.1"/>
</linearGradient>
</defs>
</svg>
